<?xml version="1.0" encoding="UTF-8"?>
<svg width="24px" height="24px" viewBox="0 0 24 24" version="1.1" xmlns="http://www.w3.org/2000/svg" xmlns:xlink="http://www.w3.org/1999/xlink">
    <title>Icon/activity</title>
    <defs>
        <path d="M15,22 C14.6,22 14.2,21.7 14.1,21.3 L9,6.2 L6.9,12.4 C6.8,12.7 6.4,13 6,13 L2,13 C1.4,13 1,12.6 1,12 C1,11.4 1.4,11 2,11 L5.3,11 L8.1,2.7 C8.2,2.3 8.6,2 9,2 C9.4,2 9.8,2.3 9.9,2.7 L15,17.8 L17.1,11.6 C17.2,11.2 17.6,10.9 18,10.9 L22,10.9 C22.6,10.9 23,11.3 23,11.9 C23,12.5 22.6,12.9 22,12.9 L18.7,12.9 L15.9,21.2 C15.8,21.7 15.4,22 15,22 Z" id="path-1"></path>
    </defs>
    <g id="Icon/activity" stroke="none" stroke-width="1" fill="none" fill-rule="evenodd">
        <mask id="mask-2" fill="white">
            <use xlink:href="#path-1"></use>
        </mask>
        <use id="Mask" fill="#000000" fill-rule="nonzero" xlink:href="#path-1"></use>
        <g id="Icon-Color" mask="url(#mask-2)" fill="#22212D">
            <rect id="Shape" x="0" y="0" width="24" height="24"></rect>
        </g>
    </g>
</svg>