<?xml version="1.0" encoding="UTF-8"?>
<svg width="24px" height="24px" viewBox="0 0 24 24" version="1.1" xmlns="http://www.w3.org/2000/svg" xmlns:xlink="http://www.w3.org/1999/xlink">
    <title>Icon/alert-octagon</title>
    <defs>
        <path d="M16.1,23 L7.9,23 C7.6,23 7.4,22.9 7.2,22.7 L1.3,16.8 C1.1,16.7 1,16.4 1,16.1 L1,7.9 C1,7.6 1.1,7.4 1.3,7.2 L7.2,1.3 C7.3,1.1 7.6,1 7.9,1 L16.2,1 C16.5,1 16.7,1.1 16.9,1.3 L22.8,7.2 C22.9,7.3 23,7.6 23,7.9 L23,16.2 C23,16.5 22.9,16.7 22.7,16.9 L16.8,22.8 C16.7,22.9 16.4,23 16.1,23 Z M8.3,21 L15.8,21 L21.1,15.7 L21.1,8.3 L15.7,3 L8.3,3 L3,8.3 L3,15.8 L8.3,21 Z M13,12 L13,8 C13,7.4 12.6,7 12,7 C11.4,7 11,7.4 11,8 L11,12 C11,12.6 11.4,13 12,13 C12.6,13 13,12.6 13,12 Z M12.7,16.7 C12.8,16.6 12.9,16.5 12.9,16.4 C12.9,16.3 13,16.1 13,16 C13,15.9 13,15.7 12.9,15.6 C12.8,15.5 12.8,15.4 12.7,15.3 C12.7,15.3 12.6,15.2 12.5,15.2 C12.4,15.2 12.4,15.1 12.3,15.1 C11.9,14.9 11.5,15 11.2,15.3 C11.1,15.4 11,15.5 11,15.6 C11,15.7 10.9,15.8 10.9,16 C10.9,16.3 11,16.5 11.2,16.7 C11.4,16.9 11.6,17 11.9,17 C12.3,17 12.5,16.9 12.7,16.7 Z" id="path-1"></path>
    </defs>
    <g id="Icon/alert-octagon" stroke="none" stroke-width="1" fill="none" fill-rule="evenodd">
        <mask id="mask-2" fill="white">
            <use xlink:href="#path-1"></use>
        </mask>
        <use id="Mask" fill="#000000" fill-rule="nonzero" xlink:href="#path-1"></use>
        <g id="Icon-Color" mask="url(#mask-2)" fill="#22212D">
            <rect id="Shape" x="0" y="0" width="24" height="24"></rect>
        </g>
    </g>
</svg>