<?xml version="1.0" encoding="UTF-8"?>
<svg width="24px" height="24px" viewBox="0 0 24 24" version="1.1" xmlns="http://www.w3.org/2000/svg" xmlns:xlink="http://www.w3.org/1999/xlink">
    <title>Icon/alert-circle</title>
    <defs>
        <path d="M12,23 C5.9,23 1,18.1 1,12 C1,5.9 5.9,1 12,1 C18.1,1 23,5.9 23,12 C23,18.1 18.1,23 12,23 Z M12,3 C7,3 3,7 3,12 C3,17 7,21 12,21 C17,21 21,17 21,12 C21,7 17,3 12,3 Z M13,12 L13,8 C13,7.4 12.6,7 12,7 C11.4,7 11,7.4 11,8 L11,12 C11,12.6 11.4,13 12,13 C12.6,13 13,12.6 13,12 Z M12.7,16.7 C12.8,16.6 12.9,16.5 12.9,16.4 C12.9,16.3 13,16.1 13,16 C13,15.9 13,15.7 12.9,15.6 C12.8,15.5 12.8,15.4 12.7,15.3 C12.7,15.3 12.6,15.2 12.5,15.2 C12.4,15.2 12.4,15.1 12.3,15.1 C11.9,14.9 11.5,15 11.2,15.3 C11.1,15.4 11,15.5 11,15.6 C11,15.7 10.9,15.8 10.9,16 C10.9,16.3 11,16.5 11.2,16.7 C11.4,16.9 11.6,17 11.9,17 C12.3,17 12.5,16.9 12.7,16.7 Z" id="path-1"></path>
    </defs>
    <g id="Icon/alert-circle" stroke="none" stroke-width="1" fill="none" fill-rule="evenodd">
        <mask id="mask-2" fill="white">
            <use xlink:href="#path-1"></use>
        </mask>
        <use id="Mask" fill="#000000" fill-rule="nonzero" xlink:href="#path-1"></use>
        <g id="Icon-Color" mask="url(#mask-2)" fill="#22212D">
            <rect id="Shape" x="0" y="0" width="24" height="24"></rect>
        </g>
    </g>
</svg>