<?xml version="1.0" encoding="UTF-8"?>
<svg width="24px" height="24px" viewBox="0 0 24 24" version="1.1" xmlns="http://www.w3.org/2000/svg" xmlns:xlink="http://www.w3.org/1999/xlink">
    <title>Icon/align-left</title>
    <defs>
        <path d="M17,11 L3,11 C2.4,11 2,10.6 2,10 C2,9.4 2.4,9 3,9 L17,9 C17.6,9 18,9.4 18,10 C18,10.6 17.6,11 17,11 Z M22,6 C22,5.4 21.6,5 21,5 L3,5 C2.4,5 2,5.4 2,6 C2,6.6 2.4,7 3,7 L21,7 C21.6,7 22,6.6 22,6 Z M22,14 C22,13.4 21.6,13 21,13 L3,13 C2.4,13 2,13.4 2,14 C2,14.6 2.4,15 3,15 L21,15 C21.6,15 22,14.6 22,14 Z M18,18 C18,17.4 17.6,17 17,17 L3,17 C2.4,17 2,17.4 2,18 C2,18.6 2.4,19 3,19 L17,19 C17.6,19 18,18.6 18,18 Z" id="path-1"></path>
    </defs>
    <g id="Icon/align-left" stroke="none" stroke-width="1" fill="none" fill-rule="evenodd">
        <mask id="mask-2" fill="white">
            <use xlink:href="#path-1"></use>
        </mask>
        <use id="Mask" fill="#000000" fill-rule="nonzero" xlink:href="#path-1"></use>
        <g id="Icon-Color" mask="url(#mask-2)" fill="#22212D">
            <rect id="Shape" x="0" y="0" width="24" height="24"></rect>
        </g>
    </g>
</svg>