<?xml version="1.0" encoding="UTF-8"?>
<svg width="24px" height="24px" viewBox="0 0 24 24" version="1.1" xmlns="http://www.w3.org/2000/svg" xmlns:xlink="http://www.w3.org/1999/xlink">
    <title>Icon/align-center</title>
    <defs>
        <path d="M18,11 L6,11 C5.4,11 5,10.6 5,10 C5,9.4 5.4,9 6,9 L18,9 C18.6,9 19,9.4 19,10 C19,10.6 18.6,11 18,11 Z M22,6 C22,5.4 21.6,5 21,5 L3,5 C2.4,5 2,5.4 2,6 C2,6.6 2.4,7 3,7 L21,7 C21.6,7 22,6.6 22,6 Z M22,14 C22,13.4 21.6,13 21,13 L3,13 C2.4,13 2,13.4 2,14 C2,14.6 2.4,15 3,15 L21,15 C21.6,15 22,14.6 22,14 Z M19,18 C19,17.4 18.6,17 18,17 L6,17 C5.4,17 5,17.4 5,18 C5,18.6 5.4,19 6,19 L18,19 C18.6,19 19,18.6 19,18 Z" id="path-1"></path>
    </defs>
    <g id="Icon/align-center" stroke="none" stroke-width="1" fill="none" fill-rule="evenodd">
        <mask id="mask-2" fill="white">
            <use xlink:href="#path-1"></use>
        </mask>
        <use id="Mask" fill="#000000" fill-rule="nonzero" xlink:href="#path-1"></use>
        <g id="Icon-Color" mask="url(#mask-2)" fill="#22212D">
            <rect id="Shape" x="0" y="0" width="24" height="24"></rect>
        </g>
    </g>
</svg>