<?xml version="1.0" encoding="UTF-8"?>
<svg width="24px" height="24px" viewBox="0 0 24 24" version="1.1" xmlns="http://www.w3.org/2000/svg" xmlns:xlink="http://www.w3.org/1999/xlink">
    <title>Icon/anchor</title>
    <defs>
        <path d="M22,11 L19,11 C18.4,11 18,11.4 18,12 C18,12.6 18.4,13 19,13 L20.9,13 C20.4,17.2 17.1,20.5 13,20.9 L13,8.9 C14.7,8.5 16,6.9 16,5 C16,2.8 14.2,1 12,1 C9.8,1 8,2.8 8,5 C8,6.9 9.3,8.4 11,8.9 L11,21 C6.8,20.5 3.5,17.2 3.1,13.1 L5,13.1 C5.6,13.1 6,12.7 6,12.1 C6,11.5 5.6,11.1 5,11.1 L2,11.1 C1.4,11.1 1,11.5 1,12.1 C1,18.2 5.9,23.1 12,23.1 C18.1,23.1 23,18.2 23,12.1 C23,11.4 22.6,11 22,11 Z M10,5 C10,3.9 10.9,3 12,3 C13.1,3 14,3.9 14,5 C14,6.1 13.1,7 12,7 C10.9,7 10,6.1 10,5 Z" id="path-1"></path>
    </defs>
    <g id="Icon/anchor" stroke="none" stroke-width="1" fill="none" fill-rule="evenodd">
        <mask id="mask-2" fill="white">
            <use xlink:href="#path-1"></use>
        </mask>
        <use id="Mask" fill="#000000" fill-rule="nonzero" xlink:href="#path-1"></use>
        <g id="Icon-Color" mask="url(#mask-2)" fill="#22212D">
            <rect id="Shape" x="0" y="0" width="24" height="24"></rect>
        </g>
    </g>
</svg>