<?xml version="1.0" encoding="UTF-8"?>
<svg width="24px" height="24px" viewBox="0 0 24 24" version="1.1" xmlns="http://www.w3.org/2000/svg" xmlns:xlink="http://www.w3.org/1999/xlink">
    <title>Icon/aperture</title>
    <defs>
        <path d="M20.9,18.4 C22.2,16.6 23,14.4 23,12 C23,10.5 22.7,9 22.1,7.7 C22.1,7.7 22.1,7.6 22.1,7.6 C20.6,4.1 17.3,1.6 13.3,1.1 C13.3,1.1 13.2,1.1 13.2,1.1 C12.8,1 12.4,1 12,1 C8.4,1 5.2,2.7 3.2,5.4 C3.2,5.5 3.1,5.5 3.1,5.6 C1.8,7.4 1,9.6 1,12 C1,13.5 1.3,15 1.9,16.4 C1.9,16.4 1.9,16.5 1.9,16.5 C3.4,19.9 6.7,22.5 10.6,23 C10.6,23 10.7,23 10.7,23 C11.1,23 11.5,23.1 11.9,23.1 C15.5,23.1 18.7,21.4 20.7,18.7 C20.8,18.6 20.9,18.5 20.9,18.4 Z M13.7,15 L10.2,15 L8.5,12 L10.2,9 L13.7,9 L15.4,12 L13.7,15 Z M3,12 C3,10.6 3.3,9.2 3.9,8 L7.9,15 L3.5,15 C3.2,14.1 3,13.1 3,12 Z M16,9 L20.4,9 C20.7,9.9 20.9,10.9 20.9,12 C20.9,13.4 20.6,14.8 20,16 L16,9 Z M19.5,7 L11.4,7 L13.6,3.2 C16.1,3.6 18.2,5 19.5,7 Z M11.4,3 L7.4,10 L5.2,6.2 C6.7,4.4 8.9,3.2 11.4,3 Z M4.5,17 L12.6,17 L10.4,20.8 C7.9,20.4 5.8,19 4.5,17 Z M12.6,21 L16.6,14 L18.8,17.8 C17.3,19.6 15.1,20.8 12.6,21 Z" id="path-1"></path>
    </defs>
    <g id="Icon/aperture" stroke="none" stroke-width="1" fill="none" fill-rule="evenodd">
        <mask id="mask-2" fill="white">
            <use xlink:href="#path-1"></use>
        </mask>
        <use id="Mask" fill="#000000" fill-rule="nonzero" xlink:href="#path-1"></use>
        <g id="Icon-Color" mask="url(#mask-2)" fill="#22212D">
            <rect id="Shape" x="0" y="0" width="24" height="24"></rect>
        </g>
    </g>
</svg>