<?xml version="1.0" encoding="UTF-8"?>
<svg width="24px" height="24px" viewBox="0 0 24 24" version="1.1" xmlns="http://www.w3.org/2000/svg" xmlns:xlink="http://www.w3.org/1999/xlink">
    <title>Icon/archive</title>
    <defs>
        <path d="M20,20 L20,8 C20,7.44771525 20.4477153,7 21,7 C21.5522847,7 22,7.44771525 22,8 L22,21 C22,21.5522847 21.5522847,22 21,22 L3,22 C2.44771525,22 2,21.5522847 2,21 L2,8 C2,7.44771525 2.44771525,7 3,7 C3.55228475,7 4,7.44771525 4,8 L4,20 L20,20 Z M2,4 L2,7 L22,7 L22,4 L2,4 Z M14,11 C14.5522847,11 15,11.4477153 15,12 C15,12.5522847 14.5522847,13 14,13 L10,13 C9.44771525,13 9,12.5522847 9,12 C9,11.4477153 9.44771525,11 10,11 L14,11 Z M23,2 C23.5522847,2 24,2.44771525 24,3 L24,8 C24,8.55228475 23.5522847,9 23,9 L1,9 C0.44771525,9 0,8.55228475 0,8 L0,3 C0,2.44771525 0.44771525,2 1,2 L23,2 Z" id="path-1"></path>
    </defs>
    <g id="Icon/archive" stroke="none" stroke-width="1" fill="none" fill-rule="evenodd">
        <mask id="mask-2" fill="white">
            <use xlink:href="#path-1"></use>
        </mask>
        <use id="Mask" fill="#000000" fill-rule="nonzero" xlink:href="#path-1"></use>
        <g id="Icon-Color" mask="url(#mask-2)" fill="#22212D">
            <rect id="Shape" x="0" y="0" width="24" height="24"></rect>
        </g>
    </g>
</svg>