<?xml version="1.0" encoding="UTF-8"?>
<svg width="24px" height="24px" viewBox="0 0 24 24" version="1.1" xmlns="http://www.w3.org/2000/svg" xmlns:xlink="http://www.w3.org/1999/xlink">
    <title>Icon/arrow-right-circle</title>
    <defs>
        <path d="M12,1 C5.9,1 1,5.9 1,12 C1,18.1 5.9,23 12,23 C18.1,23 23,18.1 23,12 C23,5.9 18.1,1 12,1 Z M12,21 C7,21 3,17 3,12 C3,7 7,3 12,3 C17,3 21,7 21,12 C21,17 17,21 12,21 Z M16.9,11.6 C16.9,11.7 17,11.8 17,12 C17,12 17,12 17,12 C17,12.1 17,12.3 16.9,12.4 C16.9,12.5 16.8,12.6 16.7,12.7 L12.7,16.7 C12.5,16.9 12.3,17 12,17 C11.7,17 11.5,16.9 11.3,16.7 C10.9,16.3 10.9,15.7 11.3,15.3 L13.6,13 L8,13 C7.4,13 7,12.6 7,12 C7,11.4 7.4,11 8,11 L13.6,11 L11.3,8.7 C10.9,8.3 10.9,7.7 11.3,7.3 C11.7,6.9 12.3,6.9 12.7,7.3 L16.7,11.3 C16.8,11.4 16.9,11.5 16.9,11.6 Z" id="path-1"></path>
    </defs>
    <g id="Icon/arrow-right-circle" stroke="none" stroke-width="1" fill="none" fill-rule="evenodd">
        <mask id="mask-2" fill="white">
            <use xlink:href="#path-1"></use>
        </mask>
        <use id="Shape" fill="#000000" fill-rule="nonzero" xlink:href="#path-1"></use>
        <g id="Icon-Color" mask="url(#mask-2)" fill="#22212D">
            <rect id="Shape" x="0" y="0" width="24" height="24"></rect>
        </g>
    </g>
</svg>