<?xml version="1.0" encoding="UTF-8"?>
<svg width="24px" height="24px" viewBox="0 0 24 24" version="1.1" xmlns="http://www.w3.org/2000/svg" xmlns:xlink="http://www.w3.org/1999/xlink">
    <title>Icon/arrow-down-right</title>
    <defs>
        <path d="M17,6 C17.5522847,6 18,6.44771525 18,7 L18,17 L17.9994506,17.0332468 C17.9988772,17.050591 17.997855,17.0679231 17.996384,17.0852242 L18,17 C18,17.0506203 17.9962388,17.1003621 17.9889807,17.1489612 C17.9863719,17.165949 17.9832978,17.1833753 17.9797599,17.2007258 C17.9753602,17.2227461 17.9701664,17.2444365 17.964279,17.2658396 C17.9599023,17.2814633 17.9552713,17.2968513 17.9502619,17.3121425 C17.9438775,17.3317977 17.9366843,17.3515792 17.928896,17.3710585 C17.9218036,17.3887956 17.914321,17.4060985 17.9063266,17.4232215 C17.8966234,17.4438914 17.8862061,17.4642939 17.8751242,17.484277 C17.8685012,17.4963944 17.8613931,17.5086131 17.8540045,17.5207088 C17.8382813,17.546275 17.8215099,17.5711307 17.8036865,17.5951593 C17.7982466,17.602603 17.7927155,17.6098424 17.7870723,17.6170223 C17.7374483,17.6801818 17.6801818,17.7374483 17.6167501,17.787214 L17.7071068,17.7071068 C17.6717127,17.7425008 17.6343256,17.774687 17.5953066,17.8036654 C17.5711307,17.8215099 17.546275,17.8382813 17.5206602,17.8539326 C17.5086131,17.8613931 17.4963944,17.8685012 17.4840621,17.8753288 C17.4642939,17.8862061 17.4438914,17.8966234 17.4230991,17.9063462 C17.4060985,17.914321 17.3887956,17.9218036 17.371336,17.9287745 C17.3515792,17.9366843 17.3317977,17.9438775 17.3117364,17.9504533 C17.2968513,17.9552713 17.2814633,17.9599023 17.265993,17.9641549 C17.2444365,17.9701664 17.2227461,17.9753602 17.2007941,17.9798348 C17.1833753,17.9832978 17.165949,17.9863719 17.1484669,17.9889822 C17.1281144,17.9920941 17.1070574,17.994564 17.085811,17.9963697 C17.0679231,17.997855 17.050591,17.9988772 17.0332468,17.9994506 C17.0224019,17.9998151 17.0112225,18 17,18 L7,18 C6.44771525,18 6,17.5522847 6,17 C6,16.4477153 6.44771525,16 7,16 L14.585,16 L6.29289322,7.70710678 C5.90236893,7.31658249 5.90236893,6.68341751 6.29289322,6.29289322 C6.68341751,5.90236893 7.31658249,5.90236893 7.70710678,6.29289322 L16,14.585 L16,7 C16,6.44771525 16.4477153,6 17,6 Z" id="path-1"></path>
    </defs>
    <g id="Icon/arrow-down-right" stroke="none" stroke-width="1" fill="none" fill-rule="evenodd">
        <mask id="mask-2" fill="white">
            <use xlink:href="#path-1"></use>
        </mask>
        <use id="Mask" fill="#000000" fill-rule="nonzero" xlink:href="#path-1"></use>
        <g id="Icon-Color" mask="url(#mask-2)" fill="#22212D">
            <rect id="Shape" x="0" y="0" width="24" height="24"></rect>
        </g>
    </g>
</svg>