<?xml version="1.0" encoding="UTF-8"?>
<svg width="24px" height="24px" viewBox="0 0 24 24" version="1.1" xmlns="http://www.w3.org/2000/svg" xmlns:xlink="http://www.w3.org/1999/xlink">
    <title>Icon/arrow-up</title>
    <defs>
        <path d="M12,4 L12.0193545,4.00018615 C12.042681,4.00063489 12.0659949,4.00189498 12.0892501,4.00396641 L12,4 C12.0506203,4 12.1003621,4.00376119 12.1489612,4.01101934 C12.165949,4.01362808 12.1833753,4.01670217 12.2007258,4.02024007 C12.2227461,4.0246398 12.2444365,4.02983363 12.2658396,4.03572097 C12.2814633,4.04009773 12.2968513,4.04472872 12.3121425,4.04973809 C12.3317977,4.05612249 12.3515792,4.06331574 12.3710585,4.07110396 C12.3887956,4.07819642 12.4060985,4.08567905 12.4232215,4.09367336 C12.4438914,4.10337664 12.4642939,4.11379392 12.484277,4.12487577 C12.4963944,4.13149883 12.5086131,4.13860692 12.5207088,4.14599545 C12.546275,4.1617187 12.5711307,4.17849009 12.5951593,4.19631351 C12.602603,4.20175344 12.6098424,4.20728448 12.6170223,4.21292769 C12.6196628,4.21507113 12.6225624,4.2173721 12.625449,4.21968877 L12.7071068,4.29289322 L12.7071068,4.29289322 L19.7071068,11.2928932 C20.0976311,11.6834175 20.0976311,12.3165825 19.7071068,12.7071068 C19.3165825,13.0976311 18.6834175,13.0976311 18.2928932,12.7071068 L13,7.414 L13,19 C13,19.5522847 12.5522847,20 12,20 C11.4477153,20 11,19.5522847 11,19 L11,7.414 L5.70710678,12.7071068 C5.31658249,13.0976311 4.68341751,13.0976311 4.29289322,12.7071068 C3.90236893,12.3165825 3.90236893,11.6834175 4.29289322,11.2928932 L11.2928932,4.29289322 L11.374551,4.21968877 C11.3774376,4.2173721 11.3803372,4.21507113 11.3832499,4.21278596 L11.2928932,4.29289322 C11.3282873,4.25749917 11.3656744,4.22531295 11.4046934,4.19633458 C11.4288693,4.17849009 11.453725,4.1617187 11.4793398,4.14606743 C11.4913869,4.13860692 11.5036056,4.13149883 11.5159379,4.12467117 C11.5357061,4.11379392 11.5561086,4.10337664 11.5769009,4.09365378 C11.5939015,4.08567905 11.6112044,4.07819642 11.628664,4.07122549 C11.6484208,4.06331574 11.6682023,4.05612249 11.6882636,4.04954668 C11.7031487,4.04472872 11.7185367,4.04009773 11.734007,4.03584514 C11.7555635,4.02983363 11.7772539,4.0246398 11.7992059,4.02016515 C11.8166247,4.01670217 11.834051,4.01362808 11.8515331,4.0110178 C11.8705042,4.00811223 11.890153,4.00576612 11.909968,4.00399798 C11.9343349,4.0018656 11.9579802,4.00059932 11.9816379,4.00016755 C11.9872016,4.00006024 11.9935938,4 12,4 Z" id="path-1"></path>
    </defs>
    <g id="Icon/arrow-up" stroke="none" stroke-width="1" fill="none" fill-rule="evenodd">
        <mask id="mask-2" fill="white">
            <use xlink:href="#path-1"></use>
        </mask>
        <use id="Mask" fill="#000000" fill-rule="nonzero" xlink:href="#path-1"></use>
        <g id="Icon-Color" mask="url(#mask-2)" fill="#22212D">
            <rect id="Shape" x="0" y="0" width="24" height="24"></rect>
        </g>
    </g>
</svg>