<?xml version="1.0" encoding="UTF-8"?>
<svg width="24px" height="24px" viewBox="0 0 24 24" version="1.1" xmlns="http://www.w3.org/2000/svg" xmlns:xlink="http://www.w3.org/1999/xlink">
    <title>Icon/arrow-up-right</title>
    <defs>
        <path d="M17,6 L17.0193545,6.00018615 C17.042681,6.00063489 17.0659949,6.00189498 17.0892501,6.00396641 L17,6 C17.0506203,6 17.1003621,6.00376119 17.1489612,6.01101934 C17.165949,6.01362808 17.1833753,6.01670217 17.2007258,6.02024007 C17.2227461,6.0246398 17.2444365,6.02983363 17.2658396,6.03572097 C17.2814633,6.04009773 17.2968513,6.04472872 17.3121425,6.04973809 C17.3317977,6.05612249 17.3515792,6.06331574 17.3710585,6.07110396 C17.3887956,6.07819642 17.4060985,6.08567905 17.4232215,6.09367336 C17.4438914,6.10337664 17.4642939,6.11379392 17.484277,6.12487577 C17.4963944,6.13149883 17.5086131,6.13860692 17.5207088,6.14599545 C17.546275,6.1617187 17.5711307,6.17849009 17.5951593,6.19631351 C17.602603,6.20175344 17.6098424,6.20728448 17.6170223,6.21292769 C17.6801818,6.26255171 17.7374483,6.31981825 17.787214,6.38324992 L17.7071068,6.29289322 C17.7425008,6.32828727 17.774687,6.36567442 17.8036654,6.40469339 C17.8215099,6.42886931 17.8382813,6.45372505 17.8539326,6.47933981 C17.8613931,6.49138689 17.8685012,6.50360556 17.8753288,6.5159379 C17.8862061,6.53570605 17.8966234,6.5561086 17.9063462,6.57690085 C17.914321,6.5939015 17.9218036,6.61120435 17.9287745,6.62866398 C17.9366843,6.6484208 17.9438775,6.66820232 17.9504533,6.68826359 C17.9552713,6.70314866 17.9599023,6.71853672 17.9641549,6.73400703 C17.9701664,6.75556352 17.9753602,6.77725392 17.9798348,6.7992059 C17.9832978,6.81662474 17.9863719,6.83405099 17.9889822,6.85153313 C17.9920328,6.87147534 17.9944666,6.89211395 17.9962623,6.91293499 C17.9978436,6.93173451 17.9989053,6.94973363 17.9994829,6.96774538 C17.9998183,6.97778921 18,6.98887338 18,7 L18,17 C18,17.5522847 17.5522847,18 17,18 C16.4477153,18 16,17.5522847 16,17 L16,9.414 L7.70710678,17.7071068 C7.31658249,18.0976311 6.68341751,18.0976311 6.29289322,17.7071068 C5.90236893,17.3165825 5.90236893,16.6834175 6.29289322,16.2928932 L14.584,8 L7,8 C6.44771525,8 6,7.55228475 6,7 C6,6.44771525 6.44771525,6 7,6 L17,6 Z" id="path-1"></path>
    </defs>
    <g id="Icon/arrow-up-right" stroke="none" stroke-width="1" fill="none" fill-rule="evenodd">
        <mask id="mask-2" fill="white">
            <use xlink:href="#path-1"></use>
        </mask>
        <use id="Mask" fill="#000000" fill-rule="nonzero" xlink:href="#path-1"></use>
        <g id="Icon-Color" mask="url(#mask-2)" fill="#22212D">
            <rect id="Shape" x="0" y="0" width="24" height="24"></rect>
        </g>
    </g>
</svg>