<?xml version="1.0" encoding="UTF-8"?>
<svg width="24px" height="24px" viewBox="0 0 24 24" version="1.1" xmlns="http://www.w3.org/2000/svg" xmlns:xlink="http://www.w3.org/1999/xlink">
    <title>Icon/arrow-up-left</title>
    <defs>
        <path d="M17,6 C17.5522847,6 18,6.44771525 18,7 C18,7.55228475 17.5522847,8 17,8 L9.415,8 L17.7071068,16.2928932 C18.0976311,16.6834175 18.0976311,17.3165825 17.7071068,17.7071068 C17.3165825,18.0976311 16.6834175,18.0976311 16.2928932,17.7071068 L8,9.415 L8,17 C8,17.5522847 7.55228475,18 7,18 C6.44771525,18 6,17.5522847 6,17 L6,7 L6.00016755,6.98163795 C6.00059932,6.95798023 6.0018656,6.93433491 6.00396641,6.91074993 L6,7 C6,6.94937972 6.00376119,6.89963791 6.01101934,6.85103878 C6.01362808,6.83405099 6.01670217,6.81662474 6.02024007,6.79927424 C6.0246398,6.77725392 6.02983363,6.75556352 6.03572097,6.73416039 C6.04009773,6.71853672 6.04472872,6.70314866 6.04973809,6.68785748 C6.05612249,6.66820232 6.06331574,6.6484208 6.07110396,6.62894148 C6.07819642,6.61120435 6.08567905,6.5939015 6.09367336,6.57677845 C6.10337664,6.5561086 6.11379392,6.53570605 6.12487577,6.51572305 C6.13149883,6.50360556 6.13860692,6.49138689 6.14599545,6.47929125 C6.1617187,6.45372505 6.17849009,6.42886931 6.19631351,6.4048407 C6.20175344,6.39739696 6.20728448,6.39015759 6.21292769,6.38297765 C6.26255171,6.31981825 6.31981825,6.26255171 6.38324992,6.21278596 L6.29289322,6.29289322 C6.32828727,6.25749917 6.36567442,6.22531295 6.40469339,6.19633458 C6.42886931,6.17849009 6.45372505,6.1617187 6.47933981,6.14606743 C6.49138689,6.13860692 6.50360556,6.13149883 6.5159379,6.12467117 C6.53570605,6.11379392 6.5561086,6.10337664 6.57690085,6.09365378 C6.5939015,6.08567905 6.61120435,6.07819642 6.62866398,6.07122549 C6.6484208,6.06331574 6.66820232,6.05612249 6.68826359,6.04954668 C6.70314866,6.04472872 6.71853672,6.04009773 6.73400703,6.03584514 C6.75556352,6.02983363 6.77725392,6.0246398 6.7992059,6.02016515 C6.81662474,6.01670217 6.83405099,6.01362808 6.85153313,6.0110178 C6.87050421,6.00811223 6.89015296,6.00576612 6.90996805,6.00399798 C6.93433491,6.0018656 6.95798023,6.00059932 6.98163795,6.00016755 C6.9872016,6.00006024 6.99359377,6 7,6 L17,6 Z" id="path-1"></path>
    </defs>
    <g id="Icon/arrow-up-left" stroke="none" stroke-width="1" fill="none" fill-rule="evenodd">
        <mask id="mask-2" fill="white">
            <use xlink:href="#path-1"></use>
        </mask>
        <use id="Mask" fill="#000000" fill-rule="nonzero" xlink:href="#path-1"></use>
        <g id="Icon-Color" mask="url(#mask-2)" fill="#22212D">
            <rect id="Shape" x="0" y="0" width="24" height="24"></rect>
        </g>
    </g>
</svg>