<?xml version="1.0" encoding="UTF-8"?>
<svg width="24px" height="24px" viewBox="0 0 24 24" version="1.1" xmlns="http://www.w3.org/2000/svg" xmlns:xlink="http://www.w3.org/1999/xlink">
    <title>Icon/arrow-up-circle</title>
    <defs>
        <path d="M16.7,11.3 C17.1,11.7 17.1,12.3 16.7,12.7 C16.3,13.1 15.7,13.1 15.3,12.7 L13,10.4 L13,16 C13,16.6 12.6,17 12,17 C11.4,17 11,16.6 11,16 L11,10.4 L8.7,12.7 C8.3,13.1 7.7,13.1 7.3,12.7 C6.9,12.3 6.9,11.7 7.3,11.3 L11.3,7.3 C11.4,7.2 11.5,7.1 11.6,7.1 C11.7,7 11.9,7 12,7 C12,7 12,7 12,7 C12.1,7 12.3,7 12.4,7.1 C12.5,7.1 12.6,7.2 12.7,7.3 L16.7,11.3 Z M23,12 C23,18.1 18.1,23 12,23 C5.9,23 1,18.1 1,12 C1,5.9 5.9,1 12,1 C18.1,1 23,5.9 23,12 Z M21,12 C21,7 17,3 12,3 C7,3 3,7 3,12 C3,17 7,21 12,21 C17,21 21,17 21,12 Z" id="path-1"></path>
    </defs>
    <g id="Icon/arrow-up-circle" stroke="none" stroke-width="1" fill="none" fill-rule="evenodd">
        <mask id="mask-2" fill="white">
            <use xlink:href="#path-1"></use>
        </mask>
        <use id="Shape" fill="#000000" fill-rule="nonzero" xlink:href="#path-1"></use>
        <g id="Icon-Color" mask="url(#mask-2)" fill="#22212D">
            <rect id="Shape" x="0" y="0" width="24" height="24"></rect>
        </g>
    </g>
</svg>