<?xml version="1.0" encoding="UTF-8"?>
<svg width="24px" height="24px" viewBox="0 0 24 24" version="1.1" xmlns="http://www.w3.org/2000/svg" xmlns:xlink="http://www.w3.org/1999/xlink">
    <title>Icon/arrow-down-left</title>
    <defs>
        <path d="M7,6 C7.55228475,6 8,6.44771525 8,7 L8,14.584 L16.2928932,6.29289322 C16.6834175,5.90236893 17.3165825,5.90236893 17.7071068,6.29289322 C18.0976311,6.68341751 18.0976311,7.31658249 17.7071068,7.70710678 L9.414,16 L17,16 C17.5522847,16 18,16.4477153 18,17 C18,17.5522847 17.5522847,18 17,18 L7,18 L6.96774538,17.9994829 C6.94973363,17.9989053 6.93173451,17.9978436 6.9137692,17.9962979 L7,18 C6.94937972,18 6.89963791,17.9962388 6.85103878,17.9889807 C6.83405099,17.9863719 6.81662474,17.9832978 6.79927424,17.9797599 C6.77725392,17.9753602 6.75556352,17.9701664 6.73416039,17.964279 C6.71853672,17.9599023 6.70314866,17.9552713 6.68785748,17.9502619 C6.66820232,17.9438775 6.6484208,17.9366843 6.62894148,17.928896 C6.61120435,17.9218036 6.5939015,17.914321 6.57677845,17.9063266 C6.5561086,17.8966234 6.53570605,17.8862061 6.51572305,17.8751242 C6.50360556,17.8685012 6.49138689,17.8613931 6.47929125,17.8540045 C6.45372505,17.8382813 6.42886931,17.8215099 6.4048407,17.8036865 C6.39739696,17.7982466 6.39015759,17.7927155 6.38297765,17.7870723 C6.31981825,17.7374483 6.26255171,17.6801818 6.21278596,17.6167501 L6.29289322,17.7071068 C6.25749917,17.6717127 6.22531295,17.6343256 6.19633458,17.5953066 C6.17849009,17.5711307 6.1617187,17.546275 6.14606743,17.5206602 C6.13860692,17.5086131 6.13149883,17.4963944 6.12467117,17.4840621 C6.11379392,17.4642939 6.10337664,17.4438914 6.09365378,17.4230991 C6.08567905,17.4060985 6.07819642,17.3887956 6.07122549,17.371336 C6.06331574,17.3515792 6.05612249,17.3317977 6.04954668,17.3117364 C6.04472872,17.2968513 6.04009773,17.2814633 6.03584514,17.265993 C6.02983363,17.2444365 6.0246398,17.2227461 6.02016515,17.2007941 C6.01670217,17.1833753 6.01362808,17.165949 6.0110178,17.1484669 C6.00810098,17.1294204 6.00574796,17.1096949 6.00397748,17.0898018 C6.00189498,17.0659949 6.00063489,17.042681 6.00018615,17.0193545 C6.00006128,17.0129086 6,17.0064615 6,17 L6,7 C6,6.44771525 6.44771525,6 7,6 Z" id="path-1"></path>
    </defs>
    <g id="Icon/arrow-down-left" stroke="none" stroke-width="1" fill="none" fill-rule="evenodd">
        <mask id="mask-2" fill="white">
            <use xlink:href="#path-1"></use>
        </mask>
        <use id="Mask" fill="#000000" fill-rule="nonzero" xlink:href="#path-1"></use>
        <g id="Icon-Color" mask="url(#mask-2)" fill="#22212D">
            <rect id="Shape" x="0" y="0" width="24" height="24"></rect>
        </g>
    </g>
</svg>