<?xml version="1.0" encoding="UTF-8"?>
<svg width="24px" height="24px" viewBox="0 0 24 24" version="1.1" xmlns="http://www.w3.org/2000/svg" xmlns:xlink="http://www.w3.org/1999/xlink">
    <title>Icon/at-sign</title>
    <defs>
        <path d="M12,1 C9.1,1 6.3,2.1 4.2,4.2 C2.1,6.3 1,9.1 1,12 C1,18.1 5.9,23 12,23 C14.4,23 16.8,22.2 18.7,20.7 C19.1,20.4 19.2,19.7 18.9,19.3 C18.6,18.9 17.9,18.8 17.5,19.1 C15.9,20.3 14,21 12,21 C7,21 3,17 3,12 C3,9.6 3.9,7.3 5.6,5.6 C7.3,3.9 9.6,3 12,3 C17,3 21,7 21,12 L21,13 C21,14.1 20.1,15 19,15 C17.9,15 17,14.1 17,13 L17,12 C17,9.2 14.8,7 12,7 C9.2,7 7,9.2 7,12 C7,14.8 9.2,17 12,17 C13.5,17 14.8,16.3 15.7,15.3 C16.4,16.3 17.6,17 19,17 C21.2,17 23,15.2 23,13 L23,12 C23,5.9 18.1,1 12,1 Z M12,15 C10.3,15 9,13.7 9,12 C9,10.3 10.3,9 12,9 C13.7,9 15,10.3 15,12 C15,13.7 13.7,15 12,15 Z" id="path-1"></path>
    </defs>
    <g id="Icon/at-sign" stroke="none" stroke-width="1" fill="none" fill-rule="evenodd">
        <mask id="mask-2" fill="white">
            <use xlink:href="#path-1"></use>
        </mask>
        <use id="Mask" fill="#000000" fill-rule="nonzero" xlink:href="#path-1"></use>
        <g id="Icon-Color" mask="url(#mask-2)" fill="#22212D">
            <rect id="Shape" x="0" y="0" width="24" height="24"></rect>
        </g>
    </g>
</svg>