<?xml version="1.0" encoding="UTF-8"?>
<svg width="24px" height="24px" viewBox="0 0 24 24" version="1.1" xmlns="http://www.w3.org/2000/svg" xmlns:xlink="http://www.w3.org/1999/xlink">
    <title>Icon/award</title>
    <defs>
        <path d="M20,7.98336798 C20,3.59251559 16.4,0 12,0 C7.6,0 4,3.59251559 4,7.98336798 C4,10.5779626 5.2,12.8731809 7.1,14.2702703 L6,22.8523909 C5.9,23.2515593 6.1,23.6507277 6.4,23.8503119 C6.7,24.049896 7.1,24.049896 7.5,23.8503119 L12,21.1559252 L16.5,23.8503119 C16.6,23.950104 16.8,23.950104 17,23.950104 C17.2,23.950104 17.4,23.8503119 17.5,23.7505198 C17.8,23.5509356 18,23.1517672 17.9,22.7525988 L16.8,14.2702703 C18.8,12.8731809 20,10.5779626 20,7.98336798 Z M6,7.98336798 C6,4.69022869 8.7,1.995842 12,1.995842 C15.3,1.995842 18,4.69022869 18,7.98336798 C18,11.2765073 15.3,13.970894 12,13.970894 C8.7,13.970894 6,11.2765073 6,7.98336798 Z M15.7,21.0561331 L12.5,19.1600832 C12.2,18.960499 11.8,18.960499 11.5,19.1600832 L8.3,21.0561331 L9,15.3679834 C9.9,15.7671518 10.9,15.966736 12,15.966736 C13.1,15.966736 14.1,15.7671518 15,15.3679834 L15.7,21.0561331 Z" id="path-1"></path>
    </defs>
    <g id="Icon/award" stroke="none" stroke-width="1" fill="none" fill-rule="evenodd">
        <mask id="mask-2" fill="white">
            <use xlink:href="#path-1"></use>
        </mask>
        <use id="Shape" fill="#000000" fill-rule="nonzero" xlink:href="#path-1"></use>
        <g id="Icon-Color" mask="url(#mask-2)" fill="#22212D">
            <rect id="Shape" x="0" y="0" width="24" height="24"></rect>
        </g>
    </g>
</svg>