<?xml version="1.0" encoding="UTF-8"?>
<svg width="24px" height="24px" viewBox="0 0 24 24" version="1.1" xmlns="http://www.w3.org/2000/svg" xmlns:xlink="http://www.w3.org/1999/xlink">
    <title>Icon/bar-chart</title>
    <defs>
        <path d="M13,10 L13,20 C13,20.6 12.6,21 12,21 C11.4,21 11,20.6 11,20 L11,10 C11,9.4 11.4,9 12,9 C12.6,9 13,9.4 13,10 Z M18,3 C17.4,3 17,3.4 17,4 L17,20 C17,20.6 17.4,21 18,21 C18.6,21 19,20.6 19,20 L19,4 C19,3.4 18.6,3 18,3 Z M6,15 C5.4,15 5,15.4 5,16 L5,20 C5,20.6 5.4,21 6,21 C6.6,21 7,20.6 7,20 L7,16 C7,15.4 6.6,15 6,15 Z" id="path-1"></path>
    </defs>
    <g id="Icon/bar-chart" stroke="none" stroke-width="1" fill="none" fill-rule="evenodd">
        <mask id="mask-2" fill="white">
            <use xlink:href="#path-1"></use>
        </mask>
        <use id="Shape" fill="#000000" fill-rule="nonzero" xlink:href="#path-1"></use>
        <g id="Icon-Color" mask="url(#mask-2)" fill="#22212D">
            <rect id="Shape" x="0" y="0" width="24" height="24"></rect>
        </g>
    </g>
</svg>