<?xml version="1.0" encoding="UTF-8"?>
<svg width="24px" height="24px" viewBox="0 0 24 24" version="1.1" xmlns="http://www.w3.org/2000/svg" xmlns:xlink="http://www.w3.org/1999/xlink">
    <title>Icon/battery</title>
    <defs>
        <path d="M17,5 L3,5 C1.3,5 0,6.3 0,8 L0,16 C0,17.7 1.3,19 3,19 L17,19 C18.7,19 20,17.7 20,16 L20,8 C20,6.3 18.7,5 17,5 Z M18,16 C18,16.6 17.6,17 17,17 L3,17 C2.4,17 2,16.6 2,16 L2,8 C2,7.4 2.4,7 3,7 L17,7 C17.6,7 18,7.4 18,8 L18,16 Z M24,11 L24,13 C24,13.6 23.6,14 23,14 C22.4,14 22,13.6 22,13 L22,11 C22,10.4 22.4,10 23,10 C23.6,10 24,10.4 24,11 Z" id="path-1"></path>
    </defs>
    <g id="Icon/battery" stroke="none" stroke-width="1" fill="none" fill-rule="evenodd">
        <mask id="mask-2" fill="white">
            <use xlink:href="#path-1"></use>
        </mask>
        <use id="Mask" fill="#000000" fill-rule="nonzero" xlink:href="#path-1"></use>
        <g id="Icon-Color" mask="url(#mask-2)" fill="#22212D">
            <rect id="Shape" x="0" y="0" width="24" height="24"></rect>
        </g>
    </g>
</svg>