<?xml version="1.0" encoding="UTF-8"?>
<svg width="24px" height="24px" viewBox="0 0 24 24" version="1.1" xmlns="http://www.w3.org/2000/svg" xmlns:xlink="http://www.w3.org/1999/xlink">
    <title>Icon/battery-charging</title>
    <defs>
        <path d="M6,18 C6,18.6 5.6,19 5,19 L3,19 C1.3,19 0,17.7 0,16 L0,8 C0,6.3 1.3,5 3,5 L6.2,5 C6.8,5 7.2,5.4 7.2,6 C7.2,6.6 6.8,7 6.2,7 L3,7 C2.4,7 2,7.4 2,8 L2,16 C2,16.6 2.4,17 3,17 L5,17 C5.6,17 6,17.4 6,18 Z M17,5 L15,5 C14.4,5 14,5.4 14,6 C14,6.6 14.4,7 15,7 L17,7 C17.6,7 18,7.4 18,8 L18,16 C18,16.6 17.6,17 17,17 L13.8,17 C13.2,17 12.8,17.4 12.8,18 C12.8,18.6 13.2,19 13.8,19 L17,19 C18.7,19 20,17.7 20,16 L20,8 C20,6.3 18.7,5 17,5 Z M23,10 C22.4,10 22,10.4 22,11 L22,13 C22,13.6 22.4,14 23,14 C23.6,14 24,13.6 24,13 L24,11 C24,10.4 23.6,10 23,10 Z M13.9,11.5 C13.7,11.2 13.4,11 13,11 L8.9,11 L11.9,6.6 C12.2,6.1 12.1,5.5 11.6,5.2 C11.1,4.9 10.5,5 10.2,5.5 L6.2,11.5 C6,11.8 6,12.2 6.2,12.5 C6.3,12.8 6.6,13 7,13 L11.1,13 L8.1,17.4 C7.8,17.9 7.9,18.5 8.4,18.8 C8.6,18.9 8.8,19 9,19 C9.3,19 9.6,18.8 9.8,18.6 L13.8,12.6 C14,12.2 14.1,11.9 13.9,11.5 Z" id="path-1"></path>
    </defs>
    <g id="Icon/battery-charging" stroke="none" stroke-width="1" fill="none" fill-rule="evenodd">
        <mask id="mask-2" fill="white">
            <use xlink:href="#path-1"></use>
        </mask>
        <use id="Mask" fill="#000000" fill-rule="nonzero" xlink:href="#path-1"></use>
        <g id="Icon-Color" mask="url(#mask-2)" fill="#22212D">
            <rect id="Shape" x="0" y="0" width="24" height="24"></rect>
        </g>
    </g>
</svg>