<?xml version="1.0" encoding="UTF-8"?>
<svg width="24px" height="24px" viewBox="0 0 24 24" version="1.1" xmlns="http://www.w3.org/2000/svg" xmlns:xlink="http://www.w3.org/1999/xlink">
    <title>Icon/bell</title>
    <defs>
        <path d="M14.6,21.5 C14,22.5 13,23 12,23 C11.5,23 11,22.9 10.5,22.6 C10,22.3 9.7,22 9.4,21.5 C9.1,21 9.3,20.4 9.8,20.1 C10.3,19.8 10.9,20 11.2,20.5 C11.3,20.6 11.4,20.8 11.6,20.9 C12.1,21.2 12.7,21 13,20.5 C13.3,20 13.9,19.9 14.4,20.1 C14.9,20.3 14.9,21 14.6,21.5 Z M23,17 C23,17.6 22.6,18 22,18 L2,18 C1.4,18 1,17.6 1,17 C1,16.4 1.4,16 2,16 C3.1,16 4,15.1 4,14 L4,9 C4,4.6 7.6,1 12,1 C16.4,1 20,4.6 20,9 L20,14 C20,15.1 20.9,16 22,16 C22.6,16 23,16.4 23,17 Z M18.5,16 C18.2,15.4 18,14.7 18,14 L18,9 C18,5.7 15.3,3 12,3 C8.7,3 6,5.7 6,9 L6,14 C6,14.7 5.8,15.4 5.5,16 L18.5,16 Z" id="path-1"></path>
    </defs>
    <g id="Icon/bell" stroke="none" stroke-width="1" fill="none" fill-rule="evenodd">
        <mask id="mask-2" fill="white">
            <use xlink:href="#path-1"></use>
        </mask>
        <use id="Mask" fill="#000000" fill-rule="nonzero" xlink:href="#path-1"></use>
        <g id="Icon-Color" mask="url(#mask-2)" fill="#22212D">
            <rect id="Shape" x="0" y="0" width="24" height="24"></rect>
        </g>
    </g>
</svg>