<?xml version="1.0" encoding="UTF-8"?>
<svg width="24px" height="24px" viewBox="0 0 24 24" version="1.1" xmlns="http://www.w3.org/2000/svg" xmlns:xlink="http://www.w3.org/1999/xlink">
    <title>Icon/bell-off</title>
    <defs>
        <path d="M14.6,21.5 C14,22.5 13,23 12,23 C11.5,23 11,22.9 10.5,22.6 C10,22.3 9.7,22 9.4,21.5 C9.1,21 9.3,20.4 9.8,20.1 C10.3,19.8 10.9,20 11.2,20.5 C11.3,20.6 11.4,20.8 11.6,20.9 C12.1,21.2 12.7,21 13,20.5 C13.3,20 13.9,19.9 14.4,20.1 C14.9,20.3 14.9,21 14.6,21.5 Z M9.1,3.8 C12,2.2 15.6,3.2 17.3,6.1 C17.7,6.9 18,8 18,9 L18,13 C18,13.6 18.4,14 19,14 C19.6,14 20,13.6 20,13 L20,9 C20,7.6 19.6,6.3 19,5.1 C16.8,1.3 11.9,-0.1 8.1,2.1 C7.6,2.3 7.4,2.9 7.7,3.4 C8,3.9 8.6,4 9.1,3.8 Z M23.7,23.7 C23.5,23.9 23.3,24 23,24 C22.7,24 22.5,23.9 22.3,23.7 L16.6,18 L2,18 C1.4,18 1,17.6 1,17 C1,16.4 1.4,16 2,16 C3.1,16 4,15.1 4,14 L4,9 C4,8 4.2,7 4.6,6 L0.3,1.7 C-0.1,1.3 -0.1,0.7 0.3,0.3 C0.7,-0.1 1.3,-0.1 1.7,0.3 L17.7,16.3 C17.7,16.3 17.7,16.3 17.7,16.3 L23.7,22.3 C24.1,22.7 24.1,23.3 23.7,23.7 Z M14.6,16 L6.2,7.6 C6.1,8 6,8.5 6,9 L6,14 C6,14.7 5.8,15.4 5.5,16 L14.6,16 Z" id="path-1"></path>
    </defs>
    <g id="Icon/bell-off" stroke="none" stroke-width="1" fill="none" fill-rule="evenodd">
        <mask id="mask-2" fill="white">
            <use xlink:href="#path-1"></use>
        </mask>
        <use id="Mask" fill="#000000" fill-rule="nonzero" xlink:href="#path-1"></use>
        <g id="Icon-Color" mask="url(#mask-2)" fill="#22212D">
            <rect id="Shape" x="0" y="0" width="24" height="24"></rect>
        </g>
    </g>
</svg>