<?xml version="1.0" encoding="UTF-8"?>
<svg width="24px" height="24px" viewBox="0 0 24 24" version="1.1" xmlns="http://www.w3.org/2000/svg" xmlns:xlink="http://www.w3.org/1999/xlink">
    <title>Icon/bluetooth</title>
    <defs>
        <path d="M13.9,12.0040518 L18.7,7.20405184 C19.1,6.80405184 19.1,6.20405184 18.7,5.80405184 L13.2,0.304051835 C12.9,0.00405183549 12.5,-0.0959481645 12.1,0.104051835 C11.7,0.204051835 11.5,0.604051835 11.5,1.00405184 L11.5,9.60405184 L7.7,5.80405184 C7.3,5.40405184 6.7,5.40405184 6.3,5.80405184 C5.9,6.20405184 5.9,6.80405184 6.3,7.20405184 L11.1,12.0040518 L6.3,16.8040518 C5.9,17.2040518 5.9,17.8040518 6.3,18.2040518 C6.7,18.6040518 7.3,18.6040518 7.7,18.2040518 L11.5,14.4040518 L11.5,23.0040518 C11.5,23.4040518 11.7,23.8040518 12.1,23.9040518 C12.2,24.0040518 12.4,24.0040518 12.5,24.0040518 C12.8,24.0040518 13,23.9040518 13.2,23.7040518 L18.7,18.2040518 C19.1,17.8040518 19.1,17.2040518 18.7,16.8040518 L13.9,12.0040518 Z M13.5,3.40405184 L16.6,6.50405184 L13.5,9.60405184 L13.5,3.40405184 Z M13.5,20.6040518 L13.5,14.4040518 L16.6,17.5040518 L13.5,20.6040518 Z" id="path-1"></path>
    </defs>
    <g id="Icon/bluetooth" stroke="none" stroke-width="1" fill="none" fill-rule="evenodd">
        <mask id="mask-2" fill="white">
            <use xlink:href="#path-1"></use>
        </mask>
        <use id="Mask" fill="#000000" fill-rule="nonzero" xlink:href="#path-1"></use>
        <g id="Icon-Color" mask="url(#mask-2)" fill="#22212D">
            <rect id="Shape" x="0" y="0" width="24" height="24"></rect>
        </g>
    </g>
</svg>