<?xml version="1.0" encoding="UTF-8"?>
<svg width="24px" height="24px" viewBox="0 0 24 24" version="1.1" xmlns="http://www.w3.org/2000/svg" xmlns:xlink="http://www.w3.org/1999/xlink">
    <title>Icon/bold</title>
    <defs>
        <path d="M17.4,11.6 C18.4,10.7 19,9.4 19,8 C19,5.2 16.8,3 14,3 L6,3 C5.4,3 5,3.4 5,4 L5,12 L5,20 C5,20.6 5.4,21 6,21 L15,21 C17.8,21 20,18.8 20,16 C20,14.1 18.9,12.5 17.4,11.6 Z M7,5 L14,5 C15.7,5 17,6.3 17,8 C17,9.7 15.7,11 14,11 L7,11 L7,5 Z M15,19 L7,19 L7,13 L14,13 L15,13 C16.7,13 18,14.3 18,16 C18,17.7 16.7,19 15,19 Z" id="path-1"></path>
    </defs>
    <g id="Icon/bold" stroke="none" stroke-width="1" fill="none" fill-rule="evenodd">
        <mask id="mask-2" fill="white">
            <use xlink:href="#path-1"></use>
        </mask>
        <use id="Mask" fill="#000000" fill-rule="nonzero" xlink:href="#path-1"></use>
        <g id="Icon-Color" mask="url(#mask-2)" fill="#22212D">
            <rect id="Shape" x="0" y="0" width="24" height="24"></rect>
        </g>
    </g>
</svg>