<?xml version="1.0" encoding="UTF-8"?>
<svg width="24px" height="24px" viewBox="0 0 24 24" version="1.1" xmlns="http://www.w3.org/2000/svg" xmlns:xlink="http://www.w3.org/1999/xlink">
    <title>Icon/bookmark</title>
    <defs>
        <path d="M17,2 L7,2 C5.3,2 4,3.3 4,5 L4,21 C4,21.4 4.2,21.7 4.5,21.9 C4.8,22.1 5.2,22 5.5,21.8 L11.9,17.2 L18.3,21.8 C18.5,21.9 18.7,22 18.9,22 C19.1,22 19.2,22 19.4,21.9 C19.7,21.7 19.9,21.4 19.9,21 L19.9,5 C20,3.3 18.7,2 17,2 Z M18,19.1 L12.6,15.2 C12.4,15.1 12.2,15 12,15 C11.8,15 11.6,15.1 11.4,15.2 L6,19.1 L6,5 C6,4.4 6.4,4 7,4 L17,4 C17.6,4 18,4.4 18,5 L18,19.1 Z" id="path-1"></path>
    </defs>
    <g id="Icon/bookmark" stroke="none" stroke-width="1" fill="none" fill-rule="evenodd">
        <mask id="mask-2" fill="white">
            <use xlink:href="#path-1"></use>
        </mask>
        <use id="Mask" fill="#000000" fill-rule="nonzero" xlink:href="#path-1"></use>
        <g id="Icon-Color" mask="url(#mask-2)" fill="#22212D">
            <rect id="Shape" x="0" y="0" width="24" height="24"></rect>
        </g>
    </g>
</svg>