<?xml version="1.0" encoding="UTF-8"?>
<svg width="24px" height="24px" viewBox="0 0 24 24" version="1.1" xmlns="http://www.w3.org/2000/svg" xmlns:xlink="http://www.w3.org/1999/xlink">
    <title>Icon/book-open</title>
    <defs>
        <path d="M22,2 L16,2 C14.4,2 12.9,2.8 12,4 C11.1,2.8 9.6,2 8,2 L2,2 C1.4,2 1,2.4 1,3 L1,18 C1,18.6 1.4,19 2,19 L9,19 C10.1,19 11,19.9 11,21 C11,21.6 11.4,22 12,22 C12.6,22 13,21.6 13,21 C13,19.9 13.9,19 15,19 L22,19 C22.6,19 23,18.6 23,18 L23,3 C23,2.4 22.6,2 22,2 Z M11,17.5 C10.4,17.2 9.7,17 9,17 L3,17 L3,4 L8,4 C9.7,4 11,5.3 11,7 L11,17.5 Z M21,17 L15,17 C14.3,17 13.6,17.2 13,17.5 L13,7 C13,5.3 14.3,4 16,4 L21,4 L21,17 Z" id="path-1"></path>
    </defs>
    <g id="Icon/book-open" stroke="none" stroke-width="1" fill="none" fill-rule="evenodd">
        <mask id="mask-2" fill="white">
            <use xlink:href="#path-1"></use>
        </mask>
        <use id="Shape" fill="#000000" fill-rule="nonzero" xlink:href="#path-1"></use>
        <g id="Icon-Color" mask="url(#mask-2)" fill="#22212D">
            <rect id="Shape" x="0" y="0" width="24" height="24"></rect>
        </g>
    </g>
</svg>