<?xml version="1.0" encoding="UTF-8"?>
<svg width="24px" height="24px" viewBox="0 0 24 24" version="1.1" xmlns="http://www.w3.org/2000/svg" xmlns:xlink="http://www.w3.org/1999/xlink">
    <title>Icon/book</title>
    <defs>
        <path d="M20,1 L6.5,1 C4.6,1 3,2.6 3,4.5 L3,19.5 C3,21.4 4.6,23 6.5,23 L20,23 C20.6,23 21,22.6 21,22 L21,2 C21,1.4 20.6,1 20,1 Z M6.5,3 L19,3 L19,16 L6.5,16 C6,16 5.5,16.1 5,16.4 L5,4.5 C5,3.7 5.7,3 6.5,3 Z M6.5,21 C5.7,21 5,20.3 5,19.5 C5,18.7 5.7,18 6.5,18 L19,18 L19,21 L6.5,21 Z" id="path-1"></path>
    </defs>
    <g id="Icon/book" stroke="none" stroke-width="1" fill="none" fill-rule="evenodd">
        <mask id="mask-2" fill="white">
            <use xlink:href="#path-1"></use>
        </mask>
        <use id="Mask" fill="#000000" fill-rule="nonzero" xlink:href="#path-1"></use>
        <g id="Icon-Color" mask="url(#mask-2)" fill="#22212D">
            <rect id="Shape" x="0" y="0" width="24" height="24"></rect>
        </g>
    </g>
</svg>