<?xml version="1.0" encoding="UTF-8"?>
<svg width="24px" height="24px" viewBox="0 0 24 24" version="1.1" xmlns="http://www.w3.org/2000/svg" xmlns:xlink="http://www.w3.org/1999/xlink">
    <title>Icon/briefcase</title>
    <defs>
        <path d="M20,6 L17,6 L17,5 C17,3.3 15.7,2 14,2 L10,2 C8.3,2 7,3.3 7,5 L7,6 L4,6 C2.3,6 1,7.3 1,9 L1,19 C1,20.7 2.3,22 4,22 L20,22 C21.7,22 23,20.7 23,19 L23,9 C23,7.3 21.7,6 20,6 Z M9,5 C9,4.4 9.4,4 10,4 L14,4 C14.6,4 15,4.4 15,5 L15,6 L9,6 L9,5 Z M15,8 L15,20 L9,20 L9,8 L15,8 Z M3,19 L3,9 C3,8.4 3.4,8 4,8 L7,8 L7,20 L4,20 C3.4,20 3,19.6 3,19 Z M21,19 C21,19.6 20.6,20 20,20 L17,20 L17,8 L20,8 C20.6,8 21,8.4 21,9 L21,19 Z" id="path-1"></path>
    </defs>
    <g id="Icon/briefcase" stroke="none" stroke-width="1" fill="none" fill-rule="evenodd">
        <mask id="mask-2" fill="white">
            <use xlink:href="#path-1"></use>
        </mask>
        <use id="Mask" fill="#000000" fill-rule="nonzero" xlink:href="#path-1"></use>
        <g id="Icon-Color" mask="url(#mask-2)" fill="#22212D">
            <rect id="Shape" x="0" y="0" width="24" height="24"></rect>
        </g>
    </g>
</svg>