<?xml version="1.0" encoding="UTF-8"?>
<svg width="24px" height="24px" viewBox="0 0 24 24" version="1.1" xmlns="http://www.w3.org/2000/svg" xmlns:xlink="http://www.w3.org/1999/xlink">
    <title>Icon/camera-off</title>
    <defs>
        <path d="M21.7,20.3 C21.7,20.3 21.7,20.3 21.7,20.3 L6.7,5.3 C6.7,5.3 6.7,5.3 6.7,5.3 L1.7,0.3 C1.3,-0.1 0.7,-0.1 0.3,0.3 C-0.1,0.7 -0.1,1.3 0.3,1.7 L3.6,5 L3,5 C1.3,5 0,6.3 0,8 L0,19 C0,20.7 1.3,22 3,22 L20.6,22 L22.3,23.7 C22.5,23.9 22.8,24 23,24 C23.2,24 23.5,23.9 23.7,23.7 C24.1,23.3 24.1,22.7 23.7,22.3 L21.7,20.3 Z M9.5,11.3 C9.6,11.2 9.6,11.2 9.7,11.1 L13.9,15.3 C13.5,15.6 13,15.9 12.5,16 C11.7,16.2 10.9,16 10.3,15.5 C9.6,15 9.2,14.4 9,13.6 C8.9,12.8 9.1,12 9.5,11.3 Z M3,20 C2.4,20 2,19.6 2,19 L2,8 C2,7.4 2.4,7 3,7 L5.6,7 L8.3,9.7 C8.1,9.9 8,10 7.9,10.2 C7.1,11.3 6.9,12.6 7.1,13.9 C7.3,15.2 8.1,16.4 9.2,17.1 C10,17.7 11,18 12,18 C12.3,18 12.6,18 12.9,17.9 C13.8,17.7 14.6,17.3 15.3,16.7 L18.6,20 L3,20 Z M24,8 L24,17.3 C24,17.9 23.6,18.3 23,18.3 C22.4,18.3 22,17.9 22,17.3 L22,8 C22,7.4 21.6,7 21,7 L17,7 C16.7,7 16.4,6.8 16.2,6.6 L14.5,4 L9,4 C8.4,4 8,3.6 8,3 C8,2.4 8.4,2 9,2 L15,2 C15.3,2 15.6,2.2 15.8,2.4 L17.5,5 L21,5 C22.7,5 24,6.3 24,8 Z" id="path-1"></path>
    </defs>
    <g id="Icon/camera-off" stroke="none" stroke-width="1" fill="none" fill-rule="evenodd">
        <mask id="mask-2" fill="white">
            <use xlink:href="#path-1"></use>
        </mask>
        <use id="Mask" fill="#000000" fill-rule="nonzero" xlink:href="#path-1"></use>
        <g id="Icon-Color" mask="url(#mask-2)" fill="#22212D">
            <rect id="Shape" x="0" y="0" width="24" height="24"></rect>
        </g>
    </g>
</svg>