<?xml version="1.0" encoding="UTF-8"?>
<svg width="24px" height="24px" viewBox="0 0 24 24" version="1.1" xmlns="http://www.w3.org/2000/svg" xmlns:xlink="http://www.w3.org/1999/xlink">
    <title>Icon/cast</title>
    <defs>
        <path d="M6.91542612,19.8 C7.01542612,20.3 6.61542612,20.9 6.11542612,21 C6.01542612,21 6.01542612,21 5.91542612,21 C5.41542612,21 5.01542612,20.7 4.91542612,20.2 C4.61542612,18.6 3.41542612,17.4 1.81542612,17.1 C1.31542612,17 0.91542612,16.4 1.01542612,15.9 C1.11542612,15.4 1.61542612,15 2.21542612,15.1 C4.61542612,15.6 6.41542612,17.4 6.91542612,19.8 Z M20.0154261,3 L4.01542612,3 C2.31542612,3 1.01542612,4.3 1.01542612,6 L1.01542612,8 C1.01542612,8.6 1.41542612,9 2.01542612,9 C2.61542612,9 3.01542612,8.6 3.01542612,8 L3.01542612,6 C3.01542612,5.4 3.41542612,5 4.01542612,5 L20.0154261,5 C20.6154261,5 21.0154261,5.4 21.0154261,6 L21.0154261,18 C21.0154261,18.6 20.6154261,19 20.0154261,19 L14.0154261,19 C13.4154261,19 13.0154261,19.4 13.0154261,20 C13.0154261,20.6 13.4154261,21 14.0154261,21 L20.0154261,21 C21.7154261,21 23.0154261,19.7 23.0154261,18 L23.0154261,6 C23.0154261,4.3 21.7154261,3 20.0154261,3 Z M2.11542612,11.1 C1.61542612,11 1.11542612,11.4 1.01542612,12 C0.91542612,12.5 1.31542612,13 1.91542612,13.1 C5.61542612,13.5 8.61542612,16.4 9.01542612,20.2 C9.01542612,20.6 9.41542612,21 9.91542612,21 C9.91542612,21 10.0154261,21 10.0154261,21 C10.5154261,20.9 10.9154261,20.4 10.9154261,19.9 C10.4154261,15.2 6.81542612,11.6 2.11542612,11.1 Z M1.61542612,19.1 C1.51542612,19.1 1.41542612,19.2 1.31542612,19.3 C1.11542612,19.5 1.01542612,19.7 1.01542612,20 C1.01542612,20.3 1.11542612,20.5 1.31542612,20.7 C1.51542612,20.9 1.71542612,21 2.01542612,21 C2.31542612,21 2.51542612,20.9 2.71542612,20.7 C2.91542612,20.5 3.01542612,20.3 3.01542612,20 C3.01542612,19.7 2.91542612,19.5 2.71542612,19.3 C2.41542612,19 2.01542612,18.9 1.61542612,19.1 Z" id="path-1"></path>
    </defs>
    <g id="Icon/cast" stroke="none" stroke-width="1" fill="none" fill-rule="evenodd">
        <mask id="mask-2" fill="white">
            <use xlink:href="#path-1"></use>
        </mask>
        <use id="Mask" fill="#000000" fill-rule="nonzero" xlink:href="#path-1"></use>
        <g id="Icon-Color" mask="url(#mask-2)" fill="#22212D">
            <rect id="Shape" x="0" y="0" width="24" height="24"></rect>
        </g>
    </g>
</svg>