<?xml version="1.0" encoding="UTF-8"?>
<svg width="24px" height="24px" viewBox="0 0 24 24" version="1.1" xmlns="http://www.w3.org/2000/svg" xmlns:xlink="http://www.w3.org/1999/xlink">
    <title>Icon/check-square</title>
    <defs>
        <path d="M22.7,3.7 L11.7,14.7 C11.5,14.9 11.3,15 11,15 C10.7,15 10.5,14.9 10.3,14.7 L7.3,11.7 C6.9,11.3 6.9,10.7 7.3,10.3 C7.7,9.9 8.3,9.9 8.7,10.3 L11,12.6 L21.3,2.3 C21.7,1.9 22.3,1.9 22.7,2.3 C23.1,2.7 23.1,3.3 22.7,3.7 Z M20,11 C19.4,11 19,11.4 19,12 L19,19 C19,19.6 18.6,20 18,20 L4,20 C3.4,20 3,19.6 3,19 L3,5 C3,4.4 3.4,4 4,4 L15,4 C15.6,4 16,3.6 16,3 C16,2.4 15.6,2 15,2 L4,2 C2.3,2 1,3.3 1,5 L1,19 C1,20.7 2.3,22 4,22 L18,22 C19.7,22 21,20.7 21,19 L21,12 C21,11.4 20.6,11 20,11 Z" id="path-1"></path>
    </defs>
    <g id="Icon/check-square" stroke="none" stroke-width="1" fill="none" fill-rule="evenodd">
        <mask id="mask-2" fill="white">
            <use xlink:href="#path-1"></use>
        </mask>
        <use id="Mask" fill="#000000" fill-rule="nonzero" xlink:href="#path-1"></use>
        <g id="Icon-Color" mask="url(#mask-2)" fill="#22212D">
            <rect id="Shape" x="0" y="0" width="24" height="24"></rect>
        </g>
    </g>
</svg>