<?xml version="1.0" encoding="UTF-8"?>
<svg width="24px" height="24px" viewBox="0 0 24 24" version="1.1" xmlns="http://www.w3.org/2000/svg" xmlns:xlink="http://www.w3.org/1999/xlink">
    <title>Icon/check-circle</title>
    <defs>
        <path d="M23,11.1 L23,12 C23,18.1 18.1,23 12,23 C12,23 12,23 12,23 C5.9,23 1,18.1 1,12 C1,5.9 5.9,1 12,1 C12,1 12,1 12,1 C13.5,1 15.1,1.3 16.5,2 C17,2.2 17.2,2.8 17,3.3 C16.8,3.8 16.2,4 15.7,3.8 C14.5,3.3 13.3,3 12,3 C12,3 12,3 12,3 C7,3 3,7 3,12 C3,17 7,21 12,21 C12,21 12,21 12,21 C17,21 21,17 21,12 L21,11.1 C21,10.5 21.4,10.1 22,10.1 C22.6,10.1 23,10.5 23,11.1 Z M23.7,2.3 C23.3,1.9 22.7,1.9 22.3,2.3 L12,12.6 L9.7,10.3 C9.3,9.9 8.7,9.9 8.3,10.3 C7.9,10.7 7.9,11.3 8.3,11.7 L11.3,14.7 C11.5,14.9 11.8,15 12,15 C12.2,15 12.5,14.9 12.7,14.7 L23.7,3.7 C24.1,3.3 24.1,2.7 23.7,2.3 Z" id="path-1"></path>
    </defs>
    <g id="Icon/check-circle" stroke="none" stroke-width="1" fill="none" fill-rule="evenodd">
        <mask id="mask-2" fill="white">
            <use xlink:href="#path-1"></use>
        </mask>
        <use id="Mask" fill="#000000" fill-rule="nonzero" xlink:href="#path-1"></use>
        <g id="Icon-Color" mask="url(#mask-2)" fill="#22212D">
            <rect id="Shape" x="0" y="0" width="24" height="24"></rect>
        </g>
    </g>
</svg>