<?xml version="1.0" encoding="UTF-8"?>
<svg width="24px" height="24px" viewBox="0 0 24 24" version="1.1" xmlns="http://www.w3.org/2000/svg" xmlns:xlink="http://www.w3.org/1999/xlink">
    <title>Icon/chevrons-down</title>
    <defs>
        <path d="M17.7,12.3 C18.1,12.7 18.1,13.3 17.7,13.7 L12.7,18.7 C12.5,18.9 12.3,19 12,19 C11.7,19 11.5,18.9 11.3,18.7 L6.3,13.7 C5.9,13.3 5.9,12.7 6.3,12.3 C6.7,11.9 7.3,11.9 7.7,12.3 L12,16.6 L16.3,12.3 C16.7,11.9 17.3,11.9 17.7,12.3 Z M11.3,11.7 C11.5,11.9 11.8,12 12,12 C12.2,12 12.5,11.9 12.7,11.7 L17.7,6.7 C18.1,6.3 18.1,5.7 17.7,5.3 C17.3,4.9 16.7,4.9 16.3,5.3 L12,9.6 L7.7,5.3 C7.3,4.9 6.7,4.9 6.3,5.3 C5.9,5.7 5.9,6.3 6.3,6.7 L11.3,11.7 Z" id="path-1"></path>
    </defs>
    <g id="Icon/chevrons-down" stroke="none" stroke-width="1" fill="none" fill-rule="evenodd">
        <mask id="mask-2" fill="white">
            <use xlink:href="#path-1"></use>
        </mask>
        <use id="Mask" fill="#000000" fill-rule="nonzero" xlink:href="#path-1"></use>
        <g id="Icon-Color" mask="url(#mask-2)" fill="#22212D">
            <rect id="Shape" x="0" y="0" width="24" height="24"></rect>
        </g>
    </g>
</svg>