<?xml version="1.0" encoding="UTF-8"?>
<svg width="24px" height="24px" viewBox="0 0 24 24" version="1.1" xmlns="http://www.w3.org/2000/svg" xmlns:xlink="http://www.w3.org/1999/xlink">
    <title>Icon/chevrons-right</title>
    <defs>
        <path d="M18.7,12.7 L13.7,17.7 C13.5,17.9 13.3,18 13,18 C12.7,18 12.5,17.9 12.3,17.7 C11.9,17.3 11.9,16.7 12.3,16.3 L16.6,12 L12.3,7.7 C11.9,7.3 11.9,6.7 12.3,6.3 C12.7,5.9 13.3,5.9 13.7,6.3 L18.7,11.3 C19.1,11.7 19.1,12.3 18.7,12.7 Z M11.7,11.3 L6.7,6.3 C6.3,5.9 5.7,5.9 5.3,6.3 C4.9,6.7 4.9,7.3 5.3,7.7 L9.6,12 L5.3,16.3 C4.9,16.7 4.9,17.3 5.3,17.7 C5.5,17.9 5.7,18 6,18 C6.3,18 6.5,17.9 6.7,17.7 L11.7,12.7 C12.1,12.3 12.1,11.7 11.7,11.3 Z" id="path-1"></path>
    </defs>
    <g id="Icon/chevrons-right" stroke="none" stroke-width="1" fill="none" fill-rule="evenodd">
        <mask id="mask-2" fill="white">
            <use xlink:href="#path-1"></use>
        </mask>
        <use id="Mask" fill="#000000" fill-rule="nonzero" xlink:href="#path-1"></use>
        <g id="Icon-Color" mask="url(#mask-2)" fill="#22212D">
            <rect id="Shape" x="0" y="0" width="24" height="24"></rect>
        </g>
    </g>
</svg>