<?xml version="1.0" encoding="UTF-8"?>
<svg width="24px" height="24px" viewBox="0 0 24 24" version="1.1" xmlns="http://www.w3.org/2000/svg" xmlns:xlink="http://www.w3.org/1999/xlink">
    <title>Icon/chevrons-left</title>
    <defs>
        <path d="M11.7,16.3 C12.1,16.7 12.1,17.3 11.7,17.7 C11.5,17.9 11.3,18 11,18 C10.7,18 10.5,17.9 10.3,17.7 L5.3,12.7 C4.9,12.3 4.9,11.7 5.3,11.3 L10.3,6.3 C10.7,5.9 11.3,5.9 11.7,6.3 C12.1,6.7 12.1,7.3 11.7,7.7 L7.4,12 L11.7,16.3 Z M14.4,12 L18.7,7.7 C19.1,7.3 19.1,6.7 18.7,6.3 C18.3,5.9 17.7,5.9 17.3,6.3 L12.3,11.3 C11.9,11.7 11.9,12.3 12.3,12.7 L17.3,17.7 C17.5,17.9 17.8,18 18,18 C18.2,18 18.5,17.9 18.7,17.7 C19.1,17.3 19.1,16.7 18.7,16.3 L14.4,12 Z" id="path-1"></path>
    </defs>
    <g id="Icon/chevrons-left" stroke="none" stroke-width="1" fill="none" fill-rule="evenodd">
        <mask id="mask-2" fill="white">
            <use xlink:href="#path-1"></use>
        </mask>
        <use id="Mask" fill="#000000" fill-rule="nonzero" xlink:href="#path-1"></use>
        <g id="Icon-Color" mask="url(#mask-2)" fill="#22212D">
            <rect id="Shape" x="0" y="0" width="24" height="24"></rect>
        </g>
    </g>
</svg>