<?xml version="1.0" encoding="UTF-8"?>
<svg width="24px" height="24px" viewBox="0 0 24 24" version="1.1" xmlns="http://www.w3.org/2000/svg" xmlns:xlink="http://www.w3.org/1999/xlink">
    <title>Icon/chevrons-up</title>
    <defs>
        <path d="M6.3,11.7 C5.9,11.3 5.9,10.7 6.3,10.3 L11.3,5.3 C11.7,4.9 12.3,4.9 12.7,5.3 L17.7,10.3 C18.1,10.7 18.1,11.3 17.7,11.7 C17.5,11.9 17.3,12 17,12 C16.7,12 16.5,11.9 16.3,11.7 L12,7.4 L7.7,11.7 C7.3,12.1 6.7,12.1 6.3,11.7 Z M12.7,12.3 C12.3,11.9 11.7,11.9 11.3,12.3 L6.3,17.3 C5.9,17.7 5.9,18.3 6.3,18.7 C6.7,19.1 7.3,19.1 7.7,18.7 L12,14.4 L16.3,18.7 C16.5,18.9 16.8,19 17,19 C17.2,19 17.5,18.9 17.7,18.7 C18.1,18.3 18.1,17.7 17.7,17.3 L12.7,12.3 Z" id="path-1"></path>
    </defs>
    <g id="Icon/chevrons-up" stroke="none" stroke-width="1" fill="none" fill-rule="evenodd">
        <mask id="mask-2" fill="white">
            <use xlink:href="#path-1"></use>
        </mask>
        <use id="Mask" fill="#000000" fill-rule="nonzero" xlink:href="#path-1"></use>
        <g id="Icon-Color" mask="url(#mask-2)" fill="#22212D">
            <rect id="Shape" x="0" y="0" width="24" height="24"></rect>
        </g>
    </g>
</svg>