<?xml version="1.0" encoding="UTF-8"?>
<svg width="24px" height="24px" viewBox="0 0 24 24" version="1.1" xmlns="http://www.w3.org/2000/svg" xmlns:xlink="http://www.w3.org/1999/xlink">
    <title>Icon/chrome</title>
    <defs>
        <path d="M22.1780217,7.7 C22.1780217,7.6 22.1780217,7.6 22.1780217,7.7 C20.3713658,3.7 16.5573145,1 12.0406748,1 C8.42736307,1 5.21553039,2.7 3.20813497,5.4 C3.20813497,5.5 3.10776519,5.5 3.10776519,5.6 C1.80295817,7.4 1,9.6 1,12 C1,17.6 5.21553039,22.2 10.635498,22.9 C10.635498,22.9 10.7358678,22.9 10.7358678,22.9 C11.1373469,22.9 11.538826,23 11.9403051,23 C18.0628611,23 22.9809799,18.1 22.9809799,12 C23.0813497,10.5 22.7802403,9 22.1780217,7.7 Z M12.0406748,3 C15.1521377,3 17.9624913,4.6 19.5684077,7 L12.0406748,7 C9.93290964,7 8.22662353,8.3 7.42366536,10 L5.21553039,6.2 C6.82144673,4.2 9.33069101,3 12.0406748,3 Z M15.051768,12 C15.051768,13.7 13.7469609,15 12.0406748,15 C10.3343887,15 9.02958169,13.7 9.02958169,12 C9.02958169,10.3 10.3343887,9 12.0406748,9 C13.7469609,9 15.051768,10.3 15.051768,12 Z M3.00739542,12 C3.00739542,10.6 3.30850474,9.2 3.91072336,8 L7.6244049,14.5 C7.6244049,14.5 7.6244049,14.6 7.72477467,14.6 C8.62810261,16 10.2340189,17 12.0406748,17 C12.2414144,17 12.4421539,17 12.6428935,16.9 L10.3343887,20.8 C6.2192281,20.1 3.00739542,16.4 3.00739542,12 Z M12.6428935,21 L16.356575,14.5 C16.356575,14.5 16.356575,14.4 16.356575,14.4 C16.7580541,13.7 16.9587936,12.9 16.9587936,12 C16.9587936,10.9 16.5573145,9.8 15.9550959,9 L20.4717356,9 C20.7728449,9.9 20.9735845,10.9 20.9735845,12 C21.0739542,16.8 17.3602727,20.7 12.6428935,21 Z" id="path-1"></path>
    </defs>
    <g id="Icon/chrome" stroke="none" stroke-width="1" fill="none" fill-rule="evenodd">
        <mask id="mask-2" fill="white">
            <use xlink:href="#path-1"></use>
        </mask>
        <use id="Mask" fill="#000000" fill-rule="nonzero" xlink:href="#path-1"></use>
        <g id="Icon-Color" mask="url(#mask-2)" fill="#22212D">
            <rect id="Shape" x="0" y="0" width="24" height="24"></rect>
        </g>
    </g>
</svg>