<?xml version="1.0" encoding="UTF-8"?>
<svg width="24px" height="24px" viewBox="0 0 24 24" version="1.1" xmlns="http://www.w3.org/2000/svg" xmlns:xlink="http://www.w3.org/1999/xlink">
    <title>Icon/clipboard</title>
    <defs>
        <path d="M18,3 L17,3 C17,1.9 16.1,1 15,1 L9,1 C7.9,1 7,1.9 7,3 L6,3 C4.3,3 3,4.3 3,6 L3,20 C3,21.7 4.3,23 6,23 L18,23 C19.7,23 21,21.7 21,20 L21,6 C21,4.3 19.7,3 18,3 Z M9,3 L15,3 L15,5 L9,5 L9,4 C9,4 9,4 9,4 C9,4 9,4 9,4 L9,3 L9,3 Z M19,20 C19,20.6 18.6,21 18,21 L6,21 C5.4,21 5,20.6 5,20 L5,6 C5,5.4 5.4,5 6,5 L7,5 C7,6.1 7.9,7 9,7 L15,7 C16.1,7 17,6.1 17,5 L18,5 C18.6,5 19,5.4 19,6 L19,20 Z" id="path-1"></path>
    </defs>
    <g id="Icon/clipboard" stroke="none" stroke-width="1" fill="none" fill-rule="evenodd">
        <mask id="mask-2" fill="white">
            <use xlink:href="#path-1"></use>
        </mask>
        <use id="Mask" fill="#000000" fill-rule="nonzero" xlink:href="#path-1"></use>
        <g id="Icon-Color" mask="url(#mask-2)" fill="#22212D">
            <rect id="Shape" x="0" y="0" width="24" height="24"></rect>
        </g>
    </g>
</svg>