<?xml version="1.0" encoding="UTF-8"?>
<svg width="24px" height="24px" viewBox="0 0 24 24" version="1.1" xmlns="http://www.w3.org/2000/svg" xmlns:xlink="http://www.w3.org/1999/xlink">
    <title>Icon/cloud-lightning</title>
    <defs>
        <path d="M19.217359,17.8727005 C19.1177686,17.8727005 19.1177686,17.8727005 19.0181782,17.8727005 C18.5202261,17.8727005 18.1218645,17.5713579 18.0222741,17.0691202 C17.9226837,16.5668826 18.2214549,15.9641974 18.8189974,15.8637498 C21.0099863,15.4619597 22.404252,13.252114 21.9063,11.1427158 C21.5079384,9.23421266 19.9144918,7.92839474 18.0222741,7.92839474 C18.0222741,7.92839474 18.0222741,7.92839474 18.0222741,7.92839474 L16.7275988,7.92839474 C16.2296468,7.92839474 15.8312851,7.62705214 15.7316947,7.12481447 C14.7357906,3.40825576 10.9513551,1.0979625 7.26651005,2.10243783 C5.47388271,2.60467549 3.9800266,3.70959835 3.08371293,5.31675888 C2.08780885,7.02436694 1.78903763,8.83242253 2.28698967,10.7409257 C2.7849417,12.6494288 3.9800266,14.1561418 5.67306353,15.1606171 C6.17101557,15.3615122 6.37019638,15.9641974 6.07142516,16.466435 C5.77265394,16.9686727 5.17511149,17.1695678 4.67715945,16.8682252 C2.48617048,15.6628548 0.992314365,13.6539041 0.295181511,11.2431633 C-0.302360936,8.93287007 -0.0035897126,6.42168174 1.29108559,4.41273108 C2.48617048,2.30333289 4.47797864,0.897067433 6.76855802,0.294382236 C11.2501264,-0.910988159 15.9308755,1.7006477 17.4247316,6.01989161 L18.0222741,6.01989161 C18.0222741,6.01989161 18.0222741,6.01989161 18.0222741,6.01989161 C20.8108055,6.01989161 23.3005657,8.02884227 23.8981081,10.8413732 C24.4956506,13.9552467 22.404252,17.1695678 19.217359,17.8727005 Z M15.0345619,15.9641974 L10.9513551,15.9641974 L13.9390674,11.5445059 C14.2378386,11.0422683 14.1382482,10.4395831 13.6402962,10.1382405 C13.1423441,9.83689786 12.5448017,9.93734539 12.2460304,10.4395831 L8.26241413,16.466435 C8.06323332,16.7677776 8.06323332,17.1695678 8.26241413,17.4709104 C8.36200454,17.772253 8.66077576,17.973148 9.05913739,17.973148 L13.1423441,17.973148 L10.1546319,22.3928395 C9.85586066,22.8950771 9.95545106,23.4977623 10.4534031,23.7991049 C10.6525839,23.8995525 10.8517647,24 11.0509455,24 C11.3497168,24 11.648488,23.7991049 11.8476688,23.5982099 L15.8312851,17.5713579 C16.0304659,17.2700153 16.0304659,16.8682252 15.8312851,16.5668826 C15.6321043,16.26554 15.4329235,15.9641974 15.0345619,15.9641974 Z" id="path-1"></path>
    </defs>
    <g id="Icon/cloud-lightning" stroke="none" stroke-width="1" fill="none" fill-rule="evenodd">
        <mask id="mask-2" fill="white">
            <use xlink:href="#path-1"></use>
        </mask>
        <use id="Mask" fill="#000000" fill-rule="nonzero" xlink:href="#path-1"></use>
        <g id="Icon-Color" mask="url(#mask-2)" fill="#22212D">
            <rect id="Shape" x="0" y="0" width="24" height="24"></rect>
        </g>
    </g>
</svg>