<?xml version="1.0" encoding="UTF-8"?>
<svg width="24px" height="24px" viewBox="0 0 24 24" version="1.1" xmlns="http://www.w3.org/2000/svg" xmlns:xlink="http://www.w3.org/1999/xlink">
    <title>Icon/cloud</title>
    <defs>
        <path d="M18,9 L17.5,9 C16.8,7 15.4,5.3 13.6,4.2 C11.5,3 9.1,2.6 6.8,3.2 C4.4,3.9 2.5,5.4 1.2,7.4 C-9.54791801e-15,9.5 -0.4,11.9 0.2,14.2 C1.2,18.2 4.8,21 8.9,21 C8.9,21 8.9,21 8.9,21 L17.9,21 C21.2,21 23.9,18.3 23.9,15 C23.9,11.7 21.3,9 18,9 Z M18,19 L9,19 C9,19 9,19 9,19 C5.8,19 3,16.8 2.2,13.8 C1.7,11.9 2,10.1 3,8.4 C4,6.7 5.5,5.6 7.3,5.2 C7.8,5.1 8.4,5 9,5 C12.1,5 15,7.1 15.8,10.3 C15.9,10.7 16.3,11.1 16.8,11.1 L18,11.1 C20.2,11.1 22,12.9 22,15.1 C22,17.3 20.2,19 18,19 Z" id="path-1"></path>
    </defs>
    <g id="Icon/cloud" stroke="none" stroke-width="1" fill="none" fill-rule="evenodd">
        <mask id="mask-2" fill="white">
            <use xlink:href="#path-1"></use>
        </mask>
        <use id="Mask" fill="#000000" fill-rule="nonzero" xlink:href="#path-1"></use>
        <g id="Icon-Color" mask="url(#mask-2)" fill="#22212D">
            <rect id="Shape" x="0" y="0" width="24" height="24"></rect>
        </g>
    </g>
</svg>