<?xml version="1.0" encoding="UTF-8"?>
<svg width="24px" height="24px" viewBox="0 0 24 24" version="1.1" xmlns="http://www.w3.org/2000/svg" xmlns:xlink="http://www.w3.org/1999/xlink">
    <title>Icon/cloud-rain</title>
    <defs>
        <path d="M16.988806,13.0000613 L16.988806,21.0000613 C16.988806,21.6000613 16.5893157,22.0000613 15.9900802,22.0000613 C15.3908447,22.0000613 14.9913544,21.6000613 14.9913544,21.0000613 L14.9913544,13.0000613 C14.9913544,12.4000613 15.3908447,12.0000613 15.9900802,12.0000613 C16.5893157,12.0000613 16.988806,12.4000613 16.988806,13.0000613 Z M8.00027383,12.0000613 C7.40103835,12.0000613 7.00154803,12.4000613 7.00154803,13.0000613 L7.00154803,21.0000613 C7.00154803,21.6000613 7.40103835,22.0000613 8.00027383,22.0000613 C8.59950931,22.0000613 8.99899963,21.6000613 8.99899963,21.0000613 L8.99899963,13.0000613 C8.99899963,12.4000613 8.59950931,12.0000613 8.00027383,12.0000613 Z M11.995177,14.0000613 C11.3959415,14.0000613 10.9964512,14.4000613 10.9964512,15.0000613 L10.9964512,23.0000613 C10.9964512,23.6000613 11.3959415,24.0000613 11.995177,24.0000613 C12.5944125,24.0000613 12.9939028,23.6000613 12.9939028,23.0000613 L12.9939028,15.0000613 C12.9939028,14.4000613 12.5944125,14.0000613 11.995177,14.0000613 Z M23.4805237,9.6000613 C22.4817979,7.4000613 20.3844737,6.0000613 17.9875318,6.0000613 L17.4881689,6.0000613 C15.9900802,1.6000613 11.296069,-0.899938699 6.80180287,0.300061301 C1.90804646,1.5000613 -0.988258361,6.4000613 0.310085177,11.3000613 C0.809448077,13.2000613 1.90804646,14.9000613 3.40613515,16.1000613 C3.80562547,16.4000613 4.50473353,16.4000613 4.80435127,15.9000613 C5.10396901,15.5000613 5.10396901,14.8000613 4.60460611,14.5000613 C3.40613515,13.6000613 2.60715451,12.2000613 2.2076642,10.8000613 C1.2089384,7.1000613 3.50600773,3.2000613 7.20129319,2.3000613 C10.8965786,1.3000613 14.7916093,3.6000613 15.6904625,7.3000613 C15.7903351,7.7000613 16.1898254,8.1000613 16.6891883,8.1000613 L17.9875318,8.1000613 C19.5854931,8.1000613 20.9837092,9.0000613 21.6828173,10.5000613 C22.0823076,11.5000613 22.1821802,12.6000613 21.7826899,13.6000613 C21.3831995,14.6000613 20.6840915,15.4000613 19.6853657,15.8000613 C19.1860028,16.0000613 18.9862576,16.6000613 19.1860028,17.1000613 C19.3857479,17.5000613 19.6853657,17.7000613 20.084856,17.7000613 C20.1847286,17.7000613 20.3844737,17.7000613 20.4843463,17.6000613 C21.982435,17.0000613 23.0810334,15.8000613 23.6802689,14.3000613 C24.1796318,12.7000613 24.0797592,11.1000613 23.4805237,9.6000613 Z" id="path-1"></path>
    </defs>
    <g id="Icon/cloud-rain" stroke="none" stroke-width="1" fill="none" fill-rule="evenodd">
        <mask id="mask-2" fill="white">
            <use xlink:href="#path-1"></use>
        </mask>
        <use id="Mask" fill="#000000" fill-rule="nonzero" xlink:href="#path-1"></use>
        <g id="Icon-Color" mask="url(#mask-2)" fill="#22212D">
            <rect id="Shape" x="0" y="0" width="24" height="24"></rect>
        </g>
    </g>
</svg>