<?xml version="1.0" encoding="UTF-8"?>
<svg width="24px" height="24px" viewBox="0 0 24 24" version="1.1" xmlns="http://www.w3.org/2000/svg" xmlns:xlink="http://www.w3.org/1999/xlink">
    <title>Icon/cloud-snow</title>
    <defs>
        <path d="M23.5971246,15.1975425 C22.9974747,16.6980151 21.8981167,17.8983931 20.3989921,18.4985822 C20.2990505,18.5986137 20.0991672,18.5986137 19.9992256,18.5986137 C19.599459,18.5986137 19.1996925,18.3985507 19.0997508,17.9984247 C18.8998675,17.4982671 19.0997508,16.8980781 19.599459,16.6980151 C20.5988754,16.297889 21.2984669,15.497637 21.6982334,14.4973219 C22.098,13.4970068 22.098,12.3966603 21.5982918,11.3963452 C20.998642,9.89587259 19.599459,8.99558902 18.0003928,8.99558902 L16.7011515,8.99558902 C16.2014433,8.99558902 15.8016767,8.6954945 15.7017351,8.19533697 C14.7023187,4.49417121 10.9045364,2.19344655 7.20669579,3.19376162 C3.50885515,4.19407669 1.21019746,7.99527395 2.20961385,11.6964397 C2.6093804,13.1969123 3.40891351,14.4973219 4.60821318,15.3976055 C5.00797974,15.6977 5.10792137,16.3979205 4.80809646,16.7980466 C4.50827154,17.1981726 3.80868007,17.2982041 3.40891351,16.9981096 C1.90978893,15.7977315 0.8104309,14.0971959 0.310722705,12.1965972 C-0.988518601,7.39508491 1.90978893,2.49354107 6.7069876,1.29316299 C11.304303,0.0927849025 15.9016184,2.69360408 17.400743,6.99495888 L18.0003928,6.99495888 C20.3989921,6.99495888 22.4977666,8.39539998 23.4971829,10.5960931 C24.0968328,12.0965657 24.1967744,13.6970699 23.5971246,15.1975425 Z M8.70582038,15.297574 C8.30605382,14.8974479 7.70640399,14.8974479 7.30663743,15.297574 C7.20669579,15.3976055 7.10675415,15.497637 7.10675415,15.5976685 C7.00681251,15.6977 7.00681251,15.897763 7.00681251,15.9977945 C7.00681251,16.097826 7.00681251,16.297889 7.10675415,16.3979205 C7.20669579,16.497952 7.20669579,16.5979836 7.30663743,16.6980151 C7.50652071,16.8980781 7.70640399,16.9981096 8.0062289,16.9981096 C8.30605382,16.9981096 8.5059371,16.8980781 8.70582038,16.6980151 C8.80576202,16.5979836 8.90570365,16.497952 8.90570365,16.3979205 C9.00564529,16.297889 9.00564529,16.097826 9.00564529,15.9977945 C9.00564529,15.897763 9.00564529,15.6977 8.90570365,15.5976685 C8.90570365,15.497637 8.80576202,15.3976055 8.70582038,15.297574 Z M7.60646235,19.0987712 C7.50652071,19.0987712 7.40657907,19.1988027 7.30663743,19.2988342 C7.10675415,19.4988973 7.00681251,19.6989603 7.00681251,19.9990548 C7.00681251,20.2991493 7.10675415,20.4992123 7.30663743,20.6992753 C7.50652071,20.8993384 7.70640399,20.9993699 8.0062289,20.9993699 C8.30605382,20.9993699 8.5059371,20.8993384 8.70582038,20.6992753 C8.90570365,20.4992123 9.00564529,20.2991493 9.00564529,19.9990548 C9.00564529,19.6989603 8.90570365,19.4988973 8.70582038,19.2988342 C8.40599546,18.9987397 8.0062289,18.8987082 7.60646235,19.0987712 Z M11.304303,17.2982041 C11.2043613,17.3982356 11.1044197,17.4982671 11.1044197,17.5982986 C11.1044197,17.6983301 11.0044781,17.7983616 11.0044781,17.9984247 C11.0044781,18.2985192 11.1044197,18.4985822 11.304303,18.6986452 C11.4042446,18.7986767 11.5041863,18.8987082 11.6041279,18.8987082 C11.7040695,18.8987082 11.8040112,18.9987397 12.0038945,18.9987397 C12.3037194,18.9987397 12.5036027,18.8987082 12.7034859,18.6986452 C12.9033692,18.4985822 13.0033109,18.2985192 13.0033109,17.9984247 C13.0033109,17.6983301 12.9033692,17.4982671 12.7034859,17.2982041 C12.3037194,16.8980781 11.7040695,16.8980781 11.304303,17.2982041 Z M12.7034859,21.2994644 C12.3037194,20.8993384 11.6041279,20.8993384 11.304303,21.2994644 C11.2043613,21.3994959 11.1044197,21.4995274 11.1044197,21.5995589 C11.0044781,21.6995904 11.0044781,21.8996534 11.0044781,21.9996849 C11.0044781,22.2997795 11.1044197,22.4998425 11.304303,22.6999055 C11.5041863,22.8999685 11.7040695,23 12.0038945,23 C12.1038361,23 12.3037194,23 12.403661,22.8999685 C12.5036027,22.799937 12.6035443,22.799937 12.7034859,22.6999055 C12.9033692,22.4998425 13.0033109,22.2997795 13.0033109,21.9996849 C13.0033109,21.8996534 13.0033109,21.6995904 12.9033692,21.5995589 C12.9033692,21.4995274 12.8034276,21.3994959 12.7034859,21.2994644 Z M16.7011515,15.297574 C16.3013849,14.8974479 15.7017351,14.8974479 15.3019685,15.297574 C15.2020269,15.3976055 15.1020853,15.497637 15.1020853,15.5976685 C15.1020853,15.6977 15.0021436,15.897763 15.0021436,15.9977945 C15.0021436,16.097826 15.0021436,16.297889 15.1020853,16.3979205 C15.2020269,16.497952 15.2020269,16.5979836 15.3019685,16.6980151 C15.5018518,16.8980781 15.7017351,16.9981096 16.00156,16.9981096 C16.3013849,16.9981096 16.5012682,16.8980781 16.7011515,16.6980151 C16.9010348,16.497952 17.0009764,16.297889 17.0009764,15.9977945 C17.0009764,15.897763 17.0009764,15.6977 16.9010348,15.5976685 C16.9010348,15.497637 16.8010931,15.3976055 16.7011515,15.297574 Z M16.6012099,19.1988027 C16.5012682,19.1988027 16.5012682,19.0987712 16.4013266,19.0987712 C16.3013849,19.0987712 16.3013849,19.0987712 16.2014433,18.9987397 C15.9016184,18.8987082 15.5018518,18.9987397 15.3019685,19.2988342 C15.1020853,19.4988973 15.0021436,19.6989603 15.0021436,19.9990548 C15.0021436,20.2991493 15.1020853,20.4992123 15.3019685,20.6992753 C15.5018518,20.8993384 15.7017351,20.9993699 16.00156,20.9993699 C16.3013849,20.9993699 16.5012682,20.8993384 16.7011515,20.6992753 C16.9010348,20.4992123 17.0009764,20.2991493 17.0009764,19.9990548 C17.0009764,19.6989603 16.9010348,19.4988973 16.7011515,19.2988342 C16.7011515,19.1988027 16.6012099,19.1988027 16.6012099,19.1988027 Z" id="path-1"></path>
    </defs>
    <g id="Icon/cloud-snow" stroke="none" stroke-width="1" fill="none" fill-rule="evenodd">
        <mask id="mask-2" fill="white">
            <use xlink:href="#path-1"></use>
        </mask>
        <use id="Mask" fill="#000000" fill-rule="nonzero" xlink:href="#path-1"></use>
        <g id="Icon-Color" mask="url(#mask-2)" fill="#22212D">
            <rect id="Shape" x="0" y="0" width="24" height="24"></rect>
        </g>
    </g>
</svg>