<?xml version="1.0" encoding="UTF-8"?>
<svg width="24px" height="24px" viewBox="0 0 24 24" version="1.1" xmlns="http://www.w3.org/2000/svg" xmlns:xlink="http://www.w3.org/1999/xlink">
    <title>Icon/cloud-off</title>
    <defs>
        <path d="M8.78093497,3.9 C8.78093497,3.4 9.27829004,2.9 9.87511612,3 C13.3566016,3.3 16.340732,5.7 17.5343841,9 L18.0317392,9 C18.0317392,9 18.0317392,9 18.0317392,9 C18.8275073,9 19.6232754,9.2 20.3195725,9.5 C23.3037029,10.8 24.7957681,14.3 23.5026449,17.4 C23.4031739,17.7 23.0052899,18 22.6074058,18 C22.5079348,18 22.3089928,18 22.2095218,17.9 C21.7121667,17.7 21.5132247,17.1 21.7121667,16.6 C22.6074058,14.6 21.6126957,12.2 19.6232754,11.4 C19.1259203,11.2 18.6285653,11.1 18.0317392,11.1 L16.738616,11.1 C16.241261,11.1 15.8433769,10.8 15.7439059,10.3 C15.0476088,7.4 12.6603045,5.3 9.67617409,5 C9.17881902,4.9 8.68146396,4.5 8.78093497,3.9 Z M23.701587,22.3 C24.099471,22.7 24.099471,23.3 23.701587,23.7 C23.5026449,23.9 23.3037029,24 23.0052899,24 C22.7068768,24 22.5079348,23.9 22.3089928,23.7 L19.4243334,20.8 C18.9269783,20.9 18.5290943,21 18.0317392,21 L9.07934801,21 C9.07934801,21 8.979877,21 8.979877,21 C5.69733356,21 2.71320316,19.2 1.12166695,16.4 C-0.0719852118,14.3 -0.270927238,11.9 0.325898841,9.6 C0.922724921,7.6 2.01690607,6 3.50897127,4.8 L0.425369855,1.7 C0.0274858015,1.3 0.0274858015,0.7 0.425369855,0.3 C0.823253908,-0.1 1.42007999,-0.1 1.81796404,0.3 L23.701587,22.3 Z M17.6338552,19 L5.00103647,6.3 C3.70791329,7.2 2.71320316,8.5 2.31531911,10.1 C1.81796404,11.9 2.01690607,13.8 2.91214519,15.4 C4.10579735,17.7 6.49310166,19.1 9.07934801,19 L17.6338552,19 Z" id="path-1"></path>
    </defs>
    <g id="Icon/cloud-off" stroke="none" stroke-width="1" fill="none" fill-rule="evenodd">
        <mask id="mask-2" fill="white">
            <use xlink:href="#path-1"></use>
        </mask>
        <use id="Mask" fill="#000000" fill-rule="nonzero" xlink:href="#path-1"></use>
        <g id="Icon-Color" mask="url(#mask-2)" fill="#22212D">
            <rect id="Shape" x="0" y="0" width="24" height="24"></rect>
        </g>
    </g>
</svg>