<?xml version="1.0" encoding="UTF-8"?>
<svg width="24px" height="24px" viewBox="0 0 24 24" version="1.1" xmlns="http://www.w3.org/2000/svg" xmlns:xlink="http://www.w3.org/1999/xlink">
    <title>Icon/cloud-drizzle</title>
    <defs>
        <path d="M9.01048079,19.0000613 L9.01048079,21.0000613 C9.01048079,21.6000613 8.61048079,22.0000613 8.01048079,22.0000613 C7.41048079,22.0000613 7.01048079,21.6000613 7.01048079,21.0000613 L7.01048079,19.0000613 C7.01048079,18.4000613 7.41048079,18.0000613 8.01048079,18.0000613 C8.61048079,18.0000613 9.01048079,18.4000613 9.01048079,19.0000613 Z M8.01048079,12.0000613 C7.41048079,12.0000613 7.01048079,12.4000613 7.01048079,13.0000613 L7.01048079,15.0000613 C7.01048079,15.6000613 7.41048079,16.0000613 8.01048079,16.0000613 C8.61048079,16.0000613 9.01048079,15.6000613 9.01048079,15.0000613 L9.01048079,13.0000613 C9.01048079,12.4000613 8.61048079,12.0000613 8.01048079,12.0000613 Z M16.0104808,18.0000613 C15.4104808,18.0000613 15.0104808,18.4000613 15.0104808,19.0000613 L15.0104808,21.0000613 C15.0104808,21.6000613 15.4104808,22.0000613 16.0104808,22.0000613 C16.6104808,22.0000613 17.0104808,21.6000613 17.0104808,21.0000613 L17.0104808,19.0000613 C17.0104808,18.4000613 16.6104808,18.0000613 16.0104808,18.0000613 Z M16.0104808,12.0000613 C15.4104808,12.0000613 15.0104808,12.4000613 15.0104808,13.0000613 L15.0104808,15.0000613 C15.0104808,15.6000613 15.4104808,16.0000613 16.0104808,16.0000613 C16.6104808,16.0000613 17.0104808,15.6000613 17.0104808,15.0000613 L17.0104808,13.0000613 C17.0104808,12.4000613 16.6104808,12.0000613 16.0104808,12.0000613 Z M12.0104808,20.0000613 C11.4104808,20.0000613 11.0104808,20.4000613 11.0104808,21.0000613 L11.0104808,23.0000613 C11.0104808,23.6000613 11.4104808,24.0000613 12.0104808,24.0000613 C12.6104808,24.0000613 13.0104808,23.6000613 13.0104808,23.0000613 L13.0104808,21.0000613 C13.0104808,20.4000613 12.6104808,20.0000613 12.0104808,20.0000613 Z M12.0104808,14.0000613 C11.4104808,14.0000613 11.0104808,14.4000613 11.0104808,15.0000613 L11.0104808,17.0000613 C11.0104808,17.6000613 11.4104808,18.0000613 12.0104808,18.0000613 C12.6104808,18.0000613 13.0104808,17.6000613 13.0104808,17.0000613 L13.0104808,15.0000613 C13.0104808,14.4000613 12.6104808,14.0000613 12.0104808,14.0000613 Z M23.5104808,9.6000613 C22.5104808,7.4000613 20.4104808,6.0000613 18.0104808,6.0000613 L17.5104808,6.0000613 C16.0104808,1.6000613 11.3104808,-0.899938699 6.81048079,0.300061301 C1.91048079,1.5000613 -0.989519208,6.4000613 0.310480792,11.3000613 C0.810480792,13.2000613 1.91048079,14.9000613 3.41048079,16.1000613 C3.81048079,16.4000613 4.51048079,16.4000613 4.81048079,15.9000613 C5.11048079,15.5000613 5.11048079,14.8000613 4.61048079,14.5000613 C3.41048079,13.6000613 2.61048079,12.2000613 2.21048079,10.8000613 C1.21048079,7.1000613 3.51048079,3.2000613 7.21048079,2.3000613 C10.9104808,1.3000613 14.8104808,3.6000613 15.7104808,7.3000613 C15.8104808,7.7000613 16.2104808,8.1000613 16.7104808,8.1000613 L18.0104808,8.1000613 C19.6104808,8.1000613 21.0104808,9.0000613 21.7104808,10.5000613 C22.1104808,11.5000613 22.2104808,12.6000613 21.8104808,13.6000613 C21.4104808,14.6000613 20.7104808,15.4000613 19.7104808,15.8000613 C19.2104808,16.0000613 19.0104808,16.6000613 19.2104808,17.1000613 C19.4104808,17.5000613 19.7104808,17.7000613 20.1104808,17.7000613 C20.2104808,17.7000613 20.4104808,17.7000613 20.5104808,17.6000613 C22.0104808,17.0000613 23.1104808,15.8000613 23.7104808,14.3000613 C24.2104808,12.7000613 24.1104808,11.1000613 23.5104808,9.6000613 Z" id="path-1"></path>
    </defs>
    <g id="Icon/cloud-drizzle" stroke="none" stroke-width="1" fill="none" fill-rule="evenodd">
        <mask id="mask-2" fill="white">
            <use xlink:href="#path-1"></use>
        </mask>
        <use id="Mask" fill="#000000" fill-rule="nonzero" xlink:href="#path-1"></use>
        <g id="Icon-Color" mask="url(#mask-2)" fill="#22212D">
            <rect id="Shape" x="0" y="0" width="24" height="24"></rect>
        </g>
    </g>
</svg>