<?xml version="1.0" encoding="UTF-8"?>
<svg width="24px" height="24px" viewBox="0 0 24 24" version="1.1" xmlns="http://www.w3.org/2000/svg" xmlns:xlink="http://www.w3.org/1999/xlink">
    <title>Icon/code</title>
    <defs>
        <path d="M22.7,12.7 L16.7,18.7 C16.5,18.9 16.3,19 16,19 C15.7,19 15.5,18.9 15.3,18.7 C14.9,18.3 14.9,17.7 15.3,17.3 L20.6,12 L15.3,6.7 C14.9,6.3 14.9,5.7 15.3,5.3 C15.7,4.9 16.3,4.9 16.7,5.3 L22.7,11.3 C23.1,11.7 23.1,12.3 22.7,12.7 Z M8.7,5.3 C8.3,4.9 7.7,4.9 7.3,5.3 L1.3,11.3 C0.9,11.7 0.9,12.3 1.3,12.7 L7.3,18.7 C7.5,18.9 7.7,19 8,19 C8.3,19 8.5,18.9 8.7,18.7 C9.1,18.3 9.1,17.7 8.7,17.3 L3.4,12 L8.7,6.7 C9.1,6.3 9.1,5.7 8.7,5.3 Z" id="path-1"></path>
    </defs>
    <g id="Icon/code" stroke="none" stroke-width="1" fill="none" fill-rule="evenodd">
        <mask id="mask-2" fill="white">
            <use xlink:href="#path-1"></use>
        </mask>
        <use id="Shape" fill="#000000" fill-rule="nonzero" xlink:href="#path-1"></use>
        <g id="Icon-Color" mask="url(#mask-2)" fill="#22212D">
            <rect id="Shape" x="0" y="0" width="24" height="24"></rect>
        </g>
    </g>
</svg>