<?xml version="1.0" encoding="UTF-8"?>
<svg width="24px" height="24px" viewBox="0 0 24 24" version="1.1" xmlns="http://www.w3.org/2000/svg" xmlns:xlink="http://www.w3.org/1999/xlink">
    <title>Icon/codepen</title>
    <defs>
        <path d="M23,15.7 C23,15.6 23,15.6 23,15.5 L23,8.5 C23,8.4 23,8.4 23,8.3 C23,8.3 23,8.3 23,8.2 C23,8.1 22.9,8 22.9,7.9 C22.9,7.9 22.9,7.9 22.9,7.9 C22.9,7.9 22.9,7.9 22.9,7.9 C22.8,7.8 22.8,7.7 22.7,7.7 L22.7,7.7 C22.7,7.7 22.7,7.7 22.7,7.7 L12.7,1.2 C12.7,1.2 12.6,1.2 12.6,1.2 C12.6,1.2 12.5,1.2 12.5,1.2 C12.3,1.1 12,1.1 11.8,1.2 C11.8,1.2 11.7,1.2 11.7,1.2 C11.7,1.2 11.6,1.2 11.6,1.2 L1.6,7.7 C1.6,7.7 1.6,7.7 1.6,7.7 L1.6,7.7 C1.4,7.7 1.3,7.8 1.2,7.9 C1.2,7.9 1.2,7.9 1.2,7.9 C1.2,7.9 1.2,7.9 1.2,7.9 C1.1,8.1 1.1,8.2 1,8.3 C1,8.3 1,8.3 1,8.4 C1,8.5 1,8.5 1,8.6 L1,15.6 C1,15.7 1,15.7 1,15.8 C1,15.8 1,15.8 1,15.9 C1,16 1.1,16.1 1.1,16.2 C1.1,16.2 1.1,16.2 1.1,16.2 C1.1,16.2 1.1,16.2 1.1,16.2 C1.2,16.3 1.2,16.4 1.3,16.4 L11.3,22.9 C11.3,22.9 11.4,22.9 11.4,22.9 C11.4,22.9 11.5,22.9 11.5,22.9 C11.6,22.9 11.7,23 11.8,23 C11.9,23 12,23 12.1,22.9 C12.1,22.9 12.2,22.9 12.2,22.9 C12.2,22.9 12.3,22.9 12.3,22.9 L22.3,16.4 C22.4,16.3 22.5,16.2 22.6,16.2 C22.6,16.2 22.6,16.2 22.6,16.2 C22.6,16.2 22.6,16.2 22.6,16.2 C22.9,15.9 22.9,15.8 23,15.7 C23,15.7 23,15.7 23,15.7 Z M3,10.4 L5.3,12 L3,13.6 L3,10.4 Z M12,14.3 L8.7,12 L12,9.7 L15.3,12 L12,14.3 Z M13,8 L13,3.8 L20.2,8.5 L17,10.8 L13,8 Z M11,8 L7,10.8 L3.8,8.5 L11,3.8 L11,8 Z M7,13.2 L11,16 L11,20.1 L3.8,15.4 L7,13.2 Z M13,16 L17,13.2 L20.2,15.4 L13,20.2 L13,16 Z M18.7,12 L21,10.4 L21,13.6 L18.7,12 Z" id="path-1"></path>
    </defs>
    <g id="Icon/codepen" stroke="none" stroke-width="1" fill="none" fill-rule="evenodd">
        <mask id="mask-2" fill="white">
            <use xlink:href="#path-1"></use>
        </mask>
        <use id="Mask" fill="#000000" fill-rule="nonzero" xlink:href="#path-1"></use>
        <g id="Icon-Color" mask="url(#mask-2)" fill="#22212D">
            <rect id="Shape" x="0" y="0" width="24" height="24"></rect>
        </g>
    </g>
</svg>