<?xml version="1.0" encoding="UTF-8"?>
<svg width="24px" height="24px" viewBox="0 0 24 24" version="1.1" xmlns="http://www.w3.org/2000/svg" xmlns:xlink="http://www.w3.org/1999/xlink">
    <title>Icon/command</title>
    <defs>
        <path d="M18,14 L16,14 L16,10 L18,10 C20.2,10 22,8.2 22,6 C22,3.8 20.2,2 18,2 C15.8,2 14,3.8 14,6 L14,8 L10,8 L10,6 C10,3.8 8.2,2 6,2 C3.8,2 2,3.8 2,6 C2,8.2 3.8,10 6,10 L8,10 L8,14 L6,14 C3.8,14 2,15.8 2,18 C2,20.2 3.8,22 6,22 C8.2,22 10,20.2 10,18 L10,16 L14,16 L14,18 C14,20.2 15.8,22 18,22 C20.2,22 22,20.2 22,18 C22,15.8 20.2,14 18,14 Z M16,6 C16,4.9 16.9,4 18,4 C19.1,4 20,4.9 20,6 C20,7.1 19.1,8 18,8 L16,8 L16,6 Z M8,18 C8,19.1 7.1,20 6,20 C4.9,20 4,19.1 4,18 C4,16.9 4.9,16 6,16 L8,16 L8,18 Z M8,8 L6,8 C4.9,8 4,7.1 4,6 C4,4.9 4.9,4 6,4 C7.1,4 8,4.9 8,6 L8,8 Z M14,14 L10,14 L10,10 L14,10 L14,14 Z M18,20 C16.9,20 16,19.1 16,18 L16,16 L18,16 C19.1,16 20,16.9 20,18 C20,19.1 19.1,20 18,20 Z" id="path-1"></path>
    </defs>
    <g id="Icon/command" stroke="none" stroke-width="1" fill="none" fill-rule="evenodd">
        <mask id="mask-2" fill="white">
            <use xlink:href="#path-1"></use>
        </mask>
        <use id="Mask" fill="#000000" fill-rule="nonzero" xlink:href="#path-1"></use>
        <g id="Icon-Color" mask="url(#mask-2)" fill="#22212D">
            <rect id="Shape" x="0" y="0" width="24" height="24"></rect>
        </g>
    </g>
</svg>