<?xml version="1.0" encoding="UTF-8"?>
<svg width="24px" height="24px" viewBox="0 0 24 24" version="1.1" xmlns="http://www.w3.org/2000/svg" xmlns:xlink="http://www.w3.org/1999/xlink">
    <title>Icon/compass</title>
    <defs>
        <path d="M12,1 C5.9,1 1,5.9 1,12 C1,18.1 5.9,23 12,23 C18.1,23 23,18.1 23,12 C23,5.9 18.1,1 12,1 Z M12,21 C7,21 3,17 3,12 C3,7 7,3 12,3 C17,3 21,7 21,12 C21,17 17,21 12,21 Z M15.9,6.8 L9.6,8.9 C9.3,9 9,9.3 8.9,9.6 L6.8,16 C6.7,16.4 6.8,16.8 7,17 C7.2,17.2 7.4,17.3 7.7,17.3 C7.8,17.3 7.9,17.3 8,17.2 L14.4,15.1 C14.7,15 14.9,14.8 15,14.5 L17.1,8.1 C17.2,7.7 17.1,7.3 16.9,7.1 C16.7,6.8 16.3,6.7 15.9,6.8 Z M13.3,13.3 L9.3,14.6 L10.6,10.6 L14.6,9.3 L13.3,13.3 Z" id="path-1"></path>
    </defs>
    <g id="Icon/compass" stroke="none" stroke-width="1" fill="none" fill-rule="evenodd">
        <mask id="mask-2" fill="white">
            <use xlink:href="#path-1"></use>
        </mask>
        <use id="Mask" fill="#000000" fill-rule="nonzero" xlink:href="#path-1"></use>
        <g id="Icon-Color" mask="url(#mask-2)" fill="#22212D">
            <rect id="Shape" x="0" y="0" width="24" height="24"></rect>
        </g>
    </g>
</svg>