<?xml version="1.0" encoding="UTF-8"?>
<svg width="24px" height="24px" viewBox="0 0 24 24" version="1.1" xmlns="http://www.w3.org/2000/svg" xmlns:xlink="http://www.w3.org/1999/xlink">
    <title>Icon/copy</title>
    <defs>
        <path d="M20,8 L11,8 C9.3,8 8,9.3 8,11 L8,20 C8,21.7 9.3,23 11,23 L20,23 C21.7,23 23,21.7 23,20 L23,11 C23,9.3 21.7,8 20,8 Z M21,20 C21,20.6 20.6,21 20,21 L11,21 C10.4,21 10,20.6 10,20 L10,11 C10,10.4 10.4,10 11,10 L20,10 C20.6,10 21,10.4 21,11 L21,20 Z M6,15 C6,15.6 5.6,16 5,16 L4,16 C2.3,16 1,14.7 1,13 L1,4 C1,2.3 2.3,1 4,1 L13,1 C14.7,1 16,2.3 16,4 L16,5 C16,5.6 15.6,6 15,6 C14.4,6 14,5.6 14,5 L14,4 C14,3.4 13.6,3 13,3 L4,3 C3.4,3 3,3.4 3,4 L3,13 C3,13.6 3.4,14 4,14 L5,14 C5.6,14 6,14.4 6,15 Z" id="path-1"></path>
    </defs>
    <g id="Icon/copy" stroke="none" stroke-width="1" fill="none" fill-rule="evenodd">
        <mask id="mask-2" fill="white">
            <use xlink:href="#path-1"></use>
        </mask>
        <use id="Mask" fill="#000000" fill-rule="nonzero" xlink:href="#path-1"></use>
        <g id="Icon-Color" mask="url(#mask-2)" fill="#22212D">
            <rect id="Shape" x="0" y="0" width="24" height="24"></rect>
        </g>
    </g>
</svg>