<?xml version="1.0" encoding="UTF-8"?>
<svg width="24px" height="24px" viewBox="0 0 24 24" version="1.1" xmlns="http://www.w3.org/2000/svg" xmlns:xlink="http://www.w3.org/1999/xlink">
    <title>Icon/corner-right-down</title>
    <defs>
        <path d="M20.7,15.7 L15.7,20.7 C15.6,20.8 15.5,20.9 15.4,20.9 C15.3,21 15.1,21 15,21 C14.9,21 14.7,21 14.6,20.9 C14.5,20.8 14.4,20.8 14.3,20.7 L9.3,15.7 C8.9,15.3 8.9,14.7 9.3,14.3 C9.7,13.9 10.3,13.9 10.7,14.3 L14,17.6 L14,8 C14,6.3 12.7,5 11,5 L4,5 C3.4,5 3,4.6 3,4 C3,3.4 3.4,3 4,3 L11,3 C13.8,3 16,5.2 16,8 L16,17.6 L19.3,14.3 C19.7,13.9 20.3,13.9 20.7,14.3 C21.1,14.7 21.1,15.3 20.7,15.7 Z" id="path-1"></path>
    </defs>
    <g id="Icon/corner-right-down" stroke="none" stroke-width="1" fill="none" fill-rule="evenodd">
        <mask id="mask-2" fill="white">
            <use xlink:href="#path-1"></use>
        </mask>
        <use id="Mask" fill="#000000" fill-rule="nonzero" xlink:href="#path-1"></use>
        <g id="Icon-Color" mask="url(#mask-2)" fill="#22212D">
            <rect id="Shape" x="0" y="0" width="24" height="24"></rect>
        </g>
    </g>
</svg>