<?xml version="1.0" encoding="UTF-8"?>
<svg width="24px" height="24px" viewBox="0 0 24 24" version="1.1" xmlns="http://www.w3.org/2000/svg" xmlns:xlink="http://www.w3.org/1999/xlink">
    <title>Icon/corner-up-left</title>
    <defs>
        <path d="M20.975,13 L20.975,20 C20.975,20.6 20.575,21 19.975,21 C19.375,21 18.975,20.6 18.975,20 L18.975,13 C18.975,11.3 17.675,10 15.975,10 L6.375,10 L9.675,13.3 C10.075,13.7 10.075,14.3 9.675,14.7 C9.475,14.9 9.275,15 8.975,15 C8.675,15 8.475,14.9 8.275,14.7 L3.275,9.7 C3.175,9.6 3.075,9.5 3.075,9.4 C2.975,9.1 2.975,8.9 3.075,8.6 C3.175,8.5 3.175,8.4 3.275,8.3 L8.275,3.3 C8.675,2.9 9.275,2.9 9.675,3.3 C10.075,3.7 10.075,4.3 9.675,4.7 L6.375,8 L15.975,8 C18.775,8 20.975,10.2 20.975,13 Z" id="path-1"></path>
    </defs>
    <g id="Icon/corner-up-left" stroke="none" stroke-width="1" fill="none" fill-rule="evenodd">
        <mask id="mask-2" fill="white">
            <use xlink:href="#path-1"></use>
        </mask>
        <use id="Mask" fill="#000000" fill-rule="nonzero" xlink:href="#path-1"></use>
        <g id="Icon-Color" mask="url(#mask-2)" fill="#22212D">
            <rect id="Shape" x="0" y="0" width="24" height="24"></rect>
        </g>
    </g>
</svg>