<?xml version="1.0" encoding="UTF-8"?>
<svg width="24px" height="24px" viewBox="0 0 24 24" version="1.1" xmlns="http://www.w3.org/2000/svg" xmlns:xlink="http://www.w3.org/1999/xlink">
    <title>Icon/corner-right-up</title>
    <defs>
        <path d="M20.7,9.675 C20.5,9.875 20.3,9.975 20,9.975 C19.7,9.975 19.5,9.875 19.3,9.675 L16,6.375 L16,15.975 C16,18.775 13.8,20.975 11,20.975 L4,20.975 C3.4,20.975 3,20.575 3,19.975 C3,19.375 3.4,18.975 4,18.975 L11,18.975 C12.7,18.975 14,17.675 14,15.975 L14,6.375 L10.7,9.675 C10.3,10.075 9.7,10.075 9.3,9.675 C8.9,9.275 8.9,8.675 9.3,8.275 L14.3,3.275 C14.4,3.175 14.5,3.075 14.6,3.075 C14.8,2.975 15.1,2.975 15.4,3.075 C15.5,3.175 15.6,3.175 15.7,3.275 L20.7,8.275 C21.1,8.675 21.1,9.275 20.7,9.675 Z" id="path-1"></path>
    </defs>
    <g id="Icon/corner-right-up" stroke="none" stroke-width="1" fill="none" fill-rule="evenodd">
        <mask id="mask-2" fill="white">
            <use xlink:href="#path-1"></use>
        </mask>
        <use id="Mask" fill="#000000" fill-rule="nonzero" xlink:href="#path-1"></use>
        <g id="Icon-Color" mask="url(#mask-2)" fill="#22212D">
            <rect id="Shape" x="0" y="0" width="24" height="24"></rect>
        </g>
    </g>
</svg>