<?xml version="1.0" encoding="UTF-8"?>
<svg width="24px" height="24px" viewBox="0 0 24 24" version="1.1" xmlns="http://www.w3.org/2000/svg" xmlns:xlink="http://www.w3.org/1999/xlink">
    <title>Icon/corner-down-right</title>
    <defs>
        <path d="M20.7,15.7 L15.7,20.7 C15.5,20.9 15.3,21 15,21 C14.7,21 14.5,20.9 14.3,20.7 C13.9,20.3 13.9,19.7 14.3,19.3 L17.6,16 L8,16 C5.2,16 3,13.8 3,11 L3,4 C3,3.4 3.4,3 4,3 C4.6,3 5,3.4 5,4 L5,11 C5,12.7 6.3,14 8,14 L17.6,14 L14.3,10.7 C13.9,10.3 13.9,9.7 14.3,9.3 C14.7,8.9 15.3,8.9 15.7,9.3 L20.7,14.3 C20.8,14.4 20.9,14.5 20.9,14.6 C21,14.8 21,15.1 20.9,15.4 C20.9,15.5 20.8,15.6 20.7,15.7 Z" id="path-1"></path>
    </defs>
    <g id="Icon/corner-down-right" stroke="none" stroke-width="1" fill="none" fill-rule="evenodd">
        <mask id="mask-2" fill="white">
            <use xlink:href="#path-1"></use>
        </mask>
        <use id="Mask" fill="#000000" fill-rule="nonzero" xlink:href="#path-1"></use>
        <g id="Icon-Color" mask="url(#mask-2)" fill="#22212D">
            <rect id="Shape" x="0" y="0" width="24" height="24"></rect>
        </g>
    </g>
</svg>