<?xml version="1.0" encoding="UTF-8"?>
<svg width="24px" height="24px" viewBox="0 0 24 24" version="1.1" xmlns="http://www.w3.org/2000/svg" xmlns:xlink="http://www.w3.org/1999/xlink">
    <title>Icon/cpu</title>
    <defs>
        <path d="M15,8 L9,8 C8.4,8 8,8.4 8,9 L8,15 C8,15.6 8.4,16 9,16 L15,16 C15.6,16 16,15.6 16,15 L16,9 C16,8.4 15.6,8 15,8 Z M14,14 L10,14 L10,10 L14,10 L14,14 Z M23,13 L21,13 L21,10 L23,10 C23.6,10 24,9.6 24,9 C24,8.4 23.6,8 23,8 L21,8 L21,6 C21,4.3 19.7,3 18,3 L16,3 L16,1 C16,0.4 15.6,0 15,0 C14.4,0 14,0.4 14,1 L14,3 L10,3 L10,1 C10,0.4 9.6,0 9,0 C8.4,0 8,0.4 8,1 L8,3 L6,3 C4.3,3 3,4.3 3,6 L3,8 L1,8 C0.4,8 0,8.4 0,9 C0,9.6 0.4,10 1,10 L3,10 L3,13 L1,13 C0.4,13 0,13.4 0,14 C0,14.6 0.4,15 1,15 L3,15 L3,18 C3,19.7 4.3,21 6,21 L8,21 L8,23 C8,23.6 8.4,24 9,24 C9.6,24 10,23.6 10,23 L10,21 L14,21 L14,23 C14,23.6 14.4,24 15,24 C15.6,24 16,23.6 16,23 L16,21 L18,21 C19.7,21 21,19.7 21,18 L21,15 L23,15 C23.6,15 24,14.6 24,14 C24,13.4 23.6,13 23,13 Z M19,18 C19,18.6 18.6,19 18,19 L6,19 C5.4,19 5,18.6 5,18 L5,6 C5,5.4 5.4,5 6,5 L18,5 C18.6,5 19,5.4 19,6 L19,18 Z" id="path-1"></path>
    </defs>
    <g id="Icon/cpu" stroke="none" stroke-width="1" fill="none" fill-rule="evenodd">
        <mask id="mask-2" fill="white">
            <use xlink:href="#path-1"></use>
        </mask>
        <use id="Mask" fill="#000000" fill-rule="nonzero" xlink:href="#path-1"></use>
        <g id="Icon-Color" mask="url(#mask-2)" fill="#22212D">
            <rect id="Shape" x="0" y="0" width="24" height="24"></rect>
        </g>
    </g>
</svg>