<?xml version="1.0" encoding="UTF-8"?>
<svg width="24px" height="24px" viewBox="0 0 24 24" version="1.1" xmlns="http://www.w3.org/2000/svg" xmlns:xlink="http://www.w3.org/1999/xlink">
    <title>Icon/credit-card</title>
    <defs>
        <path d="M21,3 L3,3 C1.3,3 0,4.3 0,6 L0,18 C0,19.7 1.3,21 3,21 L21,21 C22.7,21 24,19.7 24,18 L24,6 C24,4.3 22.7,3 21,3 Z M3,5 L21,5 C21.6,5 22,5.4 22,6 L22,9 L2,9 L2,6 C2,5.4 2.4,5 3,5 Z M21,19 L3,19 C2.4,19 2,18.6 2,18 L2,11 L22,11 L22,18 C22,18.6 21.6,19 21,19 Z" id="path-1"></path>
    </defs>
    <g id="Icon/credit-card" stroke="none" stroke-width="1" fill="none" fill-rule="evenodd">
        <mask id="mask-2" fill="white">
            <use xlink:href="#path-1"></use>
        </mask>
        <use id="Mask" fill="#000000" fill-rule="nonzero" xlink:href="#path-1"></use>
        <g id="Icon-Color" mask="url(#mask-2)" fill="#22212D">
            <rect id="Shape" x="0" y="0" width="24" height="24"></rect>
        </g>
    </g>
</svg>