<?xml version="1.0" encoding="UTF-8"?>
<svg width="24px" height="24px" viewBox="0 0 24 24" version="1.1" xmlns="http://www.w3.org/2000/svg" xmlns:xlink="http://www.w3.org/1999/xlink">
    <title>Icon/crosshair</title>
    <defs>
        <path d="M12,1 C5.9,1 1,5.9 1,12 C1,18.1 5.9,23 12,23 C18.1,23 23,18.1 23,12 C23,5.9 18.1,1 12,1 Z M13,20.9 L13,18 C13,17.4 12.6,17 12,17 C11.4,17 11,17.4 11,18 L11,20.9 C6.8,20.4 3.5,17.1 3.1,13 L6,13 C6.6,13 7,12.6 7,12 C7,11.4 6.6,11 6,11 L3.1,11 C3.5,6.8 6.8,3.5 11,3.1 L11,6 C11,6.6 11.4,7 12,7 C12.6,7 13,6.6 13,6 L13,3.1 C17.2,3.6 20.5,6.9 20.9,11 L18,11 C17.4,11 17,11.4 17,12 C17,12.6 17.4,13 18,13 L20.9,13 C20.5,17.2 17.2,20.5 13,20.9 Z" id="path-1"></path>
    </defs>
    <g id="Icon/crosshair" stroke="none" stroke-width="1" fill="none" fill-rule="evenodd">
        <mask id="mask-2" fill="white">
            <use xlink:href="#path-1"></use>
        </mask>
        <use id="Mask" fill="#000000" fill-rule="nonzero" xlink:href="#path-1"></use>
        <g id="Icon-Color" mask="url(#mask-2)" fill="#22212D">
            <rect id="Shape" x="0" y="0" width="24" height="24"></rect>
        </g>
    </g>
</svg>