<?xml version="1.0" encoding="UTF-8"?>
<svg width="24px" height="24px" viewBox="0 0 24 24" version="1.1" xmlns="http://www.w3.org/2000/svg" xmlns:xlink="http://www.w3.org/1999/xlink">
    <title>Icon/database</title>
    <defs>
        <path d="M12,1 C7.2,1 2,2.3 2,5 L2,19 C2,21.7 7.2,23 12,23 C16.8,23 22,21.7 22,19 L22,5 C22,2.3 16.8,1 12,1 Z M20,12 C20,12.5 17.5,14 12,14 C6.5,14 4,12.5 4,12 L4,7.5 C5.9,8.5 9,9 12,9 C15,9 18.1,8.5 20,7.5 L20,12 Z M12,3 C17.2,3 20,4.5 20,5 C20,5.5 17.2,7 12,7 C6.8,7 4,5.5 4,5 C4,4.5 6.8,3 12,3 Z M12,21 C6.5,21 4,19.5 4,19 L4,14.5 C5.9,15.5 9,16 12,16 C15,16 18.1,15.5 20,14.5 L20,19 C20,19.5 17.5,21 12,21 Z" id="path-1"></path>
    </defs>
    <g id="Icon/database" stroke="none" stroke-width="1" fill="none" fill-rule="evenodd">
        <mask id="mask-2" fill="white">
            <use xlink:href="#path-1"></use>
        </mask>
        <use id="Shape" fill="#000000" fill-rule="nonzero" xlink:href="#path-1"></use>
        <g id="Icon-Color" mask="url(#mask-2)" fill="#22212D">
            <rect id="Shape" x="0" y="0" width="24" height="24"></rect>
        </g>
    </g>
</svg>