<?xml version="1.0" encoding="UTF-8"?>
<svg width="24px" height="24px" viewBox="0 0 24 24" version="1.1" xmlns="http://www.w3.org/2000/svg" xmlns:xlink="http://www.w3.org/1999/xlink">
    <title>Icon/delete</title>
    <defs>
        <path d="M21.0031217,3 L8.01664932,3 C7.7169615,3 7.41727367,3.1 7.21748179,3.3 L0.224765869,11.3 C-0.0749219563,11.7 -0.0749219563,12.2 0.224765869,12.6 L7.21748179,20.6 C7.41727367,20.9 7.7169615,21 8.01664932,21 L21.0031217,21 C22.7013528,21 24,19.7 24,18 L24,6 C24,4.3 22.7013528,3 21.0031217,3 Z M22.0020812,18 C22.0020812,18.6 21.6024974,19 21.0031217,19 L8.51612903,19 L2.42247659,12 L8.51612903,5 L21.0031217,5 C21.6024974,5 22.0020812,5.4 22.0020812,6 L22.0020812,18 Z M18.7055151,9.7 L16.4079084,12 L18.7055151,14.3 C19.1050989,14.7 19.1050989,15.3 18.7055151,15.7 C18.5057232,15.9 18.3059313,16 18.0062435,16 C17.7065557,16 17.5067638,15.9 17.3069719,15.7 L15.0093652,13.4 L12.7117586,15.7 C12.5119667,15.9 12.3121748,16 12.012487,16 C11.7127992,16 11.5130073,15.9 11.3132154,15.7 C10.9136316,15.3 10.9136316,14.7 11.3132154,14.3 L13.6108221,12 L11.3132154,9.7 C10.9136316,9.3 10.9136316,8.7 11.3132154,8.3 C11.7127992,7.9 12.3121748,7.9 12.7117586,8.3 L15.0093652,10.6 L17.3069719,8.3 C17.7065557,7.9 18.3059313,7.9 18.7055151,8.3 C19.1050989,8.7 19.1050989,9.3 18.7055151,9.7 Z" id="path-1"></path>
    </defs>
    <g id="Icon/delete" stroke="none" stroke-width="1" fill="none" fill-rule="evenodd">
        <mask id="mask-2" fill="white">
            <use xlink:href="#path-1"></use>
        </mask>
        <use id="Mask" fill="#000000" fill-rule="nonzero" xlink:href="#path-1"></use>
        <g id="Icon-Color" mask="url(#mask-2)" fill="#22212D">
            <rect id="Shape" x="0" y="0" width="24" height="24"></rect>
        </g>
    </g>
</svg>