<?xml version="1.0" encoding="UTF-8"?>
<svg width="24px" height="24px" viewBox="0 0 24 24" version="1.1" xmlns="http://www.w3.org/2000/svg" xmlns:xlink="http://www.w3.org/1999/xlink">
    <title>Icon/dollar-sign</title>
    <defs>
        <path d="M14.5,11 L13,11 L13,6 L17,6 C17.6,6 18,5.6 18,5 C18,4.4 17.6,4 17,4 L13,4 L13,1 C13,0.4 12.6,0 12,0 C11.4,0 11,0.4 11,1 L11,4 L9.5,4 C7,4 5,6 5,8.5 C5,11 7,13 9.5,13 L11,13 L11,18 L6,18 C5.4,18 5,18.4 5,19 C5,19.6 5.4,20 6,20 L11,20 L11,23 C11,23.6 11.4,24 12,24 C12.6,24 13,23.6 13,23 L13,20 L14.5,20 C17,20 19,18 19,15.5 C19,13 17,11 14.5,11 Z M9.5,11 C8.1,11 7,9.9 7,8.5 C7,7.1 8.1,6 9.5,6 L11,6 L11,11 L9.5,11 Z M14.5,18 L13,18 L13,13 L14.5,13 C15.9,13 17,14.1 17,15.5 C17,16.9 15.9,18 14.5,18 Z" id="path-1"></path>
    </defs>
    <g id="Icon/dollar-sign" stroke="none" stroke-width="1" fill="none" fill-rule="evenodd">
        <mask id="mask-2" fill="white">
            <use xlink:href="#path-1"></use>
        </mask>
        <use id="Shape" fill="#000000" fill-rule="nonzero" xlink:href="#path-1"></use>
        <g id="Icon-Color" mask="url(#mask-2)" fill="#22212D">
            <rect id="Shape" x="0" y="0" width="24" height="24"></rect>
        </g>
    </g>
</svg>