<?xml version="1.0" encoding="UTF-8"?>
<svg width="24px" height="24px" viewBox="0 0 24 24" version="1.1" xmlns="http://www.w3.org/2000/svg" xmlns:xlink="http://www.w3.org/1999/xlink">
    <title>Icon/download</title>
    <defs>
        <path d="M22,17 L22,20 C22,21.7 20.7,23 19,23 L5,23 C3.3,23 2,21.7 2,20 L2,17 C2,16.4 2.4,16 3,16 C3.6,16 4,16.4 4,17 L4,20 C4,20.6 4.4,21 5,21 L19,21 C19.6,21 20,20.6 20,20 L20,17 C20,16.4 20.4,16 21,16 C21.6,16 22,16.4 22,17 Z M11.3,16.7 C11.4,16.8 11.5,16.9 11.6,16.9 C11.7,17 11.9,17 12,17 C12.1,17 12.3,17 12.4,16.9 C12.5,16.8 12.6,16.8 12.7,16.7 L16.7,12.7 C17.1,12.3 17.1,11.7 16.7,11.3 C16.3,10.9 15.7,10.9 15.3,11.3 L13,13.6 L13,2 C13,1.4 12.6,1 12,1 C11.4,1 11,1.4 11,2 L11,13.6 L8.7,11.3 C8.3,10.9 7.7,10.9 7.3,11.3 C6.9,11.7 6.9,12.3 7.3,12.7 L11.3,16.7 Z" id="path-1"></path>
    </defs>
    <g id="Icon/download" stroke="none" stroke-width="1" fill="none" fill-rule="evenodd">
        <mask id="mask-2" fill="white">
            <use xlink:href="#path-1"></use>
        </mask>
        <use id="Mask" fill="#000000" fill-rule="nonzero" xlink:href="#path-1"></use>
        <g id="Icon-Color" mask="url(#mask-2)" fill="#22212D">
            <rect id="Shape" x="0" y="0" width="24" height="24"></rect>
        </g>
    </g>
</svg>