<?xml version="1.0" encoding="UTF-8"?>
<svg width="24px" height="24px" viewBox="0 0 24 24" version="1.1" xmlns="http://www.w3.org/2000/svg" xmlns:xlink="http://www.w3.org/1999/xlink">
    <title>Icon/download-cloud</title>
    <defs>
        <path d="M16.6001826,16.3000613 C16.9959985,16.7000613 16.9959985,17.3000613 16.6001826,17.7000613 L12.6420232,21.7000613 C12.5430693,21.8000613 12.4441153,21.9000613 12.3451613,21.9000613 C12.2462073,22.0000613 12.0482993,22.0000613 11.9493454,22.0000613 C11.8503914,22.0000613 11.6524834,22.0000613 11.5535294,21.9000613 C11.4545754,21.8000613 11.3556215,21.8000613 11.2566675,21.7000613 L7.29850811,17.7000613 C6.90269218,17.3000613 6.90269218,16.7000613 7.29850811,16.3000613 C7.69432405,15.9000613 8.28804795,15.9000613 8.68386389,16.3000613 L10.9598055,18.6000613 L10.9598055,12.0000613 C10.9598055,11.4000613 11.3556215,11.0000613 11.9493454,11.0000613 C12.5430693,11.0000613 12.9388852,11.4000613 12.9388852,12.0000613 L12.9388852,18.6000613 L15.2148268,16.3000613 C15.6106428,15.9000613 16.2043667,15.9000613 16.6001826,16.3000613 Z M22.7353296,10.5000613 C21.6468358,9.0000613 19.8656641,8.0000613 17.8865844,8.0000613 C17.8865844,8.0000613 17.8865844,8.0000613 17.8865844,8.0000613 L17.3918145,8.0000613 C15.9075047,3.6000613 11.2566675,1.1000613 6.80373819,2.3000613 C4.42884258,2.9000613 2.54871688,4.3000613 1.26231509,6.4000613 C0.0748672845,8.5000613 -0.320948651,10.9000613 0.272775252,13.2000613 C0.668591188,14.6000613 1.26231509,15.9000613 2.25185493,16.9000613 C2.64767087,17.3000613 3.24139477,17.4000613 3.63721071,17.0000613 C4.03302664,16.6000613 4.13198063,16.0000613 3.73616469,15.6000613 C3.0434868,14.8000613 2.4497629,13.8000613 2.25185493,12.7000613 C1.75708501,10.9000613 2.05394696,9.0000613 3.0434868,7.4000613 C4.03302664,5.8000613 5.5173364,4.6000613 7.29850811,4.2000613 C10.9598055,3.2000613 14.8190109,5.5000613 15.7095968,9.2000613 C15.8085507,9.6000613 16.2043667,10.0000613 16.6991366,10.0000613 L17.8865844,10.0000613 C17.8865844,10.0000613 17.8865844,10.0000613 17.8865844,10.0000613 C19.1729862,10.0000613 20.360434,10.6000613 21.1520659,11.7000613 C21.7457898,12.6000613 22.0426517,13.6000613 21.8447438,14.7000613 C21.6468358,15.8000613 21.0531119,16.7000613 20.26148,17.3000613 C19.7667101,17.6000613 19.6677561,18.2000613 20.063572,18.7000613 C20.26148,19.0000613 20.558342,19.1000613 20.8552039,19.1000613 C21.0531119,19.1000613 21.2510199,19.0000613 21.4489278,18.9000613 C22.7353296,18.0000613 23.6259155,16.6000613 23.9227774,15.0000613 C24.2196394,13.4000613 23.6259155,11.9000613 22.7353296,10.5000613 Z" id="path-1"></path>
    </defs>
    <g id="Icon/download-cloud" stroke="none" stroke-width="1" fill="none" fill-rule="evenodd">
        <mask id="mask-2" fill="white">
            <use xlink:href="#path-1"></use>
        </mask>
        <use id="Mask" fill="#000000" fill-rule="nonzero" xlink:href="#path-1"></use>
        <g id="Icon-Color" mask="url(#mask-2)" fill="#22212D">
            <rect id="Shape" x="0" y="0" width="24" height="24"></rect>
        </g>
    </g>
</svg>