<?xml version="1.0" encoding="UTF-8"?>
<svg width="24px" height="24px" viewBox="0 0 24 24" version="1.1" xmlns="http://www.w3.org/2000/svg" xmlns:xlink="http://www.w3.org/1999/xlink">
    <title>Icon/droplet</title>
    <defs>
        <path d="M18.4,6.9 L12.7,1.3 C12.5,1.1 12.3,1 12,1 L12,1 C11.7,1 11.5,1.1 11.3,1.3 L5.7,6.9 C5.7,6.9 5.7,6.9 5.7,6.9 C3.9,8.6 3,10.9 3,13.3 C3,15.7 3.9,18 5.6,19.7 C7.3,21.4 9.6,22.3 12,22.3 C12,22.3 12,22.3 12,22.3 C14.4,22.3 16.7,21.4 18.4,19.7 C21.9,16.2 21.9,10.5 18.4,6.9 Z M17,18.3 C15.6,19.6 13.9,20.3 12,20.3 C12,20.3 12,20.3 12,20.3 C10.1,20.3 8.4,19.6 7.1,18.3 C5.7,16.9 5,15.2 5,13.3 C5,11.4 5.7,9.7 7,8.4 C7,8.4 7,8.4 7,8.4 L11.9,3.4 L16.9,8.4 C19.7,11.1 19.7,15.5 17,18.3 Z" id="path-1"></path>
    </defs>
    <g id="Icon/droplet" stroke="none" stroke-width="1" fill="none" fill-rule="evenodd">
        <mask id="mask-2" fill="white">
            <use xlink:href="#path-1"></use>
        </mask>
        <use id="Mask" fill="#000000" fill-rule="nonzero" xlink:href="#path-1"></use>
        <g id="Icon-Color" mask="url(#mask-2)" fill="#22212D">
            <rect id="Shape" x="0" y="0" width="24" height="24"></rect>
        </g>
    </g>
</svg>