<?xml version="1.0" encoding="UTF-8"?>
<svg width="24px" height="24px" viewBox="0 0 24 24" version="1.1" xmlns="http://www.w3.org/2000/svg" xmlns:xlink="http://www.w3.org/1999/xlink">
    <title>Icon/edit-2</title>
    <defs>
        <path d="M21.7,7.3 L16.7,2.3 C16.3,1.9 15.7,1.9 15.3,2.3 L2.3,15.3 C2.1,15.5 2,15.7 2,16 L2,21 C2,21.6 2.4,22 3,22 L8,22 C8.3,22 8.5,21.9 8.7,21.7 L21.7,8.7 C22.1,8.3 22.1,7.7 21.7,7.3 Z M7.6,20 L4,20 L4,16.4 L16,4.4 L19.6,8 L7.6,20 Z" id="path-1"></path>
    </defs>
    <g id="Icon/edit-2" stroke="none" stroke-width="1" fill="none" fill-rule="evenodd">
        <mask id="mask-2" fill="white">
            <use xlink:href="#path-1"></use>
        </mask>
        <use id="Mask" fill="#000000" fill-rule="nonzero" xlink:href="#path-1"></use>
        <g id="Icon-Color" mask="url(#mask-2)" fill="#22212D">
            <rect id="Shape" x="0" y="0" width="24" height="24"></rect>
        </g>
    </g>
</svg>