<?xml version="1.0" encoding="UTF-8"?>
<svg width="24px" height="24px" viewBox="0 0 24 24" version="1.1" xmlns="http://www.w3.org/2000/svg" xmlns:xlink="http://www.w3.org/1999/xlink">
    <title>Icon/edit</title>
    <defs>
        <path d="M21,14.7 L21,20 C21,21.7 19.7,23 18,23 L4,23 C2.3,23 1,21.7 1,20 L1,6 C1,4.3 2.3,3 4,3 L9.3,3 C9.9,3 10.3,3.4 10.3,4 C10.3,4.6 9.9,5 9.3,5 L4,5 C3.4,5 3,5.4 3,6 L3,20 C3,20.6 3.4,21 4,21 L18,21 C18.6,21 19,20.6 19,20 L19,14.7 C19,14.1 19.4,13.7 20,13.7 C20.6,13.7 21,14.1 21,14.7 Z M22.7,6.7 L12.7,16.7 C12.5,16.9 12.3,17 12,17 L8,17 C7.4,17 7,16.6 7,16 L7,12 C7,11.7 7.1,11.5 7.3,11.3 L17.3,1.3 C17.7,0.9 18.3,0.9 18.7,1.3 L22.7,5.3 C23.1,5.7 23.1,6.3 22.7,6.7 Z M20.6,6 L18,3.4 L9,12.4 L9,15 L11.6,15 L20.6,6 Z" id="path-1"></path>
    </defs>
    <g id="Icon/edit" stroke="none" stroke-width="1" fill="none" fill-rule="evenodd">
        <mask id="mask-2" fill="white">
            <use xlink:href="#path-1"></use>
        </mask>
        <use id="Mask" fill="#000000" fill-rule="nonzero" xlink:href="#path-1"></use>
        <g id="Icon-Color" mask="url(#mask-2)" fill="#22212D">
            <rect id="Shape" x="0" y="0" width="24" height="24"></rect>
        </g>
    </g>
</svg>