<?xml version="1.0" encoding="UTF-8"?>
<svg width="24px" height="24px" viewBox="0 0 24 24" version="1.1" xmlns="http://www.w3.org/2000/svg" xmlns:xlink="http://www.w3.org/1999/xlink">
    <title>Icon/edit-3</title>
    <defs>
        <path d="M3,18 L7,18 C7.3,18 7.5,17.9 7.7,17.7 L18.7,6.7 C19.1,6.3 19.1,5.7 18.7,5.3 L14.7,1.3 C14.3,0.9 13.7,0.9 13.3,1.3 L2.3,12.3 C2.1,12.5 2,12.7 2,13 L2,17 C2,17.6 2.4,18 3,18 Z M4,13.4 L14,3.4 L16.6,6 L6.6,16 L4,16 L4,13.4 Z M22,22 C22,22.6 21.6,23 21,23 L3,23 C2.4,23 2,22.6 2,22 C2,21.4 2.4,21 3,21 L21,21 C21.6,21 22,21.4 22,22 Z" id="path-1"></path>
    </defs>
    <g id="Icon/edit-3" stroke="none" stroke-width="1" fill="none" fill-rule="evenodd">
        <mask id="mask-2" fill="white">
            <use xlink:href="#path-1"></use>
        </mask>
        <use id="Mask" fill="#000000" fill-rule="nonzero" xlink:href="#path-1"></use>
        <g id="Icon-Color" mask="url(#mask-2)" fill="#22212D">
            <rect id="Shape" x="0" y="0" width="24" height="24"></rect>
        </g>
    </g>
</svg>