<?xml version="1.0" encoding="UTF-8"?>
<svg width="24px" height="24px" viewBox="0 0 24 24" version="1.1" xmlns="http://www.w3.org/2000/svg" xmlns:xlink="http://www.w3.org/1999/xlink">
    <title>Icon/external-link</title>
    <defs>
        <path d="M19,13 L19,19 C19,20.7 17.7,22 16,22 L5,22 C3.3,22 2,20.7 2,19 L2,8 C2,6.3 3.3,5 5,5 L11,5 C11.6,5 12,5.4 12,6 C12,6.6 11.6,7 11,7 L5,7 C4.4,7 4,7.4 4,8 L4,19 C4,19.6 4.4,20 5,20 L16,20 C16.6,20 17,19.6 17,19 L17,13 C17,12.4 17.4,12 18,12 C18.6,12 19,12.4 19,13 Z M21.9,2.6 C21.8,2.4 21.6,2.2 21.4,2.1 C21.3,2 21.1,2 21,2 L15,2 C14.4,2 14,2.4 14,3 C14,3.6 14.4,4 15,4 L18.6,4 L9.3,13.3 C8.9,13.7 8.9,14.3 9.3,14.7 C9.5,14.9 9.7,15 10,15 C10.3,15 10.5,14.9 10.7,14.7 L20,5.4 L20,9 C20,9.6 20.4,10 21,10 C21.6,10 22,9.6 22,9 L22,3 C22,2.9 22,2.7 21.9,2.6 Z" id="path-1"></path>
    </defs>
    <g id="Icon/external-link" stroke="none" stroke-width="1" fill="none" fill-rule="evenodd">
        <mask id="mask-2" fill="white">
            <use xlink:href="#path-1"></use>
        </mask>
        <use id="Mask" fill="#000000" fill-rule="nonzero" xlink:href="#path-1"></use>
        <g id="Icon-Color" mask="url(#mask-2)" fill="#22212D">
            <rect id="Shape" x="0" y="0" width="24" height="24"></rect>
        </g>
    </g>
</svg>