<?xml version="1.0" encoding="UTF-8"?>
<svg width="24px" height="24px" viewBox="0 0 24 24" version="1.1" xmlns="http://www.w3.org/2000/svg" xmlns:xlink="http://www.w3.org/1999/xlink">
    <title>Icon/eye-off</title>
    <defs>
        <path d="M8.9,4.5 C8.8,3.9 9.1,3.4 9.7,3.3 C10.4,3.1 11.2,3 12,3 C19.5,3 23.7,11.2 23.9,11.6 C24,11.9 24,12.2 23.9,12.5 C23.3,13.7 22.5,14.8 21.6,15.9 C21.4,16.1 21.1,16.3 20.8,16.3 C20.6,16.3 20.3,16.2 20.2,16.1 C19.8,15.7 19.7,15.1 20.1,14.7 C20.8,13.9 21.4,13.1 21.9,12.2 C21,10.6 17.4,5.2 12,5.2 C11.4,5.2 10.7,5.3 10.1,5.4 C9.6,5.3 9.1,5 8.9,4.5 Z M23.7,23.7 C23.5,23.9 23.3,24 23,24 C22.7,24 22.5,23.9 22.3,23.7 L17.8,19.2 C16.1,20.4 14.1,21 12,21 C4.5,21 0.3,12.8 0.1,12.4 C0,12.1 0,11.8 0.1,11.5 C1.2,9.4 2.8,7.5 4.6,6 L0.3,1.7 C-0.1,1.3 -0.1,0.7 0.3,0.3 C0.7,-0.1 1.3,-0.1 1.7,0.3 L23.7,22.3 C24.1,22.7 24.1,23.3 23.7,23.7 Z M9.9,12.1 C9.9,12.6 10.1,13.1 10.5,13.5 C11.1,14 11.8,14.1 12.5,13.9 L10,11.4 C10,11.7 9.9,11.9 9.9,12.1 Z M16.4,17.8 L14,15.5 C13.4,15.9 12.6,16.1 11.9,16.1 C10.9,16.1 9.9,15.7 9.2,15 C8.4,14.3 8,13.3 7.9,12.2 C7.9,11.4 8.1,10.6 8.5,9.9 L6,7.4 C4.5,8.7 3.2,10.2 2.1,12 C3,13.6 6.6,19 12,19 C13.5,19 15,18.6 16.4,17.8 Z" id="path-1"></path>
    </defs>
    <g id="Icon/eye-off" stroke="none" stroke-width="1" fill="none" fill-rule="evenodd">
        <mask id="mask-2" fill="white">
            <use xlink:href="#path-1"></use>
        </mask>
        <use id="Mask" fill="#000000" fill-rule="nonzero" xlink:href="#path-1"></use>
        <g id="Icon-Color" mask="url(#mask-2)" fill="#22212D">
            <rect id="Shape" x="0" y="0" width="24" height="24"></rect>
        </g>
    </g>
</svg>