<?xml version="1.0" encoding="UTF-8"?>
<svg width="24px" height="24px" viewBox="0 0 24 24" version="1.1" xmlns="http://www.w3.org/2000/svg" xmlns:xlink="http://www.w3.org/1999/xlink">
    <title>Icon/facebook</title>
    <defs>
        <path d="M17.9638962,7 C18.562091,7 18.9608875,6.6 18.9608875,6 L18.9608875,2 C18.9608875,1.4 18.562091,1 17.9638962,1 L14.9729221,1 C11.6828507,1 8.99097405,3.7 8.99097405,7 L8.99097405,9 L6.99699135,9 C6.39879654,9 6,9.4 6,10 L6,14 C6,14.6 6.39879654,15 6.99699135,15 L8.99097405,15 L8.99097405,22 C8.99097405,22.6 9.38977059,23 9.9879654,23 L13.9759308,23 C14.5741256,23 14.9729221,22.6 14.9729221,22 L14.9729221,15 L16.9669048,15 C17.4654005,15 17.8641971,14.7 17.9638962,14.2 L18.9608875,10.2 C19.0605867,9.9 18.9608875,9.6 18.7614893,9.3 C18.562091,9 18.2629936,9 17.9638962,9 L14.9729221,9 L14.9729221,7 L17.9638962,7 Z M13.9759308,11 L16.6678074,11 L16.1693118,13 L13.9759308,13 C13.377736,13 12.9789394,13.4 12.9789394,14 L12.9789394,21 L10.9849567,21 L10.9849567,14 C10.9849567,13.4 10.5861602,13 9.9879654,13 L7.9939827,13 L7.9939827,11 L9.9879654,11 C10.5861602,11 10.9849567,10.6 10.9849567,10 L10.9849567,7 C10.9849567,4.8 12.7795412,3 14.9729221,3 L16.9669048,3 L16.9669048,5 L14.9729221,5 C13.8762317,5 12.9789394,5.9 12.9789394,7 L12.9789394,10 C12.9789394,10.6 13.377736,11 13.9759308,11 Z" id="path-1"></path>
    </defs>
    <g id="Icon/facebook" stroke="none" stroke-width="1" fill="none" fill-rule="evenodd">
        <mask id="mask-2" fill="white">
            <use xlink:href="#path-1"></use>
        </mask>
        <use id="Mask" fill="#000000" fill-rule="nonzero" xlink:href="#path-1"></use>
        <g id="Icon-Color" mask="url(#mask-2)" fill="#22212D">
            <rect id="Shape" x="0" y="0" width="24" height="24"></rect>
        </g>
    </g>
</svg>