<?xml version="1.0" encoding="UTF-8"?>
<svg width="24px" height="24px" viewBox="0 0 24 24" version="1.1" xmlns="http://www.w3.org/2000/svg" xmlns:xlink="http://www.w3.org/1999/xlink">
    <title>Icon/fast-forward</title>
    <defs>
        <path d="M22.6,11.2049566 L13.6,4.20889927 C13.3,4.00901192 12.9,3.90906824 12.5,4.10895559 C12.2,4.30884294 12,4.60867397 12,5.00844867 L12,12.004506 L12,19.0005632 C12,19.4003379 12.2,19.700169 12.6,19.9000563 C12.7,20 12.9,20 13,20 C13.2,20 13.4,19.9000563 13.6,19.8001126 L22.6,12.8040554 C22.8,12.604168 23,12.304337 23,12.004506 C23,11.7046749 22.9,11.4048439 22.6,11.2049566 Z M14,17.0016897 L14,7.00732218 L20.4,12.004506 L14,17.0016897 Z M2.6,4.20889927 C2.3,4.00901192 1.9,3.90906824 1.6,4.10895559 C1.2,4.30884294 1,4.60867397 1,5.00844867 L1,19.0005632 C1,19.4003379 1.2,19.700169 1.6,19.9000563 C1.7,20 1.9,20 2,20 C2.2,20 2.4,19.9000563 2.6,19.8001126 L11.6,12.8040554 C11.8,12.604168 12,12.304337 12,12.004506 C12,11.7046749 11.9,11.4048439 11.6,11.2049566 L2.6,4.20889927 Z M3,17.0016897 L3,7.00732218 L9.4,12.004506 L3,17.0016897 Z" id="path-1"></path>
    </defs>
    <g id="Icon/fast-forward" stroke="none" stroke-width="1" fill="none" fill-rule="evenodd">
        <mask id="mask-2" fill="white">
            <use xlink:href="#path-1"></use>
        </mask>
        <use id="Mask" fill="#000000" fill-rule="nonzero" xlink:href="#path-1"></use>
        <g id="Icon-Color" mask="url(#mask-2)" fill="#22212D">
            <rect id="Shape" x="0" y="0" width="24" height="24"></rect>
        </g>
    </g>
</svg>