<?xml version="1.0" encoding="UTF-8"?>
<svg width="24px" height="24px" viewBox="0 0 24 24" version="1.1" xmlns="http://www.w3.org/2000/svg" xmlns:xlink="http://www.w3.org/1999/xlink">
    <title>Icon/file-minus</title>
    <defs>
        <path d="M20.9,7.6 C20.8,7.5 20.8,7.4 20.7,7.3 L14.7,1.3 C14.6,1.2 14.5,1.1 14.4,1.1 C14.3,1 14.1,1 14,1 L6,1 C4.3,1 3,2.3 3,4 L3,20 C3,21.7 4.3,23 6,23 L18,23 C19.7,23 21,21.7 21,20 L21,8 C21,7.9 21,7.7 20.9,7.6 Z M15,4.4 L17.6,7 L15,7 L15,4.4 Z M18,21 L6,21 C5.4,21 5,20.6 5,20 L5,4 C5,3.4 5.4,3 6,3 L13,3 L13,8 C13,8.6 13.4,9 14,9 L19,9 L19,20 C19,20.6 18.6,21 18,21 Z M16,15 C16,15.6 15.6,16 15,16 L9,16 C8.4,16 8,15.6 8,15 C8,14.4 8.4,14 9,14 L15,14 C15.6,14 16,14.4 16,15 Z" id="path-1"></path>
    </defs>
    <g id="Icon/file-minus" stroke="none" stroke-width="1" fill="none" fill-rule="evenodd">
        <mask id="mask-2" fill="white">
            <use xlink:href="#path-1"></use>
        </mask>
        <use id="Mask" fill="#000000" fill-rule="nonzero" xlink:href="#path-1"></use>
        <g id="Icon-Color" mask="url(#mask-2)" fill="#22212D">
            <rect id="Shape" x="0" y="0" width="24" height="24"></rect>
        </g>
    </g>
</svg>