<?xml version="1.0" encoding="UTF-8"?>
<svg width="24px" height="24px" viewBox="0 0 24 24" version="1.1" xmlns="http://www.w3.org/2000/svg" xmlns:xlink="http://www.w3.org/1999/xlink">
    <title>Icon/file-text</title>
    <defs>
        <path d="M20.9,7.6 C20.8,7.5 20.8,7.4 20.7,7.3 L14.7,1.3 C14.6,1.2 14.5,1.1 14.4,1.1 C14.3,1 14.1,1 14,1 L6,1 C4.3,1 3,2.3 3,4 L3,20 C3,21.7 4.3,23 6,23 L18,23 C19.7,23 21,21.7 21,20 L21,8 C21,7.9 21,7.7 20.9,7.6 Z M15,4.4 L17.6,7 L15,7 L15,4.4 Z M18,21 L6,21 C5.4,21 5,20.6 5,20 L5,4 C5,3.4 5.4,3 6,3 L13,3 L13,8 C13,8.6 13.4,9 14,9 L19,9 L19,20 C19,20.6 18.6,21 18,21 Z M17,13 C17,13.6 16.6,14 16,14 L8,14 C7.4,14 7,13.6 7,13 C7,12.4 7.4,12 8,12 L16,12 C16.6,12 17,12.4 17,13 Z M17,17 C17,17.6 16.6,18 16,18 L8,18 C7.4,18 7,17.6 7,17 C7,16.4 7.4,16 8,16 L16,16 C16.6,16 17,16.4 17,17 Z M7,9 C7,8.4 7.4,8 8,8 L10,8 C10.6,8 11,8.4 11,9 C11,9.6 10.6,10 10,10 L8,10 C7.4,10 7,9.6 7,9 Z" id="path-1"></path>
    </defs>
    <g id="Icon/file-text" stroke="none" stroke-width="1" fill="none" fill-rule="evenodd">
        <mask id="mask-2" fill="white">
            <use xlink:href="#path-1"></use>
        </mask>
        <use id="Mask" fill="#000000" fill-rule="nonzero" xlink:href="#path-1"></use>
        <g id="Icon-Color" mask="url(#mask-2)" fill="#22212D">
            <rect id="Shape" x="0" y="0" width="24" height="24"></rect>
        </g>
    </g>
</svg>