<?xml version="1.0" encoding="UTF-8"?>
<svg width="24px" height="24px" viewBox="0 0 24 24" version="1.1" xmlns="http://www.w3.org/2000/svg" xmlns:xlink="http://www.w3.org/1999/xlink">
    <title>Icon/file</title>
    <defs>
        <path d="M20.9,8.6 C20.8,8.5 20.8,8.4 20.7,8.3 L13.7,1.3 C13.6,1.2 13.5,1.1 13.4,1.1 C13.3,1 13.1,1 13,1 L6,1 C4.3,1 3,2.3 3,4 L3,20 C3,21.7 4.3,23 6,23 L18,23 C19.7,23 21,21.7 21,20 L21,9 C21,8.9 21,8.7 20.9,8.6 Z M14,4.4 L17.6,8 L14,8 L14,4.4 Z M18,21 L6,21 C5.4,21 5,20.6 5,20 L5,4 C5,3.4 5.4,3 6,3 L12,3 L12,9 C12,9.6 12.4,10 13,10 L19,10 L19,20 C19,20.6 18.6,21 18,21 Z" id="path-1"></path>
    </defs>
    <g id="Icon/file" stroke="none" stroke-width="1" fill="none" fill-rule="evenodd">
        <mask id="mask-2" fill="white">
            <use xlink:href="#path-1"></use>
        </mask>
        <use id="Mask" fill="#000000" fill-rule="nonzero" xlink:href="#path-1"></use>
    </g>
</svg>