<?xml version="1.0" encoding="UTF-8"?>
<svg width="24px" height="24px" viewBox="0 0 24 24" version="1.1" xmlns="http://www.w3.org/2000/svg" xmlns:xlink="http://www.w3.org/1999/xlink">
    <title>Icon/film</title>
    <defs>
        <path d="M19.8,1 L4.2,1 C2.4,1 1,2.4 1,4.2 L1,19.8 C1,21.6 2.4,23 4.2,23 L19.8,23 C21.6,23 23,21.6 23,19.8 L23,4.2 C23,2.4 21.6,1 19.8,1 Z M18,8 L21,8 L21,11 L18,11 L18,8 Z M16,11 L8,11 L8,3 L16,3 L16,11 Z M6,11 L3,11 L3,8 L6,8 L6,11 Z M3,13 L6,13 L6,16 L3,16 L3,13 Z M8,13 L16,13 L16,21 L8,21 L8,13 Z M18,13 L21,13 L21,16 L18,16 L18,13 Z M21,4.2 L21,6 L18,6 L18,3 L19.8,3 C20.5,3 21,3.5 21,4.2 Z M4.2,3 L6,3 L6,6 L3,6 L3,4.2 C3,3.5 3.5,3 4.2,3 Z M3,19.8 L3,18 L6,18 L6,21 L4.2,21 C3.5,21 3,20.5 3,19.8 Z M19.8,21 L18,21 L18,18 L21,18 L21,19.8 C21,20.5 20.5,21 19.8,21 Z" id="path-1"></path>
    </defs>
    <g id="Icon/film" stroke="none" stroke-width="1" fill="none" fill-rule="evenodd">
        <mask id="mask-2" fill="white">
            <use xlink:href="#path-1"></use>
        </mask>
        <use id="Mask" fill="#000000" fill-rule="nonzero" xlink:href="#path-1"></use>
        <g id="Icon-Color" mask="url(#mask-2)" fill="#22212D">
            <rect id="Shape" x="0" y="0" width="24" height="24"></rect>
        </g>
    </g>
</svg>