<?xml version="1.0" encoding="UTF-8"?>
<svg width="24px" height="24px" viewBox="0 0 24 24" version="1.1" xmlns="http://www.w3.org/2000/svg" xmlns:xlink="http://www.w3.org/1999/xlink">
    <title>Icon/filter</title>
    <defs>
        <path d="M22.909017,2.6 C22.709017,2.2 22.409017,2 22.009017,2 L2.00901699,2 C1.60901699,2 1.30901699,2.2 1.10901699,2.6 C0.909016994,2.9 1.00901699,3.3 1.20901699,3.6 L9.00901699,12.8 L9.00901699,19 C9.00901699,19.4 9.20901699,19.7 9.60901699,19.9 L13.609017,21.9 C13.709017,22 13.809017,22 14.009017,22 C14.209017,22 14.409017,22 14.509017,21.9 C14.809017,21.7 15.009017,21.4 15.009017,21 L15.009017,12.8 L22.809017,3.6 C23.009017,3.3 23.109017,2.9 22.909017,2.6 Z M13.209017,11.8 C13.109017,12 13.009017,12.2 13.009017,12.5 L13.009017,19.4 L11.009017,18.4 L11.009017,12.5 C11.009017,12.3 10.909017,12 10.809017,11.9 L4.20901699,4 L19.909017,4 L13.209017,11.8 Z" id="path-1"></path>
    </defs>
    <g id="Icon/filter" stroke="none" stroke-width="1" fill="none" fill-rule="evenodd">
        <mask id="mask-2" fill="white">
            <use xlink:href="#path-1"></use>
        </mask>
        <use id="Mask" fill="#000000" fill-rule="nonzero" xlink:href="#path-1"></use>
        <g id="Icon-Color" mask="url(#mask-2)" fill="#22212D">
            <rect id="Shape" x="0" y="0" width="24" height="24"></rect>
        </g>
    </g>
</svg>