<?xml version="1.0" encoding="UTF-8"?>
<svg width="24px" height="24px" viewBox="0 0 24 24" version="1.1" xmlns="http://www.w3.org/2000/svg" xmlns:xlink="http://www.w3.org/1999/xlink">
    <title>Icon/flag</title>
    <defs>
        <path d="M20.4,2.1 C20,1.9 19.6,2 19.3,2.3 C19.3,2.3 18.4,3 16,3 C14.7,3 13.6,2.5 12.4,2.1 C11.1,1.5 9.7,1 8,1 C4.8,1 3.5,2.1 3.3,2.3 C3.1,2.5 3,2.7 3,3 L3,15 L3,22 C3,22.6 3.4,23 4,23 C4.6,23 5,22.6 5,22 L5,15.5 C5.4,15.3 6.4,15 8,15 C9.3,15 10.4,15.5 11.6,15.9 C12.9,16.4 14.3,17 16,17 C19.2,17 20.5,15.9 20.7,15.7 C20.9,15.5 21,15.3 21,15 L21,3 C21,2.6 20.8,2.3 20.4,2.1 Z M19,14.5 C18.6,14.7 17.6,15 16,15 C14.7,15 13.6,14.5 12.4,14.1 C11.1,13.5 9.7,13 8,13 C6.7,13 5.7,13.2 5,13.4 L5,3.5 C5.4,3.3 6.4,3 8,3 C9.3,3 10.4,3.5 11.6,3.9 C12.9,4.5 14.3,5 16,5 C17.3,5 18.3,4.8 19,4.6 L19,14.5 Z" id="path-1"></path>
    </defs>
    <g id="Icon/flag" stroke="none" stroke-width="1" fill="none" fill-rule="evenodd">
        <mask id="mask-2" fill="white">
            <use xlink:href="#path-1"></use>
        </mask>
        <use id="Mask" fill="#000000" fill-rule="nonzero" xlink:href="#path-1"></use>
        <g id="Icon-Color" mask="url(#mask-2)" fill="#22212D">
            <rect id="Shape" x="0" y="0" width="24" height="24"></rect>
        </g>
    </g>
</svg>