<?xml version="1.0" encoding="UTF-8"?>
<svg width="24px" height="24px" viewBox="0 0 24 24" version="1.1" xmlns="http://www.w3.org/2000/svg" xmlns:xlink="http://www.w3.org/1999/xlink">
    <title>Icon/folder-plus</title>
    <defs>
        <path d="M20,5 L11.5,5 L9.8,2.4 C9.6,2.2 9.3,2 9,2 L4,2 C2.3,2 1,3.3 1,5 L1,19 C1,20.7 2.3,22 4,22 L20,22 C21.7,22 23,20.7 23,19 L23,8 C23,6.3 21.7,5 20,5 Z M21,19 C21,19.6 20.6,20 20,20 L4,20 C3.4,20 3,19.6 3,19 L3,5 C3,4.4 3.4,4 4,4 L8.5,4 L10.2,6.6 C10.4,6.8 10.7,7 11,7 L20,7 C20.6,7 21,7.4 21,8 L21,19 Z M16,14 C16,14.6 15.6,15 15,15 L13,15 L13,17 C13,17.6 12.6,18 12,18 C11.4,18 11,17.6 11,17 L11,15 L9,15 C8.4,15 8,14.6 8,14 C8,13.4 8.4,13 9,13 L11,13 L11,11 C11,10.4 11.4,10 12,10 C12.6,10 13,10.4 13,11 L13,13 L15,13 C15.6,13 16,13.4 16,14 Z" id="path-1"></path>
    </defs>
    <g id="Icon/folder-plus" stroke="none" stroke-width="1" fill="none" fill-rule="evenodd">
        <mask id="mask-2" fill="white">
            <use xlink:href="#path-1"></use>
        </mask>
        <use id="Shape" fill="#000000" fill-rule="nonzero" xlink:href="#path-1"></use>
        <g id="Icon-Color" mask="url(#mask-2)" fill="#22212D">
            <rect id="Shape" x="0" y="0" width="24" height="24"></rect>
        </g>
    </g>
</svg>