<?xml version="1.0" encoding="UTF-8"?>
<svg width="24px" height="24px" viewBox="0 0 24 24" version="1.1" xmlns="http://www.w3.org/2000/svg" xmlns:xlink="http://www.w3.org/1999/xlink">
    <title>Icon/gift</title>
    <defs>
        <path d="M19,21 L19,12 C19,11.4477153 19.4477153,11 20,11 C20.5522847,11 21,11.4477153 21,12 L21,22 C21,22.5522847 20.5522847,23 20,23 L4,23 C3.44771525,23 3,22.5522847 3,22 L3,12 C3,11.4477153 3.44771525,11 4,11 C4.55228475,11 5,11.4477153 5,12 L5,21 L19,21 Z M3,8 L3,11 L21,11 L21,8 L3,8 Z M2,6 L22,6 C22.5522847,6 23,6.44771525 23,7 L23,12 C23,12.5522847 22.5522847,13 22,13 L2,13 C1.44771525,13 1,12.5522847 1,12 L1,7 C1,6.44771525 1.44771525,6 2,6 Z M13,22 C13,22.5522847 12.5522847,23 12,23 C11.4477153,23 11,22.5522847 11,22 L11,7 C11,6.44771525 11.4477153,6 12,6 C12.5522847,6 13,6.44771525 13,7 L13,22 Z M10.1862841,4.98191875 C9.48483086,3.70654924 8.60164431,3 7.5,3 C6.67157288,3 6,3.67157288 6,4.5 C6,5.32842712 6.67157288,6 7.5,6 L10.654257,6 C10.5205831,5.64992345 10.3647387,5.30638173 10.1862841,4.98191875 Z M12,8 L7.5,8 C5.56700338,8 4,6.43299662 4,4.5 C4,2.56700338 5.56700338,1 7.5,1 C9.46085569,1 10.9214191,2.16845076 11.9387159,4.01808125 C12.2739101,4.62752531 12.5383856,5.27258751 12.7424047,5.9168583 C12.8655251,6.3056595 12.9425786,6.61387342 12.9805807,6.80388386 C13.1043391,7.42267579 12.6310464,8 12,8 Z M12,8 C11.3689536,8 10.8956609,7.42267579 11.0194193,6.80388386 C11.0574214,6.61387342 11.1344749,6.3056595 11.2575953,5.9168583 C11.4616144,5.27258751 11.7260899,4.62752531 12.0612841,4.01808125 C13.0785809,2.16845076 14.5391443,1 16.5,1 C18.4329966,1 20,2.56700338 20,4.5 C20,6.43299662 18.4329966,8 16.5,8 L12,8 Z M16.5,6 C17.3284271,6 18,5.32842712 18,4.5 C18,3.67157288 17.3284271,3 16.5,3 C15.3983557,3 14.5151691,3.70654924 13.8137159,4.98191875 C13.6352613,5.30638173 13.4794169,5.64992345 13.3457449,6 L16.5,6 Z" id="path-1"></path>
    </defs>
    <g id="Icon/gift" stroke="none" stroke-width="1" fill="none" fill-rule="evenodd">
        <mask id="mask-2" fill="white">
            <use xlink:href="#path-1"></use>
        </mask>
        <use id="Mask" fill="#000000" fill-rule="nonzero" xlink:href="#path-1"></use>
        <g id="Icon-Color" mask="url(#mask-2)" fill="#22212D">
            <rect id="Shape" x="0" y="0" width="24" height="24"></rect>
        </g>
    </g>
</svg>