<?xml version="1.0" encoding="UTF-8"?>
<svg width="24px" height="24px" viewBox="0 0 24 24" version="1.1" xmlns="http://www.w3.org/2000/svg" xmlns:xlink="http://www.w3.org/1999/xlink">
    <title>Icon/git-branch</title>
    <defs>
        <path d="M22,6 C22,3.8 20.2,2 18,2 C15.8,2 14,3.8 14,6 C14,7.8 15.3,9.4 17,9.8 C16.6,13.5 13.6,16.5 9.9,16.9 C9.5,15.5 8.4,14.4 7.1,14.1 L7.1,3 C7.1,2.4 6.7,2 6.1,2 C5.5,2 5,2.4 5,3 L5,14.1 C3.3,14.5 2,16.1 2,18 C2,20.2 3.8,22 6,22 C7.9,22 9.4,20.7 9.9,19 C14.7,18.6 18.6,14.7 19,9.9 C20.7,9.4 22,7.9 22,6 Z M6,20 C4.9,20 4,19.1 4,18 C4,16.9 4.9,16 6,16 C7.1,16 8,16.9 8,18 C8,19.1 7.1,20 6,20 Z M18,8 C16.9,8 16,7.1 16,6 C16,4.9 16.9,4 18,4 C19.1,4 20,4.9 20,6 C20,7.1 19.1,8 18,8 Z" id="path-1"></path>
    </defs>
    <g id="Icon/git-branch" stroke="none" stroke-width="1" fill="none" fill-rule="evenodd">
        <mask id="mask-2" fill="white">
            <use xlink:href="#path-1"></use>
        </mask>
        <use id="Shape" fill="#000000" fill-rule="nonzero" xlink:href="#path-1"></use>
        <g id="Icon-Color" mask="url(#mask-2)" fill="#22212D">
            <rect id="Shape" x="0" y="0" width="24" height="24"></rect>
        </g>
    </g>
</svg>