<?xml version="1.0" encoding="UTF-8"?>
<svg width="24px" height="24px" viewBox="0 0 24 24" version="1.1" xmlns="http://www.w3.org/2000/svg" xmlns:xlink="http://www.w3.org/1999/xlink">
    <title>Icon/git-commit</title>
    <defs>
        <path d="M12,17 C9.2,17 7,14.8 7,12 C7,9.2 9.2,7 12,7 C14.8,7 17,9.2 17,12 C17,14.8 14.8,17 12,17 Z M12,9 C10.3,9 9,10.3 9,12 C9,13.7 10.3,15 12,15 C13.7,15 15,13.7 15,12 C15,10.3 13.7,9 12,9 Z M8,12 C8,11.4 7.6,11 7,11 L1,11 C0.4,11 0,11.4 0,12 C0,12.6 0.4,13 1,13 L7,13 C7.6,13 8,12.6 8,12 Z M24,12 C24,11.4 23.6,11 23,11 L17,11 C16.4,11 16,11.4 16,12 C16,12.6 16.4,13 17,13 L23,13 C23.5,13 24,12.6 24,12 Z" id="path-1"></path>
    </defs>
    <g id="Icon/git-commit" stroke="none" stroke-width="1" fill="none" fill-rule="evenodd">
        <mask id="mask-2" fill="white">
            <use xlink:href="#path-1"></use>
        </mask>
        <use id="Shape" fill="#000000" fill-rule="nonzero" xlink:href="#path-1"></use>
        <g id="Icon-Color" mask="url(#mask-2)" fill="#22212D">
            <rect id="Shape" x="0" y="0" width="24" height="24"></rect>
        </g>
    </g>
</svg>