<?xml version="1.0" encoding="UTF-8"?>
<svg width="24px" height="24px" viewBox="0 0 24 24" version="1.1" xmlns="http://www.w3.org/2000/svg" xmlns:xlink="http://www.w3.org/1999/xlink">
    <title>Icon/git-pull-request</title>
    <defs>
        <path d="M19,14.1 L19,8 C19,6.3 17.7,5 16,5 L13,5 C12.4,5 12,5.4 12,6 C12,6.6 12.4,7 13,7 L16,7 C16.6,7 17,7.4 17,8 L17,14.1 C15.3,14.5 14,16.1 14,18 C14,20.2 15.8,22 18,22 C20.2,22 22,20.2 22,18 C22,16.1 20.7,14.6 19,14.1 Z M18,20 C16.9,20 16,19.1 16,18 C16,16.9 16.9,16 18,16 C19.1,16 20,16.9 20,18 C20,19.1 19.1,20 18,20 Z M6,2 C3.8,2 2,3.8 2,6 C2,7.9 3.3,9.4 5,9.9 L5,21 C5,21.6 5.4,22 6,22 C6.6,22 7,21.6 7,21 L7,9.9 C8.7,9.5 10,7.9 10,6 C10,3.8 8.2,2 6,2 Z M6,8 C4.9,8 4,7.1 4,6 C4,4.9 4.9,4 6,4 C7.1,4 8,4.9 8,6 C8,7.1 7.1,8 6,8 Z" id="path-1"></path>
    </defs>
    <g id="Icon/git-pull-request" stroke="none" stroke-width="1" fill="none" fill-rule="evenodd">
        <mask id="mask-2" fill="white">
            <use xlink:href="#path-1"></use>
        </mask>
        <use id="Shape" fill="#000000" fill-rule="nonzero" xlink:href="#path-1"></use>
        <g id="Icon-Color" mask="url(#mask-2)" fill="#22212D">
            <rect id="Shape" x="0" y="0" width="24" height="24"></rect>
        </g>
    </g>
</svg>