<?xml version="1.0" encoding="UTF-8"?>
<svg width="24px" height="24px" viewBox="0 0 24 24" version="1.1" xmlns="http://www.w3.org/2000/svg" xmlns:xlink="http://www.w3.org/1999/xlink">
    <title>Icon/git-merge</title>
    <defs>
        <path d="M18,14 C16.2,14 14.6,15.3 14.2,17 C10.5,16.6 7.5,13.6 7.1,9.9 C8.8,9.4 10.1,7.9 10.1,6.1 C10.1,3.9 8.3,2.1 6.1,2.1 C3.9,2.1 2,3.8 2,6 C2,7.9 3.3,9.4 5,9.9 L5,21 C5,21.6 5.4,22 6,22 C6.6,22 7,21.6 7,21 L7,15 C8.7,17.2 11.2,18.7 14.1,19 C14.5,20.7 16.1,22.1 18,22.1 C20.2,22.1 22,20.3 22,18.1 C22,15.9 20.2,14 18,14 Z M4,6 C4,4.9 4.9,4 6,4 C7.1,4 8,4.9 8,6 C8,7.1 7.1,8 6,8 C4.9,8 4,7.1 4,6 Z M18,20 C16.9,20 16,19.1 16,18 C16,16.9 16.9,16 18,16 C19.1,16 20,16.9 20,18 C20,19.1 19.1,20 18,20 Z" id="path-1"></path>
    </defs>
    <g id="Icon/git-merge" stroke="none" stroke-width="1" fill="none" fill-rule="evenodd">
        <mask id="mask-2" fill="white">
            <use xlink:href="#path-1"></use>
        </mask>
        <use id="Shape" fill="#000000" fill-rule="nonzero" xlink:href="#path-1"></use>
        <g id="Icon-Color" mask="url(#mask-2)" fill="#22212D">
            <rect id="Shape" x="0" y="0" width="24" height="24"></rect>
        </g>
    </g>
</svg>