<?xml version="1.0" encoding="UTF-8"?>
<svg width="24px" height="24px" viewBox="0 0 24 24" version="1.1" xmlns="http://www.w3.org/2000/svg" xmlns:xlink="http://www.w3.org/1999/xlink">
    <title>Icon/github</title>
    <defs>
        <path d="M17.0795995,17.3184808 C17.2837513,17.9168258 17.3858271,18.614895 17.3858271,19.21324 L17.3858271,23.0027583 C17.3858271,23.6011033 16.9775237,24 16.3650684,24 C15.7526132,24 15.3443097,23.6011033 15.3443097,23.0027583 L15.3443097,19.1135158 C15.4463856,18.3157225 15.140158,17.7173775 14.6297786,17.2187566 C14.323551,16.9195841 14.2214752,16.5206875 14.4256269,16.221515 C14.5277028,15.8226183 14.9360062,15.62317 15.2422339,15.5234458 C18.2024341,15.2242733 20.9584826,14.2270316 20.9584826,9.53999577 C20.9584826,8.44302993 20.5501791,7.3460641 19.7335722,6.44854659 C19.4273445,6.14937409 19.4273445,5.75047742 19.5294204,5.45130492 C19.835648,4.65351158 19.835648,3.85571825 19.6314963,3.05792491 C19.1211169,3.15764908 18.30451,3.45682158 16.9775237,4.35433908 C16.7733719,4.55378742 16.4671443,4.55378742 16.1609167,4.45406325 C14.0173234,3.85571825 11.6695784,3.85571825 9.52598512,4.45406325 C9.21975751,4.55378742 8.9135299,4.55378742 8.60730229,4.35433908 C7.38239184,3.45682158 6.46370901,3.15764908 5.95332966,3.05792491 C5.74917792,3.85571825 5.74917792,4.65351158 6.05540553,5.45130492 C6.1574814,5.85020159 6.1574814,6.24909826 5.85125379,6.44854659 C5.03464683,7.3460641 4.62634335,8.44302993 4.62634335,9.53999577 C4.62634335,14.2270316 7.38239184,15.2242733 10.3425921,15.5234458 C10.7508956,15.5234458 11.0571232,15.8226183 11.159199,16.221515 C11.2612749,16.6204116 11.159199,17.0193083 10.9550473,17.2187566 C10.444668,17.7173775 10.2405162,18.3157225 10.2405162,19.0137916 L10.2405162,19.9113091 C10.2405162,19.9113091 10.2405162,20.0110333 10.2405162,20.0110333 L10.2405162,22.9030342 C10.2405162,23.5013792 9.83221273,23.9002758 9.21975751,23.9002758 C8.60730229,23.9002758 8.19899881,23.5013792 8.19899881,22.9030342 L8.19899881,21.2077233 C5.1367227,21.7063442 3.80973638,20.0110333 2.89105355,18.9140675 C2.48275007,18.4154466 2.17652246,18.01655 1.76821898,17.9168258 C1.25783963,17.8171016 0.849536144,17.2187566 1.05368788,16.7201358 C1.15576376,16.221515 1.76821898,15.8226183 2.27859833,16.0220666 C3.29935703,16.3212391 3.91181225,17.0193083 4.52426748,17.7173775 C5.34087444,18.8143433 6.05540553,19.6121366 8.19899881,19.21324 L8.19899881,19.1135158 C8.19899881,18.5151708 8.30107468,17.8171016 8.50522642,17.3184808 C5.64710205,16.7201358 2.58482594,14.9251008 2.58482594,9.63971994 C2.58482594,8.14385743 3.09520529,6.74771909 4.01388812,5.65075325 C3.60558464,4.25461492 3.70766051,2.95820074 4.32011573,1.66178657 C4.4221916,1.36261407 4.62634335,1.16316574 4.93257096,1.06344157 C5.34087444,0.963717401 6.66786075,0.764269067 9.42390925,2.45957991 C11.6695784,1.96095907 14.0173234,1.96095907 16.1609167,2.45957991 C18.8148893,0.764269067 20.2439515,0.963717401 20.652255,1.06344157 C20.9584826,1.16316574 21.1626343,1.36261407 21.2647102,1.66178657 C21.7750896,2.95820074 21.8771654,4.25461492 21.5709378,5.55102909 C22.4896206,6.64799493 23,8.04413326 23,9.53999577 C23,15.2242733 19.5294204,16.81986 17.0795995,17.3184808 Z" id="path-1"></path>
    </defs>
    <g id="Icon/github" stroke="none" stroke-width="1" fill="none" fill-rule="evenodd">
        <mask id="mask-2" fill="white">
            <use xlink:href="#path-1"></use>
        </mask>
        <use id="Mask" fill="#000000" fill-rule="nonzero" xlink:href="#path-1"></use>
        <g id="Icon-Color" mask="url(#mask-2)" fill="#22212D">
            <rect id="Shape" x="0" y="0" width="24" height="24"></rect>
        </g>
    </g>
</svg>