<?xml version="1.0" encoding="UTF-8"?>
<svg width="24px" height="24px" viewBox="0 0 24 24" version="1.1" xmlns="http://www.w3.org/2000/svg" xmlns:xlink="http://www.w3.org/1999/xlink">
    <title>Icon/gitlab</title>
    <defs>
        <path d="M23.9158384,13.175 L20.2158384,1.975 C20.1158384,1.775 20.0158384,1.575 19.8158384,1.375 C19.3158384,0.875 18.4158384,0.875 17.9158384,1.375 C17.7158384,1.475 17.6158384,1.675 17.5158384,1.975 L15.3158384,8.775 L8.71583836,8.775 L6.51583836,1.975 C6.41583836,1.775 6.31583836,1.575 6.11583836,1.375 C5.61583836,0.875 4.71583836,0.875 4.21583836,1.375 C4.01583836,1.475 3.91583836,1.675 3.81583836,1.975 L0.115838363,13.175 C-0.184161637,13.975 0.115838363,14.775 0.815838363,15.275 L11.4158384,22.975 C11.6158384,23.075 11.8158384,23.175 12.0158384,23.175 C12.2158384,23.175 12.4158384,23.075 12.6158384,22.975 L23.2158384,15.275 C23.9158384,14.875 24.2158384,13.975 23.9158384,13.175 Z M12.0158384,20.975 L2.01583836,13.775 L5.11583836,4.275 L7.01583836,10.075 C7.11583836,10.475 7.51583836,10.775 8.01583836,10.775 L16.0158384,10.775 C16.4158384,10.775 16.8158384,10.475 17.0158384,10.075 L18.9158384,4.275 L20.8158384,10.075 L22.0158384,13.675 L12.0158384,20.975 Z" id="path-1"></path>
    </defs>
    <g id="Icon/gitlab" stroke="none" stroke-width="1" fill="none" fill-rule="evenodd">
        <mask id="mask-2" fill="white">
            <use xlink:href="#path-1"></use>
        </mask>
        <use id="Mask" fill="#000000" fill-rule="nonzero" xlink:href="#path-1"></use>
        <g id="Icon-Color" mask="url(#mask-2)" fill="#22212D">
            <rect id="Shape" x="0" y="0" width="24" height="24"></rect>
        </g>
    </g>
</svg>