<?xml version="1.0" encoding="UTF-8"?>
<svg width="24px" height="24px" viewBox="0 0 24 24" version="1.1" xmlns="http://www.w3.org/2000/svg" xmlns:xlink="http://www.w3.org/1999/xlink">
    <title>Icon/hard-drive</title>
    <defs>
        <path d="M22.9,11.6 C22.9,11.6 22.9,11.6 22.9,11.6 L19.4,4.7 C18.9,3.7 17.9,3 16.7,3 L7.2,3 C6.1,3 5.1,3.6 4.6,4.7 L1.2,11.6 C1.2,11.6 1.2,11.6 1.2,11.6 C1,11.7 1,11.8 1,12 L1,18 C1,19.7 2.3,21 4,21 L20,21 C21.7,21 23,19.7 23,18 L23,12 C23,11.8 23,11.7 22.9,11.6 Z M6.3,5.6 C6.3,5.6 6.3,5.6 6.3,5.6 C6.5,5.2 6.9,5 7.2,5 L16.7,5 C17.1,5 17.4,5.2 17.6,5.6 L20.3,11 L3.6,11 L6.3,5.6 Z M21,18 C21,18.6 20.6,19 20,19 L4,19 C3.4,19 3,18.6 3,18 L3,13 L21,13 L21,18 Z M5.3,16.7 C5.1,16.5 5,16.3 5,16 C5,15.9 5,15.7 5.1,15.6 C5.2,15.5 5.2,15.4 5.3,15.3 C5.4,15.2 5.5,15.1 5.6,15.1 C5.8,15 6.1,15 6.4,15.1 C6.5,15.1 6.6,15.2 6.7,15.3 C6.8,15.4 6.9,15.5 6.9,15.6 C7,15.7 7,15.9 7,16 C7,16.3 6.9,16.5 6.7,16.7 C6.5,16.9 6.3,17 6,17 C5.7,17 5.5,16.9 5.3,16.7 Z M9.3,16.7 C9.1,16.5 9,16.3 9,16 C9,15.9 9,15.7 9.1,15.6 C9.2,15.5 9.2,15.4 9.3,15.3 C9.7,14.9 10.3,14.9 10.7,15.3 C10.8,15.4 10.9,15.5 10.9,15.6 C11,15.7 11,15.9 11,16 C11,16.3 10.9,16.5 10.7,16.7 C10.5,16.9 10.3,17 10,17 C9.7,17 9.5,16.9 9.3,16.7 Z" id="path-1"></path>
    </defs>
    <g id="Icon/hard-drive" stroke="none" stroke-width="1" fill="none" fill-rule="evenodd">
        <mask id="mask-2" fill="white">
            <use xlink:href="#path-1"></use>
        </mask>
        <use id="Shape" fill="#000000" fill-rule="nonzero" xlink:href="#path-1"></use>
        <g id="Icon-Color" mask="url(#mask-2)" fill="#22212D">
            <rect id="Shape" x="0" y="0" width="24" height="24"></rect>
        </g>
    </g>
</svg>