<?xml version="1.0" encoding="UTF-8"?>
<svg width="24px" height="24px" viewBox="0 0 24 24" version="1.1" xmlns="http://www.w3.org/2000/svg" xmlns:xlink="http://www.w3.org/1999/xlink">
    <title>Icon/hash</title>
    <defs>
        <path d="M20,14.0153144 L15.8,14.0153144 L16.2,10.0153144 L20,10.0153144 C20.6,10.0153144 21,9.61531437 21,9.01531437 C21,8.41531437 20.6,8.01531437 20,8.01531437 L16.5,8.01531437 L17,3.11531437 C17.1,2.61531437 16.7,2.11531437 16.1,2.01531437 C15.6,1.91531437 15.1,2.31531437 15,2.91531437 L14.4,8.01531437 L10.4,8.01531437 L11,3.11531437 C11.1,2.61531437 10.7,2.11531437 10.1,2.01531437 C9.6,1.91531437 9.1,2.31531437 9,2.91531437 L8.4,8.01531437 L4,8.01531437 C3.4,8.01531437 3,8.41531437 3,9.01531437 C3,9.61531437 3.4,10.0153144 4,10.0153144 L8.2,10.0153144 L7.8,14.0153144 L4,14.0153144 C3.4,14.0153144 3,14.4153144 3,15.0153144 C3,15.6153144 3.4,16.0153144 4,16.0153144 L7.5,16.0153144 L7,20.9153144 C6.9,21.4153144 7.3,21.9153144 7.9,22.0153144 C7.9,22.0153144 8,22.0153144 8,22.0153144 C8.5,22.0153144 8.9,21.6153144 9,21.1153144 L9.6,16.0153144 L13.6,16.0153144 L13,20.9153144 C12.9,21.4153144 13.3,21.9153144 13.9,22.0153144 C13.9,22.0153144 14,22.0153144 14,22.0153144 C14.5,22.0153144 14.9,21.6153144 15,21.1153144 L15.6,16.0153144 L20,16.0153144 C20.6,16.0153144 21,15.6153144 21,15.0153144 C21,14.4153144 20.6,14.0153144 20,14.0153144 Z M9.8,14.0153144 L10.2,10.0153144 L14.2,10.0153144 L13.8,14.0153144 L9.8,14.0153144 Z" id="path-1"></path>
    </defs>
    <g id="Icon/hash" stroke="none" stroke-width="1" fill="none" fill-rule="evenodd">
        <mask id="mask-2" fill="white">
            <use xlink:href="#path-1"></use>
        </mask>
        <use id="Mask" fill="#000000" fill-rule="nonzero" xlink:href="#path-1"></use>
        <g id="Icon-Color" mask="url(#mask-2)" fill="#22212D">
            <rect id="Shape" x="0" y="0" width="24" height="24"></rect>
        </g>
    </g>
</svg>