<?xml version="1.0" encoding="UTF-8"?>
<svg width="24px" height="24px" viewBox="0 0 24 24" version="1.1" xmlns="http://www.w3.org/2000/svg" xmlns:xlink="http://www.w3.org/1999/xlink">
    <title>Icon/headphones</title>
    <defs>
        <path d="M12,2 C6.5,2 2,6.5 2,12 L2,14 L2,18 L2,19 C2,20.7 3.3,22 5,22 L6,22 C7.7,22 9,20.7 9,19 L9,16 C9,14.3 7.7,13 6,13 L4,13 L4,12 C4,7.6 7.6,4 12,4 C16.4,4 20,7.6 20,12 L20,13 L18,13 C16.3,13 15,14.3 15,16 L15,19 C15,20.7 16.3,22 18,22 L19,22 C20.7,22 22,20.7 22,19 L22,18 L22,14 L22,12 C22,6.5 17.5,2 12,2 Z M6,15 C6.6,15 7,15.4 7,16 L7,19 C7,19.6 6.6,20 6,20 L5,20 C4.4,20 4,19.6 4,19 L4,18 L4,15 L6,15 Z M20,19 C20,19.6 19.6,20 19,20 L18,20 C17.4,20 17,19.6 17,19 L17,16 C17,15.4 17.4,15 18,15 L20,15 L20,18 L20,19 Z" id="path-1"></path>
    </defs>
    <g id="Icon/headphones" stroke="none" stroke-width="1" fill="none" fill-rule="evenodd">
        <mask id="mask-2" fill="white">
            <use xlink:href="#path-1"></use>
        </mask>
        <use id="Mask" fill="#000000" fill-rule="nonzero" xlink:href="#path-1"></use>
        <g id="Icon-Color" mask="url(#mask-2)" fill="#22212D">
            <rect id="Shape" x="0" y="0" width="24" height="24"></rect>
        </g>
    </g>
</svg>