<?xml version="1.0" encoding="UTF-8"?>
<svg width="24px" height="24px" viewBox="0 0 24 24" version="1.1" xmlns="http://www.w3.org/2000/svg" xmlns:xlink="http://www.w3.org/1999/xlink">
    <title>Icon/heart</title>
    <defs>
        <path d="M21.2332015,3.88118812 L21.2332015,3.88118812 C20.0770185,2.69306931 18.5354413,2 16.8975154,2 L16.8975154,2 C15.2595896,2 13.6216638,2.69306931 12.4654808,3.88118812 C12.4654808,3.88118812 12.4654808,3.88118812 12.4654808,3.88118812 L12.0800865,4.27722772 L11.6946922,3.88118812 C9.28597774,1.40594059 5.33568603,1.40594059 2.92697157,3.88118812 C1.67444005,5.06930693 1,6.75247525 1,8.43564356 C1,10.1188119 1.67444005,11.8019802 2.83062299,12.990099 L11.3092979,21.7029703 C11.501995,21.9009901 11.6946922,22 11.9837379,22 C12.2727837,22 12.4654808,21.9009901 12.658178,21.7029703 L21.1368529,12.990099 C22.2930358,11.8019802 22.9674759,10.1188119 22.9674759,8.43564356 C23.160173,6.75247525 22.485733,5.06930693 21.2332015,3.88118812 Z M19.8843214,11.6039604 L12.0800865,19.6237624 L4.27585166,11.6039604 C3.40871446,10.7128713 3.02332015,9.62376238 3.02332015,8.43564356 C3.02332015,7.24752475 3.50506304,6.15841584 4.27585166,5.26732673 C5.04664029,4.37623762 6.20282323,3.98019802 7.26265759,3.98019802 C8.41884054,3.98019802 9.4786749,4.37623762 10.3458121,5.26732673 L11.4056465,6.35643564 C11.7910408,6.75247525 12.3691322,6.75247525 12.7545266,6.35643564 L13.7180123,5.26732673 C13.7180123,5.26732673 13.7180123,5.26732673 13.7180123,5.26732673 C14.5851496,4.47524752 15.6449839,3.98019802 16.8975154,3.98019802 C16.8975154,3.98019802 16.8975154,3.98019802 16.8975154,3.98019802 C18.0536984,3.98019802 19.1135327,4.47524752 19.9806699,5.26732673 L19.9806699,5.26732673 C20.7514586,6.15841584 21.2332015,7.24752475 21.2332015,8.43564356 C21.2332015,9.62376238 20.7514586,10.7128713 19.8843214,11.6039604 Z" id="path-1"></path>
    </defs>
    <g id="Icon/heart" stroke="none" stroke-width="1" fill="none" fill-rule="evenodd">
        <mask id="mask-2" fill="white">
            <use xlink:href="#path-1"></use>
        </mask>
        <use id="Mask" fill="#000000" fill-rule="nonzero" xlink:href="#path-1"></use>
        <g id="Icon-Color" mask="url(#mask-2)" fill="#22212D">
            <rect id="Shape" x="0" y="0" width="24" height="24"></rect>
        </g>
    </g>
</svg>