<?xml version="1.0" encoding="UTF-8"?>
<svg width="24px" height="24px" viewBox="0 0 24 24" version="1.1" xmlns="http://www.w3.org/2000/svg" xmlns:xlink="http://www.w3.org/1999/xlink">
    <title>Icon/Icon</title>
    <defs>
        <path d="M20.9,3.02270148 C18.2,0.325766175 13.7,0.325766175 11,3.02270148 L4.3,9.81498297 C4.1,10.014756 4,10.2145289 4,10.5141884 L4,18.6049943 L1.3,21.3019296 C0.9,21.7014756 0.9,22.3007946 1.3,22.7003405 C1.5,22.9001135 1.7,23 2,23 C2.3,23 2.5,22.9001135 2.7,22.7003405 L5.4,20.0034052 L13.5,20.0034052 C13.8,20.0034052 14,19.9035187 14.2,19.7037457 L20.9,12.9114642 C23.7,10.2145289 23.7,5.81952327 20.9,3.02270148 Z M13.1,18.0056754 L7.4,18.0056754 L9.4,16.0079455 L15.1,16.0079455 L13.1,18.0056754 Z M19.5,11.5130533 C19.5,11.5130533 19.5,11.5130533 19.5,11.5130533 L17.1,14.0102157 C17.1,14.0102157 17.1,14.0102157 17,14.0102157 L11.4,14.0102157 L16.7,8.71623156 C17.1,8.31668558 17.1,7.71736663 16.7,7.31782066 C16.3,6.91827469 15.7,6.91827469 15.3,7.31782066 L8.3,14.3098751 C8.3,14.3098751 8.3,14.3098751 8.3,14.3098751 L6,16.6072645 L6,10.9137344 L12.5,4.42111237 C14.5,2.42338252 17.6,2.42338252 19.6,4.42111237 C21.5,6.41884222 21.5,9.61520999 19.5,11.5130533 Z" id="path-1"></path>
    </defs>
    <g id="Icon/Icon" stroke="none" stroke-width="1" fill="none" fill-rule="evenodd">
        <mask id="mask-2" fill="white">
            <use xlink:href="#path-1"></use>
        </mask>
        <use id="Mask" fill="#000000" fill-rule="nonzero" xlink:href="#path-1"></use>
        <g id="Icon-Color" mask="url(#mask-2)" fill="#22212D">
            <rect id="Shape" x="0" y="0" width="24" height="24"></rect>
        </g>
    </g>
</svg>