<?xml version="1.0" encoding="UTF-8"?>
<svg width="24px" height="24px" viewBox="0 0 24 24" version="1.1" xmlns="http://www.w3.org/2000/svg" xmlns:xlink="http://www.w3.org/1999/xlink">
    <title>Icon/image</title>
    <defs>
        <path d="M19,2 L5,2 C3.3,2 2,3.3 2,5 L2,19 C2,20.7 3.3,22 5,22 L19,22 C20.7,22 22,20.7 22,19 L22,5 C22,3.3 20.7,2 19,2 Z M4,5 C4,4.4 4.4,4 5,4 L19,4 C19.6,4 20,4.4 20,5 L20,12.6 L16.7,9.3 C16.3,8.9 15.7,8.9 15.3,9.3 L4.7,19.9 C4.3,19.8 4,19.4 4,19 L4,5 Z M19,20 L7.4,20 L16,11.4 L20,15.4 L20,19 C20,19.6 19.6,20 19,20 Z M8.5,11 C9.9,11 11,9.9 11,8.5 C11,7.1 9.9,6 8.5,6 C7.1,6 6,7.1 6,8.5 C6,9.9 7.1,11 8.5,11 Z M8.5,8 C8.8,8 9,8.2 9,8.5 C9,8.8 8.8,9 8.5,9 C8.2,9 8,8.8 8,8.5 C8,8.2 8.2,8 8.5,8 Z" id="path-1"></path>
    </defs>
    <g id="Icon/image" stroke="none" stroke-width="1" fill="none" fill-rule="evenodd">
        <mask id="mask-2" fill="white">
            <use xlink:href="#path-1"></use>
        </mask>
        <use id="Mask" fill="#000000" fill-rule="nonzero" xlink:href="#path-1"></use>
        <g id="Icon-Color" mask="url(#mask-2)" fill="#22212D">
            <rect id="Shape" x="0" y="0" width="24" height="24"></rect>
        </g>
    </g>
</svg>