<?xml version="1.0" encoding="UTF-8"?>
<svg width="24px" height="24px" viewBox="0 0 24 24" version="1.1" xmlns="http://www.w3.org/2000/svg" xmlns:xlink="http://www.w3.org/1999/xlink">
    <title>Icon/inbox</title>
    <defs>
        <path d="M22.9,12.6 C22.9,12.6 22.9,12.6 22.9,12.6 L19.4,4.8 C19,3.7 17.9,3 16.7,3 C16.7,3 16.7,3 16.7,3 L7.3,3 C7.3,3 7.3,3 7.3,3 C6.1,3 5,3.7 4.6,4.8 L1.1,12.6 C1.1,12.6 1.1,12.6 1.1,12.6 C1,12.7 1,12.9 1,13 L1,18 C1,19.7 2.3,21 4,21 L20,21 C21.7,21 23,19.7 23,18 L23,13 C23,12.9 23,12.7 22.9,12.6 Z M6.4,5.6 C6.4,5.6 6.4,5.6 6.4,5.6 C6.5,5.2 6.9,5 7.3,5 L7.3,5 L16.7,5 C17.1,5 17.5,5.2 17.6,5.6 L20.4,12 L16,12 C15.7,12 15.4,12.2 15.2,12.4 L13.5,15 L10.6,15 L8.9,12.4 C8.6,12.2 8.3,12 8,12 L3.5,12 L6.4,5.6 Z M20,19 L4,19 C3.4,19 3,18.6 3,18 L3,14 L7.5,14 L9.2,16.6 C9.4,16.8 9.7,17 10,17 L14,17 C14.3,17 14.6,16.8 14.8,16.6 L16.5,14 L21,14 L21,18 C21,18.6 20.6,19 20,19 Z" id="path-1"></path>
    </defs>
    <g id="Icon/inbox" stroke="none" stroke-width="1" fill="none" fill-rule="evenodd">
        <mask id="mask-2" fill="white">
            <use xlink:href="#path-1"></use>
        </mask>
        <use id="Mask" fill="#000000" fill-rule="nonzero" xlink:href="#path-1"></use>
        <g id="Icon-Color" mask="url(#mask-2)" fill="#22212D">
            <rect id="Shape" x="0" y="0" width="24" height="24"></rect>
        </g>
    </g>
</svg>