<?xml version="1.0" encoding="UTF-8"?>
<svg width="24px" height="24px" viewBox="0 0 24 24" version="1.1" xmlns="http://www.w3.org/2000/svg" xmlns:xlink="http://www.w3.org/1999/xlink">
    <title>Icon/info</title>
    <defs>
        <path d="M12,1 C5.9,1 1,5.9 1,12 C1,18.1 5.9,23 12,23 C18.1,23 23,18.1 23,12 C23,5.9 18.1,1 12,1 Z M12,21 C7,21 3,17 3,12 C3,7 7,3 12,3 C17,3 21,7 21,12 C21,17 17,21 12,21 Z M13,12 L13,16 C13,16.6 12.6,17 12,17 C11.4,17 11,16.6 11,16 L11,12 C11,11.4 11.4,11 12,11 C12.6,11 13,11.4 13,12 Z M12.7,7.3 C12.9,7.5 13,7.7 13,8 C13,8.3 12.9,8.5 12.7,8.7 C12.5,8.9 12.3,9 12,9 C11.9,9 11.9,9 11.8,9 C11.7,9 11.7,9 11.6,8.9 C11.5,8.9 11.5,8.8 11.4,8.8 C11.3,8.8 11.3,8.7 11.3,8.7 C11.1,8.5 11,8.3 11,8 C11,7.7 11.1,7.5 11.3,7.3 C11.3,7.3 11.4,7.2 11.4,7.2 C11.5,7.2 11.5,7.1 11.6,7.1 C11.7,7.1 11.7,7.1 11.8,7 C12.1,7 12.5,7.1 12.7,7.3 Z" id="path-1"></path>
    </defs>
    <g id="Icon/info" stroke="none" stroke-width="1" fill="none" fill-rule="evenodd">
        <mask id="mask-2" fill="white">
            <use xlink:href="#path-1"></use>
        </mask>
        <use id="Mask" fill="#000000" fill-rule="nonzero" xlink:href="#path-1"></use>
        <g id="Icon-Color" mask="url(#mask-2)" fill="#22212D">
            <rect id="Shape" x="0" y="0" width="24" height="24"></rect>
        </g>
    </g>
</svg>