<?xml version="1.0" encoding="UTF-8"?>
<svg width="24px" height="24px" viewBox="0 0 24 24" version="1.1" xmlns="http://www.w3.org/2000/svg" xmlns:xlink="http://www.w3.org/1999/xlink">
    <title>Icon/instagram</title>
    <defs>
        <path d="M17,1 L7,1 C3.7,1 1,3.7 1,7 L1,17 C1,20.3 3.7,23 7,23 L17,23 C20.3,23 23,20.3 23,17 L23,7 C23,3.7 20.3,1 17,1 Z M21,17 C21,19.2 19.2,21 17,21 L7,21 C4.8,21 3,19.2 3,17 L3,7 C3,4.8 4.8,3 7,3 L17,3 C19.2,3 21,4.8 21,7 L21,17 Z M12.8,7 C12.3,6.9 11.8,6.9 11.3,7 C8.6,7.4 6.7,10 7.1,12.7 C7.5,15.2 9.6,17 12,17 C12.2,17 12.5,17 12.7,16.9 C14,16.7 15.2,16 16,14.9 C16.8,13.8 17.1,12.5 16.9,11.2 C16.7,9 15,7.3 12.8,7 Z M14.5,13.7 C14,14.3 13.3,14.8 12.5,14.9 C10.9,15.1 9.3,14 9.1,12.4 C8.8,10.8 10,9.2 11.6,9 C11.7,9 11.9,9 12,9 C12.1,9 12.3,9 12.4,9 C13.7,9.2 14.7,10.2 14.9,11.5 C15.1,12.3 14.9,13.1 14.5,13.7 Z M18.4,6.1 C18.4,6.2 18.5,6.3 18.5,6.5 C18.5,6.8 18.4,7 18.2,7.2 C18,7.4 17.7,7.5 17.5,7.5 C17.3,7.5 17,7.4 16.8,7.2 C16.6,7 16.5,6.7 16.5,6.5 C16.5,6.4 16.5,6.2 16.6,6.1 C16.6,6 16.7,5.9 16.8,5.8 C17.2,5.4 17.8,5.4 18.2,5.8 C18.3,5.9 18.4,6 18.4,6.1 Z" id="path-1"></path>
    </defs>
    <g id="Icon/instagram" stroke="none" stroke-width="1" fill="none" fill-rule="evenodd">
        <mask id="mask-2" fill="white">
            <use xlink:href="#path-1"></use>
        </mask>
        <use id="Mask" fill="#000000" fill-rule="nonzero" xlink:href="#path-1"></use>
        <g id="Icon-Color" mask="url(#mask-2)" fill="#22212D">
            <rect id="Shape" x="0" y="0" width="24" height="24"></rect>
        </g>
    </g>
</svg>