<?xml version="1.0" encoding="UTF-8"?>
<svg width="24px" height="24px" viewBox="0 0 24 24" version="1.1" xmlns="http://www.w3.org/2000/svg" xmlns:xlink="http://www.w3.org/1999/xlink">
    <title>Icon/italic</title>
    <defs>
        <path d="M20,4 C20,4.6 19.6,5 19,5 L15.7,5 L10.5,19 L14,19 C14.6,19 15,19.4 15,20 C15,20.6 14.6,21 14,21 L5,21 C4.4,21 4,20.6 4,20 C4,19.4 4.4,19 5,19 L8.3,19 L13.6,5 L10,5 C9.4,5 9,4.6 9,4 C9,3.4 9.4,3 10,3 L19,3 C19.6,3 20,3.4 20,4 Z" id="path-1"></path>
    </defs>
    <g id="Icon/italic" stroke="none" stroke-width="1" fill="none" fill-rule="evenodd">
        <mask id="mask-2" fill="white">
            <use xlink:href="#path-1"></use>
        </mask>
        <use id="Mask" fill="#000000" fill-rule="nonzero" xlink:href="#path-1"></use>
        <g id="Icon-Color" mask="url(#mask-2)" fill="#22212D">
            <rect id="Shape" x="0" y="0" width="24" height="24"></rect>
        </g>
    </g>
</svg>