<?xml version="1.0" encoding="UTF-8"?>
<svg width="24px" height="24px" viewBox="0 0 24 24" version="1.1" xmlns="http://www.w3.org/2000/svg" xmlns:xlink="http://www.w3.org/1999/xlink">
    <title>Icon/layers</title>
    <defs>
        <path d="M1.6,7.88282139 L11.6,12.8885097 C11.7,12.9886234 11.8,12.9886234 12,12.9886234 C12.2,12.9886234 12.3,12.9886234 12.4,12.8885097 L22.4,7.88282139 C22.8,7.68259386 23,7.38225256 23,6.9817975 C23,6.58134243 22.8,6.28100114 22.4,6.08077361 L12.4,1.07508532 C12.1,0.974971559 11.8,0.974971559 11.5,1.07508532 L1.5,6.08077361 C1.2,6.28100114 1,6.58134243 1,6.9817975 C1,7.38225256 1.2,7.68259386 1.6,7.88282139 Z M12,3.07736064 L19.8,6.9817975 L12,10.8862344 L4.2,6.9817975 L12,3.07736064 Z M22.9,16.592719 C23.1,17.0932878 22.9,17.6939704 22.5,17.894198 L12.5,22.8998862 C12.3,23 12.2,23 12,23 C11.8,23 11.7,23 11.6,22.8998862 L1.6,17.894198 C1.1,17.6939704 0.9,17.0932878 1.2,16.592719 C1.4,16.0921502 2,15.8919226 2.5,16.1922639 L12.1,20.9977247 L21.7,16.1922639 C22,15.8919226 22.6,16.0921502 22.9,16.592719 Z M22.9,11.5870307 C23.1,12.0875995 22.9,12.6882821 22.5,12.8885097 L12.5,17.894198 C12.3,17.9943117 12.2,17.9943117 12,17.9943117 C11.8,17.9943117 11.7,17.9943117 11.6,17.894198 L1.6,12.8885097 C1.1,12.6882821 0.9,12.0875995 1.2,11.5870307 C1.4,11.0864619 2,10.8862344 2.5,11.1865757 L12.1,15.9920364 L21.7,11.1865757 C22,10.8862344 22.6,11.0864619 22.9,11.5870307 Z" id="path-1"></path>
    </defs>
    <g id="Icon/layers" stroke="none" stroke-width="1" fill="none" fill-rule="evenodd">
        <mask id="mask-2" fill="white">
            <use xlink:href="#path-1"></use>
        </mask>
        <use id="Mask" fill="#000000" fill-rule="nonzero" xlink:href="#path-1"></use>
        <g id="Icon-Color" mask="url(#mask-2)" fill="#22212D">
            <rect id="Shape" x="0" y="0" width="24" height="24"></rect>
        </g>
    </g>
</svg>