<?xml version="1.0" encoding="UTF-8"?>
<svg width="24px" height="24px" viewBox="0 0 24 24" version="1.1" xmlns="http://www.w3.org/2000/svg" xmlns:xlink="http://www.w3.org/1999/xlink">
    <title>Icon/life-buoy</title>
    <defs>
        <path d="M19.8,19.8 C21.8,17.8 23,15.1 23,12 C23,9 21.8,6.2 19.8,4.2 C19.8,4.2 19.8,4.2 19.8,4.2 C19.8,4.2 19.8,4.2 19.8,4.2 C17.8,2.2 15,1 12,1 C9,1 6.2,2.2 4.2,4.2 C4.2,4.2 4.2,4.2 4.2,4.2 C4.2,4.2 4.2,4.2 4.2,4.2 C2.2,6.2 1,9 1,12 C1,15 2.2,17.8 4.2,19.8 C4.2,19.8 4.2,19.8 4.2,19.8 C4.2,19.8 4.2,19.8 4.2,19.8 C6.2,21.8 8.9,23 12,23 C15,23 17.8,21.8 19.8,19.8 C19.8,19.8 19.8,19.8 19.8,19.8 C19.8,19.8 19.8,19.8 19.8,19.8 Z M19,17.6 L16.1,14.7 C16.7,14 17,13 17,12 C17,11 16.7,10 16.2,9.2 L19,6.4 C20.2,7.9 21,9.9 21,12 C21,14.1 20.3,16.1 19,17.6 Z M9,12 C9,10.3 10.3,9 12,9 C13.7,9 15,10.3 15,12 C15,13.7 13.7,15 12,15 C10.3,15 9,13.7 9,12 Z M17.6,5 L14.7,7.9 C14,7.3 13,7 12,7 C11,7 10,7.3 9.2,7.8 L6.4,5 C7.9,3.7 9.9,3 12,3 C14.1,3 16.1,3.7 17.6,5 Z M5,6.4 L7.9,9.3 C7.3,10 7,11 7,12 C7,13 7.3,14 7.8,14.8 L5,17.6 C3.8,16.1 3,14.1 3,12 C3,9.9 3.7,7.9 5,6.4 Z M6.4,19 L9.3,16.1 C10,16.7 11,17 12,17 C13,17 14,16.7 14.8,16.2 L17.7,19.1 C16.2,20.3 14.2,21.1 12.1,21.1 C9.9,21 7.9,20.3 6.4,19 Z" id="path-1"></path>
    </defs>
    <g id="Icon/life-buoy" stroke="none" stroke-width="1" fill="none" fill-rule="evenodd">
        <mask id="mask-2" fill="white">
            <use xlink:href="#path-1"></use>
        </mask>
        <use id="Mask" fill="#000000" fill-rule="nonzero" xlink:href="#path-1"></use>
        <g id="Icon-Color" mask="url(#mask-2)" fill="#22212D">
            <rect id="Shape" x="0" y="0" width="24" height="24"></rect>
        </g>
    </g>
</svg>