<?xml version="1.0" encoding="UTF-8"?>
<svg width="24px" height="24px" viewBox="0 0 24 24" version="1.1" xmlns="http://www.w3.org/2000/svg" xmlns:xlink="http://www.w3.org/1999/xlink">
    <title>Icon/linkedin</title>
    <defs>
        <path d="M16,8 C12.1,8 9,11.1 9,15 L9,22 C9,22.6 9.4,23 10,23 L14,23 C14.6,23 15,22.6 15,22 L15,15 C15,14.4 15.4,14 16,14 C16.6,14 17,14.4 17,15 L17,22 C17,22.6 17.4,23 18,23 L22,23 C22.6,23 23,22.6 23,22 L23,15 C23,11.1 19.9,8 16,8 Z M21,21 L19,21 L19,15 C19,13.3 17.7,12 16,12 C14.3,12 13,13.3 13,15 L13,21 L11,21 L11,15 C11,12.2 13.2,10 16,10 C18.8,10 21,12.2 21,15 L21,21 Z M6,9 L2,9 C1.4,9 1,9.4 1,10 L1,22 C1,22.6 1.4,23 2,23 L6,23 C6.6,23 7,22.6 7,22 L7,10 C7,9.4 6.6,9 6,9 Z M5,21 L3,21 L3,11 L5,11 L5,21 Z M4,2 C2.3,2 1,3.3 1,5 C1,6.7 2.3,8 4,8 C5.7,8 7,6.7 7,5 C7,3.3 5.7,2 4,2 Z M4,6 C3.4,6 3,5.6 3,5 C3,4.4 3.4,4 4,4 C4.6,4 5,4.4 5,5 C5,5.6 4.6,6 4,6 Z" id="path-1"></path>
    </defs>
    <g id="Icon/linkedin" stroke="none" stroke-width="1" fill="none" fill-rule="evenodd">
        <mask id="mask-2" fill="white">
            <use xlink:href="#path-1"></use>
        </mask>
        <use id="Shape" fill="#000000" fill-rule="nonzero" xlink:href="#path-1"></use>
        <g id="Icon-Color" mask="url(#mask-2)" fill="#22212D">
            <rect id="Shape" x="0" y="0" width="24" height="24"></rect>
        </g>
    </g>
</svg>