<?xml version="1.0" encoding="UTF-8"?>
<svg width="24px" height="24px" viewBox="0 0 24 24" version="1.1" xmlns="http://www.w3.org/2000/svg" xmlns:xlink="http://www.w3.org/1999/xlink">
    <title>Icon/link</title>
    <defs>
        <path d="M21.3339205,11.1596351 L18.3104113,14.1698974 C18.108844,14.3705815 17.9072768,14.5712657 17.6049258,14.7719498 C16.4963058,15.5746864 15.2869021,15.9760547 13.9767148,15.9760547 C12.1626093,15.9760547 10.3485038,15.1733181 9.13910018,13.5678449 C8.83674926,13.1664766 8.9375329,12.4640821 9.34066746,12.1630559 C9.74380201,11.8620296 10.4492875,11.9623717 10.7516384,12.36374 C12.0618257,14.1698974 14.5814167,14.4709236 16.3955222,13.1664766 C16.5970894,13.0661345 16.6978731,12.9657925 16.7986567,12.7651083 L19.8221659,9.75484607 C21.3339205,8.14937286 21.3339205,5.64082098 19.7213823,4.13568985 C18.108844,2.63055872 15.6900367,2.63055872 14.0774985,4.13568985 L12.3641766,5.84150513 C11.9610421,6.24287343 11.3563402,6.24287343 10.9532057,5.84150513 C10.5500711,5.44013683 10.5500711,4.83808438 10.9532057,4.43671608 L12.6665275,2.7309008 C14.9845512,0.423033067 18.7135459,0.423033067 21.0315696,2.7309008 C23.5511605,4.93842645 23.6519442,8.85176739 21.3339205,11.1596351 Z M11.4571239,18.0832383 L9.74380201,19.7890536 C8.13126379,21.2941847 5.71245646,21.2941847 4.09991824,19.7890536 C2.48738002,18.2839225 2.48738002,15.6750285 3.9991346,14.1698974 L7.02264376,11.1596351 C7.1234274,11.059293 7.32499468,10.8586089 7.42577832,10.7582668 C8.33283107,10.1562144 9.34066746,9.85518814 10.4492875,9.95553022 C11.5579075,10.1562144 12.4649603,10.6579247 13.0696621,11.5610034 C13.372013,11.9623717 14.0774985,12.0627138 14.480633,11.7616876 C14.8837676,11.4606613 14.9845512,10.7582668 14.6822003,10.3568985 C13.6743639,9.05245154 12.263393,8.24971494 10.7516384,8.04903079 C9.23988382,7.74800456 7.6273456,8.14937286 6.31715829,9.15279361 C6.11559102,9.35347777 5.91402374,9.55416192 5.71245646,9.75484607 L2.6889473,12.7651083 C0.370923605,15.1733181 0.471707243,18.986317 2.78973094,21.2941847 C3.9991346,22.3979475 5.51088918,23 7.02264376,23 C8.53439835,23 10.0461529,22.3979475 11.2555566,21.2941847 L12.9688785,19.5883694 C13.372013,19.1870011 13.372013,18.5849487 12.9688785,18.1835804 C12.5657439,17.7822121 11.8602584,17.68187 11.4571239,18.0832383 Z" id="path-1"></path>
    </defs>
    <g id="Icon/link" stroke="none" stroke-width="1" fill="none" fill-rule="evenodd">
        <mask id="mask-2" fill="white">
            <use xlink:href="#path-1"></use>
        </mask>
        <use id="Mask" fill="#000000" fill-rule="nonzero" xlink:href="#path-1"></use>
        <g id="Icon-Color" mask="url(#mask-2)" fill="#22212D">
            <rect id="Shape" x="0" y="0" width="24" height="24"></rect>
        </g>
    </g>
</svg>