<?xml version="1.0" encoding="UTF-8"?>
<svg width="24px" height="24px" viewBox="0 0 24 24" version="1.1" xmlns="http://www.w3.org/2000/svg" xmlns:xlink="http://www.w3.org/1999/xlink">
    <title>Icon/list</title>
    <defs>
        <path d="M7,6.00405184 C7,5.40405184 7.4,5.00405184 8,5.00405184 L21,5.00405184 C21.6,5.00405184 22,5.40405184 22,6.00405184 C22,6.60405184 21.6,7.00405184 21,7.00405184 L8,7.00405184 C7.4,7.00405184 7,6.60405184 7,6.00405184 Z M21,11.0040518 L8,11.0040518 C7.4,11.0040518 7,11.4040518 7,12.0040518 C7,12.6040518 7.4,13.0040518 8,13.0040518 L21,13.0040518 C21.6,13.0040518 22,12.6040518 22,12.0040518 C22,11.4040518 21.6,11.0040518 21,11.0040518 Z M21,17.0040518 L8,17.0040518 C7.4,17.0040518 7,17.4040518 7,18.0040518 C7,18.6040518 7.4,19.0040518 8,19.0040518 L21,19.0040518 C21.6,19.0040518 22,18.6040518 22,18.0040518 C22,17.4040518 21.6,17.0040518 21,17.0040518 Z M3.4,5.10405184 C3,4.90405184 2.6,5.00405184 2.3,5.30405184 C2.2,5.40405184 2.1,5.50405184 2.1,5.60405184 C2,5.70405184 2,5.90405184 2,6.00405184 C2,6.10405184 2,6.30405184 2.1,6.40405184 C2.2,6.50405184 2.2,6.60405184 2.3,6.70405184 C2.3,6.70405184 2.4,6.80405184 2.4,6.80405184 C2.5,6.80405184 2.5,6.90405184 2.6,6.90405184 C2.7,6.90405184 2.7,6.90405184 2.8,7.00405184 C2.9,7.00405184 2.9,7.00405184 3,7.00405184 C3.3,7.00405184 3.5,6.90405184 3.7,6.70405184 C3.9,6.50405184 4,6.30405184 4,6.00405184 C4,5.70405184 3.9,5.50405184 3.7,5.30405184 C3.6,5.20405184 3.5,5.10405184 3.4,5.10405184 Z M3.9,11.6040518 C3.9,11.5040518 3.8,11.5040518 3.8,11.4040518 C3.8,11.3040518 3.7,11.3040518 3.7,11.3040518 C3.4,11.0040518 3,10.9040518 2.6,11.1040518 C2.5,11.2040518 2.4,11.2040518 2.3,11.3040518 C2.3,11.3040518 2.2,11.4040518 2.2,11.4040518 C2.2,11.5040518 2.1,11.5040518 2.1,11.6040518 C2.1,11.7040518 2.1,11.7040518 2,11.8040518 C2,11.9040518 2,11.9040518 2,12.0040518 C2,12.3040518 2.1,12.5040518 2.3,12.7040518 C2.5,12.9040518 2.7,13.0040518 3,13.0040518 C3.3,13.0040518 3.5,12.9040518 3.7,12.7040518 C3.9,12.5040518 4,12.3040518 4,12.0040518 C4,11.9040518 4,11.9040518 4,11.8040518 C4,11.7040518 3.9,11.7040518 3.9,11.6040518 Z M2.3,17.3040518 C2.2,17.4040518 2.1,17.5040518 2.1,17.6040518 C2,17.7040518 2,17.9040518 2,18.0040518 C2,18.3040518 2.1,18.5040518 2.3,18.7040518 C2.5,18.9040518 2.7,19.0040518 3,19.0040518 C3.3,19.0040518 3.5,18.9040518 3.7,18.7040518 C3.9,18.5040518 4,18.3040518 4,18.0040518 C4,17.7040518 3.9,17.5040518 3.7,17.3040518 C3.3,16.9040518 2.7,16.9040518 2.3,17.3040518 Z" id="path-1"></path>
    </defs>
    <g id="Icon/list" stroke="none" stroke-width="1" fill="none" fill-rule="evenodd">
        <mask id="mask-2" fill="white">
            <use xlink:href="#path-1"></use>
        </mask>
        <use id="Mask" fill="#000000" fill-rule="nonzero" xlink:href="#path-1"></use>
        <g id="Icon-Color" mask="url(#mask-2)" fill="#22212D">
            <rect id="Shape" x="0" y="0" width="24" height="24"></rect>
        </g>
    </g>
</svg>