<?xml version="1.0" encoding="UTF-8"?>
<svg width="24px" height="24px" viewBox="0 0 24 24" version="1.1" xmlns="http://www.w3.org/2000/svg" xmlns:xlink="http://www.w3.org/1999/xlink">
    <title>Icon/loader</title>
    <defs>
        <path d="M13,2 L13,6 C13,6.6 12.6,7 12,7 C11.4,7 11,6.6 11,6 L11,2 C11,1.4 11.4,1 12,1 C12.6,1 13,1.4 13,2 Z M12,17 C11.4,17 11,17.4 11,18 L11,22 C11,22.6 11.4,23 12,23 C12.6,23 13,22.6 13,22 L13,18 C13,17.4 12.6,17 12,17 Z M5.6,4.2 C5.2,3.8 4.6,3.8 4.2,4.2 C3.8,4.6 3.8,5.2 4.2,5.6 L7,8.4 C7.2,8.6 7.5,8.7 7.7,8.7 C7.9,8.7 8.2,8.6 8.4,8.4 C8.8,8 8.8,7.4 8.4,7 L5.6,4.2 Z M16.9,15.5 C16.5,15.1 15.9,15.1 15.5,15.5 C15.1,15.9 15.1,16.5 15.5,16.9 L18.3,19.7 C18.5,19.9 18.8,20 19,20 C19.2,20 19.5,19.9 19.7,19.7 C20.1,19.3 20.1,18.7 19.7,18.3 L16.9,15.5 Z M7,12 C7,11.4 6.6,11 6,11 L2,11 C1.4,11 1,11.4 1,12 C1,12.6 1.4,13 2,13 L6,13 C6.6,13 7,12.6 7,12 Z M22,11 L18,11 C17.4,11 17,11.4 17,12 C17,12.6 17.4,13 18,13 L22,13 C22.6,13 23,12.6 23,12 C23,11.4 22.6,11 22,11 Z M7.1,15.5 L4.3,18.3 C3.9,18.7 3.9,19.3 4.3,19.7 C4.5,19.9 4.8,20 5,20 C5.2,20 5.5,19.9 5.7,19.7 L8.5,16.9 C8.9,16.5 8.9,15.9 8.5,15.5 C8.1,15.1 7.4,15.1 7.1,15.5 Z M16.2,8.8 C16.5,8.8 16.7,8.7 16.9,8.5 L19.7,5.7 C20.1,5.3 20.1,4.7 19.7,4.3 C19.3,3.9 18.7,3.9 18.3,4.3 L15.5,7.1 C15.1,7.5 15.1,8.1 15.5,8.5 C15.7,8.7 16,8.8 16.2,8.8 Z" id="path-1"></path>
    </defs>
    <g id="Icon/loader" stroke="none" stroke-width="1" fill="none" fill-rule="evenodd">
        <mask id="mask-2" fill="white">
            <use xlink:href="#path-1"></use>
        </mask>
        <use id="Mask" fill="#000000" fill-rule="nonzero" xlink:href="#path-1"></use>
        <g id="Icon-Color" mask="url(#mask-2)" fill="#22212D">
            <rect id="Shape" x="0" y="0" width="24" height="24"></rect>
        </g>
    </g>
</svg>