<?xml version="1.0" encoding="UTF-8"?>
<svg width="24px" height="24px" viewBox="0 0 24 24" version="1.1" xmlns="http://www.w3.org/2000/svg" xmlns:xlink="http://www.w3.org/1999/xlink">
    <title>Icon/log-in</title>
    <defs>
        <path d="M22,4 L22,20 C22,21.7 20.7,23 19,23 L14,23 C13.4,23 13,22.6 13,22 C13,21.4 13.4,21 14,21 L19,21 C19.6,21 20,20.6 20,20 L20,4 C20,3.4 19.6,3 19,3 L14,3 C13.4,3 13,2.6 13,2 C13,1.4 13.4,1 14,1 L19,1 C20.7,1 22,2.3 22,4 Z M15.9,12.4 C16,12.2 16,11.9 15.9,11.6 C15.8,11.5 15.8,11.4 15.7,11.3 L11.7,7.3 C11.3,6.9 10.7,6.9 10.3,7.3 C9.9,7.7 9.9,8.3 10.3,8.7 L12.6,11 L3,11 C2.4,11 2,11.4 2,12 C2,12.6 2.4,13 3,13 L12.6,13 L10.3,15.3 C9.9,15.7 9.9,16.3 10.3,16.7 C10.5,16.9 10.8,17 11,17 C11.2,17 11.5,16.9 11.7,16.7 L15.7,12.7 C15.8,12.6 15.9,12.5 15.9,12.4 Z" id="path-1"></path>
    </defs>
    <g id="Icon/log-in" stroke="none" stroke-width="1" fill="none" fill-rule="evenodd">
        <mask id="mask-2" fill="white">
            <use xlink:href="#path-1"></use>
        </mask>
        <use id="Mask" fill="#000000" fill-rule="nonzero" xlink:href="#path-1"></use>
        <g id="Icon-Color" mask="url(#mask-2)" fill="#22212D">
            <rect id="Shape" x="0" y="0" width="24" height="24"></rect>
        </g>
    </g>
</svg>