<?xml version="1.0" encoding="UTF-8"?>
<svg width="24px" height="24px" viewBox="0 0 24 24" version="1.1" xmlns="http://www.w3.org/2000/svg" xmlns:xlink="http://www.w3.org/1999/xlink">
    <title>Icon/log-out</title>
    <defs>
        <path d="M11.0112641,22 C11.0112641,22.6 10.6107635,23 10.0100125,23 L5.00375469,23 C3.30162703,23 2,21.7 2,20 L2,4 C2,2.3 3.30162703,1 5.00375469,1 L10.0100125,1 C10.6107635,1 11.0112641,1.4 11.0112641,2 C11.0112641,2.6 10.6107635,3 10.0100125,3 L5.00375469,3 C4.40300375,3 4.00250313,3.4 4.00250313,4 L4.00250313,20 C4.00250313,20.6 4.40300375,21 5.00375469,21 L10.0100125,21 C10.6107635,21 11.0112641,21.4 11.0112641,22 Z M21.9249061,12.4 C22.0250313,12.2 22.0250313,11.9 21.9249061,11.6 C21.824781,11.5 21.824781,11.4 21.7246558,11.3 L17.7196496,7.3 C17.3191489,6.9 16.718398,6.9 16.3178974,7.3 C15.9173967,7.7 15.9173967,8.3 16.3178974,8.7 L18.620776,11 L9.00876095,11 C8.40801001,11 8.00750939,11.4 8.00750939,12 C8.00750939,12.6 8.40801001,13 9.00876095,13 L18.620776,13 L16.3178974,15.3 C15.9173967,15.7 15.9173967,16.3 16.3178974,16.7 C16.5181477,16.9 16.8185232,17 17.0187735,17 C17.2190238,17 17.5193992,16.9 17.7196496,16.7 L21.7246558,12.7 C21.824781,12.6 21.9249061,12.5 21.9249061,12.4 Z" id="path-1"></path>
    </defs>
    <g id="Icon/log-out" stroke="none" stroke-width="1" fill="none" fill-rule="evenodd">
        <mask id="mask-2" fill="white">
            <use xlink:href="#path-1"></use>
        </mask>
        <use id="Mask" fill="#000000" fill-rule="nonzero" xlink:href="#path-1"></use>
        <g id="Icon-Color" mask="url(#mask-2)" fill="#22212D">
            <rect id="Shape" x="0" y="0" width="24" height="24"></rect>
        </g>
    </g>
</svg>