<?xml version="1.0" encoding="UTF-8"?>
<svg width="24px" height="24px" viewBox="0 0 24 24" version="1.1" xmlns="http://www.w3.org/2000/svg" xmlns:xlink="http://www.w3.org/1999/xlink">
    <title>Icon/mail</title>
    <defs>
        <path d="M20,3 L4,3 C2.3,3 1,4.3 1,6 L1,18 C1,19.7 2.3,21 4,21 L20,21 C21.7,21 23,19.7 23,18 L23,6 C23,4.3 21.7,3 20,3 Z M4,5 L20,5 C20.4,5 20.7,5.2 20.9,5.6 L12,11.8 L3.1,5.6 C3.3,5.2 3.6,5 4,5 Z M20,19 L4,19 C3.4,19 3,18.6 3,18 L3,7.9 L11.4,13.8 C11.6,13.9 11.8,14 12,14 C12.2,14 12.4,13.9 12.6,13.8 L21,7.9 L21,18 C21,18.6 20.6,19 20,19 Z" id="path-1"></path>
    </defs>
    <g id="Icon/mail" stroke="none" stroke-width="1" fill="none" fill-rule="evenodd">
        <mask id="mask-2" fill="white">
            <use xlink:href="#path-1"></use>
        </mask>
        <use id="Mask" fill="#000000" fill-rule="nonzero" xlink:href="#path-1"></use>
        <g id="Icon-Color" mask="url(#mask-2)" fill="#22212D">
            <rect id="Shape" x="0" y="0" width="24" height="24"></rect>
        </g>
    </g>
</svg>