<?xml version="1.0" encoding="UTF-8"?>
<svg width="24px" height="24px" viewBox="0 0 24 24" version="1.1" xmlns="http://www.w3.org/2000/svg" xmlns:xlink="http://www.w3.org/1999/xlink">
    <title>Icon/map</title>
    <defs>
        <path d="M23.5,1.14932127 C23.2,0.950226244 22.8,0.950226244 22.5,1.14932127 L16,4.9321267 L8.4,1.14932127 C8.4,1.14932127 8.4,1.14932127 8.4,1.14932127 C8.4,1.14932127 8.4,1.14932127 8.3,1.14932127 C8.2,1.04977376 8.1,1.04977376 8,1.04977376 C8,1.04977376 8,1.04977376 8,1.04977376 C8,1.04977376 8,1.04977376 8,1.04977376 C7.9,1.04977376 7.8,1.04977376 7.6,1.14932127 C7.6,1.14932127 7.6,1.14932127 7.5,1.14932127 C7.5,1.14932127 7.4,1.14932127 7.4,1.14932127 L0.4,5.13122172 C0.2,5.33031674 0,5.62895928 0,6.02714932 L0,21.9547511 C0,22.3529412 0.2,22.6515837 0.5,22.8506787 C0.8,23.0497738 1.2,23.0497738 1.5,22.8506787 L8,19.0678733 L15.5,22.8506787 C15.5,22.8506787 15.5,22.8506787 15.5,22.8506787 C15.7,22.9502262 15.8,22.9502262 16,22.9502262 C16.1,22.9502262 16.2,22.9502262 16.3,22.8506787 C16.3,22.8506787 16.4,22.8506787 16.4,22.8506787 C16.4,22.8506787 16.4,22.8506787 16.5,22.8506787 L23.5,18.8687783 C23.8,18.6696833 24,18.3710407 24,17.9728507 L24,2.04524887 C24,1.64705882 23.8,1.34841629 23.5,1.14932127 Z M9,3.63800905 L15,6.62443439 L15,20.361991 L9,17.3755656 L9,3.63800905 Z M2,6.62443439 L7,3.73755656 L7,17.3755656 L2,20.2624434 L2,6.62443439 Z M22,17.3755656 L17,20.2624434 L17,6.62443439 L22,3.73755656 L22,17.3755656 Z" id="path-1"></path>
    </defs>
    <g id="Icon/map" stroke="none" stroke-width="1" fill="none" fill-rule="evenodd">
        <mask id="mask-2" fill="white">
            <use xlink:href="#path-1"></use>
        </mask>
        <use id="Mask" fill="#000000" fill-rule="nonzero" xlink:href="#path-1"></use>
        <g id="Icon-Color" mask="url(#mask-2)" fill="#22212D">
            <rect id="Shape" x="0" y="0" width="24" height="24"></rect>
        </g>
    </g>
</svg>