<?xml version="1.0" encoding="UTF-8"?>
<svg width="24px" height="24px" viewBox="0 0 24 24" version="1.1" xmlns="http://www.w3.org/2000/svg" xmlns:xlink="http://www.w3.org/1999/xlink">
    <title>Icon/maximize-2</title>
    <defs>
        <path d="M22,3 L22,9 C22,9.6 21.6,10 21,10 C20.4,10 20,9.6 20,9 L20,5.4 L14.7,10.7 C14.5,10.9 14.3,11 14,11 C13.7,11 13.5,10.9 13.3,10.7 C12.9,10.3 12.9,9.7 13.3,9.3 L18.6,4 L15,4 C14.4,4 14,3.6 14,3 C14,2.4 14.4,2 15,2 L21,2 C21.1,2 21.3,2 21.4,2.1 C21.6,2.2 21.8,2.4 21.9,2.6 C22,2.7 22,2.9 22,3 Z M9.3,13.3 L4,18.6 L4,15 C4,14.4 3.6,14 3,14 C2.4,14 2,14.4 2,15 L2,21 C2,21.1 2,21.3 2.1,21.4 C2.2,21.6 2.4,21.8 2.6,21.9 C2.7,22 2.9,22 3,22 L9,22 C9.6,22 10,21.6 10,21 C10,20.4 9.6,20 9,20 L5.4,20 L10.7,14.7 C11.1,14.3 11.1,13.7 10.7,13.3 C10.3,12.9 9.7,12.9 9.3,13.3 Z" id="path-1"></path>
    </defs>
    <g id="Icon/maximize-2" stroke="none" stroke-width="1" fill="none" fill-rule="evenodd">
        <mask id="mask-2" fill="white">
            <use xlink:href="#path-1"></use>
        </mask>
        <use id="Mask" fill="#000000" fill-rule="nonzero" xlink:href="#path-1"></use>
        <g id="Icon-Color" mask="url(#mask-2)" fill="#22212D">
            <rect id="Shape" x="0" y="0" width="24" height="24"></rect>
        </g>
    </g>
</svg>