<?xml version="1.0" encoding="UTF-8"?>
<svg width="24px" height="24px" viewBox="0 0 24 24" version="1.1" xmlns="http://www.w3.org/2000/svg" xmlns:xlink="http://www.w3.org/1999/xlink">
    <title>Icon/maximize</title>
    <defs>
        <path d="M9,21 C9,21.6 8.6,22 8,22 L5,22 C3.3,22 2,20.7 2,19 L2,16 C2,15.4 2.4,15 3,15 C3.6,15 4,15.4 4,16 L4,19 C4,19.6 4.4,20 5,20 L8,20 C8.6,20 9,20.4 9,21 Z M8,2 L5,2 C3.3,2 2,3.3 2,5 L2,8 C2,8.6 2.4,9 3,9 C3.6,9 4,8.6 4,8 L4,5 C4,4.4 4.4,4 5,4 L8,4 C8.6,4 9,3.6 9,3 C9,2.4 8.6,2 8,2 Z M21,15 C20.4,15 20,15.4 20,16 L20,19 C20,19.6 19.6,20 19,20 L16,20 C15.4,20 15,20.4 15,21 C15,21.6 15.4,22 16,22 L19,22 C20.7,22 22,20.7 22,19 L22,16 C22,15.4 21.6,15 21,15 Z M19,2 L16,2 C15.4,2 15,2.4 15,3 C15,3.6 15.4,4 16,4 L19,4 C19.6,4 20,4.4 20,5 L20,8 C20,8.6 20.4,9 21,9 C21.6,9 22,8.6 22,8 L22,5 C22,3.3 20.7,2 19,2 Z" id="path-1"></path>
    </defs>
    <g id="Icon/maximize" stroke="none" stroke-width="1" fill="none" fill-rule="evenodd">
        <mask id="mask-2" fill="white">
            <use xlink:href="#path-1"></use>
        </mask>
        <use id="Mask" fill="#000000" fill-rule="nonzero" xlink:href="#path-1"></use>
        <g id="Icon-Color" mask="url(#mask-2)" fill="#22212D">
            <rect id="Shape" x="0" y="0" width="24" height="24"></rect>
        </g>
    </g>
</svg>