<?xml version="1.0" encoding="UTF-8"?>
<svg width="24px" height="24px" viewBox="0 0 24 24" version="1.1" xmlns="http://www.w3.org/2000/svg" xmlns:xlink="http://www.w3.org/1999/xlink">
    <title>Icon/message-circle</title>
    <defs>
        <path d="M22,10.9 C21.7005873,6.1 17.9080265,2.2 13.0176192,2 L12.518598,2 C12.518598,2 12.518598,2 12.518598,2 C11.0215345,2 9.62427528,2.3 8.32682027,3 C5.03328063,4.6 3.037196,7.9 3.037196,11.5 C3.037196,12.8 3.33660869,14.2 3.83562985,15.4 L2.03915368,20.7 C1.93934945,21.1 2.03915368,21.5 2.23876215,21.7 C2.53817484,21.9 2.7377833,22 3.037196,22 C3.13700023,22 3.23680446,22 3.33660869,21.9 L8.62623297,20.1 C9.82388375,20.6 11.1213388,20.9 12.518598,20.9 C16.1115503,20.9 19.40509,18.9 21.0019577,15.7 C21.7005873,14.4 22,12.9 22,11.4 L22,10.9 Z M20.0039154,11.5 C20.0039154,11.5 20.0039154,11.5 20.0039154,11.5 C20.0039154,12.7 19.7045027,13.8 19.2054815,14.9 C17.9080265,17.5 15.4129207,19 12.518598,19 C11.4207515,19 10.2231007,18.7 9.22505836,18.2 C9.02544989,18.1 8.7260372,18.1 8.4266245,18.1 L4.6340637,19.4 L5.93151872,15.6 C6.03132295,15.3 6.03132295,15.1 5.83171448,14.8 C5.33269333,13.8 5.03328063,12.6 5.03328063,11.5 C5.03328063,8.6 6.63014834,6.1 9.22505836,4.8 C10.2231007,4.3 11.4207515,4 12.518598,4 C12.518598,4 12.518598,4 12.518598,4 L12.9178149,4 C16.7103757,4.2 19.7045027,7.2 20.0039154,11 L20.0039154,11.5 Z" id="path-1"></path>
    </defs>
    <g id="Icon/message-circle" stroke="none" stroke-width="1" fill="none" fill-rule="evenodd">
        <mask id="mask-2" fill="white">
            <use xlink:href="#path-1"></use>
        </mask>
        <use id="Mask" fill="#000000" fill-rule="nonzero" xlink:href="#path-1"></use>
        <g id="Icon-Color" mask="url(#mask-2)" fill="#22212D">
            <rect id="Shape" x="0" y="0" width="24" height="24"></rect>
        </g>
    </g>
</svg>