<?xml version="1.0" encoding="UTF-8"?>
<svg width="24px" height="24px" viewBox="0 0 24 24" version="1.1" xmlns="http://www.w3.org/2000/svg" xmlns:xlink="http://www.w3.org/1999/xlink">
    <title>Icon/message-square</title>
    <defs>
        <path d="M19,2 L5,2 C3.3,2 2,3.3 2,5 L2,21 C2,21.4 2.2,21.8 2.6,21.9 C2.7,22 2.9,22 3,22 C3.3,22 3.5,21.9 3.7,21.7 L7.4,18 L19,18 C20.7,18 22,16.7 22,15 L22,5 C22,3.3 20.7,2 19,2 Z M20,15 C20,15.6 19.6,16 19,16 L7,16 C6.7,16 6.5,16.1 6.3,16.3 L4,18.6 L4,5 C4,4.4 4.4,4 5,4 L19,4 C19.6,4 20,4.4 20,5 L20,15 Z" id="path-1"></path>
    </defs>
    <g id="Icon/message-square" stroke="none" stroke-width="1" fill="none" fill-rule="evenodd">
        <mask id="mask-2" fill="white">
            <use xlink:href="#path-1"></use>
        </mask>
        <use id="Mask" fill="#000000" fill-rule="nonzero" xlink:href="#path-1"></use>
        <g id="Icon-Color" mask="url(#mask-2)" fill="#22212D">
            <rect id="Shape" x="0" y="0" width="24" height="24"></rect>
        </g>
    </g>
</svg>