<?xml version="1.0" encoding="UTF-8"?>
<svg width="24px" height="24px" viewBox="0 0 24 24" version="1.1" xmlns="http://www.w3.org/2000/svg" xmlns:xlink="http://www.w3.org/1999/xlink">
    <title>Icon/mic-off</title>
    <defs>
        <path d="M23.7,22.2074689 L17.8,16.3319502 C17.8,16.2323651 17.7,16.2323651 17.7,16.1327801 C17.7,16.1327801 17.6,16.033195 17.6,16.033195 L9.7,8.26556017 C9.7,8.26556017 9.7,8.26556017 9.7,8.26556017 L1.7,0.298755187 C1.3,-0.0995850622 0.7,-0.0995850622 0.3,0.298755187 C-0.1,0.697095436 -0.1,1.29460581 0.3,1.69294606 L8,9.36099585 L8,11.9502075 C8,13.0456432 8.4,14.0414938 9.2,14.7385892 C9.9,15.5352697 10.9,15.93361 12,15.93361 C12,15.93361 12,15.93361 12,15.93361 C12.7,15.93361 13.4,15.7344398 14,15.3360996 L15.5,16.8298755 C14.5,17.526971 13.4,17.9253112 12.2,17.9253112 C12.1,17.9253112 12.1,17.9253112 12,17.9253112 C11.9,17.9253112 11.9,17.9253112 11.8,17.9253112 C10.3,17.9253112 8.9,17.3278008 7.8,16.2323651 C6.6,15.1369295 6,13.5435685 6,11.9502075 L6,9.95850622 C6,9.36099585 5.6,8.9626556 5,8.9626556 C4.4,8.9626556 4,9.36099585 4,9.95850622 L4,11.9502075 C4,14.1410788 4.9,16.2323651 6.4,17.7261411 C7.7,19.0207469 9.3,19.7178423 11,19.9170124 L11,21.9087137 L8,21.9087137 C7.4,21.9087137 7,22.3070539 7,22.9045643 C7,23.5020747 7.4,23.9004149 8,23.9004149 L16,23.9004149 C16.6,23.9004149 17,23.5020747 17,22.9045643 C17,22.3070539 16.6,21.9087137 16,21.9087137 L13,21.9087137 L13,19.9170124 C14.4,19.7178423 15.8,19.219917 16.9,18.3236515 L22.3,23.7012448 C22.5,23.9004149 22.8,24 23,24 C23.2,24 23.5,23.9004149 23.7,23.7012448 C24.1,23.2033195 24.1,22.6058091 23.7,22.2074689 Z M12,13.9419087 C12,13.9419087 12,13.9419087 12,13.9419087 C11.5,13.9419087 11,13.7427386 10.6,13.3443983 C10.2,12.9460581 10,12.4481328 10,11.9502075 L10,11.3526971 L12.5,13.8423237 C12.3,13.9419087 12.2,13.9419087 12,13.9419087 Z M8.1,3.18672199 C8.5,1.29460581 10.1,0 12,0 C12,0 12,0 12,0 C13.1,0 14.1,0.398340249 14.8,1.19502075 C15.6,1.89211618 16,2.8879668 16,3.98340249 L16,9.26141079 C16,9.85892116 15.6,10.2572614 15,10.2572614 C14.4,10.2572614 14,9.85892116 14,9.26141079 L14,3.98340249 C14,3.48547718 13.8,2.98755187 13.4,2.58921162 C13,2.19087137 12.5,1.99170124 12,1.99170124 C12,1.99170124 12,1.99170124 12,1.99170124 C11.1,1.99170124 10.2,2.68879668 10,3.58506224 C9.9,4.08298755 9.4,4.4813278 8.9,4.38174274 C8.3,4.28215768 8,3.6846473 8.1,3.18672199 Z M17.9,13.0456432 C18,12.6473029 18,12.3485477 18,11.9502075 L18,9.95850622 C18,9.36099585 18.4,8.9626556 19,8.9626556 C19.6,8.9626556 20,9.36099585 20,9.95850622 L20,11.9502075 C20,12.4481328 20,12.846473 19.9,13.3443983 C19.8,13.8423237 19.4,14.1410788 18.9,14.1410788 C18.8,14.1410788 18.8,14.1410788 18.7,14.1410788 C18.2,14.0414938 17.8,13.5435685 17.9,13.0456432 Z" id="path-1"></path>
    </defs>
    <g id="Icon/mic-off" stroke="none" stroke-width="1" fill="none" fill-rule="evenodd">
        <mask id="mask-2" fill="white">
            <use xlink:href="#path-1"></use>
        </mask>
        <use id="Mask" fill="#000000" fill-rule="nonzero" xlink:href="#path-1"></use>
        <g id="Icon-Color" mask="url(#mask-2)" fill="#22212D">
            <rect id="Shape" x="0" y="0" width="24" height="24"></rect>
        </g>
    </g>
</svg>