<?xml version="1.0" encoding="UTF-8"?>
<svg width="24px" height="24px" viewBox="0 0 24 24" version="1.1" xmlns="http://www.w3.org/2000/svg" xmlns:xlink="http://www.w3.org/1999/xlink">
    <title>Icon/mic</title>
    <defs>
        <path d="M12,16 C14.2,16 16,14.2 16,12 L16,4 C16,1.8 14.2,0 12,0 C9.8,0 8,1.8 8,4 L8,12 C8,14.2 9.8,16 12,16 Z M10,4 C10,2.9 10.9,2 12,2 C13.1,2 14,2.9 14,4 L14,12 C14,13.1 13.1,14 12,14 C10.9,14 10,13.1 10,12 L10,4 Z M20,10 L20,12 C20,16.1 16.9,19.4 13,19.9 L13,22 L16,22 C16.6,22 17,22.4 17,23 C17,23.6 16.6,24 16,24 L8,24 C7.4,24 7,23.6 7,23 C7,22.4 7.4,22 8,22 L11,22 L11,19.9 C7.1,19.4 4,16 4,12 L4,10 C4,9.4 4.4,9 5,9 C5.6,9 6,9.4 6,10 L6,12 C6,15.3 8.7,18 12,18 C15.3,18 18,15.3 18,12 L18,10 C18,9.4 18.4,9 19,9 C19.6,9 20,9.4 20,10 Z" id="path-1"></path>
    </defs>
    <g id="Icon/mic" stroke="none" stroke-width="1" fill="none" fill-rule="evenodd">
        <mask id="mask-2" fill="white">
            <use xlink:href="#path-1"></use>
        </mask>
        <use id="Mask" fill="#000000" fill-rule="nonzero" xlink:href="#path-1"></use>
        <g id="Icon-Color" mask="url(#mask-2)" fill="#22212D">
            <rect id="Shape" x="0" y="0" width="24" height="24"></rect>
        </g>
    </g>
</svg>