<?xml version="1.0" encoding="UTF-8"?>
<svg width="24px" height="24px" viewBox="0 0 24 24" version="1.1" xmlns="http://www.w3.org/2000/svg" xmlns:xlink="http://www.w3.org/1999/xlink">
    <title>Icon/minimize</title>
    <defs>
        <path d="M15,6 L15,3 C15,2.4 15.4,2 16,2 C16.6,2 17,2.4 17,3 L17,6 C17,6.6 17.4,7 18,7 L21,7 C21.6,7 22,7.4 22,8 C22,8.6 21.6,9 21,9 L18,9 C16.3,9 15,7.7 15,6 Z M6,15 L3,15 C2.4,15 2,15.4 2,16 C2,16.6 2.4,17 3,17 L6,17 C6.6,17 7,17.4 7,18 L7,21 C7,21.6 7.4,22 8,22 C8.6,22 9,21.6 9,21 L9,18 C9,16.3 7.7,15 6,15 Z M21,15 L18,15 C16.3,15 15,16.3 15,18 L15,21 C15,21.6 15.4,22 16,22 C16.6,22 17,21.6 17,21 L17,18 C17,17.4 17.4,17 18,17 L21,17 C21.6,17 22,16.6 22,16 C22,15.4 21.6,15 21,15 Z M8,2 C7.4,2 7,2.4 7,3 L7,6 C7,6.6 6.6,7 6,7 L3,7 C2.4,7 2,7.4 2,8 C2,8.6 2.4,9 3,9 L6,9 C7.7,9 9,7.7 9,6 L9,3 C9,2.4 8.6,2 8,2 Z" id="path-1"></path>
    </defs>
    <g id="Icon/minimize" stroke="none" stroke-width="1" fill="none" fill-rule="evenodd">
        <mask id="mask-2" fill="white">
            <use xlink:href="#path-1"></use>
        </mask>
        <use id="Mask" fill="#000000" fill-rule="nonzero" xlink:href="#path-1"></use>
        <g id="Icon-Color" mask="url(#mask-2)" fill="#22212D">
            <rect id="Shape" x="0" y="0" width="24" height="24"></rect>
        </g>
    </g>
</svg>