<?xml version="1.0" encoding="UTF-8"?>
<svg width="24px" height="24px" viewBox="0 0 24 24" version="1.1" xmlns="http://www.w3.org/2000/svg" xmlns:xlink="http://www.w3.org/1999/xlink">
    <title>Icon/minimize-2</title>
    <defs>
        <path d="M10.9,13.6 C11,13.7 11,13.9 11,14 L11,20 C11,20.6 10.6,21 10,21 C9.4,21 9,20.6 9,20 L9,16.4 L3.7,21.7 C3.5,21.9 3.3,22 3,22 C2.7,22 2.5,21.9 2.3,21.7 C1.9,21.3 1.9,20.7 2.3,20.3 L7.6,15 L4,15 C3.4,15 3,14.6 3,14 C3,13.4 3.4,13 4,13 L10,13 C10.1,13 10.3,13 10.4,13.1 C10.6,13.2 10.8,13.4 10.9,13.6 Z M21.7,2.3 C21.3,1.9 20.7,1.9 20.3,2.3 L15,7.6 L15,4 C15,3.4 14.6,3 14,3 C13.4,3 13,3.4 13,4 L13,10 C13,10.1 13,10.3 13.1,10.4 C13.2,10.6 13.4,10.8 13.6,10.9 C13.7,11 13.9,11 14,11 L20,11 C20.6,11 21,10.6 21,10 C21,9.4 20.6,9 20,9 L16.4,9 L21.7,3.7 C22.1,3.3 22.1,2.7 21.7,2.3 Z" id="path-1"></path>
    </defs>
    <g id="Icon/minimize-2" stroke="none" stroke-width="1" fill="none" fill-rule="evenodd">
        <mask id="mask-2" fill="white">
            <use xlink:href="#path-1"></use>
        </mask>
        <use id="Mask" fill="#000000" fill-rule="nonzero" xlink:href="#path-1"></use>
        <g id="Icon-Color" mask="url(#mask-2)" fill="#22212D">
            <rect id="Shape" x="0" y="0" width="24" height="24"></rect>
        </g>
    </g>
</svg>