<?xml version="1.0" encoding="UTF-8"?>
<svg width="24px" height="24px" viewBox="0 0 24 24" version="1.1" xmlns="http://www.w3.org/2000/svg" xmlns:xlink="http://www.w3.org/1999/xlink">
    <title>Icon/monitor</title>
    <defs>
        <path d="M20,2 L4,2 C2.3,2 1,3.3 1,5 L1,15 C1,16.7 2.3,18 4,18 L11,18 L11,20 L8,20 C7.4,20 7,20.4 7,21 C7,21.6 7.4,22 8,22 L16,22 C16.6,22 17,21.6 17,21 C17,20.4 16.6,20 16,20 L13,20 L13,18 L20,18 C21.7,18 23,16.7 23,15 L23,5 C23,3.3 21.7,2 20,2 Z M21,15 C21,15.6 20.6,16 20,16 L4,16 C3.4,16 3,15.6 3,15 L3,5 C3,4.4 3.4,4 4,4 L20,4 C20.6,4 21,4.4 21,5 L21,15 Z" id="path-1"></path>
    </defs>
    <g id="Icon/monitor" stroke="none" stroke-width="1" fill="none" fill-rule="evenodd">
        <mask id="mask-2" fill="white">
            <use xlink:href="#path-1"></use>
        </mask>
        <use id="Mask" fill="#000000" fill-rule="nonzero" xlink:href="#path-1"></use>
        <g id="Icon-Color" mask="url(#mask-2)" fill="#22212D">
            <rect id="Shape" x="0" y="0" width="24" height="24"></rect>
        </g>
    </g>
</svg>