<?xml version="1.0" encoding="UTF-8"?>
<svg width="24px" height="24px" viewBox="0 0 24 24" version="1.1" xmlns="http://www.w3.org/2000/svg" xmlns:xlink="http://www.w3.org/1999/xlink">
    <title>Icon/moon</title>
    <defs>
        <path d="M21.4985507,11.9497487 C21.1976811,11.7487437 20.6962318,11.7487437 20.3953623,12.0502513 C18.2892752,13.6582915 15.3808694,13.6582915 13.2747823,12.0502513 C11.9710142,11.0452261 11.1686953,9.63819095 10.8678257,8.13065327 C10.667246,6.52261307 11.0684055,4.91457286 11.9710142,3.6080402 C12.1715939,3.30653266 12.2718838,2.90452261 12.071304,2.50251256 C11.8707243,2.20100503 11.4695649,2 11.0684055,2 C6.25449226,2.40201005 2.44347765,6.22110553 2.04231822,11.0452261 C1.54086893,16.5728643 5.55246326,21.4974874 11.0684055,22 C11.369275,22 11.6701446,22 11.9710142,22 C14.2776809,22 16.5843477,21.1959799 18.3895651,19.6884422 C20.4956521,17.9798995 21.6991304,15.5678392 22,12.8542714 C22,12.5527638 21.7994203,12.1507538 21.4985507,11.9497487 Z M17.1860868,18.1809045 C15.5814491,19.5879397 13.4753621,20.1909548 11.369275,19.9899497 C6.95652127,19.5879397 3.74724581,15.6683417 4.14840524,11.2462312 C4.44927482,8.13065327 6.55536184,5.41708543 9.36347787,4.4120603 C8.86202858,5.71859296 8.66144886,7.02512563 8.86202858,8.33165829 C9.16289815,10.4422111 10.2660866,12.3517588 12.071304,13.5577889 C14.2776809,15.1658291 17.0857969,15.5678392 19.5930434,14.6633166 C19.0915941,16.0703518 18.2892752,17.2763819 17.1860868,18.1809045 Z" id="path-1"></path>
    </defs>
    <g id="Icon/moon" stroke="none" stroke-width="1" fill="none" fill-rule="evenodd">
        <mask id="mask-2" fill="white">
            <use xlink:href="#path-1"></use>
        </mask>
        <use id="Mask" fill="#000000" fill-rule="nonzero" xlink:href="#path-1"></use>
        <g id="Icon-Color" mask="url(#mask-2)" fill="#22212D">
            <rect id="Shape" x="0" y="0" width="24" height="24"></rect>
        </g>
    </g>
</svg>