<?xml version="1.0" encoding="UTF-8"?>
<svg width="24px" height="24px" viewBox="0 0 24 24" version="1.1" xmlns="http://www.w3.org/2000/svg" xmlns:xlink="http://www.w3.org/1999/xlink">
    <title>Icon/more-horizontal</title>
    <defs>
        <path d="M14,12 C14,13.1 13.1,14 12,14 C10.9,14 10,13.1 10,12 C10,10.9 10.9,10 12,10 C13.1,10 14,10.9 14,12 Z M19,10 C17.9,10 17,10.9 17,12 C17,13.1 17.9,14 19,14 C20.1,14 21,13.1 21,12 C21,10.9 20.1,10 19,10 Z M5,10 C3.9,10 3,10.9 3,12 C3,13.1 3.9,14 5,14 C6.1,14 7,13.1 7,12 C7,10.9 6.1,10 5,10 Z" id="path-1"></path>
    </defs>
    <g id="Icon/more-horizontal" stroke="none" stroke-width="1" fill="none" fill-rule="evenodd">
        <mask id="mask-2" fill="white">
            <use xlink:href="#path-1"></use>
        </mask>
        <use id="Shape" fill="#000000" fill-rule="nonzero" xlink:href="#path-1"></use>
        <g id="Icon-Color" mask="url(#mask-2)" fill="#22212D">
            <rect id="Shape" x="0" y="0" width="24" height="24"></rect>
        </g>
    </g>
</svg>