<?xml version="1.0" encoding="UTF-8"?>
<svg width="24px" height="24px" viewBox="0 0 24 24" version="1.1" xmlns="http://www.w3.org/2000/svg" xmlns:xlink="http://www.w3.org/1999/xlink">
    <title>Icon/move</title>
    <defs>
        <path d="M22.7243736,12.6882821 L19.7175399,15.6916951 C19.5170843,15.8919226 19.3166287,15.9920364 19.0159453,15.9920364 C18.715262,15.9920364 18.5148064,15.8919226 18.3143508,15.6916951 C17.9134396,15.29124 17.9134396,14.6905575 18.3143508,14.2901024 L19.6173121,12.9886234 L13.0022779,12.9886234 L13.0022779,19.596132 L14.3052392,18.294653 C14.7061503,17.894198 15.3075171,17.894198 15.7084282,18.294653 C16.1093394,18.6951081 16.1093394,19.2957907 15.7084282,19.6962457 L12.7015945,22.6996587 C12.6013667,22.7997725 12.501139,22.8998862 12.4009112,22.8998862 C12.3006834,23 12.1002278,23 12,23 C11.8997722,23 11.6993166,23 11.5990888,22.8998862 C11.498861,22.7997725 11.3986333,22.7997725 11.2984055,22.6996587 L8.29157175,19.6962457 C7.89066059,19.2957907 7.89066059,18.6951081 8.29157175,18.294653 C8.69248292,17.894198 9.29384966,17.894198 9.69476082,18.294653 L10.9977221,19.596132 L10.9977221,12.9886234 L4.38268793,12.9886234 L5.6856492,14.2901024 C6.08656036,14.6905575 6.08656036,15.29124 5.6856492,15.6916951 C5.48519362,15.8919226 5.28473804,15.9920364 4.98405467,15.9920364 C4.6833713,15.9920364 4.48291572,15.8919226 4.28246014,15.6916951 L1.27562642,12.6882821 C1.17539863,12.5881684 1.07517084,12.4880546 1.07517084,12.3879408 C0.974943052,12.1877133 0.974943052,11.887372 1.07517084,11.5870307 C1.17539863,11.486917 1.17539863,11.3868032 1.27562642,11.2866894 L4.28246014,8.28327645 C4.6833713,7.88282139 5.28473804,7.88282139 5.6856492,8.28327645 C6.08656036,8.68373151 6.08656036,9.28441411 5.6856492,9.68486917 L4.38268793,10.9863481 L10.9977221,10.9863481 L10.9977221,4.37883959 L9.69476082,5.68031854 C9.29384966,6.08077361 8.69248292,6.08077361 8.29157175,5.68031854 C7.89066059,5.27986348 7.89066059,4.67918089 8.29157175,4.27872582 L11.2984055,1.27531286 C11.3986333,1.17519909 11.498861,1.07508532 11.5990888,1.07508532 C11.7995444,0.974971559 12.1002278,0.974971559 12.4009112,1.07508532 C12.501139,1.17519909 12.6013667,1.17519909 12.7015945,1.27531286 L15.7084282,4.27872582 C16.1093394,4.67918089 16.1093394,5.27986348 15.7084282,5.68031854 C15.5079727,5.88054608 15.3075171,5.98065984 15.0068337,5.98065984 C14.7061503,5.98065984 14.5056948,5.88054608 14.3052392,5.68031854 L13.0022779,4.37883959 L13.0022779,10.9863481 L19.6173121,10.9863481 L18.3143508,9.68486917 C17.9134396,9.28441411 17.9134396,8.68373151 18.3143508,8.28327645 C18.715262,7.88282139 19.3166287,7.88282139 19.7175399,8.28327645 L22.7243736,11.2866894 C22.8246014,11.3868032 22.9248292,11.486917 22.9248292,11.5870307 C23.0250569,11.7872582 23.0250569,12.0875995 22.9248292,12.3879408 C22.9248292,12.4880546 22.8246014,12.5881684 22.7243736,12.6882821 Z" id="path-1"></path>
    </defs>
    <g id="Icon/move" stroke="none" stroke-width="1" fill="none" fill-rule="evenodd">
        <mask id="mask-2" fill="white">
            <use xlink:href="#path-1"></use>
        </mask>
        <use id="Mask" fill="#000000" fill-rule="nonzero" xlink:href="#path-1"></use>
        <g id="Icon-Color" mask="url(#mask-2)" fill="#22212D">
            <rect id="Shape" x="0" y="0" width="24" height="24"></rect>
        </g>
    </g>
</svg>