<?xml version="1.0" encoding="UTF-8"?>
<svg width="24px" height="24px" viewBox="0 0 24 24" version="1.1" xmlns="http://www.w3.org/2000/svg" xmlns:xlink="http://www.w3.org/1999/xlink">
    <title>Icon/music</title>
    <defs>
        <path d="M21.6,2.2 C21.4,2 21.1,2 20.8,2 L8.8,4 C8.4,4.1 8,4.5 8,5 L8,16 L5,16 C3.3,16 2,17.3 2,19 C2,20.7 3.3,22 5,22 L7,22 C8.7,22 10,20.7 10,19 L10,17 L10,5.8 L20,4.1 L20,14 L17,14 C15.3,14 14,15.3 14,17 C14,18.7 15.3,20 17,20 L19,20 C20.7,20 22,18.7 22,17 L22,15 L22,3 C22,2.7 21.9,2.4 21.6,2.2 Z M8,19 C8,19.6 7.6,20 7,20 L5,20 C4.4,20 4,19.6 4,19 C4,18.4 4.4,18 5,18 L8,18 L8,19 Z M20,17 C20,17.6 19.6,18 19,18 L17,18 C16.4,18 16,17.6 16,17 C16,16.4 16.4,16 17,16 L20,16 L20,17 Z" id="path-1"></path>
    </defs>
    <g id="Icon/music" stroke="none" stroke-width="1" fill="none" fill-rule="evenodd">
        <mask id="mask-2" fill="white">
            <use xlink:href="#path-1"></use>
        </mask>
        <use id="Mask" fill="#000000" fill-rule="nonzero" xlink:href="#path-1"></use>
        <g id="Icon-Color" mask="url(#mask-2)" fill="#22212D">
            <rect id="Shape" x="0" y="0" width="24" height="24"></rect>
        </g>
    </g>
</svg>