<?xml version="1.0" encoding="UTF-8"?>
<svg width="24px" height="24px" viewBox="0 0 24 24" version="1.1" xmlns="http://www.w3.org/2000/svg" xmlns:xlink="http://www.w3.org/1999/xlink">
    <title>Icon/navigation</title>
    <defs>
        <path d="M21.7024608,2.30255273 C21.4024251,2.00403186 21.0023776,1.9045249 20.60233,2.10353882 L1.60007133,11.059165 C1.20002378,11.258179 1,11.6562068 1,12.0542346 C1,12.4522625 1.30003566,12.8502903 1.8000951,12.9497972 L9.20097481,14.8404294 L11.1012007,22.2039443 C11.2012126,22.6019722 11.6012601,22.900493 12.0013077,23 C12.0013077,23 12.1013196,23 12.1013196,23 C12.5013671,23 12.8014028,22.8009861 13.0014265,22.4029583 L22.0024965,3.49663623 C22.1025083,2.99910144 22.0024965,2.60107361 21.7024608,2.30255273 Z M12.3013433,18.9202147 L11.0011888,13.7458529 C10.9011769,13.3478251 10.6011412,13.1488112 10.3011056,13.0493042 L5.00047552,11.6562068 L18.9021279,5.08874756 L12.3013433,18.9202147 Z" id="path-1"></path>
    </defs>
    <g id="Icon/navigation" stroke="none" stroke-width="1" fill="none" fill-rule="evenodd">
        <mask id="mask-2" fill="white">
            <use xlink:href="#path-1"></use>
        </mask>
        <use id="Mask" fill="#000000" fill-rule="nonzero" xlink:href="#path-1"></use>
        <g id="Icon-Color" mask="url(#mask-2)" fill="#22212D">
            <rect id="Shape" x="0" y="0" width="24" height="24"></rect>
        </g>
    </g>
</svg>