<?xml version="1.0" encoding="UTF-8"?>
<svg width="24px" height="24px" viewBox="0 0 24 24" version="1.1" xmlns="http://www.w3.org/2000/svg" xmlns:xlink="http://www.w3.org/1999/xlink">
    <title>Icon/navigation-2</title>
    <defs>
        <path d="M19.8996078,21.6631198 L12.8721569,2.69868953 C12.7717647,2.29943837 12.3701961,2 11.9686275,2 C11.5670588,2 11.1654902,2.29943837 11.065098,2.69868953 L4.03764706,21.6631198 C3.9372549,22.0623709 4.03764706,22.4616221 4.33882353,22.7610605 C4.64,23.0604988 5.14196078,23.0604988 5.44313725,22.8608733 L11.9686275,19.1678 L18.4941176,22.8608733 C18.694902,22.960686 18.7952941,22.960686 18.9960784,22.960686 C19.1968627,22.960686 19.4980392,22.8608733 19.5984314,22.7610605 C20,22.4616221 20.1003922,21.9625581 19.8996078,21.6631198 Z M12.4705882,17.0717314 C12.2698039,16.9719186 12.1694118,16.9719186 11.9686275,16.9719186 C11.7678431,16.9719186 11.667451,16.9719186 11.4666667,17.0717314 L6.84862745,19.666864 L11.9686275,5.89269884 L17.0886275,19.7666767 L12.4705882,17.0717314 Z" id="path-1"></path>
    </defs>
    <g id="Icon/navigation-2" stroke="none" stroke-width="1" fill="none" fill-rule="evenodd">
        <mask id="mask-2" fill="white">
            <use xlink:href="#path-1"></use>
        </mask>
        <use id="Mask" fill="#000000" fill-rule="nonzero" xlink:href="#path-1"></use>
        <g id="Icon-Color" mask="url(#mask-2)" fill="#22212D">
            <rect id="Shape" x="0" y="0" width="24" height="24"></rect>
        </g>
    </g>
</svg>