<?xml version="1.0" encoding="UTF-8"?>
<svg width="24px" height="24px" viewBox="0 0 24 24" version="1.1" xmlns="http://www.w3.org/2000/svg" xmlns:xlink="http://www.w3.org/1999/xlink">
    <title>Icon/octagon</title>
    <defs>
        <path d="M22.60181,7.2 L16.7285068,1.3 C16.6289593,1.1 16.3303167,1 16.0316742,1 L7.86877828,1 C7.57013575,1 7.27149321,1.1 7.1719457,1.3 L1.29864253,7.2 C1.09954751,7.3 1,7.6 1,7.9 L1,16.2 C1,16.5 1.09954751,16.7 1.29864253,16.9 L7.1719457,22.8 C7.27149321,22.9 7.57013575,23 7.86877828,23 L16.1312217,23 C16.4298643,23 16.6289593,22.9 16.8280543,22.7 L22.7013575,16.8 C22.9004525,16.6 23,16.4 23,16.1 L23,7.9 C22.9004525,7.6 22.800905,7.3 22.60181,7.2 Z M20.9095023,15.7 L15.6334842,21 L8.26696833,21 L2.99095023,15.7 L2.99095023,8.3 L8.26696833,3 L15.7330317,3 L20.9095023,8.3 L20.9095023,15.7 Z" id="path-1"></path>
    </defs>
    <g id="Icon/octagon" stroke="none" stroke-width="1" fill="none" fill-rule="evenodd">
        <mask id="mask-2" fill="white">
            <use xlink:href="#path-1"></use>
        </mask>
        <use id="Mask" fill="#000000" fill-rule="nonzero" xlink:href="#path-1"></use>
        <g id="Icon-Color" mask="url(#mask-2)" fill="#22212D">
            <rect id="Shape" x="0" y="0" width="24" height="24"></rect>
        </g>
    </g>
</svg>