<?xml version="1.0" encoding="UTF-8"?>
<svg width="24px" height="24px" viewBox="0 0 24 24" version="1.1" xmlns="http://www.w3.org/2000/svg" xmlns:xlink="http://www.w3.org/1999/xlink">
    <title>Icon/package</title>
    <defs>
        <path d="M21.3,5.22649573 L13.3,1.29487179 C13.3,1.29487179 13.3,1.29487179 13.3,1.29487179 C12.5,0.901709402 11.5,0.901709402 10.6,1.29487179 L2.6,5.22649573 C1.6,5.71794872 1,6.7008547 1,7.78205128 L1,17.1196581 C1,18.2008547 1.6,19.2820513 2.7,19.7735043 L10.7,23.7051282 C11.1,23.9017094 11.6,24 12,24 C12.5,24 12.9,23.9017094 13.3,23.7051282 L21.3,19.7735043 C22.3,19.2820513 23,18.2991453 23,17.1196581 L23,7.78205128 C23,6.7008547 22.4,5.71794872 21.3,5.22649573 Z M11.6,2.96581197 C11.7,2.86752137 11.9,2.86752137 12,2.86752137 C12.2,2.86752137 12.3,2.86752137 12.4,2.96581197 L19.8,6.6025641 L17,7.97863248 L9.2,4.14529915 L11.6,2.96581197 Z M11,21.7393162 L3.5,18.1025641 C3.2,17.9059829 3,17.5128205 3,17.2179487 L3,8.17521368 L11,12.1068376 L11,21.7393162 Z M4.2,6.6025641 L7,5.22649573 L14.8,9.05982906 L12,10.4358974 L4.2,6.6025641 Z M21,17.2179487 C21,17.6111111 20.8,17.9059829 20.4,18.1025641 L13,21.7393162 L13,12.1068376 L21,8.17521368 L21,17.2179487 Z" id="path-1"></path>
    </defs>
    <g id="Icon/package" stroke="none" stroke-width="1" fill="none" fill-rule="evenodd">
        <mask id="mask-2" fill="white">
            <use xlink:href="#path-1"></use>
        </mask>
        <use id="Mask" fill="#000000" fill-rule="nonzero" xlink:href="#path-1"></use>
        <g id="Icon-Color" mask="url(#mask-2)" fill="#22212D">
            <rect id="Shape" x="0" y="0" width="24" height="24"></rect>
        </g>
    </g>
</svg>