<?xml version="1.0" encoding="UTF-8"?>
<svg width="24px" height="24px" viewBox="0 0 24 24" version="1.1" xmlns="http://www.w3.org/2000/svg" xmlns:xlink="http://www.w3.org/1999/xlink">
    <title>Icon/paperclip</title>
    <defs>
        <path d="M22.6367688,12.1946903 L13.3163146,21.0530973 C11.8823985,22.4159292 10.0387922,23 8.19518584,23 C6.3515795,23 4.50797317,22.3185841 3.07405713,21.0530973 C0.308647624,18.4247788 0.308647624,14.0442478 3.07405713,11.4159292 L12.496934,2.46017699 C13.4187371,1.5840708 14.7502306,1 16.0817241,1 C17.4132175,1 18.744711,1.48672566 19.6665142,2.46017699 C21.7149656,4.40707965 21.7149656,7.42477876 19.6665142,9.37168142 L10.2436373,18.3274336 C9.01456643,19.4955752 7.06853752,19.4955752 5.94188921,18.3274336 C5.42977634,17.840708 5.12250861,17.0619469 5.12250861,16.2831858 C5.12250861,15.5044248 5.42977634,14.7256637 6.04431178,14.2389381 L14.7502306,5.96460177 C15.1599209,5.57522124 15.7744563,5.57522124 16.1841466,5.96460177 C16.5938369,6.3539823 16.5938369,6.9380531 16.1841466,7.32743363 L7.47822782,15.6017699 C7.27338267,15.7964602 7.1709601,15.9911504 7.1709601,16.2831858 C7.1709601,16.5752212 7.27338267,16.7699115 7.47822782,16.9646018 C7.88791812,17.3539823 8.50245356,17.3539823 8.91214386,16.9646018 L18.3350207,8.00884956 C19.5640916,6.84070796 19.5640916,4.99115044 18.3350207,3.92035398 C17.2083724,2.84955752 15.1599209,2.84955752 14.0332726,3.92035398 L4.61039574,12.8761062 C2.56194426,14.8230088 2.56194426,17.840708 4.61039574,19.7876106 C6.65884723,21.7345133 9.83394703,21.7345133 11.8823985,19.7876106 L21.3052753,10.8318584 C21.7149656,10.4424779 22.3295011,10.4424779 22.7391914,10.8318584 C23.1488817,11.2212389 23.0464591,11.8053097 22.6367688,12.1946903 Z" id="path-1"></path>
    </defs>
    <g id="Icon/paperclip" stroke="none" stroke-width="1" fill="none" fill-rule="evenodd">
        <mask id="mask-2" fill="white">
            <use xlink:href="#path-1"></use>
        </mask>
        <use id="Mask" fill="#000000" fill-rule="nonzero" xlink:href="#path-1"></use>
        <g id="Icon-Color" mask="url(#mask-2)" fill="#22212D">
            <rect id="Shape" x="0" y="0" width="24" height="24"></rect>
        </g>
    </g>
</svg>