<?xml version="1.0" encoding="UTF-8"?>
<svg width="24px" height="24px" viewBox="0 0 24 24" version="1.1" xmlns="http://www.w3.org/2000/svg" xmlns:xlink="http://www.w3.org/1999/xlink">
    <title>Icon/pause-circle</title>
    <defs>
        <path d="M12,1 C5.9,1 1,5.9 1,12 C1,18.1 5.9,23 12,23 C18.1,23 23,18.1 23,12 C23,5.9 18.1,1 12,1 Z M12,21 C7,21 3,17 3,12 C3,7 7,3 12,3 C17,3 21,7 21,12 C21,17 17,21 12,21 Z M11,9 L11,15 C11,15.6 10.6,16 10,16 C9.4,16 9,15.6 9,15 L9,9 C9,8.4 9.4,8 10,8 C10.6,8 11,8.4 11,9 Z M15,9 L15,15 C15,15.6 14.6,16 14,16 C13.4,16 13,15.6 13,15 L13,9 C13,8.4 13.4,8 14,8 C14.6,8 15,8.4 15,9 Z" id="path-1"></path>
    </defs>
    <g id="Icon/pause-circle" stroke="none" stroke-width="1" fill="none" fill-rule="evenodd">
        <mask id="mask-2" fill="white">
            <use xlink:href="#path-1"></use>
        </mask>
        <use id="Mask" fill="#000000" fill-rule="nonzero" xlink:href="#path-1"></use>
        <g id="Icon-Color" mask="url(#mask-2)" fill="#22212D">
            <rect id="Shape" x="0" y="0" width="24" height="24"></rect>
        </g>
    </g>
</svg>