<?xml version="1.0" encoding="UTF-8"?>
<svg width="24px" height="24px" viewBox="0 0 24 24" version="1.1" xmlns="http://www.w3.org/2000/svg" xmlns:xlink="http://www.w3.org/1999/xlink">
    <title>Icon/pause</title>
    <defs>
        <path d="M10,3 L6,3 C5.4,3 5,3.4 5,4 L5,20 C5,20.6 5.4,21 6,21 L10,21 C10.6,21 11,20.6 11,20 L11,4 C11,3.4 10.6,3 10,3 Z M9,19 L7,19 L7,5 L9,5 L9,19 Z M18,3 L14,3 C13.4,3 13,3.4 13,4 L13,20 C13,20.6 13.4,21 14,21 L18,21 C18.6,21 19,20.6 19,20 L19,4 C19,3.4 18.6,3 18,3 Z M17,19 L15,19 L15,5 L17,5 L17,19 Z" id="path-1"></path>
    </defs>
    <g id="Icon/pause" stroke="none" stroke-width="1" fill="none" fill-rule="evenodd">
        <mask id="mask-2" fill="white">
            <use xlink:href="#path-1"></use>
        </mask>
        <use id="Mask" fill="#000000" fill-rule="nonzero" xlink:href="#path-1"></use>
        <g id="Icon-Color" mask="url(#mask-2)" fill="#22212D">
            <rect id="Shape" x="0" y="0" width="24" height="24"></rect>
        </g>
    </g>
</svg>