<?xml version="1.0" encoding="UTF-8"?>
<svg width="24px" height="24px" viewBox="0 0 24 24" version="1.1" xmlns="http://www.w3.org/2000/svg" xmlns:xlink="http://www.w3.org/1999/xlink">
    <title>Icon/Payment-Discover</title>
    <g id="Icon/Payment-Discover" stroke="none" stroke-width="1" fill="none" fill-rule="evenodd">
        <g id="Group" transform="translate(0.000000, 4.000000)" fill-rule="nonzero">
            <path d="M23.9016393,13.7704918 C23.9016393,14.852459 23.0163934,15.7377049 21.9344262,15.7377049 L2.26229508,15.7377049 C1.18032787,15.7377049 0.295081967,14.852459 0.295081967,13.7704918 L0.295081967,1.96721311 C0.295081967,0.885245902 1.18032787,0 2.26229508,0 L21.9344262,0 C23.0163934,0 23.9016393,0.885245902 23.9016393,1.96721311 L23.9016393,13.7704918 Z" id="Path" fill="#FFF9F0"></path>
            <g transform="translate(3.934426, 6.295082)">
                <path d="M2.31540984,1.55134426 C2.31540984,1.94557377 2.20327869,2.24734426 1.97940984,2.45704918 C1.7547541,2.66636066 1.43055738,2.77140984 1.00681967,2.77140984 L0.32852459,2.77140984 L0.32852459,0.377311475 L1.08,0.377311475 C1.47108197,0.377311475 1.77442623,0.480786885 1.99003279,0.68695082 C2.20721311,0.893114754 2.31540984,1.1815082 2.31540984,1.55134426 Z M1.78819672,1.56472131 C1.78819672,1.0504918 1.56078689,0.79357377 1.10754098,0.79357377 L0.836852459,0.79357377 L0.836852459,2.35200044 L1.05481967,2.35200044 C1.54386885,2.35239344 1.78819672,2.08957377 1.78819672,1.56472131 Z" id="Shape" fill="#414042"></path>
                <polygon id="Path" fill="#414042" points="2.74465574 2.77140984 2.74465574 0.377311475 3.25219672 0.377311475 3.25219672 2.77140984"></polygon>
                <path d="M5.26859016,2.1064918 C5.26859016,2.32327869 5.19108197,2.49285246 5.03488525,2.61757377 C4.87908197,2.74190164 4.66308197,2.80485246 4.38570492,2.80485246 C4.1307541,2.80485246 3.90413115,2.75645902 3.70740984,2.66085246 L3.70740984,2.18911475 C3.86911475,2.26190164 4.00603279,2.31186885 4.11777049,2.34216393 C4.2295082,2.37127869 4.33219672,2.38583607 4.42504918,2.38583607 C4.536,2.38583607 4.62177049,2.36419672 4.68118033,2.32209836 C4.73940984,2.28 4.7704918,2.21586885 4.7704918,2.13245902 C4.7704918,2.08563934 4.7575082,2.04393443 4.7307541,2.00734426 C4.70518033,1.97036066 4.66622951,1.93495082 4.61508197,1.9015082 C4.56432787,1.86806557 4.46085246,1.81337705 4.30504918,1.73940984 C4.15908197,1.67055738 4.04970492,1.60406557 3.9757377,1.54111475 C3.90216393,1.47816393 3.84432787,1.40459016 3.80065574,1.32 C3.75698361,1.23540984 3.73534426,1.13704918 3.73534426,1.02491803 C3.73534426,0.813245902 3.80695082,0.646819672 3.95055738,0.525639344 C4.09455738,0.404065574 4.29245902,0.343868852 4.54622951,0.343868852 C4.67055738,0.343868852 4.78937705,0.35842623 4.90229508,0.387934426 C5.01521311,0.41704918 5.13363934,0.459147541 5.25678689,0.512262295 L5.09311475,0.906885246 C4.9652459,0.854557377 4.85901639,0.817180328 4.77560656,0.797114754 C4.69180328,0.776655738 4.60957377,0.766032787 4.52931148,0.766032787 C4.43291803,0.766032787 4.35895082,0.788065574 4.30819672,0.833311475 C4.25665574,0.878163934 4.23108197,0.936393443 4.23108197,1.00839344 C4.23108197,1.0532459 4.24131148,1.09180328 4.26216393,1.12563934 C4.28301639,1.15908197 4.31606557,1.19095082 4.36131148,1.22203279 C4.40655738,1.25311475 4.51436066,1.30898361 4.68314754,1.39003279 C4.90662295,1.49704918 5.06006557,1.60445902 5.14347541,1.71186885 C5.22688525,1.8184918 5.26859016,1.95029508 5.26859016,2.1064918 Z" id="Path" fill="#414042"></path>
                <path d="M6.71921311,0.765245902 C6.528,0.765245902 6.38045902,0.837639344 6.27540984,0.980459016 C6.16996721,1.12406557 6.11842623,1.32472131 6.11842623,1.58085246 C6.11842623,2.11436066 6.31868852,2.3815082 6.71921311,2.3815082 C6.88760656,2.3815082 7.09022951,2.34059016 7.33022951,2.25560656 L7.33022951,2.68131148 C7.1335082,2.76354098 6.91396721,2.80406557 6.67160656,2.80406557 C6.32340984,2.80406557 6.05704918,2.69783607 5.87252459,2.48655738 C5.688,2.27567213 5.59593443,1.97232787 5.59593443,1.57691803 C5.59593443,1.32786885 5.64157377,1.10990164 5.73245902,0.923016393 C5.82255738,0.73495082 5.95318033,0.592131148 6.1227541,0.492196721 C6.29311475,0.392262295 6.49180328,0.342295082 6.72,0.342295082 C6.95252459,0.342295082 7.18662295,0.398557377 7.42072131,0.511081967 L7.25704918,0.923803279 C7.16695082,0.881311475 7.07763934,0.844327869 6.98636066,0.812459016 C6.89547541,0.780590164 6.80655738,0.765245902 6.71921311,0.765245902 Z" id="Path" fill="#414042"></path>
                <path d="M11.3937049,0.377311475 L11.9063607,0.377311475 L11.0931148,2.77140984 L10.539541,2.77140984 L9.72747541,0.377311475 L10.2405246,0.377311475 L10.6910164,1.80196721 C10.7158033,1.88655738 10.7425574,1.9837377 10.768918,2.0962623 C10.7948852,2.20839344 10.8118033,2.28511475 10.8188852,2.32918033 C10.8306885,2.22885246 10.8716066,2.05416393 10.9416393,1.80196721 L11.3937049,0.377311475 Z" id="Path" fill="#414042"></path>
                <polygon id="Path" fill="#414042" points="13.5863607 2.77140984 12.2073443 2.77140984 12.2073443 0.377311475 13.5863607 0.377311475 13.5863607 0.79357377 12.7148852 0.79357377 12.7148852 1.31921311 13.5261639 1.31921311 13.5261639 1.73508197 12.7148852 1.73508197 12.7148852 2.352 13.5863607 2.352"></polygon>
                <path d="M14.5935738,1.85272131 L14.5935738,2.77140984 L14.0860328,2.77140984 L14.0860328,0.377311475 L14.7836066,0.377311475 C15.1089836,0.377311475 15.349377,0.436327869 15.5059672,0.555147541 C15.6617705,0.67357377 15.7400656,0.852983607 15.7400656,1.09455738 C15.7400656,1.23501639 15.7011148,1.36091803 15.624,1.47029508 C15.5464918,1.58006557 15.4367213,1.66622951 15.295082,1.72839344 C15.655082,2.26583607 15.8895738,2.61403279 15.9989508,2.77101639 L15.435541,2.77101639 L14.8638689,1.85232787 L14.5935738,1.85272131 L14.5935738,1.85272131 Z M14.5935738,1.44 L14.7576393,1.44 C14.9177705,1.44 15.0365902,1.4132459 15.112918,1.36013115 C15.1888525,1.30622951 15.2274098,1.22203279 15.2274098,1.10754098 C15.2274098,0.993836066 15.1880656,0.91357377 15.1101639,0.865180328 C15.0322623,0.816786885 14.9114754,0.793180328 14.7478033,0.793180328 L14.5927869,0.793180328 L14.5935738,1.44 L14.5935738,1.44 Z" id="Shape" fill="#414042"></path>
                <circle id="Oval" fill="#E6A124" cx="8.58334426" cy="1.57455738" r="1.1972459"></circle>
            </g>
            <path d="M23.9016393,10.8196721 L23.9016393,13.7704918 C23.9016393,14.0411803 23.8461639,14.2992787 23.7462295,14.5341639 C23.6459016,14.7690492 23.5019016,14.9815082 23.3236721,15.1597377 C23.1454426,15.3379672 22.933377,15.4819672 22.6980984,15.5822951 C22.4624262,15.6822295 22.2047213,15.7377049 21.9344262,15.7377049 L13.0988852,15.7377049 L4.26334426,15.7377049 L23.9016393,10.8196721 Z" id="Path" fill="#E6A124"></path>
            <path d="M23.3236721,0.577967213 C23.6801311,0.93442623 23.9016393,1.42622951 23.9016393,1.96721311 L23.9016393,7.86885246 L23.9016393,13.7704918 C23.9016393,14.3114754 23.6805246,14.8032787 23.3236721,15.1597377 C22.9668197,15.5161967 22.4754098,15.7377049 21.9344262,15.7377049 L12.0983607,15.7377049 L2.26229508,15.7377049 C1.72131148,15.7377049 1.2295082,15.5165902 0.87304918,15.1597377 L23.3236721,0.577967213 Z" id="Path" fill="#FFFFFF" opacity="0.08"></path>
            <path d="M21.9344262,0.393442623 C22.8023607,0.393442623 23.5081967,1.09927869 23.5081967,1.96721311 L23.5081967,13.7704918 C23.5081967,14.6384262 22.8023607,15.3442623 21.9344262,15.3442623 L2.26229508,15.3442623 C1.39436066,15.3442623 0.68852459,14.6384262 0.68852459,13.7704918 L0.68852459,1.96721311 C0.68852459,1.09927869 1.39436066,0.393442623 2.26229508,0.393442623 L21.9344262,0.393442623 L21.9344262,0.393442623 Z M21.9344262,0 L2.26229508,0 C1.18032787,0 0.295081967,0.885245902 0.295081967,1.96721311 L0.295081967,13.7704918 C0.295081967,14.852459 1.18032787,15.7377049 2.26229508,15.7377049 L21.9344262,15.7377049 C23.0163934,15.7377049 23.9016393,14.852459 23.9016393,13.7704918 L23.9016393,1.96721311 C23.9016393,0.885245902 23.0163934,0 21.9344262,0 L21.9344262,0 Z" id="Shape" fill="#E7A835"></path>
        </g>
    </g>
</svg>