<?xml version="1.0" encoding="UTF-8"?>
<svg width="24px" height="24px" viewBox="0 0 24 24" version="1.1" xmlns="http://www.w3.org/2000/svg" xmlns:xlink="http://www.w3.org/1999/xlink">
    <title>Icon/Payment-Amex</title>
    <g id="Icon/Payment-Amex" stroke="none" stroke-width="1" fill="none" fill-rule="evenodd">
        <g id="Group" transform="translate(0.000000, 4.000000)" fill-rule="nonzero">
            <g>
                <path d="M23.9016393,13.7704918 C23.9016393,14.852459 23.0163934,15.7377049 21.9344262,15.7377049 L2.26229508,15.7377049 C1.18032787,15.7377049 0.295081967,14.852459 0.295081967,13.7704918 L0.295081967,1.96721311 C0.295081967,0.885245902 1.18032787,0 2.26229508,0 L21.9344262,0 C23.0163934,0 23.9016393,0.885245902 23.9016393,1.96721311 L23.9016393,13.7704918 Z" id="Path" fill="#006FD0"></path>
                <g transform="translate(4.327869, 5.901639)" fill="#FFFFFF">
                    <path d="M2.87409836,3.9037377 L2.69429508,3.21914754 L1.50806557,3.21914754 L1.32314754,3.9037377 L0.239213115,3.9037377 L1.43055738,0.237639344 L2.74662295,0.237639344 L3.95252459,3.9037377 L2.87409836,3.9037377 Z M2.48970492,2.40983607 L2.33232787,1.81062295 C2.29534426,1.67763934 2.25127869,1.50570492 2.19855738,1.29403279 C2.14622951,1.08236066 2.11160656,0.930885246 2.09468852,0.839606557 C2.08013115,0.924590164 2.05022951,1.0642623 2.00616393,1.25901639 C1.96209836,1.45377049 1.86413115,1.83777049 1.71265574,2.41022951 L2.48970492,2.40983607 L2.48970492,2.40983607 Z" id="Shape"></path>
                    <path d="M5.93862295,3.9037377 L5.19186885,1.27357377 L5.16944262,1.27357377 C5.20445902,1.72131148 5.22177049,2.06911475 5.22177049,2.31777049 L5.22177049,3.90334426 L4.34793443,3.90334426 L4.34793443,0.251803279 L5.6612459,0.251803279 L6.42334426,2.84459016 L6.44340984,2.84459016 L7.18977049,0.251803279 L8.50622951,0.251803279 L8.50622951,3.90334426 L7.59934426,3.90334426 L7.59934426,2.30242623 C7.59934426,2.21940984 7.60091803,2.12734426 7.60327869,2.02544262 C7.60563934,1.92354098 7.61704918,1.67488525 7.63711475,1.27868852 L7.61468852,1.27868852 L6.87777049,3.9037377 L5.93862295,3.9037377 L5.93862295,3.9037377 Z" id="Path"></path>
                    <polygon id="Path" points="11.3582951 3.9037377 9.19042623 3.9037377 9.19042623 0.252196721 11.3582951 0.252196721 11.3582951 1.04419672 10.1763934 1.04419672 10.1763934 1.61862295 11.2705574 1.61862295 11.2705574 2.41022951 10.1763934 2.41022951 10.1763934 3.09954098 11.3582951 3.09954098"></polygon>
                    <polygon id="Path" points="15.2868197 3.9037377 14.1458361 3.9037377 13.4333115 2.7627541 12.7294426 3.9037377 11.6128525 3.9037377 12.8238689 2.03567213 11.6848525 0.252196721 12.7790164 0.252196721 13.4384262 1.38098361 14.0722623 0.252196721 15.1986885 0.252196721 14.0423607 2.11278689"></polygon>
                </g>
                <g transform="translate(4.327869, 5.901639)" fill="#FFFFFF">
                    <path d="M2.87409836,3.9037377 L2.69429508,3.21914754 L1.50806557,3.21914754 L1.32314754,3.9037377 L0.239213115,3.9037377 L1.43055738,0.237639344 L2.74662295,0.237639344 L3.95252459,3.9037377 L2.87409836,3.9037377 Z M2.48970492,2.40983607 L2.33232787,1.81062295 C2.29534426,1.67763934 2.25127869,1.50570492 2.19855738,1.29403279 C2.14622951,1.08236066 2.11160656,0.930885246 2.09468852,0.839606557 C2.08013115,0.924590164 2.05022951,1.0642623 2.00616393,1.25901639 C1.96209836,1.45377049 1.86413115,1.83777049 1.71265574,2.41022951 L2.48970492,2.40983607 L2.48970492,2.40983607 Z" id="Shape"></path>
                    <path d="M5.93862295,3.9037377 L5.19186885,1.27357377 L5.16944262,1.27357377 C5.20445902,1.72131148 5.22177049,2.06911475 5.22177049,2.31777049 L5.22177049,3.90334426 L4.34793443,3.90334426 L4.34793443,0.251803279 L5.6612459,0.251803279 L6.42334426,2.84459016 L6.44340984,2.84459016 L7.18977049,0.251803279 L8.50622951,0.251803279 L8.50622951,3.90334426 L7.59934426,3.90334426 L7.59934426,2.30242623 C7.59934426,2.21940984 7.60091803,2.12734426 7.60327869,2.02544262 C7.60563934,1.92354098 7.61704918,1.67488525 7.63711475,1.27868852 L7.61468852,1.27868852 L6.87777049,3.9037377 L5.93862295,3.9037377 L5.93862295,3.9037377 Z" id="Path"></path>
                    <polygon id="Path" points="11.3582951 3.9037377 9.19042623 3.9037377 9.19042623 0.252196721 11.3582951 0.252196721 11.3582951 1.04419672 10.1763934 1.04419672 10.1763934 1.61862295 11.2705574 1.61862295 11.2705574 2.41022951 10.1763934 2.41022951 10.1763934 3.09954098 11.3582951 3.09954098"></polygon>
                    <polygon id="Path" points="15.2868197 3.9037377 14.1458361 3.9037377 13.4333115 2.7627541 12.7294426 3.9037377 11.6128525 3.9037377 12.8238689 2.03567213 11.6848525 0.252196721 12.7790164 0.252196721 13.4384262 1.38098361 14.0722623 0.252196721 15.1986885 0.252196721 14.0423607 2.11278689"></polygon>
                </g>
            </g>
            <path d="M21.9344262,0.393442623 C22.8023607,0.393442623 23.5081967,1.09927869 23.5081967,1.96721311 L23.5081967,13.7704918 C23.5081967,14.6384262 22.8023607,15.3442623 21.9344262,15.3442623 L2.26229508,15.3442623 C1.39436066,15.3442623 0.68852459,14.6384262 0.68852459,13.7704918 L0.68852459,1.96721311 C0.68852459,1.09927869 1.39436066,0.393442623 2.26229508,0.393442623 L21.9344262,0.393442623 L21.9344262,0.393442623 Z M21.9344262,0 L2.26229508,0 C1.18032787,0 0.295081967,0.885245902 0.295081967,1.96721311 L0.295081967,13.7704918 C0.295081967,14.852459 1.18032787,15.7377049 2.26229508,15.7377049 L21.9344262,15.7377049 C23.0163934,15.7377049 23.9016393,14.852459 23.9016393,13.7704918 L23.9016393,1.96721311 C23.9016393,0.885245902 23.0163934,0 21.9344262,0 L21.9344262,0 Z" id="Shape" fill="#FFFFFF"></path>
        </g>
    </g>
</svg>