<?xml version="1.0" encoding="UTF-8"?>
<svg width="24px" height="24px" viewBox="0 0 24 24" version="1.1" xmlns="http://www.w3.org/2000/svg" xmlns:xlink="http://www.w3.org/1999/xlink">
    <title>Icon/Payment-Mastercard</title>
    <g id="Icon/Payment-Mastercard" stroke="none" stroke-width="1" fill="none" fill-rule="evenodd">
        <g id="Group" transform="translate(0.000000, 4.000000)">
            <path d="M23.9016393,13.7704918 C23.9016393,14.852459 23.0163934,15.7377049 21.9344262,15.7377049 L2.26229508,15.7377049 C1.18032787,15.7377049 0.295081967,14.852459 0.295081967,13.7704918 L0.295081967,1.96721311 C0.295081967,0.885245902 1.18032787,0 2.26229508,0 L21.9344262,0 C23.0163934,0 23.9016393,0.885245902 23.9016393,1.96721311 L23.9016393,13.7704918 Z" id="Path" fill="#F0EFEB" fill-rule="nonzero"></path>
            <path d="M23.3236721,0.577967213 C23.6801311,0.93442623 23.9016393,1.42622951 23.9016393,1.96721311 L23.9016393,7.86885246 L23.9016393,13.7704918 C23.9016393,14.3114754 23.6805246,14.8032787 23.3236721,15.1597377 C22.9668197,15.5161967 22.4754098,15.7377049 21.9344262,15.7377049 L12.0983607,15.7377049 L2.26229508,15.7377049 C1.72131148,15.7377049 1.2295082,15.5165902 0.87304918,15.1597377 L23.3236721,0.577967213 Z" id="Path" fill="#FFFFFF" fill-rule="nonzero" opacity="0.04"></path>
            <path d="M21.9344262,0.393442623 C22.8023607,0.393442623 23.5081967,1.09927869 23.5081967,1.96721311 L23.5081967,13.7704918 C23.5081967,14.6384262 22.8023607,15.3442623 21.9344262,15.3442623 L2.26229508,15.3442623 C1.39436066,15.3442623 0.68852459,14.6384262 0.68852459,13.7704918 L0.68852459,1.96721311 C0.68852459,1.09927869 1.39436066,0.393442623 2.26229508,0.393442623 L21.9344262,0.393442623 L21.9344262,0.393442623 Z M21.9344262,0 L2.26229508,0 C1.18032787,0 0.295081967,0.885245902 0.295081967,1.96721311 L0.295081967,13.7704918 C0.295081967,14.852459 1.18032787,15.7377049 2.26229508,15.7377049 L21.9344262,15.7377049 C23.0163934,15.7377049 23.9016393,14.852459 23.9016393,13.7704918 L23.9016393,1.96721311 C23.9016393,0.885245902 23.0163934,0 21.9344262,0 L21.9344262,0 Z" id="Shape" fill="#F0EFEB" fill-rule="nonzero"></path>
            <g id="master-card-master-method-card-new-logo-payment-master-card-new-logo-icon" transform="translate(5.600000, 3.000000)">
                <g id="g3115" transform="translate(0.018967, 0.022400)">
                    <g id="g3110">
                        <path d="M13.1471896,4.07298533 C13.1471896,6.32194577 11.3274932,8.14508873 9.08278353,8.14508873 C6.83807384,8.14508873 5.01837688,6.32194577 5.01837688,4.07298533 C5.01837688,1.82402455 6.83807384,0.000881731432 9.08278353,0.000881731432 C11.3274932,0.000881731432 13.1471896,1.82402455 13.1471896,4.07298533 Z" id="path2997" fill="#F79F1A"></path>
                        <path d="M8.13312776,4.07298533 C8.13312776,6.32194577 6.31343136,8.14508873 4.06872167,8.14508873 C1.82401197,8.14508873 0.00431502117,6.32194577 0.00431502117,4.07298533 C0.00431502117,1.82402455 1.82401197,0.000881731432 4.06872167,0.000881731432 C6.31343136,0.000881731432 8.13312776,1.82402455 8.13312776,4.07298533 Z" id="path2995" fill="#EA001B"></path>
                        <path d="M6.57576082,0.867395639 C5.62743203,1.61286535 5.01869281,2.77128015 5.01869281,4.07260379 C5.01869281,5.37392742 5.62743203,6.53322636 6.57576082,7.27869613 C7.52408962,6.53322636 8.13282884,5.37392742 8.13282884,4.07260379 C8.13282884,2.77128015 7.52408962,1.61286535 6.57576082,0.867395639 Z" id="path2999" fill="#FF5F01"></path>
                    </g>
                    <g id="g3043" transform="translate(12.804013, 6.077176)" fill="#F79F1A" fill-rule="nonzero">
                        <g id="text3045">
                            <path d="M0.335572093,0.156473863 L0.335572093,0.0111336947 L0.297624917,0.0111336947 L0.253973262,0.111086061 L0.210321606,0.0111336947 L0.17237443,0.0111336947 L0.17237443,0.156473863 L0.199160672,0.156473863 L0.199160672,0.0468486839 L0.2400841,0.141344595 L0.267862427,0.141344595 L0.308785851,0.0466006636 L0.308785851,0.156473863 L0.335572093,0.156473863 Z M0.0952399726,0.156473863 L0.0952399726,0.0359357701 L0.143852042,0.0359357701 L0.143852042,0.011381715 L0.0200896818,0.011381715 L0.0200896818,0.0359357701 L0.068701751,0.0359357701 L0.068701751,0.156473863 L0.0952399726,0.156473863 Z" id="path3057"></path>
                        </g>
                    </g>
                </g>
                <g id="g3093" transform="translate(0.669735, 8.652147)" fill="#000000" fill-rule="nonzero">
                    <g id="g3081">
                        <path d="M0.257697702,1.5297683 L0.0270607916,1.5297683 L0.0270607916,0.453462627 L0.253175404,0.453462627 L0.253175404,0.584609028 C0.253175404,0.584609028 0.45177779,0.42432549 0.569735872,0.426329006 C0.799089356,0.430224842 0.936041454,0.625309743 0.936041454,0.625309743 C0.936041454,0.625309743 1.04713685,0.426329006 1.29782505,0.426329006 C1.66853746,0.426329006 1.72292043,0.765500967 1.72292043,0.765500967 L1.72292043,1.52524603 L1.50132806,1.52524603 L1.50132806,0.855946653 C1.50132806,0.855946653 1.50212312,0.652443647 1.2616466,0.652443647 C1.01296956,0.652443647 0.990308979,0.855946653 0.990308979,0.855946653 L0.990308979,1.52524603 L0.759672068,1.52524603 L0.759672068,0.851424383 C0.759672068,0.851424383 0.737515689,0.638876553 0.529035243,0.638876553 C0.25826919,0.638876553 0.253175404,0.855946653 0.253175404,0.855946653 L0.257697702,1.5297683 Z" id="path3006"></path>
                        <path d="M7.27162257,0.426182159 C7.1536644,0.424178926 6.95508063,0.584453127 6.95508063,0.584453127 L6.95508063,0.453592215 L6.72872662,0.453592215 L6.72872662,1.52965796 L6.95950161,1.52965796 L6.95508063,0.8559011 C6.95508063,0.8559011 6.9601835,0.639273239 7.23094958,0.639273239 C7.28123582,0.639273239 7.32029038,0.651453631 7.35120015,0.670220076 L7.35120015,0.669337295 L7.42635675,0.459782997 C7.3810039,0.440694564 7.32942772,0.42716397 7.27162257,0.426182159 Z" id="path3008"></path>
                        <path d="M10.5205301,0.426182159 C10.4025719,0.424178926 10.2039881,0.584453127 10.2039881,0.584453127 L10.2039881,0.453592215 L9.97763411,0.453592215 L9.97763411,1.52965796 L10.2084091,1.52965796 L10.2039881,0.8559011 C10.2039881,0.8559011 10.209091,0.639273239 10.4798571,0.639273239 C10.5301433,0.639273239 10.5691979,0.651453631 10.6001076,0.670220076 L10.6001076,0.669337295 L10.6752642,0.459782997 C10.6299114,0.440695978 10.5783352,0.427165384 10.5205301,0.426183574 L10.5205301,0.426182159 Z" id="path3013"></path>
                        <path d="M2.46867342,0.421761182 C2.12350959,0.421761182 1.94084699,0.731989822 1.93992139,0.991182988 C1.93897674,1.25685271 2.1478698,1.56325738 2.47839957,1.56325738 C2.67122885,1.56325738 2.82963903,1.42090193 2.82963903,1.42090193 L2.82922027,1.53054215 L3.05624061,1.53054215 L3.05624061,0.453168367 L2.82842068,0.453168367 L2.82842068,0.588874104 C2.82842068,0.588874104 2.67965799,0.421761182 2.46867455,0.421761182 L2.46867342,0.421761182 Z M2.51288319,0.641041629 C2.69832937,0.641041629 2.84887742,0.802350551 2.84887742,1.00090914 C2.84887742,1.19946772 2.69832937,1.35989245 2.51288319,1.35989245 C2.32743701,1.35989245 2.17777315,1.19946772 2.17777315,1.00090914 C2.17777315,0.802350551 2.32743701,0.641041629 2.51288319,0.641041629 Z" id="path3015"></path>
                        <path d="M9.08930921,0.421761182 C8.74414538,0.421761182 8.56148278,0.731989822 8.56055718,0.991182988 C8.55961253,1.25685271 8.76850559,1.56325738 9.09903536,1.56325738 C9.29186464,1.56325738 9.45027482,1.42090193 9.45027482,1.42090193 L9.44985606,1.53054215 L9.6768764,1.53054215 L9.6768764,0.453168367 L9.44905647,0.453168367 L9.44905647,0.588874104 C9.44905647,0.588874104 9.30029378,0.421761182 9.08931034,0.421761182 L9.08930921,0.421761182 Z M9.13351898,0.641041629 C9.31896516,0.641041629 9.46951321,0.802350551 9.46951321,1.00090914 C9.46951321,1.19946772 9.31896516,1.35989245 9.13351898,1.35989245 C8.9480728,1.35989245 8.79840894,1.19946772 8.79840894,1.00090914 C8.79840894,0.802350551 8.9480728,0.641041629 9.13351898,0.641041629 Z" id="path3020"></path>
                        <path d="M11.2690542,0.421761182 C10.9238904,0.421761182 10.7412278,0.731989822 10.7403022,0.991182988 C10.7393575,1.25685271 10.9482506,1.56325738 11.2787803,1.56325738 C11.4716096,1.56325738 11.6300198,1.42090193 11.6300198,1.42090193 L11.629601,1.53054215 L11.8566214,1.53054215 L11.8566214,0.0278684227 L11.6288014,0.0278684227 L11.6288014,0.588874104 C11.6288014,0.588874104 11.4800388,0.421761182 11.2690553,0.421761182 L11.2690542,0.421761182 Z M11.313264,0.641041629 C11.4987101,0.641041629 11.6492582,0.802350551 11.6492582,1.00090914 C11.6492582,1.19946772 11.4987101,1.35989245 11.313264,1.35989245 C11.1278178,1.35989245 10.9781539,1.19946772 10.9781539,1.00090914 C10.9781539,0.802350551 11.1278178,0.641041629 11.313264,0.641041629 Z" id="path3022"></path>
                        <path d="M3.74890737,1.56594647 C3.51375526,1.56594647 3.29667809,1.42123325 3.29667809,1.42123325 L3.39616859,1.26747522 C3.39616859,1.26747522 3.60156703,1.36244346 3.74890737,1.36244346 C3.84463814,1.36244346 4.00474597,1.33153058 4.0066779,1.23581933 C4.00872074,1.13466229 3.73760155,1.10467264 3.73760155,1.10467264 C3.73760155,1.10467264 3.33285653,1.0991513 3.33285653,0.765500967 C3.33285653,0.555665707 3.53499717,0.421806736 3.79413035,0.421806736 C3.94386013,0.421806736 4.223748,0.552953137 4.223748,0.552953137 L4.11069068,0.729322523 C4.11069068,0.729322523 3.89458683,0.642985727 3.78056326,0.638876553 C3.68427962,0.635406829 3.56801571,0.681507502 3.56801571,0.765500967 C3.56801571,0.993702874 4.24183708,0.747720294 4.24183708,1.20868542 C4.24183708,1.51110315 3.96741142,1.56594647 3.74890737,1.56594647 L3.74890737,1.56594647 Z" id="path3024"></path>
                        <path d="M4.61638393,0.141471256 L4.61638393,0.45447641 L4.41567158,0.45447641 L4.41567158,0.68083042 L4.61638393,0.68083042 L4.61638393,1.22195797 C4.61638393,1.22195797 4.59862023,1.58801485 4.99216695,1.58801485 C5.10097391,1.58801485 5.31401406,1.50755307 5.31401406,1.50755307 L5.22294194,1.27235711 C5.22294194,1.27235711 5.13822131,1.34462487 5.04256609,1.34220854 C4.86069036,1.3376161 4.86572702,1.22107378 4.86572702,1.22107378 L4.86572702,0.68083042 L5.24062584,0.68083042 L5.24062584,0.45447641 L4.86572702,0.45447641 L4.86572702,0.141471256 L4.61638393,0.141471256 Z" id="path3026"></path>
                        <path d="M5.98246574,0.435024113 C5.6123594,0.435024113 5.42744005,0.739869205 5.42895017,1.00444592 C5.4305213,1.27653362 5.59734958,1.58270968 6.00457063,1.58270968 C6.17886576,1.58270968 6.42367922,1.42974388 6.42367922,1.42974388 L6.31845998,1.24671544 C6.31845998,1.24671544 6.15140251,1.36519762 6.00457063,1.36519762 C5.71059477,1.36519762 5.69156547,1.07783413 5.69156547,1.07783413 L6.47849934,1.07783413 C6.47849934,1.07783413 6.53720764,0.435024113 5.98246574,0.435024113 Z M5.94886632,0.646346801 C5.9575934,0.645851652 5.96694918,0.646346801 5.97627638,0.646346801 C6.253229,0.646346801 6.25126133,0.908068625 6.25126133,0.908068625 L5.69156547,0.908068625 C5.69156547,0.908068625 5.67832546,0.661726991 5.94886632,0.646346801 Z" id="path3034"></path>
                        <path d="M8.32321774,1.24394544 L8.42874341,1.4549965 C8.42874341,1.4549965 8.26149129,1.56371971 8.07379401,1.56371971 C7.68519907,1.56371971 7.46942032,1.27125929 7.46942032,0.994521427 C7.46942032,0.559591251 7.81280841,0.431718495 8.04501423,0.431718495 C8.25578405,0.431718495 8.43833658,0.553232684 8.43833658,0.553232684 L8.32002021,0.764283748 C8.32002021,0.764283748 8.24828919,0.652362725 8.0386186,0.652362725 C7.82929801,0.652362725 7.71884433,0.832834777 7.71884433,1.00411459 C7.71884433,1.19605713 7.84740775,1.35906399 8.04181642,1.35906399 C8.19432639,1.35906399 8.32321774,1.24394544 8.32321774,1.24394544 L8.32321774,1.24394544 Z" id="path3037"></path>
                    </g>
                    <g id="text3066" transform="translate(12.208762, 1.379179)">
                        <path d="M0.123847089,0.00289423982 C0.0918941289,0.00367531389 0.06557222,0.0142727308 0.0448812778,0.034686529 C0.0241902448,0.0551010283 0.0134820905,0.0806477871 0.0127567819,0.111326886 C0.0134820905,0.141773973 0.0241902471,0.167254289 0.0448812855,0.187767905 C0.0655722315,0.208281918 0.0918941404,0.218945781 0.123847089,0.219759533 C0.15506894,0.218945781 0.181058641,0.208281914 0.201816272,0.187767897 C0.222573499,0.167254274 0.233348099,0.141773961 0.234140101,0.111326886 C0.233364708,0.0806477871 0.222623329,0.0551010244 0.201915928,0.0346865213 C0.181208119,0.0142727192 0.155185201,0.00367530233 0.123847089,0.00289423982 Z M0.123847089,0.195840567 C0.0995016866,0.195242786 0.0794252773,0.187004037 0.0636177919,0.171124293 C0.0478101794,0.155244976 0.0396268066,0.135312529 0.0390676464,0.111326886 C0.0396268181,0.0872365648 0.0478101948,0.0673151801 0.0636177996,0.0515626744 C0.0794252773,0.035810835 0.0995016866,0.0276496096 0.123847089,0.0270789713 C0.14768285,0.0276496212 0.167449194,0.0358108466 0.183146185,0.0515626821 C0.19884281,0.0673151801 0.206981895,0.0872365648 0.207563473,0.111326886 C0.206981895,0.135312537 0.19884281,0.155244988 0.183146193,0.171124293 C0.167449206,0.187004025 0.147682861,0.195242774 0.123847089,0.195840567 L0.123847089,0.195840567 Z M0.136746682,0.0605655231 L0.0837163796,0.0605655231 L0.0837163796,0.161290948 L0.108261837,0.161290948 L0.108261837,0.123552135 L0.119473957,0.123552135 L0.154322441,0.161290948 L0.18371638,0.161290948 L0.146140623,0.123286369 C0.157876553,0.121996554 0.166904315,0.118663398 0.173223939,0.113286899 C0.17954319,0.107910941 0.182737636,0.101056397 0.182807286,0.0927232456 C0.182725019,0.0827794489 0.178722495,0.074961494 0.170799705,0.0692693578 C0.162876551,0.0635778533 0.151525554,0.0606765763 0.136746682,0.0605655231 L0.136746682,0.0605655231 Z M0.162298661,0.0887529359 C0.175629116,0.0887680959 0.186084101,0.0916718359 0.193663651,0.0974640359 C0.20124257,0.103257836 0.205102467,0.111853986 0.205243449,0.123252476 C0.205102076,0.134983026 0.201242597,0.143780396 0.193663669,0.149644586 C0.186084128,0.155510286 0.175629116,0.158442686 0.162298661,0.158441986 L0.105243449,0.158441986 L0.105243449,0.0887528759 L0.162298661,0.0887529359 Z" id="path3078"></path>
                    </g>
                </g>
            </g>
        </g>
    </g>
</svg>