<?xml version="1.0" encoding="UTF-8"?>
<svg width="24px" height="24px" viewBox="0 0 24 24" version="1.1" xmlns="http://www.w3.org/2000/svg" xmlns:xlink="http://www.w3.org/1999/xlink">
    <title>Icon/Payment-Cash</title>
    <g id="Icon/Payment-Cash" stroke="none" stroke-width="1" fill="none" fill-rule="evenodd">
        <path d="M22,4 C23.05,4 23.9177686,4.82004132 23.9944872,5.85130541 L24,6 L24,18 C24,19.05 23.1799587,19.9177686 22.1486946,19.9944872 L22,20 L2,20 C0.95,20 0.082231405,19.1799587 0.00551277235,18.1486946 L0,18 L0,6 C0,4.95 0.820041322,4.0822314 1.85130541,4.00551277 L2,4 L22,4 Z M19.4997831,5.00004507 L4.50021694,5.00004507 C4.81404096,5.41786761 5,5.93721728 5,6.5 C5,7.88071187 3.88071187,9 2.5,9 C1.93721728,9 1.41786761,8.81404096 1.00004507,8.50021694 L1.00004507,15.4997831 C1.41786761,15.185959 1.93721728,15 2.5,15 C3.88071187,15 5,16.1192881 5,17.5 C5,18.0632392 4.8137392,18.5829748 4.49945313,19.0009713 L19.5005469,19.0009713 C19.1862608,18.5829748 19,18.0632392 19,17.5 C19,16.1192881 20.1192881,15 21.5,15 C22.0632392,15 22.5829748,15.1862608 23.0009713,15.5005469 L23.0009713,8.49945313 C22.5829748,8.8137392 22.0632392,9 21.5,9 C20.1192881,9 19,7.88071187 19,6.5 C19,5.93721728 19.185959,5.41786761 19.4997831,5.00004507 Z M12,7 C14.7614237,7 17,9.23857625 17,12 C17,14.7614237 14.7614237,17 12,17 C9.23857625,17 7,14.7614237 7,12 C7,9.23857625 9.23857625,7 12,7 Z M12.8027344,9.07421875 L10.4863281,9.65234375 L10.4863281,10.3476562 L11.6425781,10.0585938 L11.6425781,14.3242188 L10.4863281,14.3242188 L10.4863281,15 L13.9589844,15 L13.9589844,14.3242188 L12.8027344,14.3242188 L12.8027344,9.07421875 Z" id="Combined-Shape" fill="#22212D"></path>
    </g>
</svg>