<?xml version="1.0" encoding="UTF-8"?>
<svg width="24px" height="24px" viewBox="0 0 24 24" version="1.1" xmlns="http://www.w3.org/2000/svg" xmlns:xlink="http://www.w3.org/1999/xlink">
    <title>Icon/Payment-Visa</title>
    <g id="Icon/Payment-Visa" stroke="none" stroke-width="1" fill="none" fill-rule="evenodd">
        <g id="Group" transform="translate(0.000000, 4.000000)" fill-rule="nonzero">
            <path d="M23.9016393,13.7704918 C23.9016393,14.852459 23.0163934,15.7377049 21.9344262,15.7377049 L2.26229508,15.7377049 C1.18032787,15.7377049 0.295081967,14.852459 0.295081967,13.7704918 L0.295081967,1.96721311 C0.295081967,0.885245902 1.18032787,0 2.26229508,0 L21.9344262,0 C23.0163934,0 23.9016393,0.885245902 23.9016393,1.96721311 L23.9016393,13.7704918 Z" id="Path" fill="#F3F4F4"></path>
            <path d="M0.68852459,3.93442623 L0.68852459,1.96721311 C0.68852459,0.885245902 1.57377049,0 2.6557377,0 L21.5409836,0 C22.6229508,0 23.5081967,0.885245902 23.5081967,1.96721311 L23.5081967,3.93442623" id="Path" fill="#5565AF"></path>
            <path d="M23.5081967,11.8032787 L23.5081967,13.7704918 C23.5081967,14.852459 22.6229508,15.3442623 21.5409836,15.3442623 L2.6557377,15.3442623 C1.57377049,15.3442623 0.68852459,14.852459 0.68852459,13.7704918 L0.68852459,11.8032787" id="Path" fill="#E6A124"></path>
            <g transform="translate(5.901639, 5.508197)" fill="#5565AF">
                <path d="M1.23422951,3.69009836 C1.39396721,3.23763934 1.50609836,2.94767213 1.57219672,2.82019672 L2.90006557,0.115278689 L3.87147541,0.115278689 L1.57219672,4.60918033 L0.545704918,4.60918033 L0.155409836,0.115278689 L1.06229508,0.115278689 L1.21888525,2.82019672 C1.2267541,2.9122623 1.23108197,3.04918033 1.23108197,3.22898361 C1.22636066,3.4402623 1.22045902,3.59409836 1.21259016,3.69009836 L1.23422951,3.69009836 Z" id="Path"></path>
                <polygon id="Path" points="3.46583607 4.60918033 4.42504918 0.115278689 5.36262295 0.115278689 4.40340984 4.60918033"></polygon>
                <path d="M8.23632787,3.28131148 C8.23632787,3.71016393 8.08406557,4.04813115 7.7815082,4.29718033 C7.47816393,4.54622951 7.06701639,4.67055738 6.54885246,4.67055738 C6.09560656,4.67055738 5.73127869,4.5784918 5.45468852,4.39396721 L5.45468852,3.55160656 C5.84970492,3.77272131 6.21718033,3.88367213 6.55514754,3.88367213 C6.78413115,3.88367213 6.96393443,3.84078689 7.09298361,3.75304918 C7.22203279,3.66609836 7.28655738,3.54727869 7.28655738,3.39501639 C7.28655738,3.30727869 7.27278689,3.22977049 7.2452459,3.16288525 C7.21770492,3.09678689 7.17757377,3.03462295 7.12681967,2.97678689 C7.07527869,2.91934426 6.94859016,2.81547541 6.74557377,2.66321311 C6.46268852,2.45980328 6.26360656,2.25993443 6.14911475,2.06045902 C6.03383607,1.86177049 5.97678689,1.6477377 5.97678689,1.41796721 C5.97678689,1.15357377 6.0397377,0.917901639 6.16721311,0.709377049 C6.29390164,0.501639344 6.4744918,0.339934426 6.70977049,0.223868852 C6.9442623,0.108196721 7.21377049,0.0503606557 7.51986885,0.0503606557 C7.96406557,0.0503606557 8.37127869,0.151868852 8.74032787,0.354491803 L8.40511475,1.07055738 C8.08563934,0.919081967 7.79055738,0.843147541 7.51986885,0.843147541 C7.34911475,0.843147541 7.21022951,0.889180328 7.10203279,0.981639344 C6.99304918,1.07370492 6.93914754,1.19606557 6.93914754,1.34754098 C6.93914754,1.47265574 6.97298361,1.58203279 7.04065574,1.67488525 C7.10832787,1.76813115 7.25980328,1.89167213 7.49547541,2.04511475 C7.74295082,2.20918033 7.92904918,2.39016393 8.05180328,2.58767213 C8.17455738,2.78636066 8.23632787,3.01691803 8.23632787,3.28131148 Z" id="Path"></path>
                <path d="M11.2516721,3.53940984 L9.79790164,3.53940984 L9.26911475,4.60918033 L8.2855082,4.60918033 L10.6398689,0.0967868852 L11.7863607,0.0967868852 L12.2380328,4.60918033 L11.3252459,4.60918033 L11.2516721,3.53940984 Z M11.2052459,2.74032787 L11.125377,1.66465574 C11.1045246,1.39632787 11.0946885,1.13704918 11.0946885,0.886819672 L11.0946885,0.776262295 C11.0041967,1.02216393 10.892459,1.28262295 10.7594754,1.55685246 L10.1815082,2.74032787 L11.2052459,2.74032787 Z" id="Shape"></path>
            </g>
            <path d="M23.3236721,0.577967213 C23.6801311,0.93442623 23.9016393,1.42622951 23.9016393,1.96721311 L23.9016393,7.86885246 L23.9016393,13.7704918 C23.9016393,14.3114754 23.6805246,14.8032787 23.3236721,15.1597377 C22.9668197,15.5161967 22.4754098,15.7377049 21.9344262,15.7377049 L12.0983607,15.7377049 L2.26229508,15.7377049 C1.72131148,15.7377049 1.2295082,15.5165902 0.87304918,15.1597377 L23.3236721,0.577967213 Z" id="Path" fill="#FFFFFF" opacity="0.04"></path>
            <path d="M21.9344262,0.393442623 C22.8023607,0.393442623 23.5081967,1.09927869 23.5081967,1.96721311 L23.5081967,13.7704918 C23.5081967,14.6384262 22.8023607,15.3442623 21.9344262,15.3442623 L2.26229508,15.3442623 C1.39436066,15.3442623 0.68852459,14.6384262 0.68852459,13.7704918 L0.68852459,1.96721311 C0.68852459,1.09927869 1.39436066,0.393442623 2.26229508,0.393442623 L21.9344262,0.393442623 L21.9344262,0.393442623 Z M21.9344262,0 L2.26229508,0 C1.18032787,0 0.295081967,0.885245902 0.295081967,1.96721311 L0.295081967,13.7704918 C0.295081967,14.852459 1.18032787,15.7377049 2.26229508,15.7377049 L21.9344262,15.7377049 C23.0163934,15.7377049 23.9016393,14.852459 23.9016393,13.7704918 L23.9016393,1.96721311 C23.9016393,0.885245902 23.0163934,0 21.9344262,0 L21.9344262,0 Z" id="Shape" fill="#F3F4F4"></path>
        </g>
    </g>
</svg>