<?xml version="1.0" encoding="UTF-8"?>
<svg width="24px" height="24px" viewBox="0 0 24 24" version="1.1" xmlns="http://www.w3.org/2000/svg" xmlns:xlink="http://www.w3.org/1999/xlink">
    <title>Icon/percent</title>
    <defs>
        <path d="M19.7,5.7 L5.7,19.7 C5.5,19.9 5.3,20 5,20 C4.7,20 4.5,19.9 4.3,19.7 C3.9,19.3 3.9,18.7 4.3,18.3 L18.3,4.3 C18.7,3.9 19.3,3.9 19.7,4.3 C20.1,4.7 20.1,5.3 19.7,5.7 Z M3,6.5 C3,4.6 4.6,3 6.5,3 C8.4,3 10,4.6 10,6.5 C10,8.4 8.4,10 6.5,10 C4.6,10 3,8.4 3,6.5 Z M5,6.5 C5,7.3 5.7,8 6.5,8 C7.3,8 8,7.3 8,6.5 C8,5.7 7.3,5 6.5,5 C5.7,5 5,5.7 5,6.5 Z M21,17.5 C21,19.4 19.4,21 17.5,21 C15.6,21 14,19.4 14,17.5 C14,15.6 15.6,14 17.5,14 C19.4,14 21,15.6 21,17.5 Z M19,17.5 C19,16.7 18.3,16 17.5,16 C16.7,16 16,16.7 16,17.5 C16,18.3 16.7,19 17.5,19 C18.3,19 19,18.3 19,17.5 Z" id="path-1"></path>
    </defs>
    <g id="Icon/percent" stroke="none" stroke-width="1" fill="none" fill-rule="evenodd">
        <mask id="mask-2" fill="white">
            <use xlink:href="#path-1"></use>
        </mask>
        <use id="Mask" fill="#000000" fill-rule="nonzero" xlink:href="#path-1"></use>
        <g id="Icon-Color" mask="url(#mask-2)" fill="#22212D">
            <rect id="Shape" x="0" y="0" width="24" height="24"></rect>
        </g>
    </g>
</svg>