<?xml version="1.0" encoding="UTF-8"?>
<svg width="24px" height="24px" viewBox="0 0 24 24" version="1.1" xmlns="http://www.w3.org/2000/svg" xmlns:xlink="http://www.w3.org/1999/xlink">
    <title>Icon/phone-forwarded</title>
    <defs>
        <path d="M23.7114754,5.97379913 L19.5147541,10.1659389 C19.304918,10.3755459 19.095082,10.4803493 18.7803279,10.4803493 C18.4655738,10.4803493 18.2557377,10.3755459 18.0459016,10.1659389 C17.6262295,9.74672489 17.6262295,9.11790393 18.0459016,8.69868996 L20.4590164,6.28820961 L14.5836066,6.28820961 C13.9540984,6.28820961 13.5344262,5.86899563 13.5344262,5.24017467 C13.5344262,4.61135371 13.9540984,4.19213974 14.5836066,4.19213974 L20.4590164,4.19213974 L18.0459016,1.78165939 C17.6262295,1.36244541 17.6262295,0.733624454 18.0459016,0.31441048 C18.4655738,-0.104803493 19.095082,-0.104803493 19.5147541,0.31441048 L23.7114754,4.50655022 C23.8163934,4.61135371 23.9213115,4.71615721 23.9213115,4.8209607 C24.0262295,5.03056769 24.0262295,5.34497817 23.9213115,5.65938865 C23.9213115,5.76419214 23.8163934,5.86899563 23.7114754,5.97379913 Z M22.9770492,17.7117904 L22.9770492,20.8558952 C22.9770492,21.6943231 22.6622951,22.5327511 22.0327869,23.0567686 C21.4032787,23.580786 20.6688525,24 19.8295082,24 C19.8295082,24 19.8295082,24 19.8295082,24 C19.7245902,24 19.6196721,24 19.5147541,24 C16.157377,23.580786 12.8,22.4279476 9.96721311,20.6462882 C7.3442623,18.9694323 5.03606557,16.6637555 3.35737705,14.0436681 C1.46885246,11.2139738 0.314754098,7.86026201 0,4.50655022 C0,3.66812227 0.209836066,2.82969432 0.73442623,2.20087336 C1.25901639,1.5720524 1.99344262,1.15283843 2.83278689,1.04803493 C2.93770492,1.04803493 3.04262295,1.04803493 3.14754098,1.04803493 L6.29508197,1.04803493 C6.29508197,1.04803493 6.29508197,1.04803493 6.29508197,1.04803493 C7.86885246,1.04803493 9.23278689,2.20087336 9.44262295,3.77292576 C9.54754098,4.71615721 9.75737705,5.65938865 10.0721311,6.49781659 C10.4918033,7.65065502 10.1770492,8.90829694 9.33770492,9.85152838 L8.60327869,10.5851528 C9.86229508,12.4716157 11.4360656,14.1484716 13.4295082,15.4061135 L14.1639344,14.6724891 C15.0032787,13.8340611 16.3672131,13.5196507 17.5213115,13.9388646 C18.3606557,14.2532751 19.304918,14.4628821 20.2491803,14.5676856 C21.8229508,14.7772926 22.9770492,16.139738 22.9770492,17.7117904 Z M20.8786885,17.7117904 C20.8786885,17.1877729 20.4590164,16.768559 19.9344262,16.6637555 C18.8852459,16.558952 17.8360656,16.2445415 16.7868852,15.8253275 C16.3672131,15.720524 15.947541,15.720524 15.6327869,16.0349345 L14.2688525,17.3973799 C13.9540984,17.7117904 13.4295082,17.8165939 13.0098361,17.6069869 C10.1770492,16.0349345 7.86885246,13.7292576 6.29508197,10.8995633 C6.19016393,10.4803493 6.29508197,9.95633188 6.60983607,9.6419214 L7.97377049,8.27947598 C8.18360656,8.069869 8.28852459,7.54585153 8.18360656,7.23144105 C7.76393443,6.18340611 7.55409836,5.13537118 7.3442623,4.08733624 C7.3442623,3.56331878 6.81967213,3.1441048 6.29508197,3.1441048 C6.29508197,3.1441048 6.29508197,3.1441048 6.29508197,3.1441048 L3.14754098,3.1441048 C2.83278689,3.1441048 2.51803279,3.35371179 2.30819672,3.56331878 C2.20327869,3.77292576 2.09836066,3.98253275 2.09836066,4.29694323 C2.41311475,7.33624454 3.46229508,10.2707424 5.14098361,12.8908297 C6.7147541,15.30131 8.70819672,17.3973799 11.1213115,18.8646288 C13.7442623,20.5414847 16.6819672,21.5895197 19.7245902,21.9039301 C20.1442623,21.9039301 20.3540984,21.7991266 20.5639344,21.5895197 C20.7737705,21.3799127 20.8786885,21.1703057 20.8786885,20.8558952 L20.8786885,17.7117904 C20.8786885,17.7117904 20.8786885,17.7117904 20.8786885,17.7117904 Z" id="path-1"></path>
    </defs>
    <g id="Icon/phone-forwarded" stroke="none" stroke-width="1" fill="none" fill-rule="evenodd">
        <mask id="mask-2" fill="white">
            <use xlink:href="#path-1"></use>
        </mask>
        <use id="Mask" fill="#000000" fill-rule="nonzero" xlink:href="#path-1"></use>
        <g id="Icon-Color" mask="url(#mask-2)" fill="#22212D">
            <rect id="Shape" x="0" y="0" width="24" height="24"></rect>
        </g>
    </g>
</svg>