<?xml version="1.0" encoding="UTF-8"?>
<svg width="24px" height="24px" viewBox="0 0 24 24" version="1.1" xmlns="http://www.w3.org/2000/svg" xmlns:xlink="http://www.w3.org/1999/xlink">
    <title>Icon/phone-outgoing</title>
    <defs>
        <path d="M24,1.04803493 L24,7.33624454 C24,7.9650655 23.580786,8.38427948 22.9519651,8.38427948 C22.3231441,8.38427948 21.9039301,7.9650655 21.9039301,7.33624454 L21.9039301,3.56331878 L16.349345,9.11790393 C16.139738,9.32751092 15.930131,9.43231441 15.6157205,9.43231441 C15.30131,9.43231441 15.0917031,9.32751092 14.8820961,9.11790393 C14.4628821,8.69868996 14.4628821,8.069869 14.8820961,7.65065502 L20.4366812,2.09606987 L16.6637555,2.09606987 C16.0349345,2.09606987 15.6157205,1.6768559 15.6157205,1.04803493 C15.6157205,0.419213974 16.0349345,0 16.6637555,0 L22.9519651,0 C23.0567686,0 23.2663755,0 23.371179,0.104803493 C23.580786,0.209606987 23.790393,0.419213974 23.8951965,0.628820961 C24,0.733624454 24,0.943231441 24,1.04803493 Z M22.9519651,17.7117904 L22.9519651,20.8558952 C22.9519651,21.6943231 22.6375546,22.5327511 22.0087336,23.0567686 C21.3799127,23.580786 20.6462882,24 19.8078603,24 C19.8078603,24 19.8078603,24 19.8078603,24 C19.7030568,24 19.5982533,24 19.4934498,24 C16.139738,23.580786 12.7860262,22.4279476 9.95633188,20.6462882 C7.33624454,18.9694323 5.03056769,16.6637555 3.35371179,14.0436681 C1.46724891,11.2139738 0.31441048,7.86026201 0,4.50655022 C0,3.66812227 0.209606987,2.82969432 0.733624454,2.20087336 C1.25764192,1.5720524 1.99126638,1.15283843 2.82969432,1.04803493 C2.93449782,1.04803493 3.03930131,1.04803493 3.1441048,1.04803493 L6.28820961,1.04803493 C6.28820961,1.04803493 6.28820961,1.04803493 6.28820961,1.04803493 C7.86026201,1.04803493 9.22270742,2.20087336 9.43231441,3.77292576 C9.5371179,4.71615721 9.74672489,5.65938865 10.0611354,6.49781659 C10.4803493,7.65065502 10.1659389,8.90829694 9.32751092,9.85152838 L8.59388646,10.5851528 C9.85152838,12.4716157 11.4235808,14.1484716 13.4148472,15.4061135 L14.1484716,14.6724891 C14.9868996,13.8340611 16.349345,13.5196507 17.5021834,13.9388646 C18.3406114,14.2532751 19.2838428,14.4628821 20.2270742,14.5676856 C21.7991266,14.7772926 22.9519651,16.139738 22.9519651,17.7117904 Z M20.8558952,17.7117904 C20.8558952,17.1877729 20.4366812,16.768559 19.9126638,16.6637555 C18.8646288,16.558952 17.8165939,16.2445415 16.768559,15.8253275 C16.349345,15.720524 15.930131,15.720524 15.6157205,16.0349345 L14.2532751,17.3973799 C13.9388646,17.7117904 13.4148472,17.8165939 12.9956332,17.6069869 C10.1659389,16.0349345 7.86026201,13.7292576 6.28820961,10.8995633 C6.18340611,10.4803493 6.28820961,9.95633188 6.60262009,9.6419214 L7.9650655,8.27947598 C8.17467249,8.069869 8.27947598,7.54585153 8.17467249,7.23144105 C7.75545852,6.18340611 7.54585153,5.13537118 7.33624454,4.08733624 C7.33624454,3.56331878 6.81222707,3.1441048 6.28820961,3.1441048 C6.28820961,3.1441048 6.28820961,3.1441048 6.28820961,3.1441048 L3.1441048,3.1441048 C2.82969432,3.1441048 2.51528384,3.35371179 2.30567686,3.56331878 C2.20087336,3.77292576 2.09606987,3.98253275 2.09606987,4.29694323 C2.41048035,7.33624454 3.45851528,10.2707424 5.13537118,12.8908297 C6.70742358,15.30131 8.69868996,17.3973799 11.1091703,18.8646288 C13.7292576,20.5414847 16.6637555,21.5895197 19.7030568,21.9039301 C20.1222707,21.9039301 20.3318777,21.7991266 20.5414847,21.5895197 C20.7510917,21.3799127 20.8558952,21.1703057 20.8558952,20.8558952 L20.8558952,17.7117904 C20.8558952,17.7117904 20.8558952,17.7117904 20.8558952,17.7117904 Z" id="path-1"></path>
    </defs>
    <g id="Icon/phone-outgoing" stroke="none" stroke-width="1" fill="none" fill-rule="evenodd">
        <mask id="mask-2" fill="white">
            <use xlink:href="#path-1"></use>
        </mask>
        <use id="Mask" fill="#000000" fill-rule="nonzero" xlink:href="#path-1"></use>
        <g id="Icon-Color" mask="url(#mask-2)" fill="#22212D">
            <rect id="Shape" x="0" y="0" width="24" height="24"></rect>
        </g>
    </g>
</svg>