<?xml version="1.0" encoding="UTF-8"?>
<svg width="24px" height="24px" viewBox="0 0 24 24" version="1.1" xmlns="http://www.w3.org/2000/svg" xmlns:xlink="http://www.w3.org/1999/xlink">
    <title>Icon/phone-off</title>
    <defs>
        <path d="M4.4,13.4 C2.6,10.7 1.5,7.6 1.2,4.3 C1.1,3.5 1.3,2.7 1.8,2.1 C2.3,1.5 3,1.1 3.8,1 C3.9,1 4,1 4.1,1 L7.1,1 C7.1,1 7.1,1 7.1,1 C8.6,1 9.9,2.1 10.1,3.6 C10.2,4.5 10.4,5.4 10.7,6.2 C11.1,7.3 10.8,8.5 10,9.4 L8.7,10.7 C8.3,11.1 7.7,11.1 7.3,10.7 C6.9,10.3 6.9,9.7 7.3,9.3 L8.6,8 C8.9,7.7 9,7.2 8.9,6.9 C8.5,5.9 8.3,4.9 8.1,3.9 C8,3.4 7.6,3 7.1,3 L4.1,3 C3.8,3 3.5,3.2 3.3,3.4 C3.2,3.6 3.1,3.8 3.1,4.1 C3.4,7 4.4,9.8 6,12.3 C6.3,12.8 6.2,13.4 5.7,13.7 C5.5,13.8 5.3,13.9 5.2,13.9 C4.9,13.8 4.5,13.6 4.4,13.4 Z M23.7,1.7 L12.1,13.3 C12.7,13.8 13.3,14.3 13.9,14.7 L14.6,14 C15.4,13.2 16.7,12.9 17.8,13.3 C18.6,13.6 19.5,13.8 20.4,13.9 C21.9,14.1 23,15.4 23,16.9 L23,19.9 C23,20.7 22.7,21.5 22.1,22 C21.5,22.5 20.8,22.9 20,22.9 C19.9,22.9 19.8,22.9 19.7,22.9 C16.5,22.5 13.3,21.4 10.6,19.7 C9.6,19.1 8.7,18.3 7.8,17.6 L1.6,23.8 C1.5,23.9 1.3,24 1,24 C0.7,24 0.5,23.9 0.3,23.7 C-0.1,23.3 -0.1,22.7 0.3,22.3 L10,12.6 C10,12.6 10,12.6 10,12.6 C10,12.6 10,12.6 10,12.6 L22.3,0.3 C22.7,-0.1 23.3,-0.1 23.7,0.3 C24.1,0.7 24.1,1.3 23.7,1.7 Z M10.7,14.7 L9.3,16.1 C10.1,16.8 10.9,17.4 11.7,18 C14.2,19.6 17,20.6 19.9,20.9 C19.9,20.9 19.9,20.9 19.9,20.9 C20.2,20.9 20.5,20.8 20.7,20.6 C20.9,20.4 21,20.2 21,19.9 L21,16.9 C21,16.4 20.6,16 20.1,15.9 C19.1,15.8 18.1,15.5 17.1,15.1 C16.7,15 16.3,15 16,15.3 L14.7,16.6 C14.4,16.9 13.9,17 13.5,16.8 C12.6,16.2 11.6,15.5 10.7,14.7 Z" id="path-1"></path>
    </defs>
    <g id="Icon/phone-off" stroke="none" stroke-width="1" fill="none" fill-rule="evenodd">
        <mask id="mask-2" fill="white">
            <use xlink:href="#path-1"></use>
        </mask>
        <use id="Mask" fill="#000000" fill-rule="nonzero" xlink:href="#path-1"></use>
        <g id="Icon-Color" mask="url(#mask-2)" fill="#22212D">
            <rect id="Shape" x="0" y="0" width="24" height="24"></rect>
        </g>
    </g>
</svg>