<?xml version="1.0" encoding="UTF-8"?>
<svg width="24px" height="24px" viewBox="0 0 24 24" version="1.1" xmlns="http://www.w3.org/2000/svg" xmlns:xlink="http://www.w3.org/1999/xlink">
    <title>Icon/phone-call</title>
    <defs>
        <path d="M20.2135564,14.6086957 C19.2709553,14.5043478 18.3283543,14.2956522 17.4904866,13.9826087 C16.3384187,13.5652174 15.0816172,13.8782609 14.1390162,14.7130435 L13.405882,15.4434783 C11.5206798,14.1913043 9.84494458,12.626087 8.58814314,10.6434783 L9.32127731,9.91304348 C10.1591449,9.07826087 10.4733453,7.72173913 10.0544115,6.57391304 C9.74021113,5.73913043 9.53074422,4.8 9.42601077,3.86086957 C9.21654386,2.29565217 7.85500897,1.14782609 6.28400718,1.14782609 C6.28400718,1.14782609 6.28400718,1.14782609 6.28400718,1.14782609 L3.14200359,1.14782609 C3.03727014,1.14782609 2.93253668,1.14782609 2.82780323,1.14782609 C1.98993561,1.25217391 1.25680144,1.66956522 0.733134171,2.29565217 C0.209466906,2.92173913 0,3.75652174 0,4.59130435 C0.314200359,7.93043478 1.57100179,11.2695652 3.3514705,14.0869565 C5.02720574,16.6956522 7.33134171,18.9913043 9.94967803,20.6608696 C12.7774813,22.5391304 16.1289518,23.6869565 19.4804223,24 C19.5851557,24 19.6898892,24 19.7946226,24 C19.7946226,24 19.7946226,24 19.7946226,24 C20.6324902,24 21.4703579,23.6869565 21.9940251,23.0608696 C22.5176924,22.4347826 22.9366262,21.7043478 22.9366262,20.8695652 L22.9366262,17.7391304 C22.9366262,16.173913 21.7845582,14.8173913 20.2135564,14.6086957 Z M20.8419571,17.7391304 L20.8419571,20.8695652 C20.8419571,21.1826087 20.7372237,21.3913043 20.5277568,21.6 C20.3182899,21.8086957 20.108823,21.9130435 19.6898892,21.9130435 C16.652619,21.6 13.7200823,20.5565217 11.101746,18.8869565 C8.6928766,17.426087 6.70294099,15.3391304 5.1319392,12.9391304 C3.45620395,10.3304348 2.40886942,7.40869565 2.09466906,4.3826087 C2.09466906,4.06956522 2.19940251,3.86086957 2.30413597,3.65217391 C2.51360287,3.44347826 2.82780323,3.23478261 3.14200359,3.23478261 L6.28400718,3.23478261 C6.28400718,3.23478261 6.28400718,3.23478261 6.28400718,3.23478261 C6.80767444,3.23478261 7.22660825,3.65217391 7.33134171,4.17391304 C7.43607516,5.2173913 7.75027552,6.36521739 8.16920933,7.30434783 C8.27394278,7.72173913 8.16920933,8.13913043 7.95974243,8.45217391 L6.59820754,9.70434783 C6.28400718,10.0173913 6.17927373,10.5391304 6.38874063,10.9565217 C7.95974243,13.773913 10.2638784,16.0695652 13.0916816,17.6347826 C13.5106154,17.8434783 14.0342827,17.8434783 14.3484831,17.426087 L15.7100179,16.0695652 C16.0242183,15.7565217 16.4431521,15.6521739 16.8620859,15.8608696 C17.9094205,16.2782609 18.956755,16.4869565 20.0040895,16.6956522 C20.4230233,16.8 20.8419571,17.2173913 20.8419571,17.7391304 C20.8419571,17.7391304 20.8419571,17.7391304 20.8419571,17.7391304 Z M14.4532165,6.36521739 C13.9295492,6.26086957 13.5106154,5.73913043 13.6153489,5.11304348 C13.7200823,4.59130435 14.2437496,4.17391304 14.8721503,4.27826087 C17.3857532,4.8 19.3756888,6.67826087 19.7946226,9.1826087 C19.8993561,9.70434783 19.5851557,10.3304348 18.956755,10.4347826 C18.8520215,10.4347826 18.8520215,10.4347826 18.7472881,10.4347826 C18.2236208,10.4347826 17.804687,10.1217391 17.6999536,9.6 C17.3857532,7.93043478 16.1289518,6.67826087 14.4532165,6.36521739 Z M23.9839607,9.28695652 C24.0886942,9.80869565 23.6697604,10.3304348 23.0413597,10.4347826 C23.0413597,10.4347826 22.9366262,10.4347826 22.9366262,10.4347826 C22.4129589,10.4347826 21.9940251,10.0173913 21.8892917,9.49565217 C21.4703579,5.63478261 18.4330877,2.60869565 14.4532165,2.08695652 C13.9295492,1.9826087 13.5106154,1.46086957 13.5106154,0.939130435 C13.5106154,0.417391304 14.1390162,0 14.6626834,0 C19.5851557,0.626086957 23.4602935,4.48695652 23.9839607,9.28695652 Z" id="path-1"></path>
    </defs>
    <g id="Icon/phone-call" stroke="none" stroke-width="1" fill="none" fill-rule="evenodd">
        <mask id="mask-2" fill="white">
            <use xlink:href="#path-1"></use>
        </mask>
        <use id="Mask" fill="#000000" fill-rule="nonzero" xlink:href="#path-1"></use>
        <g id="Icon-Color" mask="url(#mask-2)" fill="#22212D">
            <rect id="Shape" x="0" y="0" width="24" height="24"></rect>
        </g>
    </g>
</svg>