<?xml version="1.0" encoding="UTF-8"?>
<svg width="24px" height="24px" viewBox="0 0 24 24" version="1.1" xmlns="http://www.w3.org/2000/svg" xmlns:xlink="http://www.w3.org/1999/xlink">
    <title>Icon/phone</title>
    <defs>
        <path d="M20.3881279,13.9589041 C19.4840183,13.8584475 18.5799087,13.6575342 17.7762557,13.3561644 C16.6712329,12.9543379 15.4657534,13.2557078 14.5616438,14.0593607 L13.8584475,14.7625571 C12.0502283,13.5570776 10.4429224,12.0502283 9.23744292,10.1415525 L9.94063927,9.43835616 C10.7442922,8.6347032 11.0456621,7.32876712 10.6438356,6.22374429 C10.3424658,5.42009132 10.1415525,4.51598174 10.0410959,3.61187215 C9.84018265,2.10502283 8.53424658,1 7.02739726,1 C7.02739726,1 7.02739726,1 7.02739726,1 L4.01369863,1 C3.91324201,1 3.81278539,1 3.71232877,1 C2.9086758,1.10045662 2.20547945,1.50228311 1.70319635,2.10502283 C1.20091324,2.70776256 1,3.51141553 1,4.31506849 C1.30136986,7.52968037 2.50684932,10.7442922 4.21461187,13.456621 C5.82191781,15.9680365 8.03196347,18.1780822 10.543379,19.7853881 C13.2557078,21.5936073 16.4703196,22.6986301 19.6849315,23 C19.7853881,23 19.8858447,23 19.9863014,23 C19.9863014,23 19.9863014,23 19.9863014,23 C20.7899543,23 21.5936073,22.6986301 22.0958904,22.0958904 C22.5981735,21.4931507 23,20.7899543 23,19.9863014 L23,16.9726027 C23,15.4657534 21.8949772,14.1598174 20.3881279,13.9589041 Z M20.9908676,16.9726027 L20.9908676,19.9863014 C20.9908676,20.2876712 20.890411,20.4885845 20.6894977,20.6894977 C20.4885845,20.890411 20.2876712,20.9908676 19.8858447,20.9908676 C16.9726027,20.6894977 14.1598174,19.6849315 11.6484018,18.0776256 C9.33789954,16.6712329 7.42922374,14.6621005 5.92237443,12.3515982 C4.31506849,9.84018265 3.31050228,7.02739726 3.00913242,4.11415525 C3.00913242,3.81278539 3.10958904,3.61187215 3.21004566,3.4109589 C3.4109589,3.21004566 3.71232877,3.00913242 4.01369863,3.00913242 L7.02739726,3.00913242 C7.02739726,3.00913242 7.02739726,3.00913242 7.02739726,3.00913242 C7.52968037,3.00913242 7.93150685,3.4109589 8.03196347,3.91324201 C8.13242009,4.91780822 8.43378995,6.02283105 8.83561644,6.92694064 C8.93607306,7.32876712 8.83561644,7.73059361 8.6347032,8.03196347 L7.32876712,9.23744292 C7.02739726,9.53881279 6.92694064,10.0410959 7.12785388,10.4429224 C8.6347032,13.1552511 10.8447489,15.3652968 13.5570776,16.8721461 C13.9589041,17.0730594 14.4611872,17.0730594 14.7625571,16.6712329 L16.0684932,15.3652968 C16.369863,15.0639269 16.7716895,14.9634703 17.173516,15.1643836 C18.1780822,15.56621 19.1826484,15.7671233 20.1872146,15.9680365 C20.5890411,16.0684932 20.9908676,16.4703196 20.9908676,16.9726027 C20.9908676,16.9726027 20.9908676,16.9726027 20.9908676,16.9726027 Z" id="path-1"></path>
    </defs>
    <g id="Icon/phone" stroke="none" stroke-width="1" fill="none" fill-rule="evenodd">
        <mask id="mask-2" fill="white">
            <use xlink:href="#path-1"></use>
        </mask>
        <use id="Mask" fill="#000000" fill-rule="nonzero" xlink:href="#path-1"></use>
        <g id="Icon-Color" mask="url(#mask-2)" fill="#22212D">
            <rect id="Shape" x="0" y="0" width="24" height="24"></rect>
        </g>
    </g>
</svg>