<?xml version="1.0" encoding="UTF-8"?>
<svg width="24px" height="24px" viewBox="0 0 24 24" version="1.1" xmlns="http://www.w3.org/2000/svg" xmlns:xlink="http://www.w3.org/1999/xlink">
    <title>Icon/pie-chart</title>
    <defs>
        <path d="M22.0997485,16.3 C20.3992735,20.5 16.2981278,23 11.9969262,23 C10.596535,23 9.09611589,22.7 7.69572469,22.1 C2.09415987,19.7 -0.506566656,13.3 1.89410398,7.7 C2.99441136,5.1 4.99497022,3 7.59569674,1.9 C8.09583646,1.7 8.69600412,1.9 8.89606001,2.4 C9.09611589,2.9 8.89606001,3.5 8.39592029,3.7 C6.29533348,4.7 4.59485845,6.4 3.69460696,8.5 C1.79407604,13.1 3.89466285,18.4 8.49594823,20.3 C13.0972336,22.2 18.3987146,20.1 20.2992455,15.5 C20.4993014,15 21.0994691,14.8 21.5996088,15 C22.0997485,15.2 22.2998044,15.8 22.0997485,16.3 Z M23,12 C23,12.6 22.5998882,13 21.9997206,13 L11.9969262,13 C11.3967586,13 10.9966468,12.6 10.9966468,12 L10.9966468,2 C10.9966468,1.4 11.3967586,1 11.9969262,1 C18.0986308,1 23,5.9 23,12 Z M20.8994132,11 C20.3992735,6.8 17.0983514,3.5 12.9972057,3.1 L12.9972057,11 L20.8994132,11 Z" id="path-1"></path>
    </defs>
    <g id="Icon/pie-chart" stroke="none" stroke-width="1" fill="none" fill-rule="evenodd">
        <mask id="mask-2" fill="white">
            <use xlink:href="#path-1"></use>
        </mask>
        <use id="Mask" fill="#000000" fill-rule="nonzero" xlink:href="#path-1"></use>
        <g id="Icon-Color" mask="url(#mask-2)" fill="#22212D">
            <rect id="Shape" x="0" y="0" width="24" height="24"></rect>
        </g>
    </g>
</svg>