<?xml version="1.0" encoding="UTF-8"?>
<svg width="24px" height="24px" viewBox="0 0 24 24" version="1.1" xmlns="http://www.w3.org/2000/svg" xmlns:xlink="http://www.w3.org/1999/xlink">
    <title>Icon/play-circle</title>
    <defs>
        <path d="M12,1 C5.9,1 1,5.9 1,12 C1,18.1 5.9,23 12,23 C18.1,23 23,18.1 23,12 C23,5.9 18.1,1 12,1 Z M12,21 C7,21 3,17 3,12 C3,7 7,3 12,3 C17,3 21,7 21,12 C21,17 17,21 12,21 Z M16.6,11.2 L10.6,7.2 C10.3,7 9.9,7 9.6,7.2 C9.2,7.3 9,7.6 9,8 L9,16 C9,16.4 9.2,16.7 9.5,16.9 C9.7,17 9.8,17 10,17 C10.2,17 10.4,16.9 10.6,16.8 L16.6,12.8 C16.9,12.6 17,12.3 17,12 C17,11.7 16.8,11.4 16.6,11.2 Z M11,14.1 L11,9.9 L14.2,12 L11,14.1 Z" id="path-1"></path>
    </defs>
    <g id="Icon/play-circle" stroke="none" stroke-width="1" fill="none" fill-rule="evenodd">
        <mask id="mask-2" fill="white">
            <use xlink:href="#path-1"></use>
        </mask>
        <use id="Mask" fill="#000000" fill-rule="nonzero" xlink:href="#path-1"></use>
        <g id="Icon-Color" mask="url(#mask-2)" fill="#22212D">
            <rect id="Shape" x="0" y="0" width="24" height="24"></rect>
        </g>
    </g>
</svg>