<?xml version="1.0" encoding="UTF-8"?>
<svg width="24px" height="24px" viewBox="0 0 24 24" version="1.1" xmlns="http://www.w3.org/2000/svg" xmlns:xlink="http://www.w3.org/1999/xlink">
    <title>Icon/play</title>
    <defs>
        <path d="M19.5,11.1729323 L5.5,2.15037594 C5.2,1.94987469 4.8,1.94987469 4.5,2.15037594 C4.2,2.25062657 4,2.55137845 4,2.95238095 L4,20.9974937 C4,21.3984962 4.2,21.6992481 4.5,21.8997494 C4.7,22 4.8,22 5,22 C5.2,22 5.4,21.8997494 5.5,21.7994987 L19.5,12.7769424 C19.8,12.5764411 20,12.2756892 20,11.9749373 C20,11.6741855 19.8,11.273183 19.5,11.1729323 Z M6,19.1929825 L6,4.75689223 L17.2,11.9749373 L6,19.1929825 Z" id="path-1"></path>
    </defs>
    <g id="Icon/play" stroke="none" stroke-width="1" fill="none" fill-rule="evenodd">
        <mask id="mask-2" fill="white">
            <use xlink:href="#path-1"></use>
        </mask>
        <use id="Mask" fill="#000000" fill-rule="nonzero" xlink:href="#path-1"></use>
        <g id="Icon-Color" mask="url(#mask-2)" fill="#22212D">
            <rect id="Shape" x="0" y="0" width="24" height="24"></rect>
        </g>
    </g>
</svg>