<?xml version="1.0" encoding="UTF-8"?>
<svg width="24px" height="24px" viewBox="0 0 24 24" version="1.1" xmlns="http://www.w3.org/2000/svg" xmlns:xlink="http://www.w3.org/1999/xlink">
    <title>Icon/pocket</title>
    <defs>
        <path d="M20,2 L4,2 C2.3,2 1,3.3 1,5 L1,11 C1,17.1 5.9,22 12,22 C18.1,22 23,17.1 23,11 L23,5 C23,3.3 21.7,2 20,2 Z M21,11 C21,16 17,20 12,20 C7,20 3,16 3,11 L3,5 C3,4.4 3.4,4 4,4 L20,4 C20.6,4 21,4.4 21,5 L21,11 Z M16.7,9.3 C17.1,9.7 17.1,10.3 16.7,10.7 L12.7,14.7 C12.5,14.9 12.3,15 12,15 C11.7,15 11.5,14.9 11.3,14.7 L7.3,10.7 C6.9,10.3 6.9,9.7 7.3,9.3 C7.7,8.9 8.3,8.9 8.7,9.3 L12,12.6 L15.3,9.3 C15.7,8.9 16.3,8.9 16.7,9.3 Z" id="path-1"></path>
    </defs>
    <g id="Icon/pocket" stroke="none" stroke-width="1" fill="none" fill-rule="evenodd">
        <mask id="mask-2" fill="white">
            <use xlink:href="#path-1"></use>
        </mask>
        <use id="Mask" fill="#000000" fill-rule="nonzero" xlink:href="#path-1"></use>
        <g id="Icon-Color" mask="url(#mask-2)" fill="#22212D">
            <rect id="Shape" x="0" y="0" width="24" height="24"></rect>
        </g>
    </g>
</svg>