<?xml version="1.0" encoding="UTF-8"?>
<svg width="24px" height="24px" viewBox="0 0 24 24" version="1.1" xmlns="http://www.w3.org/2000/svg" xmlns:xlink="http://www.w3.org/1999/xlink">
    <title>Icon/power</title>
    <defs>
        <path d="M19.0928495,20.1 C17.0966043,22 14.6012978,23 12.006179,23 C9.41106029,23 6.91575379,22 4.9195086,20.1 C1.02683047,16.2 1.02683047,9.8 4.9195086,5.9 C5.31875764,5.5 5.9176312,5.5 6.31688023,5.9 C6.71612927,6.3 6.71612927,6.9 6.31688023,7.3 C3.22270018,10.4 3.22270018,15.5 6.31688023,18.6 C9.41106029,21.7 14.5014855,21.7 17.5956656,18.6 C20.6898456,15.5 20.6898456,10.4 17.5956656,7.3 C17.1964165,6.9 17.1964165,6.3 17.5956656,5.9 C17.9949146,5.5 18.5937882,5.5 18.9930372,5.9 C22.9855276,9.8 22.9855276,16.2 19.0928495,20.1 Z M12.006179,13 C12.6050526,13 13.0043016,12.6 13.0043016,12 L13.0043016,2 C13.0043016,1.4 12.6050526,1 12.006179,1 C11.4073055,1 11.0080564,1.4 11.0080564,2 L11.0080564,12 C11.0080564,12.6 11.4073055,13 12.006179,13 Z" id="path-1"></path>
    </defs>
    <g id="Icon/power" stroke="none" stroke-width="1" fill="none" fill-rule="evenodd">
        <mask id="mask-2" fill="white">
            <use xlink:href="#path-1"></use>
        </mask>
        <use id="Mask" fill="#000000" fill-rule="nonzero" xlink:href="#path-1"></use>
        <g id="Icon-Color" mask="url(#mask-2)" fill="#22212D">
            <rect id="Shape" x="0" y="0" width="24" height="24"></rect>
        </g>
    </g>
</svg>