<?xml version="1.0" encoding="UTF-8"?>
<svg width="24px" height="24px" viewBox="0 0 24 24" version="1.1" xmlns="http://www.w3.org/2000/svg" xmlns:xlink="http://www.w3.org/1999/xlink">
    <title>Icon/printer</title>
    <defs>
        <path d="M20,8 L19,8 L19,2 C19,1.4 18.6,1 18,1 L6,1 C5.4,1 5,1.4 5,2 L5,8 L4,8 C2.3,8 1,9.3 1,11 L1,16 C1,17.7 2.3,19 4,19 L5,19 L5,22 C5,22.6 5.4,23 6,23 L18,23 C18.6,23 19,22.6 19,22 L19,19 L20,19 C21.7,19 23,17.7 23,16 L23,11 C23,9.3 21.7,8 20,8 Z M7,3 L17,3 L17,8 L7,8 L7,3 Z M17,21 L7,21 L7,15 L17,15 L17,21 Z M21,16 C21,16.6 20.6,17 20,17 L19,17 L19,14 C19,13.4 18.6,13 18,13 L6,13 C5.4,13 5,13.4 5,14 L5,17 L4,17 C3.4,17 3,16.6 3,16 L3,11 C3,10.4 3.4,10 4,10 L20,10 C20.6,10 21,10.4 21,11 L21,16 Z" id="path-1"></path>
    </defs>
    <g id="Icon/printer" stroke="none" stroke-width="1" fill="none" fill-rule="evenodd">
        <mask id="mask-2" fill="white">
            <use xlink:href="#path-1"></use>
        </mask>
        <use id="Mask" fill="#000000" fill-rule="nonzero" xlink:href="#path-1"></use>
        <g id="Icon-Color" mask="url(#mask-2)" fill="#22212D">
            <rect id="Shape" x="0" y="0" width="24" height="24"></rect>
        </g>
    </g>
</svg>