<?xml version="1.0" encoding="UTF-8"?>
<svg width="24px" height="24px" viewBox="0 0 24 24" version="1.1" xmlns="http://www.w3.org/2000/svg" xmlns:xlink="http://www.w3.org/1999/xlink">
    <title>Icon/radio</title>
    <defs>
        <path d="M12,9.03703704 C10.3038549,9.03703704 9.00680272,10.3209877 9.00680272,12 C9.00680272,13.6790123 10.3038549,14.962963 12,14.962963 C13.6961451,14.962963 14.9931973,13.6790123 14.9931973,12 C14.9931973,10.3209877 13.6961451,9.03703704 12,9.03703704 Z M12,12.9876543 C11.4013605,12.9876543 11.0022676,12.5925926 11.0022676,12 C11.0022676,11.4074074 11.4013605,11.0123457 12,11.0123457 C12.5986395,11.0123457 12.9977324,11.4074074 12.9977324,12 C12.9977324,12.5925926 12.5986395,12.9876543 12,12.9876543 Z M8.50793651,15.4567901 C8.90702948,15.8518519 8.90702948,16.4444444 8.50793651,16.8395062 C8.30839002,17.037037 8.00907029,17.1358025 7.80952381,17.1358025 C7.60997732,17.1358025 7.3106576,17.037037 7.11111111,16.8395062 C4.41723356,14.1728395 4.41723356,9.72839506 7.11111111,7.0617284 C7.11111111,7.0617284 7.11111111,7.0617284 7.11111111,7.0617284 C7.51020408,6.66666667 8.10884354,6.66666667 8.50793651,7.0617284 C8.90702948,7.45679012 8.90702948,8.04938272 8.50793651,8.44444444 C8.50793651,8.44444444 8.50793651,8.44444444 8.50793651,8.44444444 C7.51020408,9.43209877 7.01133787,10.7160494 7.01133787,12 C7.01133787,13.2839506 7.51020408,14.5679012 8.50793651,15.4567901 Z M5.61451247,18.3209877 C6.01360544,18.7160494 6.01360544,19.308642 5.61451247,19.7037037 C5.41496599,19.9012346 5.11564626,20 4.91609977,20 C4.71655329,20 4.41723356,19.9012346 4.21768707,19.7037037 C-0.0725623583,15.4567901 -0.0725623583,8.54320988 4.21768707,4.2962963 C4.61678005,3.90123457 5.2154195,3.90123457 5.61451247,4.2962963 C6.01360544,4.69135802 6.01360544,5.28395062 5.61451247,5.67901235 C2.12244898,9.13580247 2.12244898,14.8641975 5.61451247,18.3209877 Z M16.9886621,16.8395062 C16.7891156,17.037037 16.4897959,17.1358025 16.2902494,17.1358025 C16.0907029,17.1358025 15.9909297,17.1358025 15.8911565,17.037037 C15.3922902,16.8395062 15.1927438,16.2469136 15.4920635,15.7530864 C15.5918367,15.654321 15.69161,15.5555556 15.7913832,15.4567901 C17.6870748,13.5802469 17.6870748,10.4197531 15.69161,8.54320988 C15.292517,8.14814815 15.292517,7.55555556 15.69161,7.16049383 C16.0907029,6.7654321 16.6893424,6.7654321 17.0884354,7.16049383 C19.6825397,9.82716049 19.6825397,14.1728395 16.9886621,16.8395062 Z M19.7823129,19.7037037 C19.5827664,19.9012346 19.2834467,20 19.0839002,20 C18.8843537,20 18.585034,19.9012346 18.3854875,19.7037037 C17.9863946,19.308642 17.9863946,18.7160494 18.3854875,18.3209877 C21.877551,14.8641975 21.877551,9.2345679 18.3854875,5.77777778 C17.9863946,5.38271605 17.9863946,4.79012346 18.3854875,4.39506173 C18.7845805,4 19.38322,4 19.7823129,4.39506173 C24.0725624,8.54320988 24.0725624,15.4567901 19.7823129,19.7037037 Z" id="path-1"></path>
    </defs>
    <g id="Icon/radio" stroke="none" stroke-width="1" fill="none" fill-rule="evenodd">
        <mask id="mask-2" fill="white">
            <use xlink:href="#path-1"></use>
        </mask>
        <use id="Mask" fill="#000000" fill-rule="nonzero" xlink:href="#path-1"></use>
        <g id="Icon-Color" mask="url(#mask-2)" fill="#22212D">
            <rect id="Shape" x="0" y="0" width="24" height="24"></rect>
        </g>
    </g>
</svg>