<?xml version="1.0" encoding="UTF-8"?>
<svg width="24px" height="24px" viewBox="0 0 24 24" version="1.1" xmlns="http://www.w3.org/2000/svg" xmlns:xlink="http://www.w3.org/1999/xlink">
    <title>Icon/refresh-ccw</title>
    <defs>
        <path d="M0.497925311,10.8815387 C0.497925311,10.8815387 0.497925311,10.8815387 0.497925311,10.8815387 C0.398340249,10.7813723 0.298755187,10.7813723 0.199170124,10.681206 C0.199170124,10.681206 0.199170124,10.681206 0.199170124,10.681206 C0.199170124,10.681206 0.199170124,10.5810397 0.0995850622,10.5810397 C0.0995850622,10.4808734 0,10.4808734 0,10.3807071 C0,10.2805408 0,10.1803744 0,10.1803744 C0,10.1803744 0,10.0802081 0,10.0802081 L0,3.9700627 C0,3.36906479 0.398340249,2.96839951 0.995850622,2.96839951 C1.593361,2.96839951 1.99170124,3.36906479 1.99170124,3.9700627 L1.99170124,7.67621647 L4.97925311,4.87155956 C5.97510373,3.86989638 7.26970954,3.06856583 8.66390041,2.56773424 C11.153527,1.66623737 13.8423237,1.86657001 16.2323651,2.96839951 C18.6224066,4.17039533 20.4149378,6.1737217 21.3112033,8.67787966 C21.5103734,9.17871125 21.2116183,9.77970916 20.7136929,9.9800418 C20.2157676,10.1803744 19.6182573,9.87987548 19.4190871,9.37904389 C18.7219917,7.37571752 17.2282158,5.77305643 15.3360996,4.77139324 C13.4439834,3.86989638 11.253112,3.76973006 9.26141079,4.47089429 C8.1659751,4.87155956 7.07053942,5.47255747 6.27385892,6.37405434 L3.38589212,8.97837861 L6.87136929,8.97837861 C7.46887967,8.97837861 7.86721992,9.37904389 7.86721992,9.9800418 C7.86721992,10.5810397 7.46887967,10.981705 6.87136929,10.981705 L0.89626556,10.981705 C0.796680498,10.981705 0.597510373,10.981705 0.497925311,10.8815387 Z M23.8008299,13.7863619 C23.8008299,13.6861956 23.8008299,13.6861956 23.8008299,13.5860293 C23.8008299,13.4858629 23.7012448,13.4858629 23.7012448,13.3856966 C23.7012448,13.3856966 23.7012448,13.2855303 23.6016598,13.2855303 C23.6016598,13.2855303 23.6016598,13.2855303 23.6016598,13.2855303 C23.5020747,13.185364 23.5020747,13.185364 23.4024896,13.0851977 C23.4024896,13.0851977 23.3029046,12.9850313 23.3029046,12.9850313 C23.3029046,12.9850313 23.2033195,12.9850313 23.1037344,12.9850313 C23.0041494,12.9850313 23.0041494,12.9850313 22.9045643,12.9850313 C22.9045643,12.9850313 22.9045643,12.9850313 22.9045643,12.9850313 L16.9294606,12.9850313 C16.3319502,12.9850313 15.93361,13.3856966 15.93361,13.9866945 C15.93361,14.5876924 16.3319502,14.9883577 16.9294606,14.9883577 L20.4149378,14.9883577 L17.626556,17.6928483 C14.5394191,20.7980042 9.46058091,20.7980042 6.37344398,17.6928483 C5.57676349,16.8915178 4.87966805,15.7896883 4.4813278,14.6878588 C4.28215768,14.1870272 3.6846473,13.8865282 3.18672199,14.0868608 C2.68879668,14.2871935 2.39004149,14.8881914 2.58921162,15.389023 C3.08713693,16.7913514 3.88381743,18.0935136 4.97925311,19.0951768 C6.97095436,21.0985031 9.46058091,22 12.0497925,22 C14.6390041,22 17.1286307,20.9983368 19.0207469,19.0951768 L22.0082988,16.2905199 L22.0082988,19.9966736 C22.0082988,20.5976715 22.406639,20.9983368 23.0041494,20.9983368 C23.6016598,20.9983368 24,20.5976715 24,19.9966736 L24,13.9866945 C23.8008299,13.8865282 23.8008299,13.8865282 23.8008299,13.7863619 Z" id="path-1"></path>
    </defs>
    <g id="Icon/refresh-ccw" stroke="none" stroke-width="1" fill="none" fill-rule="evenodd">
        <mask id="mask-2" fill="white">
            <use xlink:href="#path-1"></use>
        </mask>
        <use id="Mask" fill="#000000" fill-rule="nonzero" xlink:href="#path-1"></use>
        <g id="Icon-Color" mask="url(#mask-2)" fill="#22212D">
            <rect id="Shape" x="0" y="0" width="24" height="24"></rect>
        </g>
    </g>
</svg>