<?xml version="1.0" encoding="UTF-8"?>
<svg width="24px" height="24px" viewBox="0 0 24 24" version="1.1" xmlns="http://www.w3.org/2000/svg" xmlns:xlink="http://www.w3.org/1999/xlink">
    <title>Icon/refresh-cw</title>
    <defs>
        <path d="M23.8995816,10.3992354 C23.8995816,10.499242 23.7991632,10.499242 23.7991632,10.5992486 C23.7991632,10.5992486 23.7991632,10.6992552 23.6987448,10.6992552 C23.6987448,10.6992552 23.6987448,10.6992552 23.6987448,10.6992552 C23.5983264,10.7992618 23.4979079,10.8992684 23.3974895,10.8992684 C23.3974895,10.8992684 23.3974895,10.8992684 23.3974895,10.8992684 C23.2970711,10.999275 23.0962343,10.999275 22.9958159,10.999275 L16.9707113,10.999275 C16.3682008,10.999275 15.9665272,10.5992486 15.9665272,9.99920908 C15.9665272,9.39916954 16.3682008,8.99914317 16.9707113,8.99914317 L20.4853556,8.99914317 L17.6736402,6.39897181 C16.7698745,5.49891249 15.7656904,4.89887295 14.6610879,4.49884658 C12.6527197,3.79880044 10.4435146,3.89880704 8.53556485,4.79886635 C6.52719665,5.69892567 5.12133891,7.29903113 4.41841004,9.29916295 C4.21757322,9.7991959 3.61506276,10.0992157 3.11297071,9.89920249 C2.61087866,9.7991959 2.30962343,9.19915636 2.51046025,8.6991234 C3.41422594,6.09895204 5.22175732,4.09882022 7.63179916,2.99874772 C10.041841,1.79866863 12.7531381,1.69866203 15.2635983,2.59872135 C16.6694561,3.09875431 17.9748954,3.89880704 18.9790795,4.99887954 L21.9916318,7.69905749 L21.9916318,3.99881363 C21.9916318,3.39877408 22.3933054,2.99874772 22.9958159,2.99874772 C23.5983264,2.99874772 24,3.39877408 24,3.99881363 L24,9.99920908 C24,9.99920908 24,10.0992157 24,10.0992157 C24,10.1992223 24,10.2992289 23.8995816,10.3992354 Z M20.7866109,14.0994793 C20.2845188,13.8994661 19.6820084,14.1994859 19.4811715,14.6995189 C19.0794979,15.7995914 18.4769874,16.8996639 17.5732218,17.6997166 C16.167364,19.1998155 14.0585774,19.9998682 11.9497908,19.9998682 L11.9497908,19.9998682 C9.84100418,19.9998682 7.83263598,19.1998155 6.22594142,17.59971 L3.41422594,14.9995386 L6.92887029,14.9995386 C7.53138075,14.9995386 7.93305439,14.5995123 7.93305439,13.9994727 C7.93305439,13.3994332 7.53138075,12.9994068 6.92887029,12.9994068 L0.90376569,12.9994068 C0.90376569,12.9994068 0.90376569,12.9994068 0.90376569,12.9994068 C0.80334728,12.9994068 0.80334728,12.9994068 0.70292887,12.9994068 C0.60251046,12.9994068 0.60251046,12.9994068 0.50209205,12.9994068 C0.50209205,12.9994068 0.40167364,12.9994068 0.40167364,13.0994134 C0.30125523,13.0994134 0.20083682,13.19942 0.20083682,13.2994266 C0.20083682,13.2994266 0.20083682,13.2994266 0.20083682,13.2994266 C0.20083682,13.2994266 0.20083682,13.3994332 0.10041841,13.3994332 C0.10041841,13.4994398 0,13.4994398 0,13.5994464 C0,13.699453 0,13.699453 0,13.7994595 C0,13.7994595 0,13.8994661 0,13.8994661 L0,19.8998616 C0,20.4999011 0.40167364,20.8999275 1.0041841,20.8999275 C1.60669456,20.8999275 2.0083682,20.4999011 2.0083682,19.8998616 L2.0083682,16.1996177 L4.92050209,18.9998023 C6.72803347,20.9999341 9.23849372,22 11.9497908,22 C11.9497908,22 11.9497908,22 11.9497908,22 C14.6610879,22 17.1715481,20.9999341 19.0794979,19.0998089 C20.083682,18.099743 20.9874477,16.7996573 21.4895397,15.399565 C21.5899582,14.7995255 21.2887029,14.1994859 20.7866109,14.0994793 Z" id="path-1"></path>
    </defs>
    <g id="Icon/refresh-cw" stroke="none" stroke-width="1" fill="none" fill-rule="evenodd">
        <mask id="mask-2" fill="white">
            <use xlink:href="#path-1"></use>
        </mask>
        <use id="Mask" fill="#000000" fill-rule="nonzero" xlink:href="#path-1"></use>
        <g id="Icon-Color" mask="url(#mask-2)" fill="#22212D">
            <rect id="Shape" x="0" y="0" width="24" height="24"></rect>
        </g>
    </g>
</svg>