<?xml version="1.0" encoding="UTF-8"?>
<svg width="24px" height="24px" viewBox="0 0 24 24" version="1.1" xmlns="http://www.w3.org/2000/svg" xmlns:xlink="http://www.w3.org/1999/xlink">
    <title>Icon/repeat</title>
    <defs>
        <path d="M2,11 L2,9 C2,6.2 4.2,4 7,4 L18.6,4 L16.3,1.7 C15.9,1.3 15.9,0.7 16.3,0.3 C16.7,-0.1 17.3,-0.1 17.7,0.3 L21.7,4.3 C21.8,4.4 21.9,4.5 21.9,4.6 C22,4.8 22,5.1 21.9,5.4 C21.8,5.5 21.8,5.6 21.7,5.7 L17.7,9.7 C17.5,9.9 17.3,10 17,10 C16.7,10 16.5,9.9 16.3,9.7 C15.9,9.3 15.9,8.7 16.3,8.3 L18.6,6 L7,6 C5.3,6 4,7.3 4,9 L4,11 C4,11.6 3.6,12 3,12 C2.4,12 2,11.6 2,11 Z M21,12 C20.4,12 20,12.4 20,13 L20,15 C20,16.7 18.7,18 17,18 L5.4,18 L7.7,15.7 C8.1,15.3 8.1,14.7 7.7,14.3 C7.3,13.9 6.7,13.9 6.3,14.3 L2.3,18.3 C2.2,18.4 2.1,18.5 2.1,18.6 C2,18.8 2,19.1 2.1,19.4 C2.2,19.5 2.2,19.6 2.3,19.7 L6.3,23.7 C6.5,23.9 6.7,24 7,24 C7.3,24 7.5,23.9 7.7,23.7 C8.1,23.3 8.1,22.7 7.7,22.3 L5.4,20 L17,20 C19.8,20 22,17.8 22,15 L22,13 C22,12.4 21.6,12 21,12 Z" id="path-1"></path>
    </defs>
    <g id="Icon/repeat" stroke="none" stroke-width="1" fill="none" fill-rule="evenodd">
        <mask id="mask-2" fill="white">
            <use xlink:href="#path-1"></use>
        </mask>
        <use id="Mask" fill="#000000" fill-rule="nonzero" xlink:href="#path-1"></use>
        <g id="Icon-Color" mask="url(#mask-2)" fill="#22212D">
            <rect id="Shape" x="0" y="0" width="24" height="24"></rect>
        </g>
    </g>
</svg>