<?xml version="1.0" encoding="UTF-8"?>
<svg width="24px" height="24px" viewBox="0 0 24 24" version="1.1" xmlns="http://www.w3.org/2000/svg" xmlns:xlink="http://www.w3.org/1999/xlink">
    <title>Icon/rewind</title>
    <defs>
        <path d="M11.4,4.10895559 C11.1,3.90906824 10.6,4.00901192 10.3,4.20889927 L1.3,11.2049566 C1.1,11.4048439 1,11.7046749 1,12.004506 C1,12.304337 1.1,12.604168 1.4,12.8040554 L10.4,19.8001126 C10.6,19.9000563 10.8,20 11,20 C11.1,20 11.3,20 11.4,19.9000563 C11.7,19.700169 12,19.4003379 12,19.0005632 L12,12.004506 L12,5.00844867 C12,4.60867397 11.8,4.30884294 11.4,4.10895559 Z M10,17.0016897 L3.6,12.004506 L10,7.00732218 L10,17.0016897 Z M22.4,4.10895559 C22.1,3.90906824 21.6,4.00901192 21.3,4.20889927 L12.3,11.2049566 C12.1,11.4048439 12,11.7046749 12,12.004506 C12,12.304337 12.1,12.604168 12.4,12.8040554 L21.4,19.8001126 C21.6,19.9000563 21.8,20 22,20 C22.1,20 22.3,20 22.4,19.9000563 C22.7,19.700169 23,19.4003379 23,19.0005632 L23,5.00844867 C23,4.60867397 22.8,4.30884294 22.4,4.10895559 Z M21,17.0016897 L14.6,12.004506 L21,7.00732218 L21,17.0016897 Z" id="path-1"></path>
    </defs>
    <g id="Icon/rewind" stroke="none" stroke-width="1" fill="none" fill-rule="evenodd">
        <mask id="mask-2" fill="white">
            <use xlink:href="#path-1"></use>
        </mask>
        <use id="Mask" fill="#000000" fill-rule="nonzero" xlink:href="#path-1"></use>
        <g id="Icon-Color" mask="url(#mask-2)" fill="#22212D">
            <rect id="Shape" x="0" y="0" width="24" height="24"></rect>
        </g>
    </g>
</svg>