<?xml version="1.0" encoding="UTF-8"?>
<svg width="24px" height="24px" viewBox="0 0 24 24" version="1.1" xmlns="http://www.w3.org/2000/svg" xmlns:xlink="http://www.w3.org/1999/xlink">
    <title>Icon/rotate-ccw</title>
    <defs>
        <path d="M16.171134,21.3990021 C15.065952,21.7996674 13.9607701,22 12.8555881,22 C8.73627361,22 4.81790126,19.3956757 3.41130606,15.2888567 C3.21036389,14.7880251 3.51177715,14.1870272 4.01413258,13.9866945 C4.51648801,13.7863619 5.11931452,14.0868608 5.32025669,14.5876924 C6.82732298,18.7946778 11.3485218,20.9983368 15.5683075,19.495842 C19.7880931,17.9933473 21.998457,13.4858629 20.4913907,9.27887757 C19.7880931,7.2755512 18.2810268,5.67289011 16.3720761,4.67122692 C14.4631255,3.76973006 12.2527616,3.66956374 10.2433399,4.37072797 C9.13815796,4.77139324 8.03297601,5.37239115 7.22920733,6.27388802 L4.31554583,8.97837861 L7.83203384,8.97837861 C8.43486036,8.97837861 8.8367447,9.37904389 8.8367447,9.9800418 C8.8367447,10.5810397 8.43486036,10.981705 7.83203384,10.981705 L1.80376869,10.981705 C1.80376869,10.981705 1.80376869,10.981705 1.80376869,10.981705 C1.7032976,10.981705 1.60282652,10.981705 1.60282652,10.981705 C1.60282652,10.981705 1.50235543,10.981705 1.50235543,10.981705 C1.50235543,10.981705 1.40188434,10.8815387 1.40188434,10.8815387 C1.30141326,10.8815387 1.30141326,10.7813723 1.20094217,10.7813723 C1.20094217,10.7813723 1.20094217,10.7813723 1.20094217,10.7813723 C1.20094217,10.7813723 1.20094217,10.681206 1.10047109,10.681206 C1.10047109,10.5810397 1,10.5810397 1,10.4808734 C1,10.3807071 1,10.2805408 1,10.2805408 C1,10.2805408 1,10.1803744 1,10.1803744 L1,3.9700627 C1,3.36906479 1.40188434,2.96839951 2.00471086,2.96839951 C2.60753737,2.96839951 3.00942172,3.36906479 3.00942172,3.9700627 L3.00942172,7.67621647 L6.02355429,4.87155956 C7.02826515,3.86989638 8.33438927,3.06856583 9.74098447,2.56773424 C12.2527616,1.66623737 14.9654809,1.86657001 17.376787,2.96839951 C19.7880931,4.17039533 21.5965726,6.1737217 22.5008124,8.67787966 C24.2088208,13.8865282 21.3956304,19.5960084 16.171134,21.3990021 Z" id="path-1"></path>
    </defs>
    <g id="Icon/rotate-ccw" stroke="none" stroke-width="1" fill="none" fill-rule="evenodd">
        <mask id="mask-2" fill="white">
            <use xlink:href="#path-1"></use>
        </mask>
        <use id="Mask" fill="#000000" fill-rule="nonzero" xlink:href="#path-1"></use>
        <g id="Icon-Color" mask="url(#mask-2)" fill="#22212D">
            <rect id="Shape" x="0" y="0" width="24" height="24"></rect>
        </g>
    </g>
</svg>