<?xml version="1.0" encoding="UTF-8"?>
<svg width="24px" height="24px" viewBox="0 0 24 24" version="1.1" xmlns="http://www.w3.org/2000/svg" xmlns:xlink="http://www.w3.org/1999/xlink">
    <title>Icon/rotate-cw</title>
    <defs>
        <path d="M22.899805,10.4330656 C22.899805,10.5327805 22.7996099,10.5327805 22.7996099,10.6324955 C22.7996099,10.6324955 22.7996099,10.7322104 22.6994149,10.7322104 C22.6994149,10.7322104 22.6994149,10.7322104 22.6994149,10.7322104 C22.5992198,10.8319254 22.5992198,10.8319254 22.4990248,10.9316403 C22.4990248,10.9316403 22.3988297,11.0313553 22.3988297,11.0313553 C22.3988297,11.0313553 22.2986347,11.0313553 22.2986347,11.0313553 C22.1984396,11.0313553 22.0982446,11.0313553 22.0982446,11.0313553 C22.0982446,11.0313553 22.0982446,11.0313553 22.0982446,11.0313553 L16.0865416,11.0313553 C15.4853713,11.0313553 15.0845911,10.6324955 15.0845911,10.0342058 C15.0845911,9.43591606 15.4853713,9.03705626 16.0865416,9.03705626 L19.5933683,9.03705626 L16.7879069,6.44446751 C15.8861515,5.54703294 14.884201,4.94874323 13.7820554,4.54988342 C11.7781544,3.85187876 9.57386334,3.95159371 7.67015739,4.84902828 C5.56606135,5.74646285 4.16333065,7.34190208 3.4619653,9.33620111 C1.95903956,13.5242291 4.16333065,18.1111169 8.27132769,19.5071262 C12.4795198,21.0028505 16.988297,18.8091215 18.4912228,14.6210936 C18.6916129,14.1225188 19.2927832,13.8233739 19.7937584,14.0228039 C20.2947337,14.2222338 20.5953188,14.8205235 20.3949287,15.3190982 C18.992198,19.4074113 15.0845911,22 10.976594,22 C9.87444849,22 8.77230294,21.8005701 7.67015739,21.4017103 C2.46001481,19.6068412 -0.245251536,13.8233739 1.55825936,8.63819645 C3.36177025,3.45301895 9.17308314,0.760715252 14.3832257,2.55558439 C15.7859564,3.05415914 17.0884921,3.85187876 18.0904426,4.94874323 L20.996099,7.74076188 L20.996099,4.05130866 C20.996099,3.45301895 21.3968792,3.05415914 21.9980495,3.05415914 C22.5992198,3.05415914 23,3.45301895 23,4.05130866 L23,10.0342058 C23,10.1339207 23,10.1339207 23,10.1339207 C23,10.2336357 23,10.3333506 22.899805,10.4330656 Z" id="path-1"></path>
    </defs>
    <g id="Icon/rotate-cw" stroke="none" stroke-width="1" fill="none" fill-rule="evenodd">
        <mask id="mask-2" fill="white">
            <use xlink:href="#path-1"></use>
        </mask>
        <use id="Mask" fill="#000000" fill-rule="nonzero" xlink:href="#path-1"></use>
        <g id="Icon-Color" mask="url(#mask-2)" fill="#22212D">
            <rect id="Shape" x="0" y="0" width="24" height="24"></rect>
        </g>
    </g>
</svg>