<?xml version="1.0" encoding="UTF-8"?>
<svg width="24px" height="24px" viewBox="0 0 24 24" version="1.1" xmlns="http://www.w3.org/2000/svg" xmlns:xlink="http://www.w3.org/1999/xlink">
    <title>Icon/rss</title>
    <defs>
        <path d="M14,20 C14,20.6 13.6,21 13,21 C12.4,21 12,20.6 12,20 C12,15.6 8.4,12 4,12 C3.4,12 3,11.6 3,11 C3,10.4 3.4,10 4,10 C9.5,10 14,14.5 14,20 Z M4,3 C3.4,3 3,3.4 3,4 C3,4.6 3.4,5 4,5 C12.3,5 19,11.7 19,20 C19,20.6 19.4,21 20,21 C20.6,21 21,20.6 21,20 C21,10.6 13.4,3 4,3 Z M5,17 C3.9,17 3,17.9 3,19 C3,20.1 3.9,21 5,21 C6.1,21 7,20.1 7,19 C7,17.9 6.1,17 5,17 Z" id="path-1"></path>
    </defs>
    <g id="Icon/rss" stroke="none" stroke-width="1" fill="none" fill-rule="evenodd">
        <mask id="mask-2" fill="white">
            <use xlink:href="#path-1"></use>
        </mask>
        <use id="Shape" fill="#000000" fill-rule="nonzero" xlink:href="#path-1"></use>
        <g id="Icon-Color" mask="url(#mask-2)" fill="#22212D">
            <rect id="Shape" x="0" y="0" width="24" height="24"></rect>
        </g>
    </g>
</svg>