<?xml version="1.0" encoding="UTF-8"?>
<svg width="24px" height="24px" viewBox="0 0 24 24" version="1.1" xmlns="http://www.w3.org/2000/svg" xmlns:xlink="http://www.w3.org/1999/xlink">
    <title>Icon/scissors</title>
    <defs>
        <path d="M21.7,4.7 C22.1,4.3 22.1,3.7 21.7,3.3 C21.3,2.9 20.7,2.9 20.3,3.3 L13,10.6 L10.4,8 C10.8,7.4 11,6.7 11,6 C11,3.8 9.2,2 7,2 C4.8,2 3,3.8 3,6 C3,8.2 4.8,10 7,10 C7.7,10 8.4,9.8 9,9.4 L11.6,12 L9,14.6 C8.4,14.2 7.7,14 7,14 C4.8,14 3,15.8 3,18 C3,20.2 4.8,22 7,22 C9.2,22 11,20.2 11,18 C11,17.3 10.8,16.6 10.4,16 L21.7,4.7 Z M5,6 C5,4.9 5.9,4 7,4 C8.1,4 9,4.9 9,6 C9,6.6 8.8,7 8.4,7.4 C8.4,7.4 8.4,7.4 8.4,7.4 C8.4,7.4 8.4,7.4 8.4,7.4 C8,7.8 7.6,8 7,8 C5.9,8 5,7.1 5,6 Z M7,20 C5.9,20 5,19.1 5,18 C5,16.9 5.9,16 7,16 C7.6,16 8,16.2 8.4,16.6 C8.4,16.6 8.4,16.6 8.4,16.6 C8.4,16.6 8.4,16.6 8.4,16.6 C8.8,17 9,17.4 9,18 C9,19.1 8.1,20 7,20 Z M21.7,19.3 C22.1,19.7 22.1,20.3 21.7,20.7 C21.5,20.9 21.3,21 21,21 C20.7,21 20.5,20.9 20.3,20.7 L14.8,15.2 C14.4,14.8 14.4,14.2 14.8,13.8 C15.2,13.4 15.8,13.4 16.2,13.8 L21.7,19.3 Z" id="path-1"></path>
    </defs>
    <g id="Icon/scissors" stroke="none" stroke-width="1" fill="none" fill-rule="evenodd">
        <mask id="mask-2" fill="white">
            <use xlink:href="#path-1"></use>
        </mask>
        <use id="Mask" fill="#000000" fill-rule="nonzero" xlink:href="#path-1"></use>
        <g id="Icon-Color" mask="url(#mask-2)" fill="#22212D">
            <rect id="Shape" x="0" y="0" width="24" height="24"></rect>
        </g>
    </g>
</svg>