<?xml version="1.0" encoding="UTF-8"?>
<svg width="24px" height="24px" viewBox="0 0 24 24" version="1.1" xmlns="http://www.w3.org/2000/svg" xmlns:xlink="http://www.w3.org/1999/xlink">
    <title>Icon/server</title>
    <defs>
        <path d="M20,1 L4,1 C2.3,1 1,2.3 1,4 L1,8 C1,9.7 2.3,11 4,11 L20,11 C21.7,11 23,9.7 23,8 L23,4 C23,2.3 21.7,1 20,1 Z M21,8 C21,8.6 20.6,9 20,9 L4,9 C3.4,9 3,8.6 3,8 L3,4 C3,3.4 3.4,3 4,3 L20,3 C20.6,3 21,3.4 21,4 L21,8 Z M20,13 L4,13 C2.3,13 1,14.3 1,16 L1,20 C1,21.7 2.3,23 4,23 L20,23 C21.7,23 23,21.7 23,20 L23,16 C23,14.3 21.7,13 20,13 Z M21,20 C21,20.6 20.6,21 20,21 L4,21 C3.4,21 3,20.6 3,20 L3,16 C3,15.4 3.4,15 4,15 L20,15 C20.6,15 21,15.4 21,16 L21,20 Z M6.7,5.3 C6.9,5.5 7,5.7 7,6 C7,6.3 6.9,6.5 6.7,6.7 C6.5,6.9 6.3,7 6,7 C5.7,7 5.5,6.9 5.3,6.7 C5.2,6.6 5.1,6.5 5.1,6.4 C5,6.3 5,6.1 5,6 C5,5.9 5,5.7 5.1,5.6 C5.2,5.5 5.2,5.4 5.3,5.3 C5.4,5.2 5.5,5.1 5.6,5.1 C5.9,5 6.1,5 6.4,5.1 C6.5,5.1 6.6,5.2 6.7,5.3 Z M6.7,17.3 C6.9,17.5 7,17.7 7,18 C7,18.3 6.9,18.5 6.7,18.7 C6.5,18.9 6.3,19 6,19 C5.7,19 5.5,18.9 5.3,18.7 C5.1,18.5 5,18.3 5,18 C5,17.9 5,17.7 5.1,17.6 C5.2,17.5 5.2,17.4 5.3,17.3 C5.7,16.9 6.3,16.9 6.7,17.3 Z" id="path-1"></path>
    </defs>
    <g id="Icon/server" stroke="none" stroke-width="1" fill="none" fill-rule="evenodd">
        <mask id="mask-2" fill="white">
            <use xlink:href="#path-1"></use>
        </mask>
        <use id="Mask" fill="#000000" fill-rule="nonzero" xlink:href="#path-1"></use>
        <g id="Icon-Color" mask="url(#mask-2)" fill="#22212D">
            <rect id="Shape" x="0" y="0" width="24" height="24"></rect>
        </g>
    </g>
</svg>