<?xml version="1.0" encoding="UTF-8"?>
<svg width="24px" height="24px" viewBox="0 0 24 24" version="1.1" xmlns="http://www.w3.org/2000/svg" xmlns:xlink="http://www.w3.org/1999/xlink">
    <title>Icon/share-2</title>
    <defs>
        <path d="M18,15 C16.9,15 15.9,15.5 15.2,16.2 L9.9,13.1 C9.9,12.7 10,12.4 10,12 C10,11.6 9.9,11.3 9.8,10.9 L15.1,7.8 C15.9,8.5 16.9,9 18,9 C20.2,9 22,7.2 22,5 C22,2.8 20.2,1 18,1 C15.8,1 14,2.8 14,5 C14,5.4 14.1,5.7 14.2,6.1 L8.8,9.2 C8.1,8.5 7.1,8 6,8 C3.8,8 2,9.8 2,12 C2,14.2 3.8,16 6,16 C7.1,16 8.1,15.5 8.8,14.8 L14.1,17.9 C14.1,18.3 14,18.6 14,19 C14,21.2 15.8,23 18,23 C20.2,23 22,21.2 22,19 C22,16.8 20.2,15 18,15 Z M18,3 C19.1,3 20,3.9 20,5 C20,6.1 19.1,7 18,7 C16.9,7 16,6.1 16,5 C16,3.9 16.9,3 18,3 Z M6,14 C4.9,14 4,13.1 4,12 C4,10.9 4.9,10 6,10 C7.1,10 8,10.9 8,12 C8,13.1 7.1,14 6,14 Z M18,21 C16.9,21 16,20.1 16,19 C16,18.6 16.1,18.3 16.3,18 C16.3,18 16.3,18 16.3,18 C16.3,18 16.3,18 16.3,18 C16.6,17.4 17.3,17 18,17 C19.1,17 20,17.9 20,19 C20,20.1 19.1,21 18,21 Z" id="path-1"></path>
    </defs>
    <g id="Icon/share-2" stroke="none" stroke-width="1" fill="none" fill-rule="evenodd">
        <mask id="mask-2" fill="white">
            <use xlink:href="#path-1"></use>
        </mask>
        <use id="Mask" fill="#000000" fill-rule="nonzero" xlink:href="#path-1"></use>
        <g id="Icon-Color" mask="url(#mask-2)" fill="#22212D">
            <rect id="Shape" x="0" y="0" width="24" height="24"></rect>
        </g>
    </g>
</svg>