<?xml version="1.0" encoding="UTF-8"?>
<svg width="24px" height="24px" viewBox="0 0 24 24" version="1.1" xmlns="http://www.w3.org/2000/svg" xmlns:xlink="http://www.w3.org/1999/xlink">
    <title>Icon/shield-off</title>
    <defs>
        <path d="M7.9,3.5 C7.7,3 8,2.4 8.5,2.2 L11.7,1 C11.9,0.9 12.2,0.9 12.4,1 L20.4,4 C20.7,4.2 21,4.6 21,5 L21,12 C21,12.8 20.9,13.6 20.6,14.3 C20.5,14.7 20.1,15 19.6,15 C19.5,15 19.4,15 19.3,15 C18.8,14.8 18.5,14.3 18.6,13.8 C18.8,13.2 18.9,12.7 18.9,12.1 L18.9,5.7 L11.9,3.1 L9.1,4.1 C8.7,4.3 8.1,4 7.9,3.5 Z M23.7,23.7 C23.5,23.9 23.3,24 23,24 C22.7,24 22.5,23.9 22.3,23.7 L17.6,19 C16.1,20.5 14.4,21.8 12.4,22.8 C12.3,23 12.2,23 12,23 C11.8,23 11.7,23 11.6,22.9 C11.2,22.7 3,18.5 3,12 L3,5 C3,4.8 3.1,4.7 3.1,4.5 L0.3,1.7 C-0.1,1.3 -0.1,0.7 0.3,0.3 C0.7,-0.1 1.3,-0.1 1.7,0.3 L23.7,22.3 C24.1,22.7 24.1,23.3 23.7,23.7 Z M16.2,17.6 L5,6.4 L5,12 C5,16.5 10.4,19.9 12,20.9 C13.6,20 15,18.9 16.2,17.6 Z" id="path-1"></path>
    </defs>
    <g id="Icon/shield-off" stroke="none" stroke-width="1" fill="none" fill-rule="evenodd">
        <mask id="mask-2" fill="white">
            <use xlink:href="#path-1"></use>
        </mask>
        <use id="Shape" fill="#000000" fill-rule="nonzero" xlink:href="#path-1"></use>
        <g id="Icon-Color" mask="url(#mask-2)" fill="#22212D">
            <rect id="Shape" x="0" y="0" width="24" height="24"></rect>
        </g>
    </g>
</svg>