<?xml version="1.0" encoding="UTF-8"?>
<svg width="24px" height="24px" viewBox="0 0 24 24" version="1.1" xmlns="http://www.w3.org/2000/svg" xmlns:xlink="http://www.w3.org/1999/xlink">
    <title>Icon/shield</title>
    <defs>
        <path d="M20.2,3 L12.2,1 C12,1 11.9,1 11.7,1 L3.7,3 C3.3,3.1 3,3.5 3,4 L3,12 C3,18.5 11.2,22.7 11.6,22.9 C11.7,23 11.8,23 12,23 C12.2,23 12.3,23 12.4,22.9 C12.8,22.7 21,18.5 21,12 L21,4 C21,3.5 20.7,3.1 20.2,3 Z M19,12 C19,16.5 13.6,19.9 12,20.9 C10.4,20 5,16.6 5,12 L5,4.8 L12,3 L19,4.8 L19,12 Z" id="path-1"></path>
    </defs>
    <g id="Icon/shield" stroke="none" stroke-width="1" fill="none" fill-rule="evenodd">
        <mask id="mask-2" fill="white">
            <use xlink:href="#path-1"></use>
        </mask>
        <use id="Mask" fill="#000000" fill-rule="nonzero" xlink:href="#path-1"></use>
        <g id="Icon-Color" mask="url(#mask-2)" fill="#22212D">
            <rect id="Shape" x="0" y="0" width="24" height="24"></rect>
        </g>
    </g>
</svg>