<?xml version="1.0" encoding="UTF-8"?>
<svg width="24px" height="24px" viewBox="0 0 24 24" version="1.1" xmlns="http://www.w3.org/2000/svg" xmlns:xlink="http://www.w3.org/1999/xlink">
    <title>Icon/shopping-bag</title>
    <defs>
        <path d="M21.9,5.6 C21.9,5.6 21.9,5.5 21.8,5.5 C21.8,5.5 21.8,5.4 21.7,5.4 L18.7,1.4 C18.6,1.1 18.3,1 18,1 L6,1 C5.7,1 5.4,1.1 5.2,1.4 L2.2,5.4 C2.2,5.4 2.2,5.5 2.1,5.5 C2.1,5.5 2.1,5.6 2,5.6 C2,5.8 2,5.9 2,6 L2,20 C2,21.7 3.3,23 5,23 L19,23 C20.7,23 22,21.7 22,20 L22,6 C22,5.9 22,5.8 21.9,5.6 Z M6.5,3 L17.5,3 L19,5 L5,5 L6.5,3 Z M19,21 L5,21 C4.4,21 4,20.6 4,20 L4,7 L20,7 L20,20 C20,20.6 19.6,21 19,21 Z M17,10 C17,12.8 14.8,15 12,15 C9.2,15 7,12.8 7,10 C7,9.4 7.4,9 8,9 C8.6,9 9,9.4 9,10 C9,11.7 10.3,13 12,13 C13.7,13 15,11.7 15,10 C15,9.4 15.4,9 16,9 C16.6,9 17,9.4 17,10 Z" id="path-1"></path>
    </defs>
    <g id="Icon/shopping-bag" stroke="none" stroke-width="1" fill="none" fill-rule="evenodd">
        <mask id="mask-2" fill="white">
            <use xlink:href="#path-1"></use>
        </mask>
        <use id="Shape" fill="#000000" fill-rule="nonzero" xlink:href="#path-1"></use>
        <g id="Icon-Color" mask="url(#mask-2)" fill="#22212D">
            <rect id="Shape" x="0" y="0" width="24" height="24"></rect>
        </g>
    </g>
</svg>