<?xml version="1.0" encoding="UTF-8"?>
<svg width="24px" height="24px" viewBox="0 0 24 24" version="1.1" xmlns="http://www.w3.org/2000/svg" xmlns:xlink="http://www.w3.org/1999/xlink">
    <title>Icon/shopping-cart</title>
    <defs>
        <path d="M8.998368,23.0032691 C7.7993472,23.0032691 7,22.2026153 7,21.0016345 C7,19.8006538 7.7993472,19 8.998368,19 C10.1973888,19 10.996736,19.8006538 10.996736,21.0016345 C10.996736,22.2026153 10.1973888,23.0032691 8.998368,23.0032691 Z M19.998368,23 C18.7993472,23 18,22.2 18,21 C18,19.8 18.7993472,19 19.998368,19 C21.1973888,19 21.996736,19.8 21.996736,21 C21.996736,22.2 21.1973888,23 19.998368,23 Z M4.18031616,2 L1,2 C0.44771525,2 0,1.55228475 0,1 C0,0.44771525 0.44771525,0 1,0 L5,0 C5.47662703,0 5.88701113,0.336385214 5.9805525,0.80374304 L6.82043032,5 L23,5 C23.6273967,5 24.0998261,5.57103711 23.9822976,6.1873273 L22.3808397,14.5848164 C22.0977343,16.0101637 20.8337638,17.02766 19.4,17 L9.69916028,16.9998164 C8.24623619,17.02766 6.98226573,16.0101637 6.6994475,14.586257 L5.02879051,6.23920581 C5.022013,6.21159422 5.0163824,6.18353331 5.01195182,6.15507521 L4.18031616,2 Z M7.22072889,7 L8.66083972,14.1951836 C8.7552082,14.6702993 9.17653169,15.0094648 9.68,15 L19.4191603,15.0001836 C19.9034683,15.0094648 20.3247918,14.6702993 20.4177024,14.2026727 L21.7912753,7 L7.22072889,7 Z" id="path-1"></path>
    </defs>
    <g id="Icon/shopping-cart" stroke="none" stroke-width="1" fill="none" fill-rule="evenodd">
        <mask id="mask-2" fill="white">
            <use xlink:href="#path-1"></use>
        </mask>
        <use id="Mask" fill="#000000" fill-rule="nonzero" xlink:href="#path-1"></use>
        <g id="Icon-Color" mask="url(#mask-2)" fill="#22212D">
            <rect id="Shape" x="0" y="0" width="24" height="24"></rect>
        </g>
    </g>
</svg>