<?xml version="1.0" encoding="UTF-8"?>
<svg width="24px" height="24px" viewBox="0 0 24 24" version="1.1" xmlns="http://www.w3.org/2000/svg" xmlns:xlink="http://www.w3.org/1999/xlink">
    <title>Icon/shuffle</title>
    <defs>
        <path d="M22,3 L22,8 C22,8.6 21.6,9 21,9 C20.4,9 20,8.6 20,8 L20,5.4 L4.7,20.7 C4.5,20.9 4.3,21 4,21 C3.7,21 3.5,20.9 3.3,20.7 C2.9,20.3 2.9,19.7 3.3,19.3 L18.6,4 L16,4 C15.4,4 15,3.6 15,3 C15,2.4 15.4,2 16,2 L21,2 C21.1,2 21.3,2 21.4,2.1 C21.6,2.2 21.8,2.4 21.9,2.6 C22,2.7 22,2.9 22,3 Z M21,15 C20.4,15 20,15.4 20,16 L20,18.6 L15.7,14.3 C15.3,13.9 14.7,13.9 14.3,14.3 C13.9,14.7 13.9,15.3 14.3,15.7 L18.6,20 L16,20 C15.4,20 15,20.4 15,21 C15,21.6 15.4,22 16,22 L21,22 C21.1,22 21.3,22 21.4,21.9 C21.6,21.8 21.8,21.6 21.9,21.4 C22,21.3 22,21.1 22,21 L22,16 C22,15.4 21.6,15 21,15 Z M8.3,9.7 C8.5,9.9 8.7,10 9,10 C9.3,10 9.5,9.9 9.7,9.7 C10.1,9.3 10.1,8.7 9.7,8.3 L4.7,3.3 C4.3,2.9 3.7,2.9 3.3,3.3 C2.9,3.7 2.9,4.3 3.3,4.7 L8.3,9.7 Z" id="path-1"></path>
    </defs>
    <g id="Icon/shuffle" stroke="none" stroke-width="1" fill="none" fill-rule="evenodd">
        <mask id="mask-2" fill="white">
            <use xlink:href="#path-1"></use>
        </mask>
        <use id="Mask" fill="#000000" fill-rule="nonzero" xlink:href="#path-1"></use>
        <g id="Icon-Color" mask="url(#mask-2)" fill="#22212D">
            <rect id="Shape" x="0" y="0" width="24" height="24"></rect>
        </g>
    </g>
</svg>