<?xml version="1.0" encoding="UTF-8"?>
<svg width="24px" height="24px" viewBox="0 0 24 24" version="1.1" xmlns="http://www.w3.org/2000/svg" xmlns:xlink="http://www.w3.org/1999/xlink">
    <title>Icon/skip-forward</title>
    <defs>
        <path d="M5.6,3.20891234 C5.3,3.00901248 4.9,2.90906255 4.6,3.10896241 C4.2,3.30886227 4,3.60871206 4,4.00851179 L4,20.0005007 C4,20.4003004 4.2,20.7001502 4.6,20.9000501 C4.7,21 4.9,21 5,21 C5.2,21 5.4,20.9000501 5.6,20.8001001 L15.6,12.8041057 C15.8,12.6042058 16,12.304356 16,12.0045062 C16,11.7046564 15.9,11.4048067 15.6,11.2049068 L5.6,3.20891234 Z M6,17.9015521 L6,6.10746033 L13.4,12.0045062 L6,17.9015521 Z M20,5.00801109 L20,19.0010014 C20,19.600701 19.6,20.0005007 19,20.0005007 C18.4,20.0005007 18,19.600701 18,19.0010014 L18,5.00801109 C18,4.40831151 18.4,4.00851179 19,4.00851179 C19.6,4.00851179 20,4.40831151 20,5.00801109 Z" id="path-1"></path>
    </defs>
    <g id="Icon/skip-forward" stroke="none" stroke-width="1" fill="none" fill-rule="evenodd">
        <mask id="mask-2" fill="white">
            <use xlink:href="#path-1"></use>
        </mask>
        <use id="Mask" fill="#000000" fill-rule="nonzero" xlink:href="#path-1"></use>
        <g id="Icon-Color" mask="url(#mask-2)" fill="#22212D">
            <rect id="Shape" x="0" y="0" width="24" height="24"></rect>
        </g>
    </g>
</svg>