<?xml version="1.0" encoding="UTF-8"?>
<svg width="24px" height="24px" viewBox="0 0 24 24" version="1.1" xmlns="http://www.w3.org/2000/svg" xmlns:xlink="http://www.w3.org/1999/xlink">
    <title>Icon/skip-back</title>
    <defs>
        <path d="M19.4,3.10896241 C19.1,2.90906255 18.6,3.00901248 18.3,3.20891234 L8.3,11.2049068 C8.1,11.4048067 8,11.7046564 8,12.0045062 C8,12.304356 8.1,12.6042058 8.4,12.8041057 L18.4,20.8001001 C18.6,20.9000501 18.8,21 19,21 C19.1,21 19.3,21 19.4,20.9000501 C19.7,20.7001502 20,20.4003004 20,20.0005007 L20,4.00851179 C20,3.60871206 19.8,3.30886227 19.4,3.10896241 Z M18,17.9015521 L10.6,12.0045062 L18,6.10746033 L18,17.9015521 Z M6,5.00801109 L6,19.0010014 C6,19.600701 5.6,20.0005007 5,20.0005007 C4.4,20.0005007 4,19.600701 4,19.0010014 L4,5.00801109 C4,4.40831151 4.4,4.00851179 5,4.00851179 C5.6,4.00851179 6,4.40831151 6,5.00801109 Z" id="path-1"></path>
    </defs>
    <g id="Icon/skip-back" stroke="none" stroke-width="1" fill="none" fill-rule="evenodd">
        <mask id="mask-2" fill="white">
            <use xlink:href="#path-1"></use>
        </mask>
        <use id="Mask" fill="#000000" fill-rule="nonzero" xlink:href="#path-1"></use>
        <g id="Icon-Color" mask="url(#mask-2)" fill="#22212D">
            <rect id="Shape" x="0" y="0" width="24" height="24"></rect>
        </g>
    </g>
</svg>