<?xml version="1.0" encoding="UTF-8"?>
<svg width="24px" height="24px" viewBox="0 0 24 24" version="1.1" xmlns="http://www.w3.org/2000/svg" xmlns:xlink="http://www.w3.org/1999/xlink">
    <title>Icon/slack</title>
    <defs>
        <path d="M23.0212234,8.69226647 C21.7196017,4.49014354 20.2177304,2.08893044 17.9148612,0.888323885 C15.8122415,-0.312282666 12.9086238,-0.312282666 8.70338437,0.988374431 C0.593279749,3.38958753 -1.50933997,7.29155883 0.993778743,15.2956025 C2.79602422,21.2986353 5.39926767,24 9.90488135,24 C11.5068773,24 13.2089981,23.6998484 15.3116178,23.0995451 C23.3215976,20.5982814 25.5243421,16.6963101 23.0212234,8.69226647 Z M14.7108693,21.0985342 C7.70213689,23.1995956 4.99876868,21.6988374 2.89614896,14.6952992 C0.793529246,7.79181156 2.29540047,4.99039627 9.30413286,2.8893348 C11.3066278,2.28903153 12.9086238,1.98887989 14.2102455,1.98887989 C15.3116178,1.98887989 16.3128653,2.18898098 17.1138632,2.58918317 C18.815984,3.48963808 20.1176057,5.59069954 21.2189779,9.1925192 C21.2189779,9.1925192 21.2189779,9.1925192 21.2189779,9.1925192 C23.2214729,16.1960574 21.7196017,18.9974727 14.7108693,21.0985342 Z M17.7146117,11.5937323 L15.8122415,12.2940861 L14.810994,9.49267084 L16.7133642,8.79231702 C17.213988,8.59221592 17.5143622,8.09196319 17.3141127,7.49165992 C17.1138632,6.99140719 16.6132395,6.69125555 16.012491,6.89135664 L14.1101208,7.59171046 L13.4092475,5.69075009 C13.2089981,5.19049736 12.7083743,4.89034572 12.1076258,5.09044681 C11.6070021,5.29054791 11.3066278,5.79080064 11.5068773,6.39110391 L12.2077506,8.29206429 L9.40425761,9.29256974 L8.80350912,7.29155883 C8.60325962,6.7913061 8.00251113,6.49115446 7.50188739,6.69125555 C7.00126365,6.7913061 6.7008894,7.39160937 6.9011389,7.8918621 L7.60201214,9.79282247 L5.69964192,10.4931763 C5.19901818,10.6932774 4.89864393,11.1935301 5.09889343,11.7938334 C5.19901818,12.1940356 5.59951717,12.4941872 6.00001617,12.4941872 C6.10014091,12.4941872 6.20026566,12.4941872 6.30039041,12.3941367 L8.20276063,11.6937828 L9.20400812,14.4951981 L7.30163789,15.195552 C6.80101415,15.395653 6.50063991,15.8959058 6.7008894,16.4962091 C6.80101415,16.8964112 7.20151315,17.1965629 7.60201214,17.1965629 C7.70213689,17.1965629 7.80226164,17.1965629 7.90238639,17.0965123 L9.80475661,16.3961585 L10.5056298,18.2971189 C10.6057546,18.6973211 11.0062536,18.9974727 11.4067526,18.9974727 C11.5068773,18.9974727 11.6070021,18.9974727 11.7071268,18.8974222 C12.2077506,18.6973211 12.5081248,18.1970683 12.3078753,17.5967651 L11.6070021,15.6958047 L14.410495,14.6952992 L15.1113683,16.5962596 C15.211493,16.9964618 15.611992,17.2966134 16.012491,17.2966134 C16.1126158,17.2966134 16.2127405,17.2966134 16.3128653,17.1965629 C16.813489,16.9964618 17.1138632,16.4962091 16.9136137,15.8959058 L16.2127405,13.9949454 L18.1151107,13.2945916 C18.6157345,13.0944905 18.9161087,12.5942378 18.7158592,11.9939345 C18.5156097,11.3936312 18.2152355,11.3936312 17.7146117,11.5937323 Z M11.1063783,13.8948949 L10.1051309,11.0934796 L12.9086238,10.0929741 L13.9098713,12.8943894 L11.1063783,13.8948949 Z" id="path-1"></path>
    </defs>
    <g id="Icon/slack" stroke="none" stroke-width="1" fill="none" fill-rule="evenodd">
        <mask id="mask-2" fill="white">
            <use xlink:href="#path-1"></use>
        </mask>
        <use id="Mask" fill="#000000" fill-rule="nonzero" xlink:href="#path-1"></use>
        <g id="Icon-Color" mask="url(#mask-2)" fill="#22212D">
            <rect id="Shape" x="0" y="0" width="24" height="24"></rect>
        </g>
    </g>
</svg>