<?xml version="1.0" encoding="UTF-8"?>
<svg width="24px" height="24px" viewBox="0 0 24 24" version="1.1" xmlns="http://www.w3.org/2000/svg" xmlns:xlink="http://www.w3.org/1999/xlink">
    <title>Icon/slash</title>
    <defs>
        <path d="M19.8,19.8 C21.8,17.8 23,15.1 23,12 C23,5.9 18.1,1 12,1 C9,1 6.2,2.2 4.2,4.2 C4.2,4.2 4.2,4.2 4.2,4.2 C4.2,4.2 4.2,4.2 4.2,4.2 C2.2,6.2 1,9 1,12 C1,18.1 5.9,23 12,23 C15,23 17.8,21.8 19.8,19.8 C19.8,19.8 19.8,19.8 19.8,19.8 C19.8,19.8 19.8,19.8 19.8,19.8 Z M21,12 C21,14.1 20.3,16.1 19,17.6 L6.4,5 C7.9,3.7 9.9,3 12,3 C17,3 21,7 21,12 Z M3,12 C3,9.9 3.7,7.9 5,6.4 L17.6,19 C16.1,20.2 14.1,21 12,21 C7,21 3,17 3,12 Z" id="path-1"></path>
    </defs>
    <g id="Icon/slash" stroke="none" stroke-width="1" fill="none" fill-rule="evenodd">
        <mask id="mask-2" fill="white">
            <use xlink:href="#path-1"></use>
        </mask>
        <use id="Mask" fill="#000000" fill-rule="nonzero" xlink:href="#path-1"></use>
        <g id="Icon-Color" mask="url(#mask-2)" fill="#22212D">
            <rect id="Shape" x="0" y="0" width="24" height="24"></rect>
        </g>
    </g>
</svg>