<?xml version="1.0" encoding="UTF-8"?>
<svg width="24px" height="24px" viewBox="0 0 24 24" version="1.1" xmlns="http://www.w3.org/2000/svg" xmlns:xlink="http://www.w3.org/1999/xlink">
    <title>Icon/sliders</title>
    <defs>
        <path d="M3,10 L3,3 C3,2.4 3.4,2 4,2 C4.6,2 5,2.4 5,3 L5,10 C5,10.6 4.6,11 4,11 C3.4,11 3,10.6 3,10 Z M12,11 C11.4,11 11,11.4 11,12 L11,21 C11,21.6 11.4,22 12,22 C12.6,22 13,21.6 13,21 L13,12 C13,11.4 12.6,11 12,11 Z M20,13 C20.6,13 21,12.6 21,12 L21,3 C21,2.4 20.6,2 20,2 C19.4,2 19,2.4 19,3 L19,12 C19,12.6 19.4,13 20,13 Z M7,13 L1,13 C0.4,13 0,13.4 0,14 C0,14.6 0.4,15 1,15 L3,15 L3,21 C3,21.6 3.4,22 4,22 C4.6,22 5,21.6 5,21 L5,15 L7,15 C7.6,15 8,14.6 8,14 C8,13.4 7.6,13 7,13 Z M15,7 L13,7 L13,3 C13,2.4 12.6,2 12,2 C11.4,2 11,2.4 11,3 L11,7 L9,7 C8.4,7 8,7.4 8,8 C8,8.6 8.4,9 9,9 L15,9 C15.6,9 16,8.6 16,8 C16,7.4 15.6,7 15,7 Z M23,15 L17,15 C16.4,15 16,15.4 16,16 C16,16.6 16.4,17 17,17 L19,17 L19,21 C19,21.6 19.4,22 20,22 C20.6,22 21,21.6 21,21 L21,17 L23,17 C23.6,17 24,16.6 24,16 C24,15.4 23.6,15 23,15 Z" id="path-1"></path>
    </defs>
    <g id="Icon/sliders" stroke="none" stroke-width="1" fill="none" fill-rule="evenodd">
        <mask id="mask-2" fill="white">
            <use xlink:href="#path-1"></use>
        </mask>
        <use id="Mask" fill="#000000" fill-rule="nonzero" xlink:href="#path-1"></use>
        <g id="Icon-Color" mask="url(#mask-2)" fill="#22212D">
            <rect id="Shape" x="0" y="0" width="24" height="24"></rect>
        </g>
    </g>
</svg>