<?xml version="1.0" encoding="UTF-8"?>
<svg width="24px" height="24px" viewBox="0 0 24 24" version="1.1" xmlns="http://www.w3.org/2000/svg" xmlns:xlink="http://www.w3.org/1999/xlink">
    <title>Icon/smartphone</title>
    <defs>
        <path d="M17,1 L7,1 C5.3,1 4,2.3 4,4 L4,20 C4,21.7 5.3,23 7,23 L17,23 C18.7,23 20,21.7 20,20 L20,4 C20,2.3 18.7,1 17,1 Z M18,20 C18,20.6 17.6,21 17,21 L7,21 C6.4,21 6,20.6 6,20 L6,4 C6,3.4 6.4,3 7,3 L17,3 C17.6,3 18,3.4 18,4 L18,20 Z M12.7,17.3 C12.9,17.5 13,17.8 13,18 C13,18.3 12.9,18.5 12.7,18.7 C12.5,18.9 12.3,19 12,19 C11.9,19 11.7,19 11.6,18.9 C11.5,18.9 11.4,18.8 11.3,18.7 C11.1,18.5 11,18.3 11,18 C11,17.9 11,17.7 11.1,17.6 C11.2,17.5 11.2,17.4 11.3,17.3 C11.7,16.9 12.3,16.9 12.7,17.3 Z" id="path-1"></path>
    </defs>
    <g id="Icon/smartphone" stroke="none" stroke-width="1" fill="none" fill-rule="evenodd">
        <mask id="mask-2" fill="white">
            <use xlink:href="#path-1"></use>
        </mask>
        <use id="Mask" fill="#000000" fill-rule="nonzero" xlink:href="#path-1"></use>
        <g id="Icon-Color" mask="url(#mask-2)" fill="#22212D">
            <rect id="Shape" x="0" y="0" width="24" height="24"></rect>
        </g>
    </g>
</svg>