<?xml version="1.0" encoding="UTF-8"?>
<svg width="24px" height="24px" viewBox="0 0 24 24" version="1.1" xmlns="http://www.w3.org/2000/svg" xmlns:xlink="http://www.w3.org/1999/xlink">
    <title>Icon/speaker</title>
    <defs>
        <path d="M18,1 L6,1 C4.3,1 3,2.3 3,4 L3,20 C3,21.7 4.3,23 6,23 L18,23 C19.7,23 21,21.7 21,20 L21,4 C21,2.3 19.7,1 18,1 Z M19,20 C19,20.6 18.6,21 18,21 L6,21 C5.4,21 5,20.6 5,20 L5,4 C5,3.4 5.4,3 6,3 L18,3 C18.6,3 19,3.4 19,4 L19,20 Z M12,9 C9.2,9 7,11.2 7,14 C7,16.8 9.2,19 12,19 C14.8,19 17,16.8 17,14 C17,11.2 14.8,9 12,9 Z M12,17 C10.3,17 9,15.7 9,14 C9,12.3 10.3,11 12,11 C13.7,11 15,12.3 15,14 C15,15.7 13.7,17 12,17 Z M11.3,6.7 C11.1,6.5 11,6.3 11,6 C11,5.9 11,5.7 11.1,5.6 C11.2,5.5 11.2,5.4 11.3,5.3 C11.3,5.3 11.4,5.2 11.4,5.2 C11.5,5.2 11.5,5.1 11.6,5.1 C11.7,5.1 11.7,5.1 11.8,5 C12.1,4.9 12.5,5 12.7,5.3 C12.8,5.4 12.9,5.5 12.9,5.6 C13,5.7 13,5.9 13,6 C13,6.3 12.9,6.5 12.7,6.7 C12.5,6.9 12.3,7 12,7 C11.9,7 11.9,7 11.8,7 C11.7,7 11.7,7 11.6,6.9 C11.5,6.9 11.5,6.8 11.4,6.8 C11.4,6.8 11.3,6.8 11.3,6.7 Z" id="path-1"></path>
    </defs>
    <g id="Icon/speaker" stroke="none" stroke-width="1" fill="none" fill-rule="evenodd">
        <mask id="mask-2" fill="white">
            <use xlink:href="#path-1"></use>
        </mask>
        <use id="Mask" fill="#000000" fill-rule="nonzero" xlink:href="#path-1"></use>
        <g id="Icon-Color" mask="url(#mask-2)" fill="#22212D">
            <rect id="Shape" x="0" y="0" width="24" height="24"></rect>
        </g>
    </g>
</svg>