<?xml version="1.0" encoding="UTF-8"?>
<svg width="24px" height="24px" viewBox="0 0 24 24" version="1.1" xmlns="http://www.w3.org/2000/svg" xmlns:xlink="http://www.w3.org/1999/xlink">
    <title>Icon/sunrise</title>
    <defs>
        <path d="M18,17.9943117 C18,18.5949943 17.6,18.9954494 17,18.9954494 C16.4,18.9954494 16,18.5949943 16,17.9943117 C16,15.7918089 14.2,13.9897611 12,13.9897611 C9.8,13.9897611 8,15.7918089 8,17.9943117 C8,18.5949943 7.6,18.9954494 7,18.9954494 C6.4,18.9954494 6,18.5949943 6,17.9943117 C6,14.6905575 8.7,11.9874858 12,11.9874858 C15.3,11.9874858 18,14.6905575 18,17.9943117 Z M4.9,12.2878271 C5.1,12.4880546 5.4,12.5881684 5.6,12.5881684 C5.8,12.5881684 6.1,12.4880546 6.3,12.2878271 C6.7,11.887372 6.7,11.2866894 6.3,10.8862344 L4.9,9.48464164 C4.5,9.08418658 3.9,9.08418658 3.5,9.48464164 C3.1,9.8850967 3.1,10.4857793 3.5,10.8862344 L4.9,12.2878271 Z M1,18.9954494 L3,18.9954494 C3.6,18.9954494 4,18.5949943 4,17.9943117 C4,17.3936291 3.6,16.9931741 3,16.9931741 L1,16.9931741 C0.4,16.9931741 0,17.3936291 0,17.9943117 C0,18.5949943 0.4,18.9954494 1,18.9954494 Z M20,17.9943117 C20,18.5949943 20.4,18.9954494 21,18.9954494 L23,18.9954494 C23.6,18.9954494 24,18.5949943 24,17.9943117 C24,17.3936291 23.6,16.9931741 23,16.9931741 L21,16.9931741 C20.4,16.9931741 20,17.3936291 20,17.9943117 Z M18.4,12.5881684 C18.7,12.5881684 18.9,12.4880546 19.1,12.2878271 L20.5,10.8862344 C20.9,10.4857793 20.9,9.8850967 20.5,9.48464164 C20.1,9.08418658 19.5,9.08418658 19.1,9.48464164 L17.7,10.8862344 C17.3,11.2866894 17.3,11.887372 17.7,12.2878271 C17.8,12.4880546 18.1,12.5881684 18.4,12.5881684 Z M23,20.9977247 L1,20.9977247 C0.4,20.9977247 0,21.3981797 0,21.9988623 C0,22.5995449 0.4,23 1,23 L23,23 C23.6,23 24,22.5995449 24,21.9988623 C24,21.3981797 23.6,20.9977247 23,20.9977247 Z M8.7,6.6814562 L11,4.37883959 L11,8.98407281 C11,9.5847554 11.4,9.98521047 12,9.98521047 C12.6,9.98521047 13,9.5847554 13,8.98407281 L13,4.37883959 L15.3,6.6814562 C15.5,6.88168373 15.7,6.9817975 16,6.9817975 C16.3,6.9817975 16.5,6.88168373 16.7,6.6814562 C17.1,6.28100114 17.1,5.68031854 16.7,5.27986348 L12.7,1.27531286 C12.6,1.17519909 12.5,1.07508532 12.4,1.07508532 C12.2,0.974971559 11.9,0.974971559 11.6,1.07508532 C11.5,1.17519909 11.4,1.17519909 11.3,1.27531286 L7.3,5.27986348 C6.9,5.68031854 6.9,6.28100114 7.3,6.6814562 C7.7,7.08191126 8.3,7.08191126 8.7,6.6814562 Z" id="path-1"></path>
    </defs>
    <g id="Icon/sunrise" stroke="none" stroke-width="1" fill="none" fill-rule="evenodd">
        <mask id="mask-2" fill="white">
            <use xlink:href="#path-1"></use>
        </mask>
        <use id="Mask" fill="#000000" fill-rule="nonzero" xlink:href="#path-1"></use>
        <g id="Icon-Color" mask="url(#mask-2)" fill="#22212D">
            <rect id="Shape" x="0" y="0" width="24" height="24"></rect>
        </g>
    </g>
</svg>