<?xml version="1.0" encoding="UTF-8"?>
<svg width="24px" height="24px" viewBox="0 0 24 24" version="1.1" xmlns="http://www.w3.org/2000/svg" xmlns:xlink="http://www.w3.org/1999/xlink">
    <title>Icon/sunset</title>
    <defs>
        <path d="M18,18 C18,18.6 17.6,19 17,19 C16.4,19 16,18.6 16,18 C16,15.8 14.2,14 12,14 C9.8,14 8,15.8 8,18 C8,18.6 7.6,19 7,19 C6.4,19 6,18.6 6,18 C6,14.7 8.7,12 12,12 C15.3,12 18,14.7 18,18 Z M4.9,12.3 C5.1,12.5 5.4,12.6 5.6,12.6 C5.8,12.6 6.1,12.5 6.3,12.3 C6.7,11.9 6.7,11.3 6.3,10.9 L4.9,9.5 C4.5,9.1 3.9,9.1 3.5,9.5 C3.1,9.9 3.1,10.5 3.5,10.9 L4.9,12.3 Z M1,19 L3,19 C3.6,19 4,18.6 4,18 C4,17.4 3.6,17 3,17 L1,17 C0.4,17 0,17.4 0,18 C0,18.6 0.4,19 1,19 Z M20,18 C20,18.6 20.4,19 21,19 L23,19 C23.6,19 24,18.6 24,18 C24,17.4 23.6,17 23,17 L21,17 C20.4,17 20,17.4 20,18 Z M18.4,12.6 C18.7,12.6 18.9,12.5 19.1,12.3 L20.5,10.9 C20.9,10.5 20.9,9.9 20.5,9.5 C20.1,9.1 19.5,9.1 19.1,9.5 L17.7,10.9 C17.3,11.3 17.3,11.9 17.7,12.3 C17.8,12.5 18.1,12.6 18.4,12.6 Z M23,21 L1,21 C0.4,21 0,21.4 0,22 C0,22.6 0.4,23 1,23 L23,23 C23.6,23 24,22.6 24,22 C24,21.4 23.6,21 23,21 Z M11.3,9.7 C11.4,9.8 11.5,9.9 11.6,9.9 C11.7,10 11.9,10 12,10 C12.1,10 12.3,10 12.4,9.9 C12.5,9.8 12.6,9.8 12.7,9.7 L16.7,5.7 C17.1,5.3 17.1,4.7 16.7,4.3 C16.3,3.9 15.7,3.9 15.3,4.3 L13,6.6 L13,2 C13,1.4 12.6,1 12,1 C11.4,1 11,1.4 11,2 L11,6.6 L8.7,4.3 C8.3,3.9 7.7,3.9 7.3,4.3 C6.9,4.7 6.9,5.3 7.3,5.7 L11.3,9.7 Z" id="path-1"></path>
    </defs>
    <g id="Icon/sunset" stroke="none" stroke-width="1" fill="none" fill-rule="evenodd">
        <mask id="mask-2" fill="white">
            <use xlink:href="#path-1"></use>
        </mask>
        <use id="Mask" fill="#000000" fill-rule="nonzero" xlink:href="#path-1"></use>
        <g id="Icon-Color" mask="url(#mask-2)" fill="#22212D">
            <rect id="Shape" x="0" y="0" width="24" height="24"></rect>
        </g>
    </g>
</svg>