<?xml version="1.0" encoding="UTF-8"?>
<svg width="24px" height="24px" viewBox="0 0 24 24" version="1.1" xmlns="http://www.w3.org/2000/svg" xmlns:xlink="http://www.w3.org/1999/xlink">
    <title>Icon/tag</title>
    <defs>
        <path d="M22.1084906,10.8160377 L13.5896226,2.29716981 C13.3915094,2.0990566 13.1933962,2 12.8962264,2 L2.99056604,2 C2.39622642,2 2,2.39622642 2,2.99056604 L2,12.8962264 C2,13.1933962 2.0990566,13.3915094 2.29716981,13.5896226 L10.8160377,22.1084906 C11.4103774,22.7028302 12.1037736,23 12.8962264,23 C12.8962264,23 12.8962264,23 12.8962264,23 C13.6886792,23 14.4811321,22.7028302 14.9764151,22.1084906 L22.1084906,14.9764151 C22.1084906,14.9764151 22.1084906,14.9764151 22.1084906,14.9764151 C23.2971698,13.7877358 23.2971698,12.004717 22.1084906,10.8160377 Z M20.7216981,13.5896226 L13.5896226,20.7216981 C13.1933962,21.1179245 12.5990566,21.1179245 12.2028302,20.7216981 L3.98113208,12.5 L3.98113208,3.98113208 L12.5,3.98113208 L20.7216981,12.2028302 C21.1179245,12.5990566 21.1179245,13.1933962 20.7216981,13.5896226 Z M8.63679245,7.25 C8.83490566,7.44811321 8.93396226,7.64622642 8.93396226,7.94339623 C8.93396226,8.24056604 8.83490566,8.43867925 8.63679245,8.63679245 C8.43867925,8.83490566 8.24056604,8.93396226 7.94339623,8.93396226 C7.64622642,8.93396226 7.44811321,8.83490566 7.25,8.63679245 C7.1509434,8.53773585 7.05188679,8.43867925 7.05188679,8.33962264 C6.95283019,8.24056604 6.95283019,8.04245283 6.95283019,7.94339623 C6.95283019,7.64622642 7.05188679,7.44811321 7.25,7.25 C7.54716981,6.95283019 7.94339623,6.85377358 8.33962264,7.05188679 C8.43867925,7.05188679 8.53773585,7.1509434 8.63679245,7.25 Z" id="path-1"></path>
    </defs>
    <g id="Icon/tag" stroke="none" stroke-width="1" fill="none" fill-rule="evenodd">
        <mask id="mask-2" fill="white">
            <use xlink:href="#path-1"></use>
        </mask>
        <use id="Mask" fill="#000000" fill-rule="nonzero" xlink:href="#path-1"></use>
        <g id="Icon-Color" mask="url(#mask-2)" fill="#22212D">
            <rect id="Shape" x="0" y="0" width="24" height="24"></rect>
        </g>
    </g>
</svg>