<?xml version="1.0" encoding="UTF-8"?>
<svg width="24px" height="24px" viewBox="0 0 24 24" version="1.1" xmlns="http://www.w3.org/2000/svg" xmlns:xlink="http://www.w3.org/1999/xlink">
    <title>Icon/terminal</title>
    <defs>
        <path d="M10.7,11.7 L4.7,17.7 C4.5,17.9 4.3,18 4,18 C3.7,18 3.5,17.9 3.3,17.7 C2.9,17.3 2.9,16.7 3.3,16.3 L8.6,11 L3.3,5.7 C2.9,5.3 2.9,4.7 3.3,4.3 C3.7,3.9 4.3,3.9 4.7,4.3 L10.7,10.3 C11.1,10.7 11.1,11.3 10.7,11.7 Z M20,18 L12,18 C11.4,18 11,18.4 11,19 C11,19.6 11.4,20 12,20 L20,20 C20.6,20 21,19.6 21,19 C21,18.4 20.6,18 20,18 Z" id="path-1"></path>
    </defs>
    <g id="Icon/terminal" stroke="none" stroke-width="1" fill="none" fill-rule="evenodd">
        <mask id="mask-2" fill="white">
            <use xlink:href="#path-1"></use>
        </mask>
        <use id="Shape" fill="#000000" fill-rule="nonzero" xlink:href="#path-1"></use>
        <g id="Icon-Color" mask="url(#mask-2)" fill="#22212D">
            <rect id="Shape" x="0" y="0" width="24" height="24"></rect>
        </g>
    </g>
</svg>