<?xml version="1.0" encoding="UTF-8"?>
<svg width="24px" height="24px" viewBox="0 0 24 24" version="1.1" xmlns="http://www.w3.org/2000/svg" xmlns:xlink="http://www.w3.org/1999/xlink">
    <title>Icon/thermometer</title>
    <defs>
        <path d="M17.0787249,15.4 C16.7804701,14.9 16.382797,14.6 15.9851239,14.2 L15.9851239,3.5 C15.9851239,1.6 14.3944316,0 12.5054845,0 C10.6165374,0 9.02584503,1.6 9.02584503,3.5 L9.02584503,14.3 C6.8386431,16.1 6.34155175,19.2 7.93224406,21.6 C9.02584503,23.1 10.7159556,24 12.5054845,24 C13.4996672,24 14.5932681,23.7 15.4880326,23.1 C18.0729076,21.4 18.7688355,18 17.0787249,15.4 Z M14.3944316,21.4 C12.8037393,22.5 10.6165374,22 9.52293638,20.4 C8.42933541,18.8 8.92642676,16.6 10.5171191,15.5 C10.8153739,15.3 10.9147922,15 10.9147922,14.7 L10.9147922,3.5 C11.0142104,2.7 11.7101383,2 12.5054845,2 C13.3008306,2 13.9967585,2.7 13.9967585,3.5 L13.9967585,14.8 C13.9967585,15.1 14.1955951,15.4 14.3944316,15.6 C14.7921047,15.9 15.0903595,16.2 15.3886143,16.6 C16.4822153,18.2 15.9851239,20.3 14.3944316,21.4 Z" id="path-1"></path>
    </defs>
    <g id="Icon/thermometer" stroke="none" stroke-width="1" fill="none" fill-rule="evenodd">
        <mask id="mask-2" fill="white">
            <use xlink:href="#path-1"></use>
        </mask>
        <use id="Mask" fill="#000000" fill-rule="nonzero" xlink:href="#path-1"></use>
        <g id="Icon-Color" mask="url(#mask-2)" fill="#22212D">
            <rect id="Shape" x="0" y="0" width="24" height="24"></rect>
        </g>
    </g>
</svg>