<?xml version="1.0" encoding="UTF-8"?>
<svg width="24px" height="24px" viewBox="0 0 24 24" version="1.1" xmlns="http://www.w3.org/2000/svg" xmlns:xlink="http://www.w3.org/1999/xlink">
    <title>Icon/thumbs-down</title>
    <defs>
        <path d="M23,3.91324201 C22.7974539,2.20547945 21.3796316,1 19.6579901,1 C19.6579901,1 19.6579901,1 19.5567171,1 L5.47976639,1 C5.47976639,1 5.47976639,1 5.47976639,1 C3.96067099,1 2.74539467,2.10502283 2.44157559,3.51141553 L1.02375322,12.5525114 C0.821207162,14.1598174 1.93521046,15.7671233 3.55557888,15.9680365 C3.75812494,15.9680365 3.85939796,15.9680365 4.06194402,15.9680365 L8.82177627,15.9680365 L8.82177627,18.9817352 C8.82177627,21.1917808 10.6446907,23 12.8726973,23 C13.2777894,23 13.6828815,22.7990868 13.7841546,22.3972603 L17.5312566,13.9589041 L19.5567171,13.9589041 C21.2783585,13.9589041 22.6961809,12.7534247 22.898727,11.0456621 C22.898727,11.0456621 22.898727,10.9452055 22.898727,10.9452055 L22.898727,4.01369863 C23,4.01369863 23,3.91324201 23,3.91324201 Z M15.9108881,12.8538813 L12.2650592,20.9908676 C11.454875,20.6894977 10.8472368,19.9863014 10.8472368,19.0821918 L10.8472368,15.0639269 C10.8472368,14.4611872 10.4421447,14.0593607 9.83450653,14.0593607 L4.06194402,14.0593607 C4.06194402,14.0593607 3.96067099,14.0593607 3.85939796,14.0593607 C3.35303283,13.9589041 2.94794072,13.456621 3.04921375,12.9543379 L4.46703612,3.91324201 C4.56830915,3.4109589 4.97340126,3.00913242 5.47976639,3.00913242 C5.47976639,3.00913242 5.47976639,3.00913242 5.47976639,3.00913242 L15.9108881,3.00913242 L15.9108881,12.8538813 Z M20.9745395,10.9452055 C20.8732664,11.5479452 20.2656283,12.0502283 19.6579901,12.0502283 L17.9363487,12.0502283 L17.9363487,3.00913242 L19.6579901,3.00913242 C19.6579901,3.00913242 19.6579901,3.00913242 19.6579901,3.00913242 C20.2656283,3.00913242 20.8732664,3.51141553 20.9745395,4.11415525 L20.9745395,10.9452055 Z" id="path-1"></path>
    </defs>
    <g id="Icon/thumbs-down" stroke="none" stroke-width="1" fill="none" fill-rule="evenodd">
        <mask id="mask-2" fill="white">
            <use xlink:href="#path-1"></use>
        </mask>
        <use id="Mask" fill="#000000" fill-rule="nonzero" xlink:href="#path-1"></use>
        <g id="Icon-Color" mask="url(#mask-2)" fill="#22212D">
            <rect id="Shape" x="0" y="0" width="24" height="24"></rect>
        </g>
    </g>
</svg>