<?xml version="1.0" encoding="UTF-8"?>
<svg width="24px" height="24px" viewBox="0 0 24 24" version="1.1" xmlns="http://www.w3.org/2000/svg" xmlns:xlink="http://www.w3.org/1999/xlink">
    <title>Icon/toggle-right</title>
    <defs>
        <path d="M16,4 L8,4 C3.6,4 0,7.6 0,12 C0,16.4 3.6,20 8,20 L16,20 C20.4,20 24,16.4 24,12 C24,7.6 20.4,4 16,4 Z M16,18 L8,18 C4.7,18 2,15.3 2,12 C2,8.7 4.7,6 8,6 L16,6 C19.3,6 22,8.7 22,12 C22,15.3 19.3,18 16,18 Z M16,8 C13.8,8 12,9.8 12,12 C12,14.2 13.8,16 16,16 C18.2,16 20,14.2 20,12 C20,9.8 18.2,8 16,8 Z M16,14 C14.9,14 14,13.1 14,12 C14,10.9 14.9,10 16,10 C17.1,10 18,10.9 18,12 C18,13.1 17.1,14 16,14 Z" id="path-1"></path>
    </defs>
    <g id="Icon/toggle-right" stroke="none" stroke-width="1" fill="none" fill-rule="evenodd">
        <mask id="mask-2" fill="white">
            <use xlink:href="#path-1"></use>
        </mask>
        <use id="Mask" fill="#000000" fill-rule="nonzero" xlink:href="#path-1"></use>
        <g id="Icon-Color" mask="url(#mask-2)" fill="#22212D">
            <rect id="Shape" x="0" y="0" width="24" height="24"></rect>
        </g>
    </g>
</svg>