<?xml version="1.0" encoding="UTF-8"?>
<svg width="24px" height="24px" viewBox="0 0 24 24" version="1.1" xmlns="http://www.w3.org/2000/svg" xmlns:xlink="http://www.w3.org/1999/xlink">
    <title>Icon/trash-2</title>
    <defs>
        <path d="M21,5 L17,5 L17,4 C17,2.3 15.7,1 14,1 L10,1 C8.3,1 7,2.3 7,4 L7,5 L3,5 C2.4,5 2,5.4 2,6 C2,6.6 2.4,7 3,7 L4,7 L4,20 C4,21.7 5.3,23 7,23 L17,23 C18.7,23 20,21.7 20,20 L20,7 L21,7 C21.6,7 22,6.6 22,6 C22,5.4 21.6,5 21,5 Z M9,4 C9,3.4 9.4,3 10,3 L14,3 C14.6,3 15,3.4 15,4 L15,5 L9,5 L9,4 Z M18,20 C18,20.6 17.6,21 17,21 L7,21 C6.4,21 6,20.6 6,20 L6,7 L18,7 L18,20 Z M11,11 L11,17 C11,17.6 10.6,18 10,18 C9.4,18 9,17.6 9,17 L9,11 C9,10.4 9.4,10 10,10 C10.6,10 11,10.4 11,11 Z M15,11 L15,17 C15,17.6 14.6,18 14,18 C13.4,18 13,17.6 13,17 L13,11 C13,10.4 13.4,10 14,10 C14.6,10 15,10.4 15,11 Z" id="path-1"></path>
    </defs>
    <g id="Icon/trash-2" stroke="none" stroke-width="1" fill="none" fill-rule="evenodd">
        <mask id="mask-2" fill="white">
            <use xlink:href="#path-1"></use>
        </mask>
        <use id="Mask" fill="#000000" fill-rule="nonzero" xlink:href="#path-1"></use>
        <g id="Icon-Color" mask="url(#mask-2)" fill="#22212D">
            <rect id="Shape" x="0" y="0" width="24" height="24"></rect>
        </g>
    </g>
</svg>