<?xml version="1.0" encoding="UTF-8"?>
<svg width="24px" height="24px" viewBox="0 0 24 24" version="1.1" xmlns="http://www.w3.org/2000/svg" xmlns:xlink="http://www.w3.org/1999/xlink">
    <title>Icon/trending-down</title>
    <defs>
        <path d="M24,18 C24,18.1 24,18.3 23.9,18.4 C23.8,18.6 23.6,18.8 23.4,18.9 C23.3,19 23.1,19 23,19 L17,19 C16.4,19 16,18.6 16,18 C16,17.4 16.4,17 17,17 L20.6,17 L13.5,9.9 L9.2,14.2 C8.8,14.6 8.2,14.6 7.8,14.2 L0.3,6.7 C-0.1,6.3 -0.1,5.7 0.3,5.3 C0.7,4.9 1.3,4.9 1.7,5.3 L8.5,12.1 L12.8,7.8 C13.2,7.4 13.8,7.4 14.2,7.8 L22,15.6 L22,12 C22,11.4 22.4,11 23,11 C23.6,11 24,11.4 24,12 L24,18 Z" id="path-1"></path>
    </defs>
    <g id="Icon/trending-down" stroke="none" stroke-width="1" fill="none" fill-rule="evenodd">
        <mask id="mask-2" fill="white">
            <use xlink:href="#path-1"></use>
        </mask>
        <use id="Mask" fill="#000000" fill-rule="nonzero" xlink:href="#path-1"></use>
        <g id="Icon-Color" mask="url(#mask-2)" fill="#22212D">
            <rect id="Shape" x="0" y="0" width="24" height="24"></rect>
        </g>
    </g>
</svg>