<?xml version="1.0" encoding="UTF-8"?>
<svg width="24px" height="24px" viewBox="0 0 24 24" version="1.1" xmlns="http://www.w3.org/2000/svg" xmlns:xlink="http://www.w3.org/1999/xlink">
    <title>Icon/triangle</title>
    <defs>
        <path d="M23.4755657,17.5445545 L14.6650695,3.48514851 C14.245522,2.79207921 13.511314,2.2970297 12.6722191,2.0990099 C11.8331243,1.9009901 10.9940294,2 10.2598214,2.3960396 C9.84027394,2.59405941 9.4207265,2.99009901 9.21095278,3.38613861 C9.21095278,3.38613861 9.21095278,3.38613861 9.21095278,3.38613861 L0.400456559,17.5445545 C-0.438638319,18.9306931 0.0857959798,20.8118812 1.55421202,21.6039604 C1.97375946,21.9009901 2.49819375,22 3.02262805,22 L20.8533942,22 C21.6924891,22 22.531584,21.7029703 23.0560183,21.1089109 C23.6853394,20.5148515 24,19.8217822 24,19.029703 C23.8951131,18.5346535 23.7902263,17.9405941 23.4755657,17.5445545 Z M21.5876022,19.7227723 C21.3778285,19.9207921 21.0631679,20.019802 20.8533942,20.019802 L3.02262805,20.019802 C2.81285433,20.019802 2.70796747,20.019802 2.49819375,19.9207921 C1.97375946,19.6237624 1.8688726,19.029703 2.07864631,18.5346535 L10.9940294,4.57425743 C11.0989163,4.47524752 11.2038031,4.27722772 11.30869,4.27722772 C11.8331243,3.98019802 12.4624454,4.17821782 12.777106,4.57425743 L21.6924891,18.5346535 C21.7973759,18.6336634 21.7973759,18.8316832 21.7973759,19.029703 C21.9022628,19.3267327 21.6924891,19.5247525 21.5876022,19.7227723 Z" id="path-1"></path>
    </defs>
    <g id="Icon/triangle" stroke="none" stroke-width="1" fill="none" fill-rule="evenodd">
        <mask id="mask-2" fill="white">
            <use xlink:href="#path-1"></use>
        </mask>
        <use id="Mask" fill="#000000" fill-rule="nonzero" xlink:href="#path-1"></use>
        <g id="Icon-Color" mask="url(#mask-2)" fill="#22212D">
            <rect id="Shape" x="0" y="0" width="24" height="24"></rect>
        </g>
    </g>
</svg>