<?xml version="1.0" encoding="UTF-8"?>
<svg width="24px" height="24px" viewBox="0 0 24 24" version="1.1" xmlns="http://www.w3.org/2000/svg" xmlns:xlink="http://www.w3.org/1999/xlink">
    <title>Icon/truck</title>
    <defs>
        <path d="M23.7,10.3 L20.7,7.3 C20.5,7.1 20.3,7 20,7 L17,7 L17,3 C17,2.4 16.6,2 16,2 L1,2 C0.4,2 0,2.4 0,3 L0,16 C0,16.6 0.4,17 1,17 L2.4,17 C2.1,17.5 2,18 2,18.5 C2,20.4 3.6,22 5.5,22 C7.4,22 9,20.4 9,18.5 C9,18 8.9,17.5 8.6,17 L15.3,17 C15.1,17.5 14.9,18 14.9,18.5 C14.9,20.4 16.5,22 18.4,22 C20.3,22 21.9,20.4 21.9,18.5 C21.9,18 21.8,17.5 21.5,17 L23,17 C23.6,17 24,16.6 24,16 L24,11 C24,10.7 23.9,10.5 23.7,10.3 Z M2,4 L15,4 L15,8 L15,15 L2,15 L2,4 Z M7,18.5 C7,19.3 6.3,20 5.5,20 C4.7,20 4,19.3 4,18.5 C4,17.7 4.7,17 5.5,17 C6.3,17 7,17.7 7,18.5 Z M20,18.5 C20,19.3 19.3,20 18.5,20 C17.7,20 17,19.3 17,18.5 C17,17.7 17.7,17 18.5,17 C19.3,17 20,17.7 20,18.5 Z M22,15 L17,15 L17,9 L19.6,9 L22,11.4 L22,15 Z" id="path-1"></path>
    </defs>
    <g id="Icon/truck" stroke="none" stroke-width="1" fill="none" fill-rule="evenodd">
        <mask id="mask-2" fill="white">
            <use xlink:href="#path-1"></use>
        </mask>
        <use id="Shape" fill="#000000" fill-rule="nonzero" xlink:href="#path-1"></use>
        <g id="Icon-Color" mask="url(#mask-2)" fill="#22212D">
            <rect id="Shape" x="0" y="0" width="24" height="24"></rect>
        </g>
    </g>
</svg>