<?xml version="1.0" encoding="UTF-8"?>
<svg width="24px" height="24px" viewBox="0 0 24 24" version="1.1" xmlns="http://www.w3.org/2000/svg" xmlns:xlink="http://www.w3.org/1999/xlink">
    <title>Icon/tv</title>
    <defs>
        <path d="M20,6 L14.4,6 L17.7,2.7 C18.1,2.3 18.1,1.7 17.7,1.3 C17.3,0.9 16.7,0.9 16.3,1.3 L12,5.6 L7.7,1.3 C7.3,0.9 6.7,0.9 6.3,1.3 C5.9,1.7 5.9,2.3 6.3,2.7 L9.6,6 L4,6 C2.3,6 1,7.3 1,9 L1,20 C1,21.7 2.3,23 4,23 L20,23 C21.7,23 23,21.7 23,20 L23,9 C23,7.3 21.7,6 20,6 Z M21,20 C21,20.6 20.6,21 20,21 L4,21 C3.4,21 3,20.6 3,20 L3,9 C3,8.4 3.4,8 4,8 L20,8 C20.6,8 21,8.4 21,9 L21,20 Z" id="path-1"></path>
    </defs>
    <g id="Icon/tv" stroke="none" stroke-width="1" fill="none" fill-rule="evenodd">
        <mask id="mask-2" fill="white">
            <use xlink:href="#path-1"></use>
        </mask>
        <use id="Mask" fill="#000000" fill-rule="nonzero" xlink:href="#path-1"></use>
        <g id="Icon-Color" mask="url(#mask-2)" fill="#22212D">
            <rect id="Shape" x="0" y="0" width="24" height="24"></rect>
        </g>
    </g>
</svg>