<?xml version="1.0" encoding="UTF-8"?>
<svg width="24px" height="24px" viewBox="0 0 24 24" version="1.1" xmlns="http://www.w3.org/2000/svg" xmlns:xlink="http://www.w3.org/1999/xlink">
    <title>Icon/twitter</title>
    <defs>
        <path d="M23.5748992,2.18881297 C23.2755415,1.98768417 22.776612,1.98768417 22.4772544,2.18881297 C21.7787531,2.69163497 20.980466,3.09389258 20.1821789,3.39558578 C18.186461,1.58542656 15.0930984,1.48486216 12.9975947,3.39558578 C11.7003781,4.40122979 11.0018769,5.90969581 11.0018769,7.51872623 C8.10808603,7.31759743 5.51365286,5.80913141 3.8172927,3.39558578 C3.61772092,3.09389258 3.31836325,2.99332818 2.91921968,2.99332818 C2.52007612,2.99332818 2.22071844,3.29502138 2.12093255,3.59671458 C2.02114666,3.69727899 1.02328775,6.11082461 1.12307364,9.02719225 C1.22285953,11.5413023 2.22071844,14.7593631 5.91279642,17.0723443 C4.41600805,17.7762952 2.7196479,18.0779884 1.02328775,18.0779884 C0.624144185,18.0779884 0.125214729,18.3796816 0.0254288374,18.7819392 C-0.0743570538,19.1841968 0.125214729,19.6870188 0.524358294,19.8881476 C3.01900557,21.2960492 5.71322464,22 8.20787192,22 C10.7025192,22 13.0973806,21.3966136 15.2926702,20.0892764 C19.5834635,17.6757307 21.9783249,13.0497683 21.9783249,7.51872623 C21.9783249,7.31759743 21.9783249,7.21703303 21.9783249,7.01590422 C22.9761838,5.90969581 23.6746851,4.6023586 23.9740427,3.19445698 C24.0738286,2.79219937 23.8742568,2.38994177 23.5748992,2.18881297 Z M20.1821789,6.01026021 C19.9826071,6.21138901 19.8828212,6.61364662 19.8828212,6.91533982 C19.9826071,7.11646863 19.9826071,7.31759743 19.9826071,7.51872623 C19.9826071,12.3458175 17.8871034,16.2678291 14.2948113,18.3796816 C11.5008063,19.988712 8.20787192,20.3909696 4.91493751,19.5864544 C6.21215409,19.1841968 7.40958479,18.6813748 8.50722959,17.8768596 C8.90637316,17.6757307 9.00615905,17.3740375 9.00615905,16.9717799 C9.00615905,16.5695223 8.70680138,16.2678291 8.4074437,16.1672647 C2.61986201,13.5525903 2.81943379,8.62493464 3.41814914,6.11082461 C5.61343875,8.32324144 8.70680138,9.63057865 11.9997358,9.53001425 C12.4986652,9.53001425 12.9975947,9.02719225 12.9975947,8.52437024 L12.9975947,7.51872623 C12.9975947,6.51308222 13.3967383,5.50743821 14.1950254,4.8034874 C15.5920279,3.49615018 17.8871034,3.69727899 19.0845341,5.1051806 C19.3838917,5.40687381 19.7830353,5.50743821 20.082393,5.40687381 C20.2819648,5.3063094 20.5813224,5.3063094 20.7808942,5.205745 C20.5813224,5.50743821 20.3817507,5.70856701 20.1821789,6.01026021 Z" id="path-1"></path>
    </defs>
    <g id="Icon/twitter" stroke="none" stroke-width="1" fill="none" fill-rule="evenodd">
        <mask id="mask-2" fill="white">
            <use xlink:href="#path-1"></use>
        </mask>
        <use id="Mask" fill="#000000" fill-rule="nonzero" xlink:href="#path-1"></use>
        <g id="Icon-Color" mask="url(#mask-2)" fill="#22212D">
            <rect id="Shape" x="0" y="0" width="24" height="24"></rect>
        </g>
    </g>
</svg>