<?xml version="1.0" encoding="UTF-8"?>
<svg width="24px" height="24px" viewBox="0 0 24 24" version="1.1" xmlns="http://www.w3.org/2000/svg" xmlns:xlink="http://www.w3.org/1999/xlink">
    <title>Icon/umbrella</title>
    <defs>
        <path d="M10.9,1.06671091 C5.1,1.56747093 0.6,6.17446316 0,11.8831274 C0,12.1835835 0.1,12.4840395 0.3,12.6843435 C0.4,12.8846475 0.7,12.9847995 1,12.9847995 L11,12.9847995 L11,18.9939198 C11,21.1972639 12.8,23 15,23 C17.2,23 19,21.1972639 19,18.9939198 C19,18.3930078 18.6,17.9923998 18,17.9923998 C17.4,17.9923998 17,18.3930078 17,18.9939198 C17,20.0955919 16.1,20.9969599 15,20.9969599 C13.9,20.9969599 13,20.0955919 13,18.9939198 L13,12.9847995 L23,12.9847995 C23.3,12.9847995 23.6,12.8846475 23.7,12.6843435 C23.9,12.4840395 24,12.1835835 24,11.8831274 C23.4,5.27309512 17.5,0.365646872 10.9,1.06671091 Z M12,10.9817594 L2.2,10.9817594 C3,6.67522319 6.6,3.47035903 11,2.969599 C16.1,2.46883898 20.8,5.97415915 21.8,10.9817594 L12,10.9817594 Z" id="path-1"></path>
    </defs>
    <g id="Icon/umbrella" stroke="none" stroke-width="1" fill="none" fill-rule="evenodd">
        <mask id="mask-2" fill="white">
            <use xlink:href="#path-1"></use>
        </mask>
        <use id="Mask" fill="#000000" fill-rule="nonzero" xlink:href="#path-1"></use>
        <g id="Icon-Color" mask="url(#mask-2)" fill="#22212D">
            <rect id="Shape" x="0" y="0" width="24" height="24"></rect>
        </g>
    </g>
</svg>