<?xml version="1.0" encoding="UTF-8"?>
<svg width="24px" height="24px" viewBox="0 0 24 24" version="1.1" xmlns="http://www.w3.org/2000/svg" xmlns:xlink="http://www.w3.org/1999/xlink">
    <title>Icon/underline</title>
    <defs>
        <path d="M5,10 L5,3 C5,2.4 5.4,2 6,2 C6.6,2 7,2.4 7,3 L7,10 C7,12.8 9.2,15 12,15 C14.8,15 17,12.8 17,10 L17,3 C17,2.4 17.4,2 18,2 C18.6,2 19,2.4 19,3 L19,10 C19,13.9 15.9,17 12,17 C8.1,17 5,13.9 5,10 Z M20,20 L4,20 C3.4,20 3,20.4 3,21 C3,21.6 3.4,22 4,22 L20,22 C20.6,22 21,21.6 21,21 C21,20.4 20.6,20 20,20 Z" id="path-1"></path>
    </defs>
    <g id="Icon/underline" stroke="none" stroke-width="1" fill="none" fill-rule="evenodd">
        <mask id="mask-2" fill="white">
            <use xlink:href="#path-1"></use>
        </mask>
        <use id="Mask" fill="#000000" fill-rule="nonzero" xlink:href="#path-1"></use>
        <g id="Icon-Color" mask="url(#mask-2)" fill="#22212D">
            <rect id="Shape" x="0" y="0" width="24" height="24"></rect>
        </g>
    </g>
</svg>