<?xml version="1.0" encoding="UTF-8"?>
<svg width="24px" height="24px" viewBox="0 0 24 24" version="1.1" xmlns="http://www.w3.org/2000/svg" xmlns:xlink="http://www.w3.org/1999/xlink">
    <title>Icon/upload-cloud</title>
    <defs>
        <path d="M23.7969809,15.6661362 C23.2990611,17.174199 22.3032213,18.4811868 20.9090456,19.2854869 C20.7098777,19.3860245 20.6102937,19.3860245 20.4111257,19.3860245 C20.0127898,19.3860245 19.7140379,19.1849494 19.5148699,18.8833369 C19.216118,18.3806493 19.415286,17.7774241 19.9132058,17.4758116 C20.8094616,16.973124 21.5065495,16.0682863 21.8053014,15.0629111 C22.1040533,14.0575359 22.0044694,12.9516231 21.5065495,12.0467855 C20.8094616,10.7397977 19.5148699,9.93549753 18.0211103,9.93549753 L16.7265186,9.93549753 C16.2285987,9.93549753 15.8302628,9.63388497 15.7306788,9.23173488 C14.7348391,5.51184662 10.950648,3.19948365 7.26604081,4.20485885 C5.47352923,4.60700894 3.97976959,5.71292166 3.0835138,7.32152199 C2.08767403,9.03065984 1.7889221,10.8403352 2.28684198,12.7505481 C2.58559391,13.8564608 3.0835138,14.861836 3.78060163,15.6661362 C4.17893754,16.0682863 4.07935356,16.6715114 3.68101766,17.0736615 C3.28268175,17.4758116 2.68517789,17.3752741 2.28684198,16.973124 C1.39058619,15.8672112 0.693498356,14.660761 0.295162449,13.2532357 C-0.302341411,10.9408727 -0.00358948079,8.52797224 1.29100222,6.41668431 C2.58559391,4.30539638 4.47768947,2.89787109 6.76812093,2.29464596 C11.2493999,1.08819572 15.9298468,3.70217125 17.4236064,8.02528464 L18.0211103,8.02528464 C20.2119578,8.02528464 22.2036373,9.23173488 23.2990611,11.1419478 C23.9961489,12.4489355 24.1953168,14.1580734 23.7969809,15.6661362 Z M12.7431595,11.2424853 C12.6435756,11.1419478 12.5439916,11.0414103 12.4444076,11.0414103 C12.2452396,10.9408727 11.9464877,10.9408727 11.6477358,11.0414103 C11.5481518,11.1419478 11.4485678,11.1419478 11.3489839,11.2424853 L7.36562479,15.2639861 C6.96728888,15.6661362 6.96728888,16.2693613 7.36562479,16.6715114 C7.7639607,17.0736615 8.36146456,17.0736615 8.75980046,16.6715114 L11.0502319,14.3591484 L11.0502319,20.9946248 C11.0502319,21.5978499 11.4485678,22 12.0460717,22 C12.6435756,22 13.0419115,21.5978499 13.0419115,20.9946248 L13.0419115,14.3591484 L15.3323429,16.6715114 C15.5315109,16.8725864 15.8302628,16.973124 16.0294308,16.973124 C16.2285987,16.973124 16.5273506,16.8725864 16.7265186,16.6715114 C17.1248545,16.2693613 17.1248545,15.6661362 16.7265186,15.2639861 L12.7431595,11.2424853 Z" id="path-1"></path>
    </defs>
    <g id="Icon/upload-cloud" stroke="none" stroke-width="1" fill="none" fill-rule="evenodd">
        <mask id="mask-2" fill="white">
            <use xlink:href="#path-1"></use>
        </mask>
        <use id="Mask" fill="#000000" fill-rule="nonzero" xlink:href="#path-1"></use>
        <g id="Icon-Color" mask="url(#mask-2)" fill="#22212D">
            <rect id="Shape" x="0" y="0" width="24" height="24"></rect>
        </g>
    </g>
</svg>