<?xml version="1.0" encoding="UTF-8"?>
<svg width="24px" height="24px" viewBox="0 0 24 24" version="1.1" xmlns="http://www.w3.org/2000/svg" xmlns:xlink="http://www.w3.org/1999/xlink">
    <title>Icon/user-x</title>
    <defs>
        <path d="M17,19 L17,21 C17,21.6 16.6,22 16,22 C15.4,22 15,21.6 15,21 L15,19 C15,17.3 13.7,16 12,16 L5,16 C3.3,16 2,17.3 2,19 L2,21 C2,21.6 1.6,22 1,22 C0.4,22 0,21.6 0,21 L0,19 C0,16.2 2.2,14 5,14 L12,14 C14.8,14 17,16.2 17,19 Z M3.5,7 C3.5,4.2 5.7,2 8.5,2 C11.3,2 13.5,4.2 13.5,7 C13.5,9.8 11.3,12 8.5,12 C5.7,12 3.5,9.8 3.5,7 Z M5.5,7 C5.5,8.7 6.8,10 8.5,10 C10.2,10 11.5,8.7 11.5,7 C11.5,5.3 10.2,4 8.5,4 C6.8,4 5.5,5.3 5.5,7 Z M21.9,10.5 L23.7,8.7 C24.1,8.3 24.1,7.7 23.7,7.3 C23.3,6.9 22.7,6.9 22.3,7.3 L20.5,9.1 L18.7,7.3 C18.3,6.9 17.7,6.9 17.3,7.3 C16.9,7.7 16.9,8.3 17.3,8.7 L19.1,10.5 L17.3,12.3 C16.9,12.7 16.9,13.3 17.3,13.7 C17.5,13.9 17.8,14 18,14 C18.2,14 18.5,13.9 18.7,13.7 L20.5,11.9 L22.3,13.7 C22.5,13.9 22.8,14 23,14 C23.2,14 23.5,13.9 23.7,13.7 C24.1,13.3 24.1,12.7 23.7,12.3 L21.9,10.5 Z" id="path-1"></path>
    </defs>
    <g id="Icon/user-x" stroke="none" stroke-width="1" fill="none" fill-rule="evenodd">
        <mask id="mask-2" fill="white">
            <use xlink:href="#path-1"></use>
        </mask>
        <use id="Mask" fill="#000000" fill-rule="nonzero" xlink:href="#path-1"></use>
        <g id="Icon-Color" mask="url(#mask-2)" fill="#22212D">
            <rect id="Shape" x="0" y="0" width="24" height="24"></rect>
        </g>
    </g>
</svg>