<?xml version="1.0" encoding="UTF-8"?>
<svg width="24px" height="24px" viewBox="0 0 24 24" version="1.1" xmlns="http://www.w3.org/2000/svg" xmlns:xlink="http://www.w3.org/1999/xlink">
    <title>Icon/video-off</title>
    <defs>
        <path d="M24,7 L24,17 C24,17.6 23.6,18 23,18 C22.4,18 22,17.6 22,17 L22,9 L17.6,12.2 C17.2,12.5 16.7,12.4 16.3,12.1 L15.3,11.1 C15.1,10.9 15,10.7 15,10.4 L15,7 C15,6.4 14.6,6 14,6 L10.7,6 C10.1,6 9.7,5.6 9.7,5 C9.7,4.4 10.1,4 10.7,4 L14,4 C15.7,4 17,5.3 17,7 L17,9.9 L17.1,10 L22.4,6.2 C22.7,6 23.1,5.9 23.4,6.1 C23.8,6.3 24,6.6 24,7 Z M23.7,22.3 C24.1,22.7 24.1,23.3 23.7,23.7 C23.5,23.9 23.3,24 23,24 C22.7,24 22.5,23.9 22.3,23.7 L16.8,18.2 C16.3,19.2 15.2,20 14,20 L3,20 C1.3,20 0,18.7 0,17 L0,7 C0,5.5 1.1,4.2 2.6,4 L0.3,1.7 C-0.1,1.3 -0.1,0.7 0.3,0.3 C0.7,-0.1 1.3,-0.1 1.7,0.3 L5.7,4.3 C5.7,4.3 5.7,4.3 5.7,4.3 L16.7,15.3 C16.7,15.3 16.7,15.3 16.7,15.3 L23.7,22.3 Z M15,16.4 L4.6,6 L3,6 C2.4,6 2,6.4 2,7 L2,17 C2,17.6 2.4,18 3,18 L14,18 C14.6,18 15,17.6 15,17 L15,16.4 Z" id="path-1"></path>
    </defs>
    <g id="Icon/video-off" stroke="none" stroke-width="1" fill="none" fill-rule="evenodd">
        <mask id="mask-2" fill="white">
            <use xlink:href="#path-1"></use>
        </mask>
        <use id="Mask" fill="#000000" fill-rule="nonzero" xlink:href="#path-1"></use>
        <g id="Icon-Color" mask="url(#mask-2)" fill="#22212D">
            <rect id="Shape" x="0" y="0" width="24" height="24"></rect>
        </g>
    </g>
</svg>