<?xml version="1.0" encoding="UTF-8"?>
<svg width="24px" height="24px" viewBox="0 0 24 24" version="1.1" xmlns="http://www.w3.org/2000/svg" xmlns:xlink="http://www.w3.org/1999/xlink">
    <title>Icon/video</title>
    <defs>
        <path d="M23.5,6.1 C23.2,5.9 22.8,6 22.5,6.2 L17,10.1 L17,7 C17,5.3 15.7,4 14,4 L3,4 C1.3,4 0,5.3 0,7 L0,17 C0,18.7 1.3,20 3,20 L14,20 C15.7,20 17,18.7 17,17 L17,13.9 L22.4,17.8 C22.6,17.9 22.8,18 23,18 C23.2,18 23.3,18 23.5,17.9 C23.8,17.7 24,17.4 24,17 L24,7 C24,6.6 23.8,6.3 23.5,6.1 Z M15,17 C15,17.6 14.6,18 14,18 L3,18 C2.4,18 2,17.6 2,17 L2,7 C2,6.4 2.4,6 3,6 L14,6 C14.6,6 15,6.4 15,7 L15,17 Z M22,15.1 L17.7,12 L22,8.9 L22,15.1 Z" id="path-1"></path>
    </defs>
    <g id="Icon/video" stroke="none" stroke-width="1" fill="none" fill-rule="evenodd">
        <mask id="mask-2" fill="white">
            <use xlink:href="#path-1"></use>
        </mask>
        <use id="Mask" fill="#000000" fill-rule="nonzero" xlink:href="#path-1"></use>
        <g id="Icon-Color" mask="url(#mask-2)" fill="#22212D">
            <rect id="Shape" x="0" y="0" width="24" height="24"></rect>
        </g>
    </g>
</svg>