<?xml version="1.0" encoding="UTF-8"?>
<svg width="24px" height="24px" viewBox="0 0 24 24" version="1.1" xmlns="http://www.w3.org/2000/svg" xmlns:xlink="http://www.w3.org/1999/xlink">
    <title>Icon/voicemail</title>
    <defs>
        <path d="M18.5,7 C15.5,7 13,9.5 13,12.5 C13,13.8 13.5,15 14.3,16 L9.7,16 C10.5,15 11,13.8 11,12.5 C11,9.5 8.5,7 5.5,7 C2.5,7 0,9.5 0,12.5 C0,15.5 2.5,18 5.5,18 L18.5,18 C21.5,18 24,15.5 24,12.5 C24,9.5 21.5,7 18.5,7 Z M2,12.5 C2,10.6 3.6,9 5.5,9 C7.4,9 9,10.6 9,12.5 C9,14.4 7.4,16 5.5,16 C3.6,16 2,14.4 2,12.5 Z M18.5,16 C16.6,16 15,14.4 15,12.5 C15,10.6 16.6,9 18.5,9 C20.4,9 22,10.6 22,12.5 C22,14.4 20.4,16 18.5,16 Z" id="path-1"></path>
    </defs>
    <g id="Icon/voicemail" stroke="none" stroke-width="1" fill="none" fill-rule="evenodd">
        <mask id="mask-2" fill="white">
            <use xlink:href="#path-1"></use>
        </mask>
        <use id="Mask" fill="#000000" fill-rule="nonzero" xlink:href="#path-1"></use>
        <g id="Icon-Color" mask="url(#mask-2)" fill="#22212D">
            <rect id="Shape" x="0" y="0" width="24" height="24"></rect>
        </g>
    </g>
</svg>