<?xml version="1.0" encoding="UTF-8"?>
<svg width="24px" height="24px" viewBox="0 0 24 24" version="1.1" xmlns="http://www.w3.org/2000/svg" xmlns:xlink="http://www.w3.org/1999/xlink">
    <title>Icon/volume</title>
    <defs>
        <path d="M16.5190296,4.10895559 C16.2444422,3.90906824 15.7867966,4.00901192 15.5122092,4.20889927 L11.21034,8.00675894 L7.91529131,8.00675894 C7.36611652,8.00675894 7,8.40653364 7,9.00619569 L7,15.0028162 C7,15.6024783 7.36611652,16.002253 7.91529131,16.002253 L11.21034,16.002253 L15.5122092,19.8001126 C15.6952674,19.9000563 15.8783257,20 16.061384,20 C16.1529131,20 16.3359713,20 16.4275005,19.9000563 C16.7020879,19.700169 16.9766753,19.4003379 16.9766753,19.0005632 L16.9766753,5.00844867 C17.0682044,4.60867397 16.8851461,4.30884294 16.5190296,4.10895559 Z M15.2376218,16.9017461 L12.1256313,14.2032668 C11.9425731,14.1033231 11.7595148,14.0033795 11.5764565,14.0033795 L8.83058262,14.0033795 L8.83058262,10.0056324 L11.5764565,10.0056324 C11.7595148,10.0056324 11.9425731,9.90568877 12.1256313,9.8057451 L15.2376218,7.10726586 L15.2376218,16.9017461 Z" id="path-1"></path>
    </defs>
    <g id="Icon/volume" stroke="none" stroke-width="1" fill="none" fill-rule="evenodd">
        <mask id="mask-2" fill="white">
            <use xlink:href="#path-1"></use>
        </mask>
        <use id="Mask" fill="#000000" fill-rule="nonzero" xlink:href="#path-1"></use>
        <g id="Icon-Color" mask="url(#mask-2)" fill="#22212D">
            <rect id="Shape" x="0" y="0" width="24" height="24"></rect>
        </g>
    </g>
</svg>