<?xml version="1.0" encoding="UTF-8"?>
<svg width="24px" height="24px" viewBox="0 0 24 24" version="1.1" xmlns="http://www.w3.org/2000/svg" xmlns:xlink="http://www.w3.org/1999/xlink">
    <title>Icon/volume-2</title>
    <defs>
        <path d="M11.3881952,4.10827923 C11.0885358,3.90963272 10.5891033,4.00895597 10.2894438,4.20760248 L5.59477866,7.98188617 L1.99886493,7.98188617 C1.39954597,7.98188617 1,8.37917918 1,8.97511871 L1,14.934514 C1,15.5304535 1.39954597,15.9277466 1.99886493,15.9277466 L5.59477866,15.9277466 L10.2894438,19.7020302 C10.4892168,19.8013535 10.6889898,19.9006767 10.8887628,19.9006767 C10.9886493,19.9006767 11.1884222,19.9006767 11.2883087,19.8013535 C11.5879682,19.602707 11.8876277,19.3047372 11.8876277,18.9074442 L11.8876277,5.00218852 C11.9875142,4.6048955 11.7877412,4.30692574 11.3881952,4.10827923 Z M9.98978434,16.8216558 L6.59364359,14.139928 C6.3938706,14.0406047 6.19409762,13.9412815 5.99432463,13.9412815 L2.99772985,13.9412815 L2.99772985,9.96835126 L5.99432463,9.96835126 C6.19409762,9.96835126 6.3938706,9.86902801 6.59364359,9.76970475 L9.98978434,7.08797687 L9.98978434,16.8216558 Z M16.1827469,7.78323966 C18.4801362,10.0676745 18.4801362,13.8419582 16.1827469,16.2257163 C15.9829739,16.4243628 15.6833144,16.5236861 15.4835414,16.5236861 C15.2837684,16.5236861 14.984109,16.4243628 14.784336,16.2257163 C14.38479,15.8284233 14.38479,15.2324838 14.784336,14.8351907 C16.3825199,13.2460187 16.3825199,10.7629373 14.784336,9.17376522 C14.38479,8.7764722 14.38479,8.18053268 14.784336,7.78323966 C15.183882,7.38594664 15.8830874,7.38594664 16.1827469,7.78323966 Z M19.7786606,19.7020302 C19.5788876,19.9006767 19.2792281,20 19.0794552,20 C18.8796822,20 18.5800227,19.9006767 18.3802497,19.7020302 C17.9807037,19.3047372 17.9807037,18.7087977 18.3802497,18.3115047 C21.876277,14.8351907 21.876277,9.17376522 18.3802497,5.6974513 C17.9807037,5.30015829 17.9807037,4.70421876 18.3802497,4.30692574 C18.7797957,3.90963272 19.3791146,3.90963272 19.7786606,4.30692574 C24.0737798,8.47850244 24.0737798,15.4311303 19.7786606,19.7020302 Z" id="path-1"></path>
    </defs>
    <g id="Icon/volume-2" stroke="none" stroke-width="1" fill="none" fill-rule="evenodd">
        <mask id="mask-2" fill="white">
            <use xlink:href="#path-1"></use>
        </mask>
        <use id="Mask" fill="#000000" fill-rule="nonzero" xlink:href="#path-1"></use>
        <g id="Icon-Color" mask="url(#mask-2)" fill="#22212D">
            <rect id="Shape" x="0" y="0" width="24" height="24"></rect>
        </g>
    </g>
</svg>