<?xml version="1.0" encoding="UTF-8"?>
<svg width="24px" height="24px" viewBox="0 0 24 24" version="1.1" xmlns="http://www.w3.org/2000/svg" xmlns:xlink="http://www.w3.org/1999/xlink">
    <title>Icon/volume-x</title>
    <defs>
        <path d="M11.4,4.10895559 C11.1,3.90906824 10.6,4.00901192 10.3,4.20889927 L5.6,8.00675894 L2,8.00675894 C1.4,8.00675894 1,8.40653364 1,9.00619569 L1,15.0028162 C1,15.6024783 1.4,16.002253 2,16.002253 L5.6,16.002253 L10.3,19.8001126 C10.5,19.9000563 10.7,20 10.9,20 C11,20 11.2,20 11.3,19.9000563 C11.6,19.700169 11.9,19.4003379 11.9,19.0005632 L11.9,5.00844867 C12,4.60867397 11.8,4.30884294 11.4,4.10895559 Z M10,16.9017461 L6.6,14.2032668 C6.4,14.1033231 6.2,14.0033795 6,14.0033795 L3,14.0033795 L3,10.0056324 L6,10.0056324 C6.2,10.0056324 6.4,9.90568877 6.6,9.8057451 L10,7.10726586 L10,16.9017461 Z M23.7,14.3032105 C24.1,14.7029852 24.1,15.3026473 23.7,15.702422 C23.5,15.9023093 23.3,16.002253 23,16.002253 C22.7,16.002253 22.5,15.9023093 22.3,15.702422 L20,13.4037174 L17.7,15.702422 C17.5,15.9023093 17.3,16.002253 17,16.002253 C16.7,16.002253 16.5,15.9023093 16.3,15.702422 C15.9,15.3026473 15.9,14.7029852 16.3,14.3032105 L18.6,12.004506 L16.3,9.70580142 C15.9,9.30602672 15.9,8.70636467 16.3,8.30658996 C16.7,7.90681526 17.3,7.90681526 17.7,8.30658996 L20,10.6052945 L22.3,8.30658996 C22.7,7.90681526 23.3,7.90681526 23.7,8.30658996 C24.1,8.70636467 24.1,9.30602672 23.7,9.70580142 L21.4,12.004506 L23.7,14.3032105 Z" id="path-1"></path>
    </defs>
    <g id="Icon/volume-x" stroke="none" stroke-width="1" fill="none" fill-rule="evenodd">
        <mask id="mask-2" fill="white">
            <use xlink:href="#path-1"></use>
        </mask>
        <use id="Mask" fill="#000000" fill-rule="nonzero" xlink:href="#path-1"></use>
        <g id="Icon-Color" mask="url(#mask-2)" fill="#22212D">
            <rect id="Shape" x="0" y="0" width="24" height="24"></rect>
        </g>
    </g>
</svg>