<?xml version="1.0" encoding="UTF-8"?>
<svg width="24px" height="24px" viewBox="0 0 24 24" version="1.1" xmlns="http://www.w3.org/2000/svg" xmlns:xlink="http://www.w3.org/1999/xlink">
    <title>Icon/volume-1</title>
    <defs>
        <path d="M14.4,4.10895559 C14.1,3.90906824 13.6,4.00901192 13.3,4.20889927 L8.6,8.00675894 L5,8.00675894 C4.4,8.00675894 4,8.40653364 4,9.00619569 L4,15.0028162 C4,15.6024783 4.4,16.002253 5,16.002253 L8.6,16.002253 L13.3,19.8001126 C13.5,19.9000563 13.7,20 13.9,20 C14,20 14.2,20 14.3,19.9000563 C14.6,19.700169 14.9,19.4003379 14.9,19.0005632 L14.9,5.00844867 C15,4.60867397 14.8,4.30884294 14.4,4.10895559 Z M13,16.9017461 L9.6,14.2032668 C9.4,14.1033231 9.2,14.0033795 9,14.0033795 L6,14.0033795 L6,10.0056324 L9,10.0056324 C9.2,10.0056324 9.4,9.90568877 9.6,9.8057451 L13,7.10726586 L13,16.9017461 Z M19.2,16.2021403 C19,16.4020277 18.7,16.5019714 18.5,16.5019714 C18.3,16.5019714 18,16.4020277 17.8,16.2021403 C17.4,15.8023656 17.4,15.2027036 17.8,14.8029289 C19.4,13.2038301 19.4,10.7052382 17.8,9.10613937 C17.4,8.70636467 17.4,8.10670261 17.8,7.70692791 C18.2,7.30715321 18.8,7.30715321 19.2,7.70692791 C21.6,10.1055761 21.6,13.9034358 19.2,16.2021403 Z" id="path-1"></path>
    </defs>
    <g id="Icon/volume-1" stroke="none" stroke-width="1" fill="none" fill-rule="evenodd">
        <mask id="mask-2" fill="white">
            <use xlink:href="#path-1"></use>
        </mask>
        <use id="Mask" fill="#000000" fill-rule="nonzero" xlink:href="#path-1"></use>
        <g id="Icon-Color" mask="url(#mask-2)" fill="#22212D">
            <rect id="Shape" x="0" y="0" width="24" height="24"></rect>
        </g>
    </g>
</svg>