<?xml version="1.0" encoding="UTF-8"?>
<svg width="24px" height="24px" viewBox="0 0 24 24" version="1.1" xmlns="http://www.w3.org/2000/svg" xmlns:xlink="http://www.w3.org/1999/xlink">
    <title>Icon/wallet</title>
    <g id="Icon/wallet" stroke="none" stroke-width="1" fill="none" fill-rule="evenodd">
        <path d="M19,3 C19.5128358,3 19.9355072,3.38604019 19.9932723,3.88337887 L20,4 L20,7 L21,7 C21.5128358,7 21.9355072,7.38604019 21.9932723,7.88337887 L22,8 L22,11 C22.5522847,11 23,11.4477153 23,12 L23,12 L23,16 C23,16.5522847 22.5522847,17 22,17 L22,17 L22,20 C22,20.5128358 21.6139598,20.9355072 21.1166211,20.9932723 L21,21 L5,21 C3.40672542,21 2.09665386,19.7468311 2.00510955,18.1758175 L2,18 L2,6 C2,4.40672542 3.2531689,3.09665386 4.82418245,3.00510955 L5,3 L19,3 Z M3.99997676,8.82816187 L4,18 C4,18.5085927 4.38998022,18.934901 4.88422317,18.9932073 L5,19 L20,19 L20,17 L18,17 C16.4023191,17 15.0963391,15.75108 15.0050927,14.1762728 L15,14 C15,12.3477153 16.3477153,11 18,11 L18,11 L20,11 L20,9 L5,9 C4.64965031,9 4.3129943,8.93940569 3.99997676,8.82816187 Z M21,13 L18,13 C17.4914073,13 17.065099,13.3899802 17.0067927,13.8842232 L17.0067927,13.8842232 L17,14 C17,14.5522847 17.4477153,15 18,15 L18,15 L21,15 L21,13 Z M18,5 L5,5 C4.49140727,5 4.065099,5.38998022 4.00679268,5.88422317 L4,6 C4,6.50859273 4.38998022,6.934901 4.88422317,6.99320732 L5,7 L18,7 L18,5 Z" id="Combined-Shape" fill="#22212D"></path>
    </g>
</svg>