<?xml version="1.0" encoding="UTF-8"?>
<svg width="24px" height="24px" viewBox="0 0 24 24" version="1.1" xmlns="http://www.w3.org/2000/svg" xmlns:xlink="http://www.w3.org/1999/xlink">
    <title>Icon/watch</title>
    <defs>
        <path d="M20,12 C20,9.7 19,7.7 17.5,6.2 L17.2,2.7 C17,1.2 15.8,0 14.2,0 C14.2,0 14.2,0 14.2,0 L9.8,0 C8.3,0 7,1.2 6.8,2.7 L6.5,6.2 C5,7.6 4,9.7 4,12 C4,14.3 5,16.4 6.5,17.8 L6.8,21.3 C7,22.8 8.3,24 9.8,24 C9.8,24 9.8,24 9.8,24 L14.1,24 C14.1,24 14.1,24 14.1,24 C15.7,24 16.9,22.8 17.1,21.3 L17.4,17.9 C19,16.4 20,14.3 20,12 Z M8.8,2.9 C8.8,2.4 9.3,2 9.8,2 L14.2,2 C14.2,2 14.2,2 14.2,2 C14.7,2 15.1,2.4 15.2,2.9 L15.4,4.7 C14.3,4.3 13.2,4 12,4 C10.8,4 9.7,4.3 8.7,4.7 L8.8,2.9 Z M6,12 C6,8.7 8.7,6 12,6 C15.3,6 18,8.7 18,12 C18,13.8 17.2,15.5 15.9,16.6 C15.9,16.6 15.9,16.6 15.9,16.6 C14.9,17.5 13.5,18 12,18 C8.7,18 6,15.3 6,12 Z M15.2,21.1 C15.2,21.6 14.7,22 14.2,22 C14.2,22 14.2,22 14.2,22 L9.8,22 C9.8,22 9.8,22 9.8,22 C9.3,22 8.9,21.6 8.8,21.1 L8.6,19.3 C9.6,19.8 10.7,20 11.9,20 C13.1,20 14.2,19.7 15.2,19.3 L15.2,21.1 Z M11.3,12.7 C11.1,12.5 11,12.3 11,12 L11,9 C11,8.4 11.4,8 12,8 C12.6,8 13,8.4 13,9 L13,11.6 L14.2,12.8 C14.6,13.2 14.6,13.8 14.2,14.2 C14,14.4 13.7,14.5 13.5,14.5 C13.3,14.5 13,14.4 12.8,14.2 L11.3,12.7 Z" id="path-1"></path>
    </defs>
    <g id="Icon/watch" stroke="none" stroke-width="1" fill="none" fill-rule="evenodd">
        <mask id="mask-2" fill="white">
            <use xlink:href="#path-1"></use>
        </mask>
        <use id="Mask" fill="#000000" fill-rule="nonzero" xlink:href="#path-1"></use>
        <g id="Icon-Color" mask="url(#mask-2)" fill="#22212D">
            <rect id="Shape" x="0" y="0" width="24" height="24"></rect>
        </g>
    </g>
</svg>