<?xml version="1.0" encoding="UTF-8"?>
<svg width="24px" height="24px" viewBox="0 0 24 24" version="1.1" xmlns="http://www.w3.org/2000/svg" xmlns:xlink="http://www.w3.org/1999/xlink">
    <title>Icon/wifi-off</title>
    <defs>
        <path d="M23.7,23.7 C23.5,23.9 23.3,24 23,24 C22.7,24 22.5,23.9 22.3,23.7 L15.7,17.1 C15.6,17.1 15.6,17.1 15.5,17.1 C15.3,17.1 15.1,17 14.9,16.9 C13.2,15.7 10.8,15.7 9.1,16.9 C8.6,17.2 8,17.1 7.7,16.7 C7.4,16.2 7.5,15.6 7.9,15.3 C9.3,14.3 11,13.9 12.6,14.1 L9.8,11.3 C8.3,11.6 6.8,12.3 5.6,13.4 C5.4,13.6 5.2,13.6 5,13.6 C4.7,13.6 4.4,13.5 4.2,13.2 C3.8,12.8 3.9,12.1 4.3,11.8 C5.4,10.8 6.8,10.1 8.2,9.7 L5.9,7.3 C4.5,7.9 3.2,8.7 2.1,9.7 C1.9,9.9 1.7,10 1.4,10 C1.1,10 0.8,9.9 0.6,9.7 C0.2,9.3 0.3,8.7 0.7,8.3 C1.8,7.3 3,6.5 4.3,5.9 L0.3,1.7 C-0.1,1.3 -0.1,0.7 0.3,0.3 C0.7,-0.1 1.3,-0.1 1.7,0.3 L6.8,5.4 C6.8,5.4 6.8,5.4 6.8,5.4 L23.7,22.3 C24.1,22.7 24.1,23.3 23.7,23.7 Z M15.8,10.6 C15.6,11.1 15.8,11.7 16.3,11.9 C17,12.3 17.7,12.7 18.4,13.3 C18.6,13.5 18.8,13.5 19,13.5 C19.3,13.5 19.6,13.4 19.8,13.1 C20.2,12.7 20.1,12 19.7,11.7 C18.9,11.1 18.1,10.5 17.2,10.1 C16.7,9.9 16.1,10.1 15.8,10.6 Z M10.8,6 C14.8,5.7 18.9,7 21.9,9.7 C22.1,9.9 22.3,9.9 22.6,9.9 C22.9,9.9 23.2,9.8 23.4,9.6 C23.8,9.2 23.7,8.6 23.3,8.2 C19.9,5.2 15.3,3.6 10.7,4 C10.1,4 9.7,4.5 9.8,5.1 C9.8,5.7 10.2,6.1 10.8,6 Z M11.3,19.3 C11.2,19.4 11.1,19.5 11.1,19.6 C11.1,19.7 11,19.8 11,20 C11,20.3 11.1,20.5 11.3,20.7 C11.4,20.8 11.5,20.9 11.6,20.9 C11.7,20.9 11.8,21 12,21 C12.3,21 12.5,20.9 12.7,20.7 C12.9,20.5 13,20.3 13,20 C13,19.7 12.9,19.5 12.7,19.3 C12.3,18.9 11.7,18.9 11.3,19.3 Z" id="path-1"></path>
    </defs>
    <g id="Icon/wifi-off" stroke="none" stroke-width="1" fill="none" fill-rule="evenodd">
        <mask id="mask-2" fill="white">
            <use xlink:href="#path-1"></use>
        </mask>
        <use id="Mask" fill="#000000" fill-rule="nonzero" xlink:href="#path-1"></use>
        <g id="Icon-Color" mask="url(#mask-2)" fill="#22212D">
            <rect id="Shape" x="0" y="0" width="24" height="24"></rect>
        </g>
    </g>
</svg>