<?xml version="1.0" encoding="UTF-8"?>
<svg width="24px" height="24px" viewBox="0 0 24 24" version="1.1" xmlns="http://www.w3.org/2000/svg" xmlns:xlink="http://www.w3.org/1999/xlink">
    <title>Icon/wifi</title>
    <defs>
        <path d="M19.9848421,11.2588235 C20.3978664,11.6823529 20.5011225,12.3176471 20.0880982,12.7411765 C19.6750739,13.1647059 19.0555374,13.2705882 18.6425131,12.8470588 C14.8220382,9.56470588 9.24620992,9.56470588 5.425735,12.8470588 C5.21922284,13.0588235 5.01271068,13.0588235 4.80619853,13.0588235 C4.49643029,13.0588235 4.18666205,12.9529412 3.98014989,12.6352941 C3.56712558,12.2117647 3.67038166,11.4705882 4.08340597,11.1529412 C8.72992952,7.34117647 15.4415747,7.34117647 19.9848421,11.2588235 Z M23.5988049,7.44705882 C16.9904158,1.51764706 6.97457618,1.51764706 0.366187133,7.44705882 C-0.0468371827,7.87058824 -0.150093262,8.50588235 0.262931054,8.92941176 C0.572699291,9.24705882 0.779211449,9.35294118 1.08897969,9.35294118 C1.29549184,9.35294118 1.60526008,9.24705882 1.81177224,9.14117647 C7.69736874,3.84705882 16.4741354,3.84705882 22.2564759,9.14117647 C22.6695002,9.56470588 23.2890366,9.45882353 23.702061,9.03529412 C24.1150853,8.50588235 24.1150853,7.87058824 23.5988049,7.44705882 Z M7.90388089,14.9647059 C7.3876005,15.2823529 7.28434442,15.9176471 7.69736874,16.4470588 C8.00713697,16.9764706 8.62667345,17.0823529 9.14295384,16.6588235 C10.8983072,15.3882353 13.3764531,15.3882353 15.1318064,16.6588235 C15.3383186,16.7647059 15.5448307,16.8705882 15.7513429,16.8705882 C16.0611111,16.8705882 16.3708794,16.7647059 16.5773915,16.4470588 C16.8871598,15.9176471 16.7839037,15.2823529 16.3708794,14.9647059 C13.6862213,13.1647059 10.3820268,13.1647059 7.90388089,14.9647059 Z M11.3113315,19.2 C11.2080754,19.3058824 11.1048193,19.4117647 11.1048193,19.5176471 C11.1048193,19.6235294 11.0015633,19.7294118 11.0015633,19.9411765 C11.0015633,20.2588235 11.1048193,20.4705882 11.3113315,20.6823529 C11.4145876,20.7882353 11.5178437,20.8941176 11.6210997,20.8941176 C11.7243558,20.8941176 11.8276119,21 12.034124,21 C12.3438923,21 12.5504044,20.8941176 12.7569166,20.6823529 C12.9634288,20.4705882 13.0666848,20.2588235 13.0666848,19.9411765 C13.0666848,19.6235294 12.9634288,19.4117647 12.7569166,19.2 C12.3438923,18.7764706 11.7243558,18.7764706 11.3113315,19.2 Z" id="path-1"></path>
    </defs>
    <g id="Icon/wifi" stroke="none" stroke-width="1" fill="none" fill-rule="evenodd">
        <mask id="mask-2" fill="white">
            <use xlink:href="#path-1"></use>
        </mask>
        <use id="Mask" fill="#000000" fill-rule="nonzero" xlink:href="#path-1"></use>
        <g id="Icon-Color" mask="url(#mask-2)" fill="#22212D">
            <rect id="Shape" x="0" y="0" width="24" height="24"></rect>
        </g>
    </g>
</svg>