<?xml version="1.0" encoding="UTF-8"?>
<svg width="24px" height="24px" viewBox="0 0 24 24" version="1.1" xmlns="http://www.w3.org/2000/svg" xmlns:xlink="http://www.w3.org/1999/xlink">
    <title>Icon/wind</title>
    <defs>
        <path d="M1,8 C1,7.4 1.40045506,7 2.00113766,7 L11.0113766,7 C11.2116041,7 11.5119454,6.9 11.7121729,6.7 C12.112628,6.3 12.112628,5.7 11.7121729,5.3 C11.5119454,5.1 11.3117179,5 11.0113766,5 C10.811149,5 10.5108077,5.1 10.3105802,5.3 C9.91012514,5.7 9.30944255,5.7 8.90898749,5.3 C8.50853242,4.9 8.50853242,4.3 8.90898749,3.9 C9.40955631,3.3 10.2104664,3 11.0113766,3 C11.0113766,3 11.0113766,3 11.0113766,3 C11.8122867,3 12.513083,3.3 13.1137656,3.9 C14.3151308,5.1 14.3151308,7 13.1137656,8.1 C12.6131968,8.7 11.8122867,9 11.0113766,9 C11.0113766,9 11.0113766,9 11.0113766,9 L2.00113766,9 C1.40045506,9 1,8.6 1,8 Z M14.0147895,15 C14.0147895,15 14.0147895,15 14.0147895,15 L2.00113766,15 C1.40045506,15 1,15.4 1,16 C1,16.6 1.40045506,17 2.00113766,17 L14.0147895,17 C14.0147895,17 14.0147895,17 14.0147895,17 C14.3151308,17 14.5153584,17.1 14.7155859,17.3 C14.9158134,17.5 15.0159272,17.7 15.0159272,18 C15.0159272,18.3 14.9158134,18.5 14.7155859,18.7 C14.5153584,18.9 14.3151308,19 14.0147895,19 C13.814562,19 13.5142207,18.9 13.3139932,18.7 C12.9135381,18.3 12.3128555,18.3 11.9124005,18.7 C11.5119454,19.1 11.5119454,19.7 11.9124005,20.1 C12.513083,20.7 13.2138794,21 14.0147895,21 C14.0147895,21 14.0147895,21 14.0147895,21 C14.8156997,21 15.516496,20.7 16.1171786,20.1 C16.7178612,19.5 17.0182025,18.8 17.0182025,18 C17.0182025,17.2 16.7178612,16.4 16.1171786,15.9 C15.6166098,15.3 14.8156997,15 14.0147895,15 Z M22.0238908,7 C20.6222981,5.6 18.4197952,5.6 17.1183163,7 C16.7178612,7.4 16.7178612,8 17.1183163,8.4 C17.5187713,8.8 18.1194539,8.8 18.519909,8.4 C19.1205916,7.8 20.0216155,7.8 20.6222981,8.4 C21.2229807,9 21.2229807,9.9 20.6222981,10.5 C20.3219568,10.8 19.9215017,10.9 19.5210466,10.9 L2.00113766,10.9 C1.40045506,10.9 1,11.3 1,11.9 C1,12.5 1.40045506,12.9 2.00113766,12.9 L19.5210466,12.9 C20.4220705,12.9 21.3230944,12.5 22.0238908,11.9 C23.3253697,10.6 23.3253697,8.4 22.0238908,7 Z" id="path-1"></path>
    </defs>
    <g id="Icon/wind" stroke="none" stroke-width="1" fill="none" fill-rule="evenodd">
        <mask id="mask-2" fill="white">
            <use xlink:href="#path-1"></use>
        </mask>
        <use id="Mask" fill="#000000" fill-rule="nonzero" xlink:href="#path-1"></use>
        <g id="Icon-Color" mask="url(#mask-2)" fill="#22212D">
            <rect id="Shape" x="0" y="0" width="24" height="24"></rect>
        </g>
    </g>
</svg>