<?xml version="1.0" encoding="UTF-8"?>
<svg width="24px" height="24px" viewBox="0 0 24 24" version="1.1" xmlns="http://www.w3.org/2000/svg" xmlns:xlink="http://www.w3.org/1999/xlink">
    <title>Icon/x-circle</title>
    <defs>
        <path d="M12,1 C5.9,1 1,5.9 1,12 C1,18.1 5.9,23 12,23 C18.1,23 23,18.1 23,12 C23,5.9 18.1,1 12,1 Z M12,21 C7,21 3,17 3,12 C3,7 7,3 12,3 C17,3 21,7 21,12 C21,17 17,21 12,21 Z M15.7,9.7 L13.4,12 L15.7,14.3 C16.1,14.7 16.1,15.3 15.7,15.7 C15.5,15.9 15.3,16 15,16 C14.7,16 14.5,15.9 14.3,15.7 L12,13.4 L9.7,15.7 C9.5,15.9 9.3,16 9,16 C8.7,16 8.5,15.9 8.3,15.7 C7.9,15.3 7.9,14.7 8.3,14.3 L10.6,12 L8.3,9.7 C7.9,9.3 7.9,8.7 8.3,8.3 C8.7,7.9 9.3,7.9 9.7,8.3 L12,10.6 L14.3,8.3 C14.7,7.9 15.3,7.9 15.7,8.3 C16.1,8.7 16.1,9.3 15.7,9.7 Z" id="path-1"></path>
    </defs>
    <g id="Icon/x-circle" stroke="none" stroke-width="1" fill="none" fill-rule="evenodd">
        <mask id="mask-2" fill="white">
            <use xlink:href="#path-1"></use>
        </mask>
        <use id="Mask" fill="#000000" fill-rule="nonzero" xlink:href="#path-1"></use>
        <g id="Icon-Color" mask="url(#mask-2)" fill="#22212D">
            <rect id="Shape" x="0" y="0" width="24" height="24"></rect>
        </g>
    </g>
</svg>