<?xml version="1.0" encoding="UTF-8"?>
<svg width="24px" height="24px" viewBox="0 0 24 24" version="1.1" xmlns="http://www.w3.org/2000/svg" xmlns:xlink="http://www.w3.org/1999/xlink">
    <title>Icon/x-square</title>
    <defs>
        <path d="M19,2 L5,2 C3.3,2 2,3.3 2,5 L2,19 C2,20.7 3.3,22 5,22 L19,22 C20.7,22 22,20.7 22,19 L22,5 C22,3.3 20.7,2 19,2 Z M20,19 C20,19.6 19.6,20 19,20 L5,20 C4.4,20 4,19.6 4,19 L4,5 C4,4.4 4.4,4 5,4 L19,4 C19.6,4 20,4.4 20,5 L20,19 Z M15.7,9.7 L13.4,12 L15.7,14.3 C16.1,14.7 16.1,15.3 15.7,15.7 C15.5,15.9 15.3,16 15,16 C14.7,16 14.5,15.9 14.3,15.7 L12,13.4 L9.7,15.7 C9.5,15.9 9.3,16 9,16 C8.7,16 8.5,15.9 8.3,15.7 C7.9,15.3 7.9,14.7 8.3,14.3 L10.6,12 L8.3,9.7 C7.9,9.3 7.9,8.7 8.3,8.3 C8.7,7.9 9.3,7.9 9.7,8.3 L12,10.6 L14.3,8.3 C14.7,7.9 15.3,7.9 15.7,8.3 C16.1,8.7 16.1,9.3 15.7,9.7 Z" id="path-1"></path>
    </defs>
    <g id="Icon/x-square" stroke="none" stroke-width="1" fill="none" fill-rule="evenodd">
        <mask id="mask-2" fill="white">
            <use xlink:href="#path-1"></use>
        </mask>
        <use id="Mask" fill="#000000" fill-rule="nonzero" xlink:href="#path-1"></use>
        <g id="Icon-Color" mask="url(#mask-2)" fill="#22212D">
            <rect id="Shape" x="0" y="0" width="24" height="24"></rect>
        </g>
    </g>
</svg>