<?xml version="1.0" encoding="UTF-8"?>
<svg width="24px" height="24px" viewBox="0 0 24 24" version="1.1" xmlns="http://www.w3.org/2000/svg" xmlns:xlink="http://www.w3.org/1999/xlink">
    <title>Icon/x</title>
    <defs>
        <path d="M18.7,17.3 C19.1,17.7 19.1,18.3 18.7,18.7 C18.5,18.9 18.3,19 18,19 C17.7,19 17.5,18.9 17.3,18.7 L12,13.4 L6.7,18.7 C6.5,18.9 6.3,19 6,19 C5.7,19 5.5,18.9 5.3,18.7 C4.9,18.3 4.9,17.7 5.3,17.3 L10.6,12 L5.3,6.7 C4.9,6.3 4.9,5.7 5.3,5.3 C5.7,4.9 6.3,4.9 6.7,5.3 L12,10.6 L17.3,5.3 C17.7,4.9 18.3,4.9 18.7,5.3 C19.1,5.7 19.1,6.3 18.7,6.7 L13.4,12 L18.7,17.3 Z" id="path-1"></path>
    </defs>
    <g id="Icon/x" stroke="none" stroke-width="1" fill="none" fill-rule="evenodd">
        <mask id="mask-2" fill="white">
            <use xlink:href="#path-1"></use>
        </mask>
        <use id="Mask" fill="#000000" fill-rule="nonzero" xlink:href="#path-1"></use>
        <g id="Icon-Color" mask="url(#mask-2)" fill="#22212D">
            <rect id="Shape" x="0" y="0" width="24" height="24"></rect>
        </g>
    </g>
</svg>