<?xml version="1.0" encoding="UTF-8"?>
<svg width="24px" height="24px" viewBox="0 0 24 24" version="1.1" xmlns="http://www.w3.org/2000/svg" xmlns:xlink="http://www.w3.org/1999/xlink">
    <title>Icon/zap-off</title>
    <defs>
        <path d="M9.9,5.7 C9.5,5.3 9.4,4.7 9.8,4.3 L12.2,1.4 C12.5,1 13,0.9 13.4,1.1 C13.8,1.3 14,1.7 14,2.1 L13.4,6.9 C13.3,7.4 12.9,7.8 12.4,7.8 C12.4,7.8 12.3,7.8 12.3,7.8 C11.8,7.7 11.4,7.2 11.4,6.7 L11.6,5.3 L11.4,5.6 C11,6 10.4,6 9.9,5.7 Z M15.7,11 L18.9,11 L17.8,12.3 C17.4,12.7 17.5,13.4 17.9,13.7 C18.1,13.9 18.3,13.9 18.5,13.9 C18.8,13.9 19.1,13.8 19.3,13.5 L21.7,10.6 C21.9,10.3 22,9.9 21.8,9.5 C21.7,9.2 21.4,9 21,9 L15.7,9 C15.1,9 14.7,9.4 14.7,10 C14.7,10.6 15.1,11 15.7,11 Z M23.7,23.7 C23.5,23.9 23.3,24 23,24 C22.7,24 22.5,23.9 22.3,23.7 L16.1,17.5 L11.8,22.7 C11.6,22.9 11.3,23 11,23 C10.9,23 10.7,23 10.6,22.9 C10.2,22.7 10,22.3 10,21.9 L10.9,15 L3,15 C2.6,15 2.3,14.8 2.1,14.4 C1.9,14 2,13.6 2.2,13.3 L6.6,8 L0.3,1.7 C-0.1,1.3 -0.1,0.7 0.3,0.3 C0.7,-0.1 1.3,-0.1 1.7,0.3 L23.7,22.3 C24.1,22.7 24.1,23.3 23.7,23.7 Z M11.6,13 L8.1,9.5 L5.1,13 L11.6,13 Z M14.6,16.1 L13,14.4 L12.5,18.8 L14.6,16.1 Z" id="path-1"></path>
    </defs>
    <g id="Icon/zap-off" stroke="none" stroke-width="1" fill="none" fill-rule="evenodd">
        <mask id="mask-2" fill="white">
            <use xlink:href="#path-1"></use>
        </mask>
        <use id="Shape" fill="#000000" fill-rule="nonzero" xlink:href="#path-1"></use>
        <g id="Icon-Color" mask="url(#mask-2)" fill="#22212D">
            <rect id="Shape" x="0" y="0" width="24" height="24"></rect>
        </g>
    </g>
</svg>