<?xml version="1.0" encoding="UTF-8"?>
<svg width="24px" height="24px" viewBox="0 0 24 24" version="1.1" xmlns="http://www.w3.org/2000/svg" xmlns:xlink="http://www.w3.org/1999/xlink">
    <title>Icon/zap</title>
    <defs>
        <path d="M21.8910812,9.6 C21.6912614,9.2 21.3915317,9 20.991892,9 L13.099009,9 L13.9981982,2.1 C14.0981081,1.7 13.7983784,1.2 13.3987388,1.1 C12.9990991,0.9 12.4995496,1 12.1998198,1.4 L2.20882869,13.4 C2.00900887,13.7 1.90909896,14.1 2.10891878,14.5 C2.3087386,14.8 2.60846834,15 3.00810798,15 L10.900991,15 L10.0018018,21.9 C9.90189186,22.3 10.2016216,22.8 10.6012612,22.9 C10.7011712,23 10.900991,23 11.0009009,23 C11.3006306,23 11.6003604,22.9 11.8001802,22.6 L21.7911713,10.6 C21.9909911,10.3 22.090901,9.9 21.8910812,9.6 Z M12.3996396,18.7 L12.9990991,14.1 C12.9990991,13.8 12.8991892,13.5 12.7992793,13.3 C12.5994595,13.1 12.2997297,13 12,13 L5.10621612,13 L11.5004504,5.3 L11.0009009,9.9 C11.0009009,10.2 11.1008108,10.5 11.2007207,10.7 C11.4005405,10.9 11.7002703,11 11.9000901,11 L18.793874,11 L12.3996396,18.7 Z" id="path-1"></path>
    </defs>
    <g id="Icon/zap" stroke="none" stroke-width="1" fill="none" fill-rule="evenodd">
        <mask id="mask-2" fill="white">
            <use xlink:href="#path-1"></use>
        </mask>
        <use id="Mask" fill="#000000" fill-rule="nonzero" xlink:href="#path-1"></use>
        <g id="Icon-Color" mask="url(#mask-2)" fill="#22212D">
            <rect id="Shape" x="0" y="0" width="24" height="24"></rect>
        </g>
    </g>
</svg>