<?xml version="1.0" encoding="UTF-8"?>
<svg width="24px" height="24px" viewBox="0 0 24 24" version="1.1" xmlns="http://www.w3.org/2000/svg" xmlns:xlink="http://www.w3.org/1999/xlink">
    <title>Icon/zoom-in</title>
    <defs>
        <path d="M21.7,20.3 L18,16.6 C19.2,15.1 20,13.1 20,11 C20,6 16,2 11,2 C6,2 2,6 2,11 C2,16 6,20 11,20 C13.1,20 15.1,19.3 16.6,18 L20.3,21.7 C20.5,21.9 20.8,22 21,22 C21.2,22 21.5,21.9 21.7,21.7 C22.1,21.3 22.1,20.7 21.7,20.3 Z M4,11 C4,7.1 7.1,4 11,4 C14.9,4 18,7.1 18,11 C18,12.9 17.2,14.7 16,15.9 C16,15.9 16,15.9 16,15.9 C16,15.9 16,15.9 16,15.9 C14.7,17.2 13,17.9 11.1,17.9 C7.1,18 4,14.9 4,11 Z M15,11 C15,11.6 14.6,12 14,12 L12,12 L12,14 C12,14.6 11.6,15 11,15 C10.4,15 10,14.6 10,14 L10,12 L8,12 C7.4,12 7,11.6 7,11 C7,10.4 7.4,10 8,10 L10,10 L10,8 C10,7.4 10.4,7 11,7 C11.6,7 12,7.4 12,8 L12,10 L14,10 C14.6,10 15,10.4 15,11 Z" id="path-1"></path>
    </defs>
    <g id="Icon/zoom-in" stroke="none" stroke-width="1" fill="none" fill-rule="evenodd">
        <mask id="mask-2" fill="white">
            <use xlink:href="#path-1"></use>
        </mask>
        <use id="Mask" fill="#000000" fill-rule="nonzero" xlink:href="#path-1"></use>
        <g id="Icon-Color" mask="url(#mask-2)" fill="#22212D">
            <rect id="Shape" x="0" y="0" width="24" height="24"></rect>
        </g>
    </g>
</svg>